<?xml version="1.0" standalone="no"?>
<!DOCTYPE svg PUBLIC "-//W3C//DTD SVG 20010904//EN"
 "http://www.w3.org/TR/2001/REC-SVG-20010904/DTD/svg10.dtd">
<svg version="1.0" xmlns="http://www.w3.org/2000/svg"
 width="600.000000pt" height="185.000000pt" viewBox="0 0 600.000000 185.000000"
 preserveAspectRatio="xMidYMid meet">
<metadata>
Created by potrace 1.15, written by Peter Selinger 2001-2017
</metadata>
<g transform="translate(0.000000,185.000000) scale(0.100000,-0.100000)"
fill="#000000" stroke="none">
<path d="M2800 1821 c-334 -75 -589 -324 -672 -658 -30 -120 -29 -312 1 -428
46 -178 162 -358 301 -472 87 -71 243 -148 352 -173 108 -26 290 -28 399 -5
339 69 597 320 685 665 27 108 25 314 -5 425 -70 259 -238 463 -476 576 -137
64 -204 80 -365 85 -107 3 -153 0 -220 -15z m414 -56 c519 -150 769 -712 529
-1190 -196 -390 -664 -568 -1061 -403 -237 98 -412 291 -492 543 -34 107 -39
310 -11 428 112 467 585 752 1035 622z"/>
<path d="M2855 1705 c-308 -58 -544 -286 -610 -589 -27 -122 -18 -294 22 -409
43 -124 85 -189 188 -292 99 -100 189 -154 325 -197 64 -19 96 -23 215 -23
161 0 232 17 370 88 98 51 241 188 298 287 96 167 126 395 76 582 -102 382
-493 627 -884 553z m309 -55 c251 -64 444 -250 523 -506 14 -45 18 -90 17
-194 0 -118 -4 -145 -27 -215 -38 -115 -91 -199 -184 -292 -66 -66 -99 -90
-175 -127 -124 -61 -200 -80 -323 -80 -123 0 -199 19 -320 78 -345 170 -491
591 -326 941 100 212 282 356 516 408 58 13 226 6 299 -13z"/>
<path d="M755 1800 c-315 -50 -577 -258 -694 -550 -86 -216 -81 -481 14 -693
83 -189 228 -338 419 -432 171 -85 195 -88 652 -93 357 -3 405 -2 433 13 40
20 68 65 76 124 6 41 11 48 48 66 76 37 73 12 81 670 l8 585 -22 44 c-15 32
-32 50 -60 63 -34 16 -39 23 -44 63 -3 25 -15 59 -26 77 -38 63 -42 63 -453
68 -207 2 -399 0 -432 -5z m298 -40 l117 0 0 -70 0 -69 -200 -3 -200 -3 -9 30
c-5 17 -12 47 -16 67 -5 33 -3 38 17 43 32 7 129 12 153 8 11 -1 73 -3 138 -3z
m502 -12 c32 -14 55 -56 55 -98 l0 -30 -195 0 -195 0 0 70 0 70 155 0 c98 0
164 -4 180 -12z m-854 -77 l15 -69 -55 -17 c-64 -19 -149 -64 -204 -108 -43
-34 -40 -35 -82 45 l-25 48 47 34 c67 49 132 83 210 111 38 13 71 24 74 25 3
0 12 -31 20 -69z m985 -115 c50 -33 50 -38 44 -658 l-5 -578 -31 -30 -31 -31
-389 0 -389 1 -84 41 c-139 68 -265 205 -328 354 -36 85 -56 209 -50 305 18
267 179 492 432 603 36 16 73 17 422 14 340 -4 385 -6 409 -21z m-1341 -91
l35 -57 -41 -46 c-22 -25 -58 -83 -81 -129 -23 -46 -44 -83 -48 -83 -10 0 -99
60 -106 71 -7 12 65 147 108 203 41 53 91 107 95 102 2 -2 19 -29 38 -61z
m109 -121 l28 -25 -35 -72 c-20 -40 -41 -91 -47 -115 -10 -39 -13 -42 -38 -36
-60 13 -92 26 -92 37 0 40 124 238 148 237 4 0 20 -12 36 -26z m-349 -184 c3
-5 27 -21 54 -36 l49 -26 -10 -37 c-13 -45 -16 -189 -5 -257 l7 -51 -55 -34
c-31 -19 -59 -33 -63 -31 -27 10 -49 226 -33 332 18 126 36 172 56 140z m225
-102 l45 -10 0 -123 0 -123 -60 -15 c-43 -11 -62 -12 -67 -4 -11 18 -21 152
-14 198 15 94 17 101 34 94 10 -4 37 -11 62 -17z m124 -483 c25 -45 25 -49 9
-62 -49 -38 -55 -38 -90 3 -33 38 -119 201 -111 209 2 3 31 11 63 18 l60 13
21 -67 c12 -37 33 -88 48 -114z m-191 19 c14 -28 44 -74 68 -104 34 -43 40
-56 30 -69 -6 -9 -21 -35 -33 -59 -12 -23 -27 -41 -33 -39 -35 12 -195 256
-195 299 0 7 26 30 57 51 l58 37 11 -33 c6 -18 23 -55 37 -83z m287 -292 c30
-16 78 -37 106 -46 l52 -17 -14 -46 c-8 -25 -14 -56 -14 -69 0 -21 -2 -22 -37
-12 -83 23 -160 64 -296 159 -9 7 12 55 45 102 l19 27 42 -34 c23 -18 67 -47
97 -64z m426 -82 l184 0 0 -75 0 -75 -132 1 c-137 0 -284 12 -295 23 -6 6 14
112 24 129 3 5 12 6 20 3 8 -3 98 -6 199 -6z m624 -46 c0 -28 -8 -44 -34 -70
l-34 -34 -161 0 -161 0 0 70 0 70 195 0 195 0 0 -36z"/>
<path d="M4411 1763 c-44 -22 -71 -68 -71 -119 0 -40 -2 -43 -47 -65 -84 -42
-80 -13 -87 -679 l-6 -586 22 -44 c15 -29 36 -50 60 -62 33 -17 37 -24 43 -71
6 -41 15 -59 44 -88 49 -50 69 -51 516 -47 402 5 416 6 572 70 196 81 373 258
460 458 57 133 68 189 68 360 0 132 -3 167 -23 235 -78 269 -281 495 -531 589
-148 57 -167 59 -591 63 -358 3 -398 2 -429 -14z m369 -98 l0 -75 -52 0 c-29
0 -117 3 -195 7 l-143 6 0 32 c0 36 31 82 64 95 11 5 90 9 174 9 l152 1 0 -75z
m428 59 c60 -6 61 -10 36 -93 -13 -47 -18 -52 -37 -47 -12 3 -102 6 -199 6
l-178 0 0 74 0 75 163 -5 c89 -3 186 -7 215 -10z m207 -57 c70 -28 144 -72
208 -121 22 -17 17 -42 -20 -98 l-25 -37 -46 35 c-53 41 -150 92 -207 109 -22
7 -39 15 -38 19 1 3 8 33 15 66 6 33 17 60 23 60 5 0 46 -15 90 -33z m-239
-156 c103 -52 185 -119 251 -206 266 -349 140 -851 -261 -1041 l-73 -35 -387
3 -388 3 -29 33 -30 33 3 595 3 596 33 29 32 29 384 0 384 0 78 -39z m552 -65
c63 -72 152 -223 152 -259 0 -14 -97 -84 -104 -76 -2 2 -16 33 -32 69 -16 36
-50 93 -77 128 l-47 63 32 54 c18 30 36 55 39 55 4 0 20 -15 37 -34z m-99
-175 c42 -60 91 -156 91 -178 0 -7 -19 -17 -42 -23 -24 -6 -50 -13 -59 -16
-11 -3 -19 9 -28 47 -8 28 -28 80 -46 116 l-32 64 31 24 c17 14 34 25 37 25 3
0 25 -27 48 -59z m304 -386 c-1 -132 -16 -235 -35 -235 -5 0 -31 12 -58 28
l-50 27 7 60 c10 77 10 176 0 241 l-7 51 57 34 58 34 14 -50 c9 -32 14 -101
14 -190z m-185 -32 c-3 -62 -6 -114 -9 -117 -2 -2 -31 3 -64 11 l-60 15 0 123
0 123 60 14 60 14 8 -36 c5 -19 7 -86 5 -147z m-37 -170 c18 -18 -112 -244
-139 -243 -4 0 -20 12 -36 26 l-28 25 30 57 c16 31 38 82 47 113 l18 56 50
-13 c27 -7 54 -17 58 -21z m145 -78 l27 -21 -22 -48 c-44 -100 -176 -270 -187
-241 -2 6 -17 30 -34 54 -17 26 -26 49 -21 55 61 78 90 123 119 183 l34 73 29
-17 c16 -10 41 -27 55 -38z m-262 -284 c44 -69 43 -83 -6 -118 -54 -38 -157
-90 -227 -114 -66 -23 -61 -23 -61 -1 0 10 -6 41 -13 69 l-14 51 33 7 c46 8
182 78 224 114 19 17 36 30 37 31 2 0 14 -18 27 -39z m-824 -201 l0 -70 -161
0 c-91 0 -169 4 -180 10 -25 14 -49 62 -49 100 l0 30 195 0 195 0 0 -70z m468
6 c10 -47 10 -61 1 -67 -20 -12 -164 -21 -294 -17 l-120 3 -3 73 -3 72 203 -2
203 -3 13 -59z"/>
</g>
</svg>
