<?xml version="1.0" standalone="no"?>
<!DOCTYPE svg PUBLIC "-//W3C//DTD SVG 20010904//EN"
 "http://www.w3.org/TR/2001/REC-SVG-20010904/DTD/svg10.dtd">
<svg version="1.0" xmlns="http://www.w3.org/2000/svg"
 width="247.000000pt" height="242.000000pt" viewBox="0 0 247.000000 242.000000"
 preserveAspectRatio="xMidYMid meet">
<metadata>
Created by potrace 1.15, written by Peter Selinger 2001-2017
</metadata>
<g transform="translate(0.000000,242.000000) scale(0.100000,-0.100000)"
fill="#000000" stroke="none">
<path d="M445 2403 c-11 -3 -58 -23 -105 -45 -103 -50 -176 -120 -238 -230
-63 -112 -72 -230 -18 -244 29 -7 66 11 66 31 0 16 12 18 47 9 17 -5 26 -26
53 -121 24 -90 47 -144 100 -239 l69 -122 -16 -84 c-18 -98 -13 -280 12 -370
l15 -57 -64 -98 c-48 -72 -76 -130 -107 -216 -41 -116 -41 -117 -73 -117 -23
0 -34 6 -41 22 -7 16 -20 24 -43 26 -27 3 -34 -1 -43 -25 -19 -49 -6 -133 34
-217 51 -107 90 -158 157 -205 99 -70 176 -101 248 -101 58 0 63 2 73 26 7 20
6 32 -6 50 -8 13 -20 24 -25 24 -12 0 -13 40 -2 56 4 5 59 25 122 43 86 24
147 50 238 100 l122 68 67 -15 c84 -17 313 -11 390 11 l51 15 74 -50 c96 -65
143 -88 261 -129 94 -32 97 -34 97 -64 0 -22 -6 -33 -22 -40 -27 -12 -36 -58
-17 -82 10 -12 30 -14 89 -11 65 3 87 9 164 47 118 59 180 121 240 241 39 77
46 101 46 149 0 31 -5 62 -12 69 -19 19 -66 14 -80 -8 -8 -13 -24 -20 -43 -20
-30 0 -30 1 -62 119 -26 93 -48 145 -102 242 l-69 124 15 75 c18 92 12 299
-11 380 l-16 55 64 95 c44 67 76 130 104 209 23 63 43 115 44 116 2 2 17 6 35
9 28 6 32 4 35 -16 2 -18 10 -24 36 -26 54 -5 65 11 60 94 -3 61 -10 85 -51
165 -52 105 -62 118 -127 171 -82 66 -171 108 -244 115 -77 7 -96 -3 -96 -53
0 -24 5 -34 20 -39 14 -4 20 -15 20 -36 0 -35 -5 -38 -140 -75 -65 -18 -135
-48 -220 -95 l-125 -68 -90 16 c-105 18 -266 13 -358 -12 -65 -18 -59 -20
-182 61 -51 34 -118 66 -185 90 -58 20 -111 43 -117 52 -21 26 -16 60 10 64
19 3 22 9 22 43 0 33 -4 40 -25 46 -29 8 -96 9 -125 2z m209 -243 c98 -36 266
-130 266 -149 0 -4 -26 -19 -57 -35 -131 -64 -253 -174 -337 -304 -25 -39 -46
-73 -46 -75 0 -2 -9 -26 -21 -52 l-21 -47 -59 105 c-53 96 -119 280 -119 331
0 26 48 95 104 152 48 47 148 114 171 114 6 0 59 -18 119 -40z m1413 -3 c71
-53 122 -111 159 -182 l28 -52 -41 -115 c-27 -78 -58 -141 -96 -197 l-55 -83
-20 45 c-50 112 -161 248 -268 328 -53 39 -183 109 -203 109 -29 0 -2 22 94
74 96 53 262 112 321 115 12 1 48 -19 81 -42z m-662 -142 c226 -47 416 -174
540 -361 275 -414 115 -978 -338 -1195 -134 -64 -227 -82 -382 -76 -96 3 -148
11 -200 27 -531 169 -757 765 -467 1230 177 284 531 441 847 375z m815 -1419
c16 -57 30 -113 30 -123 0 -50 -115 -178 -212 -236 l-58 -35 -112 41 c-70 25
-146 61 -200 96 l-86 55 80 43 c167 89 291 217 371 382 l42 87 57 -102 c37
-66 68 -141 88 -208z m-1756 252 c11 -45 106 -185 168 -249 75 -76 162 -138
259 -183 l68 -32 -106 -58 c-74 -41 -140 -69 -218 -91 l-113 -32 -38 20 c-57
29 -175 153 -203 213 l-23 51 41 113 c37 104 131 270 151 270 4 0 10 -10 14
-22z"/>
<path d="M1061 1960 c-113 -27 -246 -98 -329 -175 -174 -161 -254 -343 -254
-580 0 -175 39 -309 132 -445 220 -323 659 -432 1011 -249 340 177 495 566
375 945 -78 245 -300 448 -558 509 -89 21 -283 18 -377 -5z m347 -31 c51 -10
54 -13 73 -57 39 -93 56 -115 209 -266 139 -138 161 -156 217 -176 61 -22 62
-23 74 -74 17 -66 17 -235 1 -307 l-13 -57 -62 -22 c-56 -20 -77 -38 -235
-194 -162 -160 -174 -175 -190 -228 -17 -56 -17 -57 -67 -70 -105 -27 -375 -8
-375 26 0 6 -15 43 -34 81 -28 59 -57 93 -188 222 -145 142 -158 153 -215 170
l-61 18 -14 60 c-16 74 -14 243 4 309 13 47 15 49 78 74 58 23 83 43 223 181
160 157 181 183 202 256 13 43 25 49 130 65 66 9 160 5 243 -11z m-427 -80
c-38 -87 -381 -402 -409 -375 -10 11 61 135 114 200 62 76 152 147 242 192 36
19 67 32 69 30 2 -2 -5 -23 -16 -47z m639 -3 c95 -56 178 -130 235 -210 41
-58 98 -166 91 -173 -23 -24 -380 315 -411 390 -20 49 -9 48 85 -7z m-832
-1079 c150 -149 182 -188 197 -236 7 -22 3 -21 -77 20 -134 70 -275 223 -333
362 l-15 37 37 -15 c24 -10 96 -74 191 -168z m1120 91 c-59 -116 -190 -247
-305 -306 -44 -23 -84 -42 -87 -42 -4 0 1 17 9 38 32 77 364 388 418 392 4 0
-11 -37 -35 -82z"/>
</g>
</svg>
