<?xml version="1.0" standalone="no"?>
<!DOCTYPE svg PUBLIC "-//W3C//DTD SVG 20010904//EN"
 "http://www.w3.org/TR/2001/REC-SVG-20010904/DTD/svg10.dtd">
<svg version="1.0" xmlns="http://www.w3.org/2000/svg"
 width="242.000000pt" height="243.000000pt" viewBox="0 0 242.000000 243.000000"
 preserveAspectRatio="xMidYMid meet">
<metadata>
Created by potrace 1.15, written by Peter Selinger 2001-2017
</metadata>
<g transform="translate(0.000000,243.000000) scale(0.100000,-0.100000)"
fill="#000000" stroke="none">
<path d="M202 2227 c-124 -124 -192 -199 -192 -213 0 -26 19 -44 47 -44 15 0
23 -6 23 -18 0 -10 84 -101 188 -205 139 -138 194 -187 212 -187 36 0 400 364
400 400 0 20 -41 67 -188 213 -104 103 -196 187 -205 187 -9 0 -17 6 -17 13 0
20 -33 47 -56 47 -12 0 -95 -75 -212 -193z m443 -107 l160 -160 -163 -163
-162 -162 -162 162 -163 163 160 160 c88 88 162 160 165 160 3 0 77 -72 165
-160z"/>
<path d="M1977 2402 c-10 -10 -17 -24 -17 -30 0 -7 -8 -12 -17 -12 -9 0 -101
-84 -205 -187 -147 -146 -188 -193 -188 -213 0 -36 364 -400 400 -400 18 0 73
49 212 187 103 103 188 195 188 204 0 12 9 19 26 21 33 4 49 27 41 59 -3 13
-89 106 -190 207 -192 191 -213 205 -250 164z m138 -282 l160 -160 -163 -163
-162 -162 -162 162 -163 163 160 160 c88 88 162 160 165 160 3 0 77 -72 165
-160z"/>
<path d="M702 1707 c-270 -270 -492 -499 -492 -507 0 -16 989 -1010 1005
-1010 6 0 237 227 515 505 l505 505 -500 500 c-328 328 -507 500 -520 500 -13
0 -190 -170 -513 -493z m1003 -27 l480 -480 -485 -485 -485 -485 -482 482
-483 483 482 482 c266 266 485 483 488 483 3 0 221 -216 485 -480z"/>
<path d="M270 675 c-101 -101 -188 -191 -192 -200 -5 -8 -15 -15 -22 -15 -16
0 -56 -42 -56 -60 0 -8 86 -101 192 -207 153 -153 198 -193 219 -193 26 0 59
27 59 48 0 6 8 13 18 16 9 3 102 91 206 195 162 162 188 192 183 212 -4 13
-89 106 -190 207 -139 138 -189 182 -208 182 -19 0 -69 -44 -209 -185z m372
-377 l-162 -163 -165 165 -165 165 162 162 163 163 165 -165 165 -165 -163
-162z"/>
<path d="M1738 672 c-113 -112 -188 -195 -188 -207 0 -20 361 -391 390 -400 8
-3 23 -18 32 -35 13 -22 24 -30 45 -30 23 0 61 33 216 188 146 146 187 193
187 213 0 26 -27 59 -48 59 -6 0 -13 8 -16 18 -3 10 -88 100 -189 200 -153
152 -188 182 -212 182 -25 0 -60 -30 -217 -188z m532 -221 c-5 -9 -76 -83
-159 -166 l-151 -150 -165 165 -165 165 162 162 163 163 162 -162 c126 -125
160 -165 153 -177z"/>
</g>
</svg>
