<?xml version="1.0" standalone="no"?>
<!DOCTYPE svg PUBLIC "-//W3C//DTD SVG 20010904//EN"
 "http://www.w3.org/TR/2001/REC-SVG-20010904/DTD/svg10.dtd">
<svg version="1.0" xmlns="http://www.w3.org/2000/svg"
 width="381.000000pt" height="244.000000pt" viewBox="0 0 381.000000 244.000000"
 preserveAspectRatio="xMidYMid meet">
<metadata>
Created by potrace 1.15, written by Peter Selinger 2001-2017
</metadata>
<g transform="translate(0.000000,244.000000) scale(0.100000,-0.100000)"
fill="#000000" stroke="none">
<path d="M1185 2424 c-176 -19 -250 -44 -261 -91 -4 -14 -4 -125 -1 -245 l6
-219 -42 -26 c-60 -38 -161 -138 -198 -195 l-32 -49 -71 6 c-39 4 -165 7 -279
8 -207 2 -209 2 -228 -21 -45 -56 -63 -207 -56 -457 6 -194 19 -282 52 -331
l17 -26 273 4 c197 2 276 7 287 16 13 10 20 6 42 -27 36 -51 140 -151 193
-184 l42 -26 -6 -219 c-3 -120 -3 -231 1 -245 8 -34 63 -63 147 -77 111 -18
318 -23 439 -11 134 14 184 26 222 53 l28 19 0 190 0 189 105 0 105 0 0 -188
c0 -212 -1 -208 78 -236 130 -46 554 -46 684 0 83 29 81 21 77 267 l-4 218 50
27 c105 58 212 150 265 229 14 21 19 22 85 13 39 -5 170 -9 292 -10 220 0 223
0 237 23 32 49 48 141 53 322 8 246 -12 412 -56 467 -19 23 -21 23 -228 21
-114 -1 -240 -4 -279 -8 l-71 -6 -24 38 c-53 87 -160 182 -274 245 l-50 27 4
218 c4 246 6 238 -77 267 -129 46 -555 46 -684 0 -79 -28 -78 -24 -78 -236 l0
-188 -105 0 -105 0 -2 192 -3 193 -40 22 c-22 12 -69 27 -105 33 -69 11 -358
21 -425 14z m418 -54 c27 -5 64 -17 83 -26 l34 -16 0 -179 c0 -157 -2 -179
-16 -179 -14 0 -15 12 -9 103 11 160 -14 214 -115 251 -145 52 -404 44 -512
-16 -75 -41 -84 -68 -80 -249 2 -90 -1 -159 -6 -163 -14 -8 -22 96 -22 274 l0
158 35 16 c33 16 101 31 180 40 65 7 376 -3 428 -14z m1067 -3 c106 -26 100
-12 100 -215 0 -181 -4 -222 -23 -222 -7 0 -8 42 -4 129 4 72 2 143 -3 163
-25 89 -148 138 -350 138 -148 0 -260 -28 -313 -78 -40 -38 -50 -88 -42 -209
7 -91 6 -103 -9 -103 -14 0 -16 21 -16 181 l0 180 43 19 c23 10 76 23 117 29
102 13 430 6 500 -12z m-1204 -58 c84 -15 142 -38 164 -67 29 -36 25 -42 -17
-21 -56 26 -181 49 -273 49 -92 0 -217 -23 -272 -49 -41 -20 -43 -19 -28 10
36 66 260 108 426 78z m1079 -3 c72 -15 118 -38 139 -68 24 -34 19 -39 -16
-18 -112 64 -444 64 -555 0 -36 -21 -41 -16 -17 18 36 51 137 80 289 81 55 0
127 -6 160 -13z m-1057 -92 c88 -18 128 -36 136 -61 2 -10 8 -55 11 -99 l7
-82 -229 -5 c-184 -4 -242 -8 -301 -24 l-73 -20 6 106 c4 58 11 116 17 128 29
60 261 91 426 57z m1100 -8 c81 -26 88 -37 96 -151 3 -54 5 -100 2 -102 -2 -2
-39 0 -81 6 -42 6 -176 11 -297 11 l-220 0 7 78 c3 42 8 87 11 99 5 27 43 48
121 68 77 19 288 14 361 -9z m107 -305 c210 -70 354 -191 445 -376 55 -111 74
-190 74 -310 0 -120 -19 -199 -74 -310 -92 -187 -240 -311 -450 -377 l-75 -23
-710 0 -710 0 -75 23 c-255 81 -423 249 -501 502 -29 95 -32 252 -6 350 24 89
86 213 141 282 103 128 276 229 444 258 26 4 358 7 737 6 l690 -1 70 -24z
m-2088 -337 c59 -15 -3 -21 -184 -17 -187 4 -200 3 -231 -16 -76 -48 -107
-162 -100 -369 4 -107 9 -150 26 -196 44 -122 70 -131 324 -122 122 5 188 4
188 -3 0 -17 -383 -36 -470 -23 -39 6 -47 12 -62 42 -25 52 -39 165 -39 335 0
171 13 278 41 343 l20 45 232 -7 c128 -4 243 -9 255 -12z m3103 -28 c28 -62
41 -170 41 -336 -1 -166 -15 -289 -39 -340 -15 -31 -22 -36 -67 -42 -96 -13
-465 6 -465 23 0 7 66 8 188 3 213 -8 248 -2 286 49 44 58 59 122 64 269 7
207 -24 321 -100 369 -31 19 -44 20 -231 16 -109 -2 -200 0 -203 5 -3 4 -4 9
-2 9 11 5 247 16 366 17 l143 2 19 -44z m-3480 -59 c-69 -116 -66 -465 5 -573
l16 -25 -28 14 c-62 33 -93 135 -93 310 0 159 33 265 91 294 13 7 25 13 26 13
1 0 -6 -15 -17 -33z m3397 -17 c36 -51 45 -95 50 -235 7 -184 -26 -303 -94
-334 l-22 -10 19 32 c68 119 66 465 -4 572 -16 24 -15 24 6 16 13 -4 33 -23
45 -41z m-3027 37 c0 -2 -8 -37 -19 -78 -44 -175 -33 -352 34 -512 7 -17 1
-18 -106 -12 -247 13 -245 12 -272 127 -34 143 -12 397 38 447 11 12 43 18
118 22 144 8 207 10 207 6z m2853 -7 c75 0 97 -22 120 -122 33 -140 14 -386
-35 -437 -19 -21 -53 -27 -237 -37 -108 -6 -113 -5 -107 13 55 141 73 269 57
396 -7 50 -20 115 -30 145 l-19 55 97 -7 c53 -3 122 -6 154 -6z m-2465 -1119
c-4 -181 5 -208 80 -249 108 -60 367 -68 512 -16 101 37 126 91 115 251 -6 91
-5 103 9 103 14 0 16 -22 16 -181 l0 -180 -36 -15 c-70 -29 -151 -38 -344 -38
-198 0 -282 10 -345 40 l-35 16 0 158 c0 178 8 282 22 274 5 -4 8 -73 6 -163z
m425 92 l229 -5 -7 -82 c-8 -105 -11 -114 -43 -130 -46 -23 -168 -46 -247 -46
-83 0 -213 23 -257 46 -32 17 -35 26 -43 160 l-6 101 73 -20 c59 -16 117 -20
301 -24z m1351 15 c3 -13 6 -103 6 -201 l0 -178 -42 -19 c-122 -53 -554 -53
-675 0 l-43 19 0 180 c0 152 2 181 15 181 12 0 14 -22 12 -129 -2 -117 0 -132
19 -158 50 -67 121 -92 292 -100 166 -9 307 22 360 79 35 38 42 80 35 219 -4
86 -3 129 4 129 6 0 13 -10 17 -22z m-79 -90 c-4 -51 -9 -101 -12 -111 -17
-63 -275 -98 -448 -60 -93 20 -125 46 -125 100 0 21 -3 62 -6 91 l-7 52 229 1
c126 0 252 4 279 9 105 16 97 23 90 -82z m-1503 -212 c140 -29 334 -13 431 33
42 21 46 15 17 -21 -49 -63 -253 -95 -419 -67 -75 13 -155 50 -171 78 -15 29
-13 30 28 10 20 -10 72 -25 114 -33z m1040 0 c145 -30 364 -13 446 34 35 21
40 16 16 -18 -35 -51 -145 -81 -294 -81 -149 0 -259 30 -294 81 -24 34 -19 39
17 18 17 -10 67 -26 109 -34z"/>
</g>
</svg>
