<?xml version="1.0" standalone="no"?>
<!DOCTYPE svg PUBLIC "-//W3C//DTD SVG 20010904//EN"
 "http://www.w3.org/TR/2001/REC-SVG-20010904/DTD/svg10.dtd">
<svg version="1.0" xmlns="http://www.w3.org/2000/svg"
 width="600.000000pt" height="230.000000pt" viewBox="0 0 600.000000 230.000000"
 preserveAspectRatio="xMidYMid meet">
<metadata>
Created by potrace 1.15, written by Peter Selinger 2001-2017
</metadata>
<g transform="translate(0.000000,230.000000) scale(0.100000,-0.100000)"
fill="#000000" stroke="none">
<path d="M1865 2278 c-3 -7 -4 -521 -3 -1143 l3 -1130 1140 0 1140 0 0 1140 0
1140 -1138 3 c-905 2 -1139 0 -1142 -10z m2255 -1133 l0 -1115 -1115 0 -1115
0 0 1115 0 1115 1115 0 1115 0 0 -1115z"/>
<path d="M7 1993 c-4 -3 -7 -42 -7 -86 0 -67 3 -80 18 -84 16 -4 17 -11 3
-126 -20 -171 -20 -933 0 -1104 14 -116 14 -122 -4 -127 -16 -4 -17 -14 -15
-88 l3 -83 864 -3 c619 -1 868 1 877 9 18 15 20 1665 2 1686 -8 11 -172 13
-873 13 -474 0 -865 -3 -868 -7z m1713 -83 l0 -50 -850 0 -850 0 0 50 0 50
850 0 850 0 0 -50z m-1544 -107 c-41 -145 -41 -1172 0 -1316 5 -16 0 -18 -53
-15 l-58 3 -13 110 c-6 61 -15 268 -18 461 -5 286 -3 388 11 555 9 112 19 207
22 212 2 4 29 7 59 7 48 0 55 -2 50 -17z m280 -15 c-42 -238 -42 -1048 0
-1285 l6 -33 -125 0 -124 0 -7 47 c-42 323 -42 933 0 1256 l7 47 124 0 125 0
-6 -32z m1246 15 c17 -15 18 -49 18 -658 0 -610 -1 -643 -18 -659 -17 -15 -71
-16 -613 -14 l-594 3 -14 120 c-19 168 -21 881 -2 1070 7 77 15 143 18 148 2
4 270 7 595 7 536 0 593 -2 610 -17z m18 -1423 l0 -50 -850 0 -850 0 0 50 0
50 850 0 850 0 0 -50z"/>
<path d="M4255 1988 c-3 -7 -4 -391 -2 -853 l2 -840 873 -3 872 -2 0 90 c0 66
-3 90 -13 90 -10 0 -10 23 0 118 16 158 16 956 0 1115 -10 94 -10 117 0 117
10 0 13 24 13 90 l0 90 -870 0 c-687 0 -872 -3 -875 -12z m1725 -78 l0 -50
-845 0 -845 0 0 50 0 50 845 0 845 0 0 -50z m-466 -122 c42 -241 42 -1045 0
-1285 l-6 -33 -591 0 c-535 0 -592 2 -609 17 -17 15 -18 49 -18 656 0 582 2
642 17 659 15 17 47 18 608 18 l593 0 6 -32z m280 15 c3 -10 11 -79 18 -153
25 -262 13 -1054 -18 -1162 -5 -16 -20 -18 -126 -18 l-120 0 6 38 c21 134 30
339 30 637 0 298 -9 503 -30 638 l-6 37 120 0 c106 0 121 -2 126 -17z m153
-103 c33 -312 33 -797 0 -1110 l-12 -115 -53 -3 c-48 -3 -53 -1 -48 15 41 142
41 1172 0 1316 -5 16 0 18 48 15 l53 -3 12 -115z m33 -1320 l0 -50 -845 0
-845 0 0 50 0 50 845 0 845 0 0 -50z"/>
</g>
</svg>
