<?xml version="1.0" standalone="no"?>
<!DOCTYPE svg PUBLIC "-//W3C//DTD SVG 20010904//EN"
 "http://www.w3.org/TR/2001/REC-SVG-20010904/DTD/svg10.dtd">
<svg version="1.0" xmlns="http://www.w3.org/2000/svg"
 width="235.000000pt" height="243.000000pt" viewBox="0 0 235.000000 243.000000"
 preserveAspectRatio="xMidYMid meet">
<metadata>
Created by potrace 1.15, written by Peter Selinger 2001-2017
</metadata>
<g transform="translate(0.000000,243.000000) scale(0.100000,-0.100000)"
fill="#000000" stroke="none">
<path d="M910 2154 l0 -274 268 2 267 3 0 270 0 270 -267 2 -268 2 0 -275z
m419 190 c21 -5 31 -12 31 -25 0 -18 -11 -19 -185 -19 -176 0 -185 1 -185 19
0 12 8 21 23 24 36 7 282 8 316 1z m-61 -80 l92 -7 0 -173 0 -174 -185 0 -185
0 0 175 0 174 63 4 c34 2 76 4 93 5 17 1 72 -1 122 -4z"/>
<path d="M241 2031 c-12 -12 -21 -27 -21 -35 0 -7 -21 -44 -46 -82 -26 -38
-67 -109 -91 -159 -25 -49 -54 -98 -65 -108 -12 -12 -18 -29 -16 -45 3 -22 34
-44 223 -154 121 -70 227 -128 236 -128 9 0 33 31 58 75 24 41 45 75 47 75 1
0 -7 -26 -18 -57 -31 -83 -31 -299 -1 -390 12 -35 19 -63 18 -63 -2 0 -22 34
-45 75 -26 48 -47 75 -58 75 -9 0 -116 -58 -237 -128 -190 -111 -220 -131
-223 -154 -2 -16 4 -33 16 -45 11 -10 40 -58 65 -108 24 -49 65 -121 91 -159
25 -38 46 -75 46 -82 0 -22 40 -56 57 -50 9 4 114 63 235 133 145 83 218 131
218 142 0 9 -6 25 -13 36 -7 11 -26 42 -41 69 l-28 48 60 -60 c73 -73 171
-132 272 -163 62 -20 97 -24 200 -24 111 0 134 3 207 28 99 34 181 86 258 163
l58 57 -29 -49 c-15 -27 -34 -58 -41 -69 -7 -11 -13 -27 -13 -36 0 -11 78 -61
230 -148 196 -113 232 -131 249 -121 12 6 24 22 27 36 4 14 27 55 51 92 25 37
66 108 90 157 25 50 54 98 65 108 12 12 18 29 16 45 -3 24 -31 43 -223 154
-121 70 -227 128 -236 128 -9 0 -33 -31 -58 -75 -24 -41 -45 -75 -47 -75 -1 0
6 26 17 58 30 84 36 237 14 338 -9 43 -21 87 -26 97 -6 9 -8 17 -5 17 3 0 24
-34 47 -75 25 -43 50 -75 58 -75 9 0 115 58 236 128 192 111 220 131 223 154
2 16 -4 33 -16 45 -11 10 -38 56 -61 101 -23 46 -62 116 -88 155 -26 40 -52
85 -58 101 -21 60 -26 59 -274 -84 -154 -88 -231 -138 -231 -149 0 -9 6 -25
13 -36 7 -11 26 -42 42 -70 l28 -50 -42 47 c-46 52 -152 126 -223 157 -145 62
-338 67 -488 12 -102 -38 -170 -81 -246 -158 l-57 -58 28 50 c16 28 35 59 42
70 7 11 13 27 13 36 0 11 -73 59 -218 142 -121 70 -226 129 -235 133 -9 3 -24
-3 -36 -15z m278 -222 c78 -44 139 -84 137 -87 -34 -63 -171 -299 -177 -306
-4 -4 -73 29 -152 74 l-146 83 41 81 c43 87 137 236 149 236 4 0 70 -36 148
-81z m1519 4 c27 -43 68 -114 90 -159 l41 -81 -145 -83 c-82 -47 -148 -79
-153 -74 -11 13 -170 289 -173 302 -3 11 255 169 279 171 6 1 33 -34 61 -76z
m-708 -4 c113 -31 185 -74 276 -164 133 -132 191 -281 181 -465 -9 -160 -69
-291 -187 -404 -116 -112 -235 -165 -390 -173 -116 -6 -202 12 -310 65 -104
51 -221 168 -272 272 -117 237 -80 499 97 689 161 172 389 240 605 180z m-785
-906 c37 -65 78 -137 92 -159 l23 -41 -141 -82 c-77 -44 -144 -81 -148 -81
-11 0 -106 149 -149 236 l-40 80 141 82 c78 45 145 82 148 82 4 0 37 -53 74
-117z m1482 35 l142 -81 -41 -81 c-47 -94 -136 -236 -148 -236 -18 0 -285 162
-282 171 5 19 175 309 181 309 3 0 70 -37 148 -82z"/>
<path d="M910 276 l0 -275 268 2 267 2 0 270 0 270 -267 3 -268 2 0 -274z
m450 70 l0 -173 -93 -7 c-51 -3 -134 -3 -185 0 l-92 7 0 173 0 174 185 0 185
0 0 -174z m0 -235 c0 -24 -41 -31 -185 -31 -144 0 -185 7 -185 31 0 18 11 19
185 19 174 0 185 -1 185 -19z"/>
</g>
</svg>
