<?xml version="1.0" standalone="no"?>
<!DOCTYPE svg PUBLIC "-//W3C//DTD SVG 20010904//EN"
 "http://www.w3.org/TR/2001/REC-SVG-20010904/DTD/svg10.dtd">
<svg version="1.0" xmlns="http://www.w3.org/2000/svg"
 width="484.000000pt" height="241.000000pt" viewBox="0 0 484.000000 241.000000"
 preserveAspectRatio="xMidYMid meet">
<metadata>
Created by potrace 1.15, written by Peter Selinger 2001-2017
</metadata>
<g transform="translate(0.000000,241.000000) scale(0.100000,-0.100000)"
fill="#000000" stroke="none">
<path d="M770 2380 c0 -17 10 -49 21 -72 21 -41 21 -42 5 -197 -9 -86 -19
-168 -22 -183 l-5 -27 -117 -3 -117 -3 -3 -181 -2 -182 -33 -5 c-17 -4 -100
-14 -183 -23 l-151 -16 -52 27 c-29 14 -62 25 -74 23 l-22 -3 0 -330 0 -330
22 -3 c12 -2 45 9 74 24 l53 26 155 -16 c86 -9 168 -19 183 -22 l28 -5 2 -182
3 -182 117 -3 117 -3 5 -27 c3 -15 13 -97 22 -183 16 -155 16 -156 -5 -197
-11 -23 -21 -55 -21 -72 l0 -30 330 0 c377 0 354 -7 305 91 l-26 50 21 180
c11 99 20 182 20 184 0 3 50 5 110 5 98 0 110 -2 110 -17 0 -10 9 -92 19 -183
l19 -164 -24 -48 c-13 -26 -24 -59 -24 -73 l0 -25 330 0 330 0 0 28 c-1 15
-11 46 -23 70 l-23 42 20 185 20 185 102 0 102 0 6 -28 c3 -15 13 -97 22 -183
16 -155 16 -156 -5 -197 -11 -23 -21 -55 -21 -72 l0 -30 330 0 c377 0 354 -7
304 92 l-26 51 16 146 c9 80 19 163 22 183 l6 38 143 0 c128 0 144 -2 149 -17
2 -10 12 -92 22 -183 l17 -165 -22 -42 c-11 -23 -21 -56 -21 -73 l0 -30 330 0
c377 0 354 -7 305 91 l-26 50 21 180 c11 99 20 181 20 184 0 2 55 6 123 7
l122 3 3 182 2 182 33 5 c17 3 97 13 176 22 l144 15 59 -26 c100 -45 93 -68
93 310 l0 330 -22 3 c-12 2 -45 -9 -73 -23 l-52 -27 -152 17 c-83 9 -163 18
-178 21 l-28 5 -2 182 -3 182 -122 3 c-68 1 -123 5 -123 7 0 3 -9 85 -20 184
l-21 180 26 50 c49 98 72 91 -305 91 l-330 0 0 -30 c0 -17 10 -49 21 -72 21
-41 21 -42 5 -197 -9 -86 -19 -168 -22 -183 l-6 -28 -143 0 -143 0 -6 38 c-3
20 -13 103 -22 183 l-16 146 26 51 c50 99 73 92 -304 92 l-330 0 0 -30 c0 -17
10 -49 21 -72 21 -41 21 -42 5 -197 -9 -86 -19 -168 -22 -183 l-6 -28 -102 0
-102 0 -20 185 -20 185 23 42 c12 24 22 55 23 71 l0 27 -330 0 -330 0 0 -25
c0 -14 11 -47 24 -73 l24 -48 -19 -164 c-10 -91 -19 -173 -19 -182 0 -16 -12
-18 -110 -18 -60 0 -110 2 -110 5 0 2 -9 85 -20 184 l-21 180 26 50 c49 98 72
91 -305 91 l-330 0 0 -30z m600 -35 c0 -2 -5 -16 -12 -30 l-11 -25 -248 0
-248 0 -16 30 -16 30 276 0 c151 0 275 -2 275 -5z m855 -25 l-16 -30 -248 0
-248 0 -11 25 c-7 14 -12 28 -12 30 0 3 124 5 275 5 l276 0 -16 -30z m850 0
l-16 -30 -244 0 -244 0 -16 30 -16 30 276 0 276 0 -16 -30z m955 25 c0 -2 -5
-16 -12 -30 l-11 -25 -248 0 -248 0 -16 30 -16 30 276 0 c151 0 275 -2 275 -5z
m-2686 -132 c3 -21 10 -83 16 -138 6 -55 13 -117 16 -137 l6 -38 -286 0 -285
0 4 28 c5 31 35 295 35 312 0 7 81 10 244 10 l244 0 6 -37z m879 -115 c9 -84
17 -163 17 -175 l0 -23 -280 0 c-217 0 -280 3 -280 13 0 22 32 312 36 325 2 9
61 12 247 12 l244 0 16 -152z m841 115 c3 -21 10 -83 16 -138 6 -55 13 -117
16 -137 l6 -38 -287 0 -286 0 5 33 c5 29 36 299 36 312 0 3 110 5 244 5 l244
0 6 -37z m940 5 c5 -30 36 -300 36 -313 0 -3 -128 -5 -285 -5 l-284 0 4 28 c5
31 35 295 35 312 0 7 81 10 245 10 l244 0 5 -32z m286 -1013 l0 -665 -1860 0
-1860 0 0 665 0 665 1860 0 1860 0 0 -665z m-3760 0 l0 -286 -32 5 c-30 5
-300 36 -313 36 -3 0 -5 110 -5 245 0 189 3 245 13 246 6 0 80 8 162 18 83 10
156 19 163 20 9 1 12 -62 12 -284z m4002 260 c75 -8 140 -15 143 -15 3 0 5
-110 5 -245 0 -135 -2 -245 -4 -245 -14 0 -287 -31 -313 -35 l-33 -6 0 286 0
286 33 -5 c17 -3 94 -13 169 -21z m-4392 -260 l0 -244 -30 -16 -30 -16 0 276
0 276 30 -16 30 -16 0 -244z m4630 0 l0 -276 -30 16 -30 16 0 244 0 244 28 15
c15 8 28 15 30 16 1 0 2 -124 2 -275z m-3394 -732 c-3 -21 -10 -83 -16 -138
-6 -55 -13 -117 -16 -137 l-6 -38 -244 0 c-163 0 -244 3 -244 10 0 17 -30 281
-35 313 l-4 27 285 0 286 0 -6 -37z m864 15 c0 -13 -8 -92 -17 -176 l-16 -152
-246 2 -246 3 -17 150 c-9 83 -17 160 -17 173 l-1 22 280 0 280 0 0 -22z m856
-15 c-3 -21 -10 -83 -16 -138 -6 -55 -13 -117 -16 -137 l-6 -38 -244 0 c-134
0 -244 2 -244 5 0 13 -31 283 -36 313 l-5 32 286 0 287 0 -6 -37z m940 0 c-3
-21 -10 -83 -16 -138 -6 -55 -13 -117 -16 -137 l-6 -38 -244 0 c-163 0 -244 3
-244 10 0 17 -30 281 -35 313 l-4 27 285 0 286 0 -6 -37z m-2678 -378 c7 -14
12 -28 12 -30 0 -3 -124 -5 -275 -5 l-276 0 16 30 16 30 248 0 248 0 11 -25z
m867 -5 l16 -30 -276 0 c-151 0 -275 2 -275 5 0 2 5 16 12 30 l11 25 248 0
248 0 16 -30z m853 5 c7 -14 12 -28 12 -30 0 -3 -124 -5 -275 -5 l-276 0 16
30 16 30 248 0 248 0 11 -25z m940 0 c7 -14 12 -28 12 -30 0 -3 -124 -5 -275
-5 l-276 0 16 30 16 30 248 0 248 0 11 -25z"/>
</g>
</svg>
