<?xml version="1.0" standalone="no"?>
<!DOCTYPE svg PUBLIC "-//W3C//DTD SVG 20010904//EN"
 "http://www.w3.org/TR/2001/REC-SVG-20010904/DTD/svg10.dtd">
<svg version="1.0" xmlns="http://www.w3.org/2000/svg"
 width="323.000000pt" height="250.000000pt" viewBox="0 0 323.000000 250.000000"
 preserveAspectRatio="xMidYMid meet">
<metadata>
Created by potrace 1.15, written by Peter Selinger 2001-2017
</metadata>
<g transform="translate(0.000000,250.000000) scale(0.100000,-0.100000)"
fill="#000000" stroke="black" stroke-width="2">
<path d="M1005 2448 c-3 -7 -4 -551 -3 -1208 l3 -1195 610 0 610 0 0 1205 0
1205 -608 3 c-481 2 -609 0 -612 -10z m1185 -603 l0 -585 -575 0 -575 0 0 585
0 585 575 0 575 0 0 -585z m0 -1190 l0 -585 -575 0 -575 0 0 585 0 585 575 0
575 0 0 -585z"/>
<path d="M17 2303 c-11 -10 -8 -88 3 -99 6 -6 7 -44 0 -109 -12 -128 -12 -362
0 -489 7 -68 7 -103 -1 -112 -5 -7 -9 -32 -7 -56 l3 -43 470 0 470 0 0 455 0
455 -466 3 c-256 1 -469 -1 -472 -5z m903 -48 l0 -25 -435 0 -435 0 0 25 0 25
435 0 435 0 0 -25z m-824 -144 c-9 -115 -9 -407 0 -522 6 -77 4 -89 -9 -89
-25 0 -32 73 -32 350 0 277 7 350 32 350 13 0 15 -12 9 -89z m149 -13 c-4 -57
-8 -168 -8 -248 0 -80 4 -191 8 -247 l7 -103 -55 0 -55 0 -8 98 c-11 125 -11
379 0 505 l8 97 55 0 55 0 -7 -102z m675 -248 l0 -350 -314 0 -314 0 -8 98
c-11 125 -11 379 0 505 l8 97 314 0 314 0 0 -350z m0 -405 l0 -25 -435 0 -435
0 0 25 0 25 435 0 435 0 0 -25z"/>
<path d="M2275 2298 c-3 -7 -4 -213 -3 -458 l3 -445 470 0 470 0 3 43 c2 24
-1 49 -7 56 -7 8 -7 46 -1 117 12 133 12 345 0 478 -6 71 -6 109 1 117 6 7 9
32 7 56 l-3 43 -468 3 c-369 2 -469 0 -472 -10z m905 -43 l0 -25 -435 0 -435
0 0 25 0 25 435 0 435 0 0 -25z m-234 -152 c5 -54 8 -168 8 -253 0 -85 -3
-199 -8 -252 l-8 -98 -314 0 -314 0 0 350 0 350 314 0 314 0 8 -97z m150 0 c5
-54 8 -168 8 -253 0 -85 -3 -199 -8 -252 l-8 -98 -55 0 -56 0 8 92 c9 116 9
401 -1 518 l-7 90 56 0 55 0 8 -97z m71 50 c4 -27 8 -163 8 -303 0 -277 -7
-350 -32 -350 -14 0 -15 11 -9 83 9 108 9 405 0 524 -6 81 -5 93 9 93 11 0 18
-14 24 -47z m13 -708 l0 -25 -435 0 -435 0 0 25 0 25 435 0 435 0 0 -25z"/>
<path d="M17 1103 c-11 -10 -8 -88 3 -99 6 -6 7 -44 0 -109 -12 -126 -12 -349
0 -484 6 -71 6 -109 -1 -117 -6 -7 -9 -32 -7 -56 l3 -43 470 0 470 0 0 455 0
455 -466 3 c-256 1 -469 -1 -472 -5z m903 -48 l0 -25 -435 0 -435 0 0 25 0 25
435 0 435 0 0 -25z m-824 -144 c-9 -115 -9 -407 0 -522 6 -77 4 -89 -9 -89
-25 0 -32 73 -32 350 0 277 7 350 32 350 13 0 15 -12 9 -89z m149 -13 c-4 -57
-8 -168 -8 -248 0 -80 4 -191 8 -247 l7 -103 -55 0 -55 0 -8 98 c-11 125 -11
379 0 505 l8 97 55 0 55 0 -7 -102z m675 -248 l0 -350 -314 0 -314 0 -8 98
c-11 120 -10 398 0 515 l8 87 314 0 314 0 0 -350z m0 -405 l0 -25 -435 0 -435
0 0 25 0 25 435 0 435 0 0 -25z"/>
<path d="M2275 1098 c-3 -7 -4 -213 -3 -458 l3 -445 470 0 470 0 3 43 c2 24
-1 49 -7 56 -7 8 -7 46 -1 117 12 133 12 345 0 478 -6 71 -6 109 1 117 6 7 9
32 7 56 l-3 43 -468 3 c-369 2 -469 0 -472 -10z m905 -43 l0 -25 -435 0 -435
0 0 25 0 25 435 0 435 0 0 -25z m-234 -152 c5 -54 8 -168 8 -253 0 -85 -3
-199 -8 -253 l-8 -97 -314 0 -314 0 0 350 0 350 314 0 314 0 8 -97z m150 0 c5
-54 8 -168 8 -253 0 -85 -3 -199 -8 -252 l-8 -98 -55 0 -56 0 7 90 c10 117 10
402 1 518 l-8 92 56 0 55 0 8 -97z m71 50 c4 -27 8 -163 8 -303 0 -277 -7
-350 -32 -350 -14 0 -15 12 -9 93 9 119 9 416 0 524 -6 72 -5 83 9 83 11 0 18
-14 24 -47z m13 -708 l0 -25 -435 0 -435 0 0 25 0 25 435 0 435 0 0 -25z"/>
</g>
</svg>
