<?xml version="1.0" standalone="no"?>
<!DOCTYPE svg PUBLIC "-//W3C//DTD SVG 20010904//EN"
 "http://www.w3.org/TR/2001/REC-SVG-20010904/DTD/svg10.dtd">
<svg version="1.0" xmlns="http://www.w3.org/2000/svg"
 width="322.000000pt" height="244.000000pt" viewBox="0 0 322.000000 244.000000"
 preserveAspectRatio="xMidYMid meet">
<metadata>
Created by potrace 1.15, written by Peter Selinger 2001-2017
</metadata>
<g transform="translate(0.000000,244.000000) scale(0.100000,-0.100000)"
fill="#000000" stroke="none">
<path d="M995 2418 c-3 -7 -4 -553 -3 -1213 l3 -1200 610 0 610 0 0 1210 0
1210 -608 3 c-481 2 -609 0 -612 -10z m1195 -603 l0 -585 -585 0 -585 0 0 585
0 585 585 0 585 0 0 -585z m0 -1200 l0 -585 -585 0 -585 0 0 585 0 585 585 0
585 0 0 -585z"/>
<path d="M0 2221 c0 -27 5 -51 10 -53 8 -2 8 -57 0 -181 -9 -135 -9 -221 0
-350 8 -120 8 -173 1 -175 -6 -2 -11 -26 -11 -53 l0 -49 475 0 475 0 0 455 0
455 -475 0 -475 0 0 -49z m920 -1 c0 -20 -7 -20 -445 -20 -438 0 -445 0 -445
20 0 20 7 20 445 20 438 0 445 0 445 -20z m-828 -112 c-9 -82 -9 -504 0 -585
7 -59 6 -63 -12 -63 -12 0 -23 6 -26 13 -19 50 -19 632 1 685 2 6 13 12 25 12
18 0 19 -4 12 -62z m151 5 c-10 -74 -10 -543 -1 -605 l8 -48 -59 0 -59 0 -9
68 c-10 87 -10 487 0 575 l9 67 59 0 59 0 -7 -57z m665 45 c17 -17 17 -669 0
-686 -9 -9 -94 -12 -319 -12 l-307 0 -9 68 c-10 87 -10 487 0 575 l9 67 307 0
c225 0 310 -3 319 -12z m12 -748 c0 -20 -7 -20 -445 -20 -438 0 -445 0 -445
20 0 20 7 20 445 20 438 0 445 0 445 -20z"/>
<path d="M2260 1815 l0 -455 475 0 475 0 0 49 c0 27 -5 51 -10 53 -8 2 -8 57
0 179 8 126 8 223 0 349 -8 122 -8 176 0 178 5 2 10 26 10 53 l0 49 -475 0
-475 0 0 -455z m920 405 c0 -20 -7 -20 -445 -20 -438 0 -445 0 -445 20 0 20 7
20 445 20 438 0 445 0 445 -20z m-243 -117 c10 -88 10 -488 0 -575 l-9 -68
-307 0 c-225 0 -310 3 -319 12 -17 17 -17 669 0 686 9 9 94 12 319 12 l307 0
9 -67z m150 0 c4 -38 8 -167 8 -288 0 -121 -4 -250 -8 -287 l-9 -68 -59 0 -59
0 8 63 c4 34 7 166 7 292 0 127 -3 258 -7 293 l-8 62 59 0 59 0 9 -67z m69 43
c19 -76 19 -585 0 -662 -4 -15 -14 -24 -26 -24 -18 0 -19 5 -12 63 4 34 7 166
7 292 0 127 -3 258 -7 293 -7 57 -6 62 12 62 12 0 22 -9 26 -24z m24 -736 c0
-20 -7 -20 -445 -20 -438 0 -445 0 -445 20 0 20 7 20 445 20 438 0 445 0 445
-20z"/>
<path d="M0 1021 c0 -27 5 -51 11 -53 7 -2 7 -55 -1 -175 -9 -129 -9 -215 0
-350 8 -124 8 -179 0 -181 -5 -2 -10 -26 -10 -53 l0 -49 475 0 475 0 0 455 0
455 -475 0 -475 0 0 -49z m920 -1 c0 -20 -7 -20 -445 -20 -438 0 -445 0 -445
20 0 20 7 20 445 20 438 0 445 0 445 -20z m-828 -112 c-9 -82 -9 -504 0 -585
7 -58 6 -63 -12 -63 -26 0 -29 17 -39 200 -7 141 2 467 14 498 2 6 13 12 25
12 18 0 19 -4 12 -62z m150 15 c-9 -63 -9 -532 1 -606 l7 -57 -59 0 -59 0 -9
68 c-10 87 -10 487 0 575 l9 67 59 0 59 0 -8 -47z m666 35 c17 -17 17 -669 0
-686 -9 -9 -94 -12 -319 -12 l-307 0 -9 68 c-10 87 -10 487 0 575 l9 67 307 0
c225 0 310 -3 319 -12z m12 -748 c0 -20 -7 -20 -445 -20 -438 0 -445 0 -445
20 0 20 7 20 445 20 438 0 445 0 445 -20z"/>
<path d="M2260 615 l0 -455 473 2 472 3 3 44 c2 25 -2 47 -8 51 -8 5 -8 54 0
181 8 126 8 224 0 349 -8 122 -8 176 0 178 5 2 10 26 10 53 l0 49 -475 0 -475
0 0 -455z m920 405 c0 -20 -7 -20 -445 -20 -438 0 -445 0 -445 20 0 20 7 20
445 20 438 0 445 0 445 -20z m-243 -117 c10 -88 10 -488 0 -576 l-9 -67 -307
0 c-225 0 -310 3 -319 12 -17 17 -17 669 0 686 9 9 94 12 319 12 l307 0 9 -67z
m150 0 c4 -38 8 -167 8 -288 0 -121 -4 -250 -8 -287 l-9 -68 -59 0 -59 0 7 58
c10 73 10 542 1 605 l-8 47 59 0 59 0 9 -67z m75 -8 c9 -89 10 -453 3 -531
-10 -93 -13 -104 -35 -104 -18 0 -19 5 -12 63 9 81 9 504 0 585 -8 62 -7 63
15 60 20 -3 23 -11 29 -73z m18 -685 c0 -20 -7 -20 -445 -20 -438 0 -445 0
-445 20 0 20 7 20 445 20 438 0 445 0 445 -20z"/>
</g>
</svg>
