<?xml version="1.0" standalone="no"?>
<!DOCTYPE svg PUBLIC "-//W3C//DTD SVG 20010904//EN"
 "http://www.w3.org/TR/2001/REC-SVG-20010904/DTD/svg10.dtd">
<svg version="1.0" xmlns="http://www.w3.org/2000/svg"
 width="310.000000pt" height="243.000000pt" viewBox="0 0 310.000000 243.000000"
 preserveAspectRatio="xMidYMid meet">
<metadata>
Created by potrace 1.15, written by Peter Selinger 2001-2017
</metadata>
<g transform="translate(0.000000,243.000000) scale(0.100000,-0.100000)"
fill="#000000" stroke="none">
<path d="M710 2395 c0 -18 -5 -25 -20 -25 -20 0 -20 -7 -20 -305 l0 -305 -300
0 c-293 0 -300 0 -300 -20 0 -15 -7 -20 -25 -20 l-25 0 0 -835 0 -835 25 0
c18 0 25 -5 25 -20 0 -20 7 -20 305 -20 l305 0 0 65 c0 58 -2 65 -20 65 -20 0
-20 7 -20 740 0 733 0 740 20 740 18 0 20 7 20 70 l0 70 60 0 c53 0 60 2 60
20 0 20 7 20 740 20 733 0 740 0 740 -20 0 -18 7 -20 55 -20 l55 0 0 -70 c0
-63 2 -70 20 -70 20 0 20 -7 20 -740 0 -733 0 -740 -20 -740 -18 0 -20 -7 -20
-65 l0 -65 305 0 c298 0 305 0 305 20 0 15 7 20 25 20 l25 0 0 835 0 835 -25
0 c-18 0 -25 5 -25 20 0 20 -7 20 -292 20 l-293 0 3 305 c3 301 2 305 -18 305
-15 0 -20 7 -20 25 l0 25 -835 0 -835 0 0 -25z m1640 -10 c0 -13 -97 -15 -810
-15 -713 0 -810 2 -810 15 0 13 97 15 810 15 713 0 810 -2 810 -15z m40 -315
l0 -280 -45 0 -45 0 0 245 0 245 -760 0 -760 0 0 -245 0 -245 -45 0 -45 0 0
280 0 280 850 0 850 0 0 -280z m-1110 -30 l0 -220 -240 0 -240 0 0 220 0 220
240 0 240 0 0 -220z m500 0 l0 -220 -240 0 -240 0 0 220 0 220 240 0 240 0 0
-220z m500 0 l0 -220 -240 0 -240 0 0 220 0 220 240 0 240 0 0 -220z m-1620
-350 l0 -40 -247 -2 -248 -3 -3 -762 -2 -763 250 0 250 0 0 -45 0 -45 -285 0
-285 0 0 850 0 850 285 0 285 0 0 -40z m2320 -810 l0 -850 -285 0 -285 0 0 45
0 45 250 0 250 0 -2 763 -3 762 -247 3 -248 2 0 40 0 40 285 0 285 0 0 -850z
m-2910 0 c0 -713 -2 -810 -15 -810 -13 0 -15 97 -15 810 0 713 2 810 15 810
13 0 15 -97 15 -810z m2960 0 c0 -713 -2 -810 -15 -810 -13 0 -15 97 -15 810
0 713 2 810 15 810 13 0 15 -97 15 -810z m-2410 500 l0 -240 -220 0 -220 0 0
240 0 240 220 0 220 0 0 -240z m2270 0 l0 -240 -220 0 -220 0 0 240 0 240 220
0 220 0 0 -240z m-2270 -500 l0 -240 -220 0 -220 0 0 240 0 240 220 0 220 0 0
-240z m2270 0 l0 -240 -220 0 -220 0 0 240 0 240 220 0 220 0 0 -240z m-2270
-500 l0 -240 -220 0 -220 0 0 240 0 240 220 0 220 0 0 -240z m2270 0 l0 -240
-220 0 -220 0 0 240 0 240 220 0 220 0 0 -240z"/>
<path d="M950 885 l0 -565 565 0 565 0 0 565 0 565 -565 0 -565 0 0 -565z
m1110 -5 l0 -540 -545 0 -545 0 0 540 0 540 545 0 545 0 0 -540z"/>
</g>
</svg>
