<?xml version="1.0" standalone="no"?>
<!DOCTYPE svg PUBLIC "-//W3C//DTD SVG 1.1//EN"
"http://www.w3.org/Graphics/SVG/1.1/DTD/svg11.dtd">
<!-- Creator: fig2dev Version 3.2 Patchlevel 5-alpha7 -->
<!-- CreationDate: Thu Aug 30 22:47:37 2007 -->
<!-- Magnification: 1.050 -->
<svg xmlns="http://www.w3.org/2000/svg" width="5.0in" height="2.3in" viewBox="456 220 5955 2771">
<g style="stroke-width:.025in; stroke:black; fill:none">
<!-- Arc -->
<path style="stroke:#000000;stroke-width:8;stroke-linecap:butt"
d="M 4078,897 A 112 112  0  1  0  4175  903 " />
<!-- Arc -->
<path style="stroke:#000000;stroke-width:8;stroke-linecap:butt"
d="M 5514,1261 A 796 796  0  0  1  5543  1886 " />
<!-- Arc -->
<path style="stroke:#000000;stroke-width:8;stroke-linecap:butt"
d="M 5559,1291 A 625 625  0  0  1  5581  1864 " />
<!-- Arc -->
<path style="stroke:#000000;stroke-width:8;stroke-linecap:butt"
d="M 5618,1322 A 672 672  0  0  1  5640  1836 " />
<!-- Arc -->
<path style="stroke:#000000;stroke-width:8;stroke-linecap:butt"
d="M 5746,1401 A 881 881  0  0  1  5740  1778 " />
<!-- Arc -->
<path style="stroke:#000000;stroke-width:8;stroke-linecap:butt"
d="M 5691,1370 A 845 845  0  0  1  5700  1807 " />
<!-- Arc -->
<path style="stroke:#000000;stroke-width:8;stroke-linecap:butt"
d="M 5467,1239 A 795 795  0  0  1  5497  1904 " />
<!-- Arc -->
<path style="stroke:#000000;stroke-width:8;stroke-linecap:butt"
d="M 5420,1214 A 959 959  0  0  1  5448  1929 " />
<!-- Arc -->
<path style="stroke:#000000;stroke-width:8;stroke-linecap:butt"
d="M 5299,1167 A 815 815  0  0  1  5307  2000 " />
<!-- Arc -->
<path style="stroke:#000000;stroke-width:8;stroke-linecap:butt"
d="M 5372,1204 A 925 925  0  0  1  5385  1967 " />
<!-- Arc -->
<path style="stroke:#000000;stroke-width:8;stroke-linecap:butt"
d="M 5798,1439 A 690 690  0  0  1  5814  1725 " />
<!-- Arc -->
<path style="stroke:#000000;stroke-width:8;stroke-linecap:butt"
d="M 645,1378 A 583 583  0  0  1  638  1779 " />
<!-- Ellipse -->
<ellipse transform="translate(3723,1133) rotate(-350.00272831)" rx="250" ry="74"
 style="stroke:#000000;stroke-width:8;"/>
<!-- Ellipse -->
<ellipse transform="translate(3715,1461) rotate(-354.99892029)" rx="250" ry="74"
 style="stroke:#000000;stroke-width:8;"/>
<!-- Ellipse -->
<ellipse transform="translate(3727,1781) rotate(-5.00192155)" rx="250" ry="74"
 style="stroke:#000000;stroke-width:8;"/>
<!-- Ellipse -->
<ellipse transform="translate(3722,2118) rotate(-9.99811353)" rx="250" ry="74"
 style="stroke:#000000;stroke-width:8;"/>
<!-- Ellipse -->
<ellipse transform="translate(4913,1275) rotate(-0.00000000)" rx="62" ry="15"
 style="stroke:#000000;stroke-width:8;"/>
<!-- Ellipse -->
<ellipse transform="translate(4913,1189) rotate(-0.00000000)" rx="62" ry="15"
 style="stroke:#000000;stroke-width:8;"/>
<!-- Ellipse -->
<ellipse transform="translate(4906,1448) rotate(-0.00000000)" rx="62" ry="15"
 style="stroke:#000000;stroke-width:8;"/>
<!-- Ellipse -->
<ellipse transform="translate(5282,1448) rotate(-0.00000000)" rx="62" ry="15"
 style="stroke:#000000;stroke-width:8;"/>
<!-- Ellipse -->
<ellipse transform="translate(5275,1496) rotate(-0.00000000)" rx="62" ry="15"
 style="stroke:#000000;stroke-width:8;"/>
<!-- Ellipse -->
<ellipse transform="translate(5275,1693) rotate(-0.00000000)" rx="62" ry="15"
 style="stroke:#000000;stroke-width:8;"/>
<!-- Ellipse -->
<ellipse transform="translate(5102,1622) rotate(-0.00000000)" rx="62" ry="15"
 style="stroke:#000000;stroke-width:8;"/>
<!-- Ellipse -->
<ellipse transform="translate(4897,1637) rotate(-0.00000000)" rx="62" ry="15"
 style="stroke:#000000;stroke-width:8;"/>
<!-- Ellipse -->
<ellipse transform="translate(4906,1567) rotate(-0.00000000)" rx="62" ry="15"
 style="stroke:#000000;stroke-width:8;"/>
<!-- Ellipse -->
<ellipse transform="translate(5102,1732) rotate(-0.00000000)" rx="62" ry="15"
 style="stroke:#000000;stroke-width:8;"/>
<!-- Ellipse -->
<ellipse transform="translate(5102,1772) rotate(-0.00000000)" rx="62" ry="15"
 style="stroke:#000000;stroke-width:8;"/>
<!-- Ellipse -->
<ellipse transform="translate(5086,1937) rotate(-0.00000000)" rx="62" ry="15"
 style="stroke:#000000;stroke-width:8;"/>
<!-- Ellipse -->
<ellipse transform="translate(4913,1748) rotate(-0.00000000)" rx="62" ry="15"
 style="stroke:#000000;stroke-width:8;"/>
<!-- Ellipse -->
<ellipse transform="translate(4913,1811) rotate(-0.00000000)" rx="62" ry="15"
 style="stroke:#000000;stroke-width:8;"/>
<!-- Ellipse -->
<ellipse transform="translate(4913,1945) rotate(-0.00000000)" rx="62" ry="15"
 style="stroke:#000000;stroke-width:8;"/>
<!-- Ellipse -->
<ellipse transform="translate(4906,1401) rotate(-0.00000000)" rx="62" ry="15"
 style="stroke:#000000;stroke-width:8;"/>
<!-- Ellipse -->
<ellipse transform="translate(5079,1228) rotate(-0.00000000)" rx="62" ry="15"
 style="stroke:#000000;stroke-width:8;"/>
<!-- Ellipse -->
<ellipse transform="translate(5267,1355) rotate(-0.00000000)" rx="62" ry="15"
 style="stroke:#000000;stroke-width:8;"/>
<!-- Ellipse -->
<ellipse transform="translate(5244,1291) rotate(-0.00000000)" rx="62" ry="15"
 style="stroke:#000000;stroke-width:8;"/>
<!-- Ellipse -->
<ellipse transform="translate(5274,1616) rotate(-0.00000000)" rx="62" ry="15"
 style="stroke:#000000;stroke-width:8;"/>
<!-- Ellipse -->
<ellipse transform="translate(5278,1569) rotate(-0.00000000)" rx="62" ry="15"
 style="stroke:#000000;stroke-width:8;"/>
<!-- Ellipse -->
<ellipse transform="translate(4914,2004) rotate(-0.00000000)" rx="62" ry="15"
 style="stroke:#000000;stroke-width:8;"/>
<!-- Ellipse -->
<ellipse transform="translate(5087,1878) rotate(-0.00000000)" rx="62" ry="15"
 style="stroke:#000000;stroke-width:8;"/>
<!-- Ellipse -->
<ellipse transform="translate(5095,1296) rotate(-0.00000000)" rx="62" ry="15"
 style="stroke:#000000;stroke-width:8;"/>
<!-- Ellipse -->
<ellipse transform="translate(5101,1471) rotate(-0.00000000)" rx="62" ry="15"
 style="stroke:#000000;stroke-width:8;"/>
<!-- Ellipse -->
<ellipse transform="translate(5095,1424) rotate(-0.00000000)" rx="62" ry="15"
 style="stroke:#000000;stroke-width:8;"/>
<!-- Ellipse -->
<ellipse transform="translate(5098,1566) rotate(-0.00000000)" rx="62" ry="15"
 style="stroke:#000000;stroke-width:8;"/>
<!-- Ellipse -->
<ellipse transform="translate(5255,1836) rotate(-0.00000000)" rx="62" ry="15"
 style="stroke:#000000;stroke-width:8;"/>
<!-- Ellipse -->
<ellipse transform="translate(5247,1888) rotate(-0.00000000)" rx="62" ry="15"
 style="stroke:#000000;stroke-width:8;"/>
<!-- Ellipse -->
<ellipse transform="translate(5271,1735) rotate(-0.00000000)" rx="62" ry="15"
 style="stroke:#000000;stroke-width:8;"/>
<!-- Line -->
<polyline points="1322,937
1322,992
" style="stroke:#000000;stroke-width:8;
stroke-linejoin:miter; stroke-linecap:butt;
"/>
<!-- Line -->
<polyline points="1315,2228
1315,2276
" style="stroke:#000000;stroke-width:8;
stroke-linejoin:miter; stroke-linecap:butt;
"/>
<!-- Line -->
<polyline points="4102,787
4087,906
" style="stroke:#000000;stroke-width:8;
stroke-linejoin:miter; stroke-linecap:butt;
"/>
<!-- Line -->
<polyline points="4185,814
4176,900
" style="stroke:#000000;stroke-width:8;
stroke-linejoin:miter; stroke-linecap:butt;
"/>
<!-- Line -->
<polyline points="5820,1653
5864,1631
" style="stroke:#000000;stroke-width:8;
stroke-linejoin:miter; stroke-linecap:butt;
"/>
<!-- Line -->
<polyline points="3960,1158
5834,1504
" style="stroke:#000000;stroke-width:8;
stroke-linejoin:miter; stroke-linecap:butt;
"/>
<!-- Line -->
<polyline points="3952,1173
5771,1511
" style="stroke:#000000;stroke-width:8;
stroke-linejoin:miter; stroke-linecap:butt;
"/>
<!-- Line -->
<polyline points="3960,1464
5849,1543
" style="stroke:#000000;stroke-width:8;
stroke-linejoin:miter; stroke-linecap:butt;
"/>
<!-- Line -->
<polyline points="3960,1496
5818,1559
" style="stroke:#000000;stroke-width:8;
stroke-linejoin:miter; stroke-linecap:butt;
"/>
<!-- Line -->
<polyline points="3960,1756
5842,1590
" style="stroke:#000000;stroke-width:8;
stroke-linejoin:miter; stroke-linecap:butt;
"/>
<!-- Line -->
<polyline points="3968,1779
5849,1614
" style="stroke:#000000;stroke-width:8;
stroke-linejoin:miter; stroke-linecap:butt;
"/>
<!-- Line -->
<polyline points="3928,2062
5826,1646
" style="stroke:#000000;stroke-width:8;
stroke-linejoin:miter; stroke-linecap:butt;
"/>
<!-- Line -->
<polyline points="3944,2078
5834,1677
" style="stroke:#000000;stroke-width:8;
stroke-linejoin:miter; stroke-linecap:butt;
"/>
<!-- Line -->
<polyline points="1320,937
1322,936
1325,935
1333,933
1342,930
1356,925
1372,921
1391,915
1411,909
1432,902
1455,896
1478,889
1503,881
1529,874
1556,867
1587,858
1618,851
1651,843
1691,833
1723,826
1746,820
1761,816
1769,815
1771,814
1771,813
1773,813
1781,812
1797,809
1822,806
1859,801
1903,795
1940,791
1975,787
2007,785
2033,782
2054,781
2070,780
2082,779
2093,779
2102,779
2112,779
2122,777
2135,777
2153,776
2174,775
2201,773
2235,770
2272,767
2312,764
2356,760
2394,756
2424,753
2446,751
2460,749
2469,748
2474,746
2476,746
2479,745
2483,744
2492,742
2506,741
2525,739
2553,737
2588,734
2627,732
2667,730
2703,729
2731,728
2753,728
2769,728
2780,728
2786,728
2791,728
2796,729
2804,729
2814,729
2830,730
2852,730
2881,731
2917,731
2958,732
2999,733
3035,734
3065,735
3087,737
3104,738
3116,738
3124,739
3130,739
3137,740
3144,740
3155,741
3170,742
3192,743
3219,744
3253,746
3289,748
3329,750
3362,752
3386,753
3403,754
3413,754
3418,754
3420,754
3422,754
3427,754
3436,755
3451,756
3475,759
3505,761
3541,764
3572,767
3602,770
3626,772
3644,774
3657,775
3667,776
3674,777
3679,779
3685,780
3691,781
3700,782
3713,783
3731,785
3753,788
3779,791
3808,795
3845,801
3875,804
3896,807
3908,809
3917,810
3922,811
3926,812
3933,813
3944,815
3960,817
3981,820
4005,825
4035,830
4057,834
4071,837
4080,839
4087,840
4090,841
4092,843
" style="stroke:#000000;stroke-width:8;
stroke-linejoin:bevel; stroke-linecap:butt;
"/>
<!-- Line -->
<polyline points="1324,982
1327,981
1330,980
1337,978
1346,975
1360,971
1376,966
1395,960
1415,954
1436,948
1459,941
1482,934
1507,927
1533,919
1561,912
1591,903
1623,896
1655,888
1695,878
1728,871
1751,866
1765,861
1773,860
1775,859
1775,858
1777,858
1785,857
1801,854
1826,851
1863,846
1907,840
1944,836
1980,832
2011,830
2037,827
2058,826
2074,825
2087,824
2097,824
2107,824
2116,824
2127,823
2139,823
2157,822
2178,820
2205,818
2239,815
2277,812
2317,809
2361,805
2398,802
2428,798
2450,796
2465,794
2473,793
2478,791
2480,791
2483,790
2488,789
2496,787
2510,786
2530,784
2557,782
2593,780
2632,777
2671,775
2707,774
2735,773
2758,773
2773,773
2784,773
2790,773
2795,773
2801,774
2808,774
2818,774
2834,775
2856,775
2886,776
2921,776
2962,777
3003,779
3039,780
3069,781
3091,782
3108,783
3120,783
3128,784
3134,784
3141,785
3148,785
3160,786
3174,787
3196,788
3224,789
3257,791
3293,793
3333,795
3366,797
3391,798
3407,800
3417,800
3422,800
3424,800
3426,800
3432,800
3440,801
3456,802
3479,804
3509,806
3545,809
3576,812
3606,815
3630,817
3648,819
3661,820
3671,823
3678,824
3683,824
3689,825
3695,826
3704,827
3717,829
3735,831
3757,834
3783,837
3813,840
3849,845
3879,849
3901,851
3914,852
3923,853
3928,854
3933,854
3940,855
3951,856
3967,858
3988,861
4011,865
4040,869
4059,873
4071,876
4078,878
4081,879
4083,880
4085,881
" style="stroke:#000000;stroke-width:8;
stroke-linejoin:bevel; stroke-linecap:butt;
"/>
<!-- Line -->
<polyline points="1307,2226
1309,2227
1314,2229
1322,2234
1334,2239
1349,2246
1365,2254
1384,2262
1404,2270
1426,2280
1451,2289
1479,2299
1509,2310
1543,2321
1575,2331
1605,2340
1626,2345
1640,2349
1650,2351
1655,2352
1658,2352
1661,2352
1667,2353
1676,2354
1692,2358
1715,2363
1745,2369
1782,2377
1815,2385
1845,2391
1869,2396
1888,2401
1903,2404
1912,2407
1920,2409
1926,2410
1931,2411
1939,2413
1948,2415
1963,2418
1983,2422
2008,2427
2038,2432
2072,2437
2110,2443
2141,2448
2165,2450
2181,2452
2191,2453
2195,2453
2197,2453
2199,2453
2203,2453
2214,2453
2229,2454
2255,2456
2289,2459
2330,2462
2364,2466
2395,2468
2423,2470
2445,2472
2464,2473
2477,2474
2488,2475
2496,2476
2504,2476
2512,2477
2520,2478
2531,2478
2544,2479
2562,2480
2584,2482
2611,2483
2641,2486
2672,2487
2710,2488
2742,2490
2764,2490
2776,2491
2783,2491
2784,2492
2782,2492
2781,2492
2782,2492
2788,2492
2802,2491
2825,2491
2857,2490
2897,2488
2931,2486
2962,2485
2990,2482
3013,2481
3029,2480
3041,2480
3049,2480
3056,2480
3060,2480
3065,2480
3072,2480
3082,2479
3097,2478
3118,2476
3146,2473
3182,2470
3226,2465
3274,2458
3315,2453
3355,2447
3392,2441
3424,2437
3451,2433
3476,2429
3495,2426
3509,2423
3523,2420
3533,2418
3544,2416
3554,2414
3565,2412
3577,2410
3593,2407
3611,2404
3634,2400
3660,2394
3692,2389
3727,2383
3764,2376
3803,2370
3854,2362
3896,2354
3928,2349
3950,2345
3964,2343
3970,2343
3973,2343
3972,2343
3974,2343
3980,2343
3992,2340
4011,2337
4039,2331
4076,2323
4118,2314
4157,2306
4193,2298
4224,2291
4249,2285
4269,2281
4284,2277
4296,2275
4304,2272
4311,2270
4319,2268
4327,2266
4339,2263
4353,2260
4373,2255
4398,2247
4429,2240
4465,2230
4503,2220
4545,2208
4582,2199
4612,2191
4633,2184
4647,2181
4657,2179
4662,2177
4666,2177
4669,2176
4675,2175
4683,2172
4697,2167
4717,2161
4743,2152
4775,2141
4812,2128
4849,2114
4881,2101
4908,2090
4929,2081
4943,2074
4955,2069
4962,2065
4970,2061
4975,2057
4982,2053
4993,2048
5005,2041
5023,2033
5045,2024
5071,2012
5099,2000
5131,1985
5156,1974
5171,1968
5177,1966
5179,1966
5176,1968
5174,1969
5174,1970
5180,1967
5193,1962
5215,1951
5244,1937
5270,1923
5294,1910
5314,1900
5328,1891
5338,1885
5344,1881
5350,1878
5355,1874
5362,1869
5374,1863
5390,1854
5412,1842
5439,1827
5471,1811
5504,1794
5532,1780
5555,1770
5572,1762
5584,1758
5592,1755
5600,1753
5606,1751
5614,1749
5625,1743
5639,1737
5659,1728
5682,1715
5708,1700
5739,1680
5763,1664
5780,1650
5793,1638
5802,1628
5809,1619
5814,1612
5817,1608
5818,1606
" style="stroke:#000000;stroke-width:8;
stroke-linejoin:bevel; stroke-linecap:butt;
"/>
<!-- Line -->
<polyline points="4176,866
4178,866
4181,867
4188,869
4198,871
4212,873
4227,877
4245,881
4264,886
4286,891
4310,896
4338,902
4368,911
4402,919
4440,929
4483,940
4522,951
4558,960
4590,969
4616,976
4636,981
4650,984
4662,987
4670,990
4678,992
4685,994
4693,996
4705,999
4720,1003
4741,1009
4767,1017
4800,1026
4836,1038
4877,1050
4917,1063
4953,1075
4983,1084
5007,1091
5025,1097
5039,1101
5048,1103
5055,1105
5059,1106
5064,1107
5070,1109
5079,1111
5090,1116
5106,1122
5128,1130
5154,1141
5185,1153
5218,1168
5254,1185
5286,1200
5311,1213
5330,1223
5342,1230
5350,1236
5355,1240
5358,1244
5361,1247
5366,1251
5373,1257
5384,1265
5400,1274
5421,1287
5447,1302
5476,1318
5507,1336
5534,1351
5554,1362
5569,1370
5579,1374
5585,1377
5589,1378
5593,1379
5598,1381
5606,1385
5618,1392
5635,1401
5656,1414
5680,1428
5707,1445
5728,1460
5745,1471
5760,1483
5772,1492
5782,1501
5791,1508
5797,1514
5802,1519
5805,1522
5806,1523
" style="stroke:#000000;stroke-width:8;
stroke-linejoin:bevel; stroke-linecap:butt;
"/>
<!-- Line -->
<polyline points="4172,903
4174,903
4178,906
4185,907
4196,910
4209,913
4226,918
4245,922
4266,929
4289,934
4314,941
4343,949
4374,957
4409,966
4449,978
4493,990
4533,1000
4570,1011
4601,1019
4627,1026
4647,1032
4662,1036
4674,1039
4682,1041
4689,1043
4697,1044
4705,1046
4717,1049
4731,1054
4752,1060
4777,1067
4810,1077
4847,1087
4887,1100
4925,1112
4961,1123
4991,1132
5014,1139
5030,1144
5043,1148
5050,1149
5057,1151
5061,1151
5065,1152
5070,1153
5078,1156
5088,1160
5104,1166
5125,1173
5151,1184
5182,1196
5214,1211
5251,1228
5282,1244
5308,1256
5328,1267
5341,1275
5350,1281
5356,1286
5360,1290
5364,1293
5370,1298
5378,1303
5390,1312
5406,1322
5428,1335
5456,1351
5485,1367
5518,1385
5545,1401
5566,1412
5581,1420
5590,1424
5595,1426
5600,1427
5603,1429
5608,1432
5616,1435
5628,1441
5645,1451
5666,1463
5690,1478
5716,1495
5737,1509
5755,1521
5770,1532
5781,1542
5792,1550
5800,1558
5806,1564
5812,1568
5815,1571
5816,1572
" style="stroke:#000000;stroke-width:8;
stroke-linejoin:bevel; stroke-linecap:butt;
"/>
<!-- Line -->
<polyline points="614,1574
613,1571
611,1566
607,1558
605,1546
602,1532
601,1517
602,1498
606,1476
614,1448
622,1425
632,1405
639,1391
644,1381
649,1375
654,1371
657,1366
663,1360
669,1351
680,1336
692,1315
708,1291
723,1267
735,1248
744,1233
749,1225
751,1219
753,1216
754,1213
756,1208
762,1200
771,1187
785,1170
803,1149
820,1129
835,1113
845,1103
850,1097
851,1093
851,1092
852,1091
854,1088
861,1083
876,1072
898,1058
929,1039
954,1024
978,1012
998,1000
1015,992
1027,985
1037,980
1043,977
1049,975
1056,972
1063,969
1074,964
1088,958
1107,950
1132,939
1163,927
1196,913
1230,899
1260,888
1287,878
1307,872
1321,867
1333,864
1340,860
1348,859
1354,857
1361,855
1372,853
1385,849
1403,843
1426,836
1451,828
1480,818
1513,808
1540,800
1555,794
1564,791
1566,790
1565,789
1566,789
1573,787
1587,783
1609,777
1637,771
1662,766
1686,762
1703,758
1717,755
1725,754
1732,753
1736,752
1740,752
1746,751
1756,750
1770,749
1788,746
1814,743
1842,740
1875,737
1901,733
1918,732
1926,731
1929,731
1928,732
1929,732
1933,732
1944,731
1966,730
2001,727
2047,724
2080,721
2113,719
2143,717
2169,714
2190,712
2207,711
2222,710
2234,709
2245,708
2256,707
2268,706
2282,705
2300,704
2321,702
2346,700
2375,698
2408,696
2440,692
2485,689
2518,686
2538,684
2548,683
2551,682
2550,682
2548,682
2549,681
2556,681
2572,680
2597,678
2629,677
2658,676
2683,675
2703,675
2716,675
2725,675
2730,675
2733,675
2737,675
2743,675
2751,675
2767,675
2788,676
2816,676
2850,677
2885,678
2914,679
2937,679
2954,680
2964,681
2970,681
2975,681
2979,681
2985,682
2997,683
3015,683
3041,685
3076,686
3117,688
3153,690
3187,691
3215,693
3237,693
3254,695
3267,696
3275,696
3282,696
3290,696
3299,697
3311,697
3328,698
3350,699
3377,701
3409,703
3444,705
3483,708
3514,710
3539,712
3554,713
3564,714
3568,714
3571,716
3573,716
3579,717
3587,718
3601,719
3622,721
3649,724
3680,727
3712,730
3739,733
3759,735
3773,738
3781,738
3786,739
3788,739
3792,739
3797,740
3805,741
3819,742
3840,745
3868,749
3901,754
3934,760
3964,765
3986,769
4002,771
4011,773
4017,774
4022,775
4026,776
4032,777
4043,780
4060,784
4085,788
4118,795
4157,803
4192,810
4224,816
4250,822
4270,826
4285,828
4295,830
4301,831
4306,832
4311,833
4319,834
4329,836
4345,839
4366,845
4394,851
4429,859
4469,869
4504,877
4537,886
4564,893
4587,899
4605,903
4619,907
4628,910
4636,912
4642,914
4647,915
4655,917
4664,920
4677,923
4693,929
4714,935
4741,942
4771,951
4803,960
4841,972
4874,981
4898,988
4913,993
4921,995
4925,996
4927,995
4928,995
4932,996
4939,999
4954,1004
4977,1013
5007,1024
5044,1039
5078,1053
5107,1066
5133,1078
5153,1087
5168,1095
5180,1100
5187,1104
5194,1108
5201,1112
5209,1117
5219,1123
5234,1130
5254,1140
5278,1152
5307,1166
5338,1181
5372,1196
5400,1210
5420,1218
5434,1225
5441,1227
5445,1228
5446,1228
5448,1228
5451,1229
5458,1231
5470,1237
5488,1246
5513,1259
5543,1275
5572,1292
5598,1308
5620,1320
5636,1330
5648,1338
5656,1343
5664,1349
5670,1353
5678,1358
5689,1365
5702,1375
5720,1387
5741,1401
5763,1417
5790,1436
5807,1448
5817,1455
5820,1457
5820,1456
5819,1456
5820,1457
5824,1461
5834,1471
5844,1485
5856,1503
5863,1514
5865,1521
5867,1523
5867,1525
5868,1531
5870,1546
5872,1567
5872,1586
5871,1601
5871,1610
5871,1616
5871,1620
5871,1625
5870,1631
5867,1640
5861,1656
5851,1675
5842,1691
5835,1702
5830,1710
5828,1714
5829,1714
5832,1714
5834,1713
5833,1715
5826,1719
5814,1729
5793,1743
5763,1763
5740,1778
5717,1793
5696,1805
5678,1816
5664,1824
5652,1830
5643,1836
5635,1839
5629,1843
5622,1846
5613,1850
5603,1856
5589,1863
5570,1872
5547,1885
5519,1900
5485,1918
5448,1937
5411,1955
5377,1973
5346,1988
5322,2000
5303,2009
5289,2016
5277,2022
5269,2025
5261,2029
5255,2032
5247,2035
5236,2040
5223,2047
5204,2055
5181,2066
5152,2079
5121,2094
5086,2110
5049,2127
5018,2141
4993,2153
4976,2161
4964,2166
4958,2170
4955,2172
4954,2173
4953,2174
4950,2175
4943,2178
4934,2182
4917,2188
4895,2198
4867,2208
4834,2220
4802,2232
4772,2241
4748,2248
4730,2254
4718,2257
4710,2259
4706,2259
4703,2260
4700,2260
4695,2260
4686,2262
4672,2265
4653,2270
4625,2278
4591,2287
4551,2299
4514,2309
4479,2319
4450,2328
4425,2335
4406,2341
4391,2346
4381,2349
4371,2352
4364,2355
4358,2358
4348,2361
4338,2364
4322,2369
4303,2374
4278,2382
4246,2390
4211,2400
4173,2409
4131,2419
4094,2428
4065,2434
4043,2439
4028,2443
4017,2445
4011,2446
4008,2446
4004,2446
3997,2447
3989,2448
3974,2450
3954,2454
3927,2459
3895,2465
3858,2472
3821,2478
3790,2485
3763,2489
3744,2492
3732,2494
3724,2496
3719,2496
3716,2497
3713,2497
3708,2498
3700,2499
3688,2501
3669,2504
3643,2509
3611,2513
3574,2519
3538,2525
3504,2530
3477,2535
3457,2538
3442,2540
3432,2542
3425,2543
3420,2545
3416,2546
3408,2548
3398,2549
3383,2552
3361,2554
3333,2558
3298,2562
3259,2566
3220,2571
3185,2574
3155,2577
3133,2578
3117,2579
3105,2580
3097,2580
3090,2581
3084,2581
3077,2581
3065,2581
3049,2582
3028,2583
3001,2584
2970,2586
2934,2588
2895,2591
2864,2593
2839,2594
2824,2595
2814,2596
2810,2597
2807,2597
2805,2598
2801,2598
2792,2598
2777,2599
2755,2599
2727,2599
2692,2598
2658,2597
2627,2595
2603,2594
2586,2593
2575,2591
2566,2590
2560,2588
2555,2587
2546,2586
2536,2584
2519,2583
2497,2580
2469,2578
2437,2575
2403,2572
2375,2569
2358,2567
2348,2566
2344,2566
2343,2566
2342,2566
2339,2566
2328,2565
2310,2563
2283,2560
2247,2556
2215,2552
2186,2549
2163,2545
2148,2543
2136,2542
2129,2541
2123,2540
2118,2540
2110,2539
2098,2537
2080,2534
2054,2531
2022,2525
1984,2519
1950,2514
1920,2509
1895,2504
1875,2501
1861,2498
1851,2497
1844,2496
1839,2495
1833,2495
1826,2494
1817,2492
1803,2489
1784,2486
1759,2480
1731,2473
1698,2466
1662,2457
1632,2449
1610,2443
1594,2438
1585,2435
1580,2433
1575,2431
1572,2430
1567,2428
1559,2425
1544,2419
1523,2413
1496,2404
1464,2393
1433,2383
1405,2373
1385,2367
1371,2363
1362,2360
1357,2359
1354,2359
1351,2358
1345,2356
1337,2353
1322,2348
1302,2340
1275,2328
1244,2314
1212,2300
1184,2286
1162,2276
1146,2267
1134,2262
1127,2258
1122,2254
1116,2250
1109,2246
1099,2240
1083,2232
1062,2220
1037,2205
1007,2188
975,2170
950,2155
932,2144
920,2139
914,2136
910,2135
907,2134
901,2131
892,2124
877,2114
857,2098
834,2078
812,2057
795,2040
784,2028
776,2020
773,2015
772,2012
771,2010
769,2005
764,1995
754,1982
741,1962
724,1937
707,1911
695,1889
684,1874
678,1862
675,1856
671,1851
669,1846
665,1840
660,1829
651,1813
641,1791
629,1763
619,1737
609,1716
603,1700
599,1692
596,1687
594,1685
592,1682
591,1677
587,1669
585,1653
583,1632
582,1606
583,1579
586,1553
591,1531
596,1512
602,1493
608,1478
615,1463
621,1450
625,1441
628,1436
629,1433
" style="stroke:#000000;stroke-width:8;
stroke-linejoin:bevel; stroke-linecap:butt;
"/>
<!-- Line -->
<polygon points="929,1307
928,1336
929,1364
932,1390
937,1411
942,1428
949,1442
955,1453
960,1462
966,1469
974,1478
980,1486
988,1498
998,1512
1008,1531
1021,1555
1036,1585
1053,1617
1070,1653
1088,1688
1106,1720
1121,1748
1132,1770
1141,1786
1148,1799
1152,1808
1155,1816
1159,1822
1161,1828
1165,1835
1169,1843
1176,1855
1187,1868
1201,1885
1217,1906
1237,1929
1259,1952
1285,1976
1308,1995
1327,2011
1341,2022
1353,2029
1360,2034
1366,2037
1371,2039
1376,2040
1381,2041
1388,2044
1400,2047
1415,2051
1433,2055
1456,2059
1480,2062
1501,2064
1521,2062
1538,2061
1552,2060
1565,2059
1575,2058
1584,2058
1591,2057
1598,2057
1605,2056
1611,2055
1617,2052
1624,2048
1631,2041
1638,2032
1645,2019
1650,2004
1653,1984
1652,1960
1647,1934
1640,1913
1633,1896
1625,1882
1617,1871
1610,1863
1602,1856
1593,1847
1585,1838
1574,1825
1563,1808
1549,1786
1533,1757
1514,1723
1496,1685
1479,1650
1463,1618
1449,1590
1440,1568
1433,1550
1427,1537
1424,1527
1422,1519
1421,1512
1419,1506
1418,1499
1414,1489
1408,1477
1400,1460
1390,1439
1375,1414
1358,1384
1338,1354
1316,1320
1295,1292
1278,1267
1265,1248
1255,1232
1248,1219
1244,1210
1239,1202
1236,1194
1231,1186
1224,1177
1213,1168
1200,1158
1181,1148
1159,1139
1133,1133
1111,1133
1090,1135
1071,1141
1055,1146
1041,1151
1029,1156
1019,1162
1011,1167
1002,1173
995,1179
986,1186
978,1194
970,1205
960,1217
951,1234
942,1255
934,1279
929,1307
" style="stroke:#000000;stroke-width:8;
stroke-linejoin:bevel; stroke-linecap:butt;
"/>
<!-- Line -->
<polygon points="1700,1370
1689,1402
1680,1434
1675,1462
1672,1486
1671,1506
1671,1522
1672,1534
1674,1545
1676,1553
1679,1562
1682,1569
1687,1577
1692,1587
1697,1598
1706,1614
1715,1632
1727,1653
1741,1678
1758,1704
1779,1732
1802,1757
1825,1780
1847,1799
1867,1816
1884,1828
1898,1838
1909,1846
1919,1851
1927,1857
1935,1861
1943,1864
1952,1867
1963,1871
1976,1876
1994,1881
2015,1886
2040,1891
2071,1898
2104,1902
2141,1905
2178,1905
2213,1904
2244,1901
2271,1898
2293,1896
2313,1893
2329,1891
2343,1890
2354,1889
2366,1888
2376,1886
2387,1884
2398,1880
2412,1874
2427,1865
2444,1853
2462,1837
2482,1817
2501,1792
2519,1763
2532,1734
2541,1704
2548,1677
2552,1651
2555,1627
2556,1607
2556,1588
2556,1572
2555,1559
2554,1546
2552,1533
2550,1522
2546,1508
2543,1495
2539,1478
2533,1459
2525,1438
2517,1413
2506,1385
2492,1355
2475,1323
2456,1291
2434,1260
2412,1233
2390,1209
2370,1189
2352,1172
2337,1158
2323,1146
2311,1137
2302,1129
2292,1122
2284,1117
2276,1111
2266,1106
2255,1101
2242,1096
2226,1089
2207,1084
2185,1079
2159,1074
2130,1070
2097,1068
2062,1070
2029,1076
1996,1084
1967,1095
1942,1105
1920,1116
1901,1126
1885,1135
1872,1145
1861,1154
1851,1163
1842,1171
1834,1181
1824,1190
1815,1202
1804,1213
1792,1228
1779,1245
1763,1265
1748,1287
1731,1312
1715,1340
1700,1370
" style="stroke:#000000;stroke-width:8;
stroke-linejoin:bevel; stroke-linecap:butt;
"/>
<!-- Line -->
<polygon points="1976,1388
1969,1409
1964,1426
1961,1439
1959,1446
1958,1453
1956,1458
1956,1466
1958,1479
1961,1498
1967,1520
1974,1538
1983,1552
1989,1563
1993,1570
1996,1574
1998,1577
2002,1581
2006,1585
2012,1590
2024,1597
2038,1607
2058,1617
2079,1626
2098,1632
2114,1637
2124,1640
2133,1644
2139,1646
2145,1647
2154,1648
2165,1648
2180,1647
2199,1644
2220,1637
2240,1628
2255,1618
2266,1609
2272,1603
2278,1596
2280,1591
2283,1586
2286,1580
2290,1570
2296,1558
2303,1541
2310,1521
2314,1501
2318,1484
2319,1471
2319,1463
2318,1458
2317,1454
2316,1449
2313,1444
2311,1436
2307,1424
2301,1409
2292,1392
2283,1375
2274,1362
2266,1352
2261,1345
2258,1342
2256,1339
2253,1337
2248,1334
2242,1330
2232,1323
2217,1316
2198,1309
2175,1302
2155,1299
2141,1297
2132,1297
2125,1297
2118,1297
2110,1299
2096,1301
2077,1306
2055,1312
2038,1319
2025,1325
2015,1332
2010,1335
2007,1338
2005,1339
2003,1341
2001,1345
1997,1351
1991,1360
1984,1373
1976,1388
" style="stroke:#000000;stroke-width:8;
stroke-linejoin:bevel; stroke-linecap:butt;
"/>
<!-- Line -->
<polyline points="1304,2267
1307,2268
1312,2270
1320,2275
1332,2280
1346,2286
1363,2295
1382,2302
1403,2311
1425,2320
1449,2329
1477,2340
1507,2350
1541,2362
1573,2372
1602,2381
1623,2387
1637,2391
1647,2393
1652,2394
1655,2395
1658,2395
1664,2396
1673,2398
1689,2402
1711,2407
1740,2414
1776,2422
1807,2429
1836,2434
1860,2439
1878,2444
1890,2446
1900,2448
1906,2449
1910,2450
1916,2451
1922,2453
1931,2454
1945,2457
1963,2460
1988,2464
2018,2469
2052,2474
2086,2479
2116,2483
2140,2486
2158,2489
2170,2490
2177,2491
2182,2491
2184,2491
2187,2491
2193,2491
2200,2492
2214,2493
2233,2494
2258,2497
2290,2500
2328,2503
2362,2507
2394,2510
2422,2512
2445,2514
2462,2516
2477,2517
2488,2518
2496,2519
2503,2520
2511,2520
2518,2521
2529,2522
2542,2523
2560,2524
2581,2525
2608,2528
2638,2530
2669,2531
2707,2532
2739,2533
2760,2534
2773,2534
2779,2534
2780,2535
2779,2534
2776,2534
2779,2534
2784,2534
2797,2533
2820,2532
2853,2531
2893,2529
2927,2527
2958,2524
2985,2523
3007,2522
3024,2521
3036,2521
3044,2520
3049,2520
3054,2520
3059,2520
3065,2520
3075,2519
3089,2518
3110,2516
3139,2514
3175,2510
3219,2506
3269,2499
3311,2494
3352,2489
3390,2483
3423,2479
3453,2475
3477,2472
3496,2469
3512,2467
3526,2465
3538,2462
3549,2461
3560,2459
3571,2457
3585,2455
3602,2453
3620,2450
3644,2446
3672,2441
3704,2436
3740,2430
3779,2424
3819,2417
3870,2409
3913,2402
3946,2395
3968,2391
3982,2389
3989,2388
3991,2388
3990,2388
3989,2388
3991,2387
3996,2386
4008,2384
4027,2379
4055,2372
4092,2364
4134,2354
4173,2345
4208,2337
4240,2328
4265,2322
4285,2317
4301,2312
4312,2309
4321,2307
4328,2304
4335,2302
4345,2300
4355,2297
4371,2292
4391,2286
4416,2280
4447,2271
4481,2262
4519,2251
4560,2240
4596,2230
4623,2223
4644,2218
4658,2215
4666,2213
4670,2213
4674,2213
4677,2212
4681,2212
4688,2209
4701,2206
4720,2200
4745,2193
4776,2182
4812,2170
4848,2157
4880,2144
4907,2135
4928,2127
4943,2119
4954,2115
4962,2111
4970,2108
4976,2103
4984,2100
4995,2095
5008,2089
5026,2080
5048,2071
5075,2059
5102,2047
5134,2032
5160,2020
5174,2013
5182,2010
5184,2009
5183,2009
5182,2010
5183,2009
5188,2006
5200,2000
5218,1989
5244,1976
5269,1963
5290,1951
5304,1943
5313,1939
5317,1935
5319,1933
5321,1931
5327,1928
5337,1922
5355,1912
5382,1899
5417,1882
5445,1868
5471,1857
5495,1846
5513,1839
5528,1834
5540,1829
5549,1826
5558,1824
5566,1822
5575,1820
5587,1816
5601,1809
5619,1801
5640,1791
5666,1778
5692,1763
5723,1744
5749,1727
5769,1712
5784,1698
5796,1686
5806,1675
5814,1666
5819,1657
5823,1651
5825,1648
5826,1646
" style="stroke:#000000;stroke-width:8;
stroke-linejoin:bevel; stroke-linecap:butt;
"/>
<!-- Line -->
<polyline points="2810,1133
2812,1137
2816,1142
2822,1151
2830,1165
2839,1180
2848,1197
2857,1216
2865,1238
2872,1262
2878,1291
2881,1322
2881,1354
2879,1379
2876,1398
2871,1409
2866,1417
2859,1421
2854,1425
2849,1433
2843,1444
2838,1463
2835,1488
2834,1519
2835,1549
2838,1573
2843,1591
2848,1603
2853,1609
2859,1613
2865,1616
2870,1623
2875,1633
2879,1650
2881,1673
2881,1700
2879,1728
2874,1749
2869,1762
2864,1771
2858,1774
2852,1775
2847,1776
2841,1779
2835,1787
2829,1803
2824,1827
2818,1858
2816,1886
2814,1911
2814,1933
2814,1950
2815,1964
2816,1973
2817,1983
2818,1991
2819,2001
2822,2013
2824,2029
2827,2048
2830,2071
2834,2094
2838,2115
2844,2131
2849,2143
2853,2153
2858,2160
2862,2164
2867,2167
2871,2170
2874,2172
2877,2172
2879,2173
2880,2173
2881,2173
" style="stroke:#000000;stroke-width:8;
stroke-linejoin:bevel; stroke-linecap:butt;
"/>
<!-- Line -->
<polyline points="2871,1133
2873,1137
2877,1142
2882,1151
2891,1165
2900,1180
2909,1197
2918,1216
2925,1238
2933,1262
2939,1291
2942,1322
2942,1354
2940,1379
2937,1398
2932,1409
2927,1417
2920,1421
2915,1425
2910,1433
2903,1444
2899,1463
2896,1488
2895,1519
2896,1549
2899,1573
2903,1591
2909,1603
2914,1609
2920,1613
2925,1616
2931,1623
2936,1633
2940,1650
2942,1673
2942,1700
2940,1728
2935,1749
2930,1762
2924,1771
2919,1774
2913,1775
2908,1776
2902,1779
2896,1787
2890,1803
2885,1827
2879,1858
2877,1886
2875,1911
2875,1933
2875,1950
2876,1964
2877,1973
2878,1983
2879,1991
2880,2001
2882,2013
2885,2029
2888,2048
2891,2071
2895,2094
2899,2115
2904,2131
2910,2143
2914,2153
2919,2160
2923,2164
2928,2167
2932,2170
2935,2172
2938,2172
2940,2173
2941,2173
2942,2173
" style="stroke:#000000;stroke-width:8;
stroke-linejoin:bevel; stroke-linecap:butt;
"/>
<!-- Line -->
<polyline points="2992,1142
2994,1145
2998,1150
3003,1160
3012,1173
3021,1188
3029,1206
3039,1225
3046,1247
3054,1271
3060,1299
3063,1331
3063,1362
3061,1387
3058,1406
3053,1418
3047,1425
3041,1429
3036,1434
3030,1441
3024,1453
3020,1471
3017,1497
3016,1527
3017,1558
3020,1582
3024,1600
3029,1611
3035,1617
3041,1622
3046,1625
3051,1631
3057,1641
3061,1658
3063,1681
3063,1709
3061,1736
3056,1757
3050,1771
3045,1779
3040,1782
3034,1783
3028,1784
3023,1787
3017,1796
3011,1812
3005,1836
3000,1866
2998,1895
2996,1920
2996,1942
2996,1959
2997,1972
2998,1982
2999,1991
3000,2000
3001,2009
3003,2022
3005,2037
3008,2056
3012,2079
3016,2102
3020,2123
3025,2139
3030,2152
3035,2161
3040,2169
3044,2173
3048,2176
3053,2178
3056,2180
3059,2180
3061,2181
3062,2181
3063,2181
" style="stroke:#000000;stroke-width:8;
stroke-linejoin:bevel; stroke-linecap:butt;
"/>
<!-- Line -->
<polyline points="2936,1142
2938,1145
2942,1150
2948,1160
2956,1173
2965,1188
2974,1206
2983,1225
2991,1247
2998,1271
3004,1299
3007,1331
3007,1362
3005,1387
3002,1406
2997,1418
2992,1425
2985,1429
2980,1434
2975,1441
2969,1453
2964,1471
2961,1497
2960,1527
2961,1558
2964,1582
2969,1600
2974,1611
2979,1617
2985,1622
2991,1625
2996,1631
3001,1641
3005,1658
3007,1681
3007,1709
3005,1736
3000,1757
2995,1771
2990,1779
2984,1782
2978,1783
2973,1784
2967,1787
2961,1796
2955,1812
2950,1836
2944,1866
2942,1895
2940,1920
2940,1942
2940,1959
2941,1972
2942,1982
2943,1991
2944,2000
2945,2009
2948,2022
2950,2037
2953,2056
2956,2079
2960,2102
2964,2123
2970,2139
2975,2152
2979,2161
2984,2169
2988,2173
2993,2176
2997,2178
3000,2180
3003,2180
3005,2181
3006,2181
3007,2181
" style="stroke:#000000;stroke-width:8;
stroke-linejoin:bevel; stroke-linecap:butt;
"/>
<!-- Line -->
<polygon points="1022,1245
1037,1235
1049,1228
1060,1223
1067,1217
1072,1214
1079,1211
1086,1207
1098,1204
1113,1200
1132,1197
1148,1197
1161,1198
1171,1201
1179,1203
1185,1205
1190,1207
1194,1209
1200,1212
1204,1215
1209,1220
1213,1226
1215,1233
1211,1244
1202,1252
1190,1258
1177,1261
1165,1265
1152,1270
1141,1278
1132,1288
1130,1293
1130,1297
1131,1300
1133,1303
1135,1304
1139,1307
1141,1308
1144,1309
1147,1309
1151,1310
1155,1311
1161,1312
1166,1312
1172,1312
1186,1308
1194,1299
1198,1292
1202,1283
1210,1277
1224,1276
1232,1279
1239,1283
1245,1288
1249,1292
1252,1295
1255,1299
1258,1304
1260,1311
1262,1320
1262,1331
1258,1344
1250,1355
1241,1361
1232,1366
1223,1371
1214,1376
1208,1383
1208,1391
1214,1395
1224,1395
1233,1392
1241,1386
1251,1382
1262,1378
1275,1378
1290,1382
1299,1388
1307,1395
1311,1400
1313,1404
1315,1408
1316,1413
1317,1417
1318,1424
1319,1432
1318,1441
1312,1454
1303,1458
1295,1458
1286,1458
1277,1462
1271,1472
1270,1480
1271,1486
1273,1491
1275,1496
1277,1499
1279,1502
1282,1505
1287,1509
1292,1512
1298,1516
1309,1516
1316,1511
1319,1505
1322,1499
1330,1493
1341,1492
1351,1495
1357,1498
1361,1501
1364,1503
1367,1505
1371,1509
1374,1516
1377,1524
1376,1535
1374,1542
1370,1545
1366,1548
1360,1554
1353,1567
1344,1580
1338,1587
1332,1590
1328,1593
1324,1600
1325,1607
1334,1612
1342,1613
1350,1613
1358,1612
1370,1612
1384,1610
1398,1605
1403,1598
1405,1591
1408,1587
1416,1591
1419,1600
1422,1608
1423,1616
1424,1623
1424,1630
1424,1638
1423,1649
1420,1661
1412,1673
1403,1677
1394,1676
1386,1675
1379,1677
1377,1686
1382,1696
1391,1703
1399,1710
1407,1715
1418,1720
1432,1724
1442,1722
1446,1715
1446,1706
1446,1697
1449,1691
1456,1693
1461,1700
1465,1710
1469,1717
1472,1724
1476,1732
1478,1741
1478,1754
1476,1767
1467,1782
1456,1787
1445,1787
1435,1787
1425,1793
1420,1803
1422,1813
1426,1820
1432,1826
1437,1830
1442,1834
1449,1838
1459,1843
1471,1846
1487,1845
1497,1839
1502,1832
1506,1824
1513,1819
1523,1819
1528,1824
1530,1830
1531,1837
1531,1842
1530,1847
1529,1854
1527,1863
1523,1875
1514,1887
1504,1893
1496,1896
1487,1898
1481,1902
1479,1909
1486,1914
1495,1917
1502,1917
1511,1917
1524,1917
1542,1918
1559,1918
1568,1916
1573,1912
1577,1909
1584,1909
1593,1913
1597,1919
1598,1924
1600,1928
1601,1932
1601,1937
1601,1941
1600,1945
1597,1950
1594,1955
1589,1961
1576,1966
1567,1964
1560,1960
1553,1955
1542,1955
1526,1961
1513,1971
1508,1982
1508,1991
1509,2000
1504,2009
1491,2016
1482,2017
1474,2016
1467,2014
1462,2012
1457,2009
1454,2006
1448,2003
1443,1998
1437,1992
1432,1985
1428,1972
1433,1964
1440,1959
1447,1953
1451,1946
1447,1938
1439,1933
1429,1931
1421,1931
1414,1931
1406,1932
1398,1933
1387,1935
1377,1938
1367,1943
1367,1949
1373,1954
1374,1959
1369,1961
1363,1959
1358,1956
1353,1954
1348,1952
1343,1951
1339,1949
1335,1947
1332,1943
1330,1937
1330,1929
1335,1919
1342,1911
1350,1907
1358,1904
1366,1901
1375,1897
1382,1888
1388,1878
1390,1871
1391,1866
1390,1862
1388,1858
1387,1856
1386,1853
1385,1851
1383,1849
1381,1847
1379,1845
1376,1843
1372,1841
1367,1840
1361,1839
1350,1841
1340,1845
1335,1850
1330,1856
1325,1862
1319,1867
1310,1872
1298,1875
1293,1875
1288,1874
1283,1872
1280,1871
1277,1870
1275,1869
1273,1868
1272,1867
1270,1866
1269,1864
1268,1862
1266,1860
1266,1858
1265,1855
1266,1850
1267,1846
1273,1838
1282,1832
1291,1828
1299,1826
1308,1825
1317,1821
1327,1814
1334,1803
1337,1796
1338,1788
1338,1782
1337,1778
1337,1774
1336,1771
1335,1767
1333,1764
1330,1761
1327,1757
1321,1754
1314,1752
1301,1752
1291,1756
1283,1762
1277,1769
1272,1775
1264,1781
1253,1785
1239,1787
1233,1786
1228,1785
1224,1783
1220,1782
1218,1780
1216,1779
1214,1777
1213,1776
1211,1775
1210,1773
1209,1771
1208,1767
1208,1764
1208,1760
1209,1755
1211,1749
1219,1737
1230,1728
1240,1722
1251,1718
1260,1715
1271,1709
1280,1700
1287,1689
1287,1681
1286,1675
1282,1671
1279,1668
1276,1666
1273,1664
1270,1662
1266,1660
1260,1659
1253,1657
1245,1655
1235,1654
1220,1655
1209,1659
1201,1666
1195,1671
1190,1677
1184,1682
1174,1686
1164,1686
1158,1682
1154,1678
1152,1674
1151,1670
1152,1666
1152,1662
1153,1657
1154,1651
1156,1644
1161,1634
1168,1624
1176,1616
1185,1612
1193,1610
1201,1608
1208,1605
1213,1598
1215,1591
1209,1584
1201,1580
1192,1579
1184,1577
1170,1576
1152,1575
1135,1577
1126,1583
1122,1588
1119,1593
1111,1596
1101,1594
1096,1590
1091,1584
1088,1580
1086,1575
1085,1571
1084,1567
1083,1562
1083,1555
1085,1548
1089,1540
1099,1531
1109,1526
1119,1524
1128,1524
1138,1524
1147,1523
1155,1519
1161,1512
1160,1505
1156,1500
1151,1497
1146,1495
1140,1491
1132,1488
1122,1485
1109,1481
1092,1479
1083,1480
1078,1483
1074,1486
1065,1488
1050,1485
1043,1482
1038,1479
1033,1476
1029,1474
1026,1471
1023,1469
1021,1467
1019,1465
1017,1462
1016,1459
1017,1454
1019,1449
1027,1443
1038,1440
1047,1439
1057,1439
1066,1439
1077,1438
1088,1435
1098,1429
1101,1426
1103,1424
1104,1421
1104,1419
1104,1417
1104,1416
1104,1414
1103,1413
1103,1412
1102,1411
1101,1408
1100,1407
1098,1406
1097,1404
1093,1403
1090,1401
1086,1399
1082,1398
1069,1397
1057,1398
1046,1402
1037,1406
1027,1412
1018,1414
1011,1413
1006,1406
1009,1397
1016,1387
1025,1378
1035,1370
1046,1361
1057,1354
1066,1345
1075,1336
1081,1328
1082,1319
1076,1315
1064,1316
1053,1321
1040,1329
1028,1335
1015,1341
1000,1344
987,1343
981,1339
978,1335
977,1331
979,1327
981,1323
983,1320
986,1315
988,1310
992,1301
995,1292
999,1280
1001,1273
1001,1270
1000,1268
999,1267
1001,1262
1008,1255
1022,1245
" style="stroke:#000000;stroke-width:8;
stroke-linejoin:bevel; stroke-linecap:butt;
"/>
<!-- Line -->
<polyline points="2976,755
" style="stroke:#000000;stroke-width:8;
stroke-linejoin:miter; stroke-linecap:butt;
"/>
<!-- Line -->
<polyline points="5669,1795
5905,2031
" style="stroke:#000000;stroke-width:8;
stroke-linejoin:miter; stroke-linecap:butt;
"/>
<!-- Line -->
<polyline points="5102,1937
5196,2267
" style="stroke:#000000;stroke-width:8;
stroke-linejoin:miter; stroke-linecap:butt;
"/>
<!-- Line -->
<polyline points="5858,1606
6141,1606
" style="stroke:#000000;stroke-width:8;
stroke-linejoin:miter; stroke-linecap:butt;
"/>
<!-- Line -->
<polyline points="3779,2173
3968,2598
" style="stroke:#000000;stroke-width:8;
stroke-linejoin:miter; stroke-linecap:butt;
"/>
<!-- Line -->
<polyline points="2362,1748
2645,2740
" style="stroke:#000000;stroke-width:8;
stroke-linejoin:miter; stroke-linecap:butt;
"/>
<!-- Line -->
<polyline points="2125,1464
1937,2692
" style="stroke:#000000;stroke-width:8;
stroke-linejoin:miter; stroke-linecap:butt;
"/>
<!-- Line -->
<polyline points="1228,1937
1039,2409
" style="stroke:#000000;stroke-width:8;
stroke-linejoin:miter; stroke-linecap:butt;
"/>
<!-- Line -->
<polyline points="519,1984
614,1653
" style="stroke:#000000;stroke-width:8;
stroke-linejoin:miter; stroke-linecap:butt;
"/>
<!-- Line -->
<polyline points="1842,566
1889,803
" style="stroke:#000000;stroke-width:8;
stroke-linejoin:miter; stroke-linecap:butt;
"/>
<!-- Line -->
<polyline points="3070,519
3023,1133
" style="stroke:#000000;stroke-width:8;
stroke-linejoin:miter; stroke-linecap:butt;
"/>
<!-- Line -->
<polyline points="4157,614
4157,803
" style="stroke:#000000;stroke-width:8;
stroke-linejoin:miter; stroke-linecap:butt;
"/>
<!-- Text -->
<text xml:space="preserve" x="6236" y="1700" stroke="#000000" fill="#000000"  font-family="Times" font-style="normal" font-weight="normal" font-size="252" text-anchor="start">1</text>
<!-- Text -->
<text xml:space="preserve" x="6000" y="2173" stroke="#000000" fill="#000000"  font-family="Times" font-style="normal" font-weight="normal" font-size="252" text-anchor="start">2</text>
<!-- Text -->
<text xml:space="preserve" x="5244" y="2503" stroke="#000000" fill="#000000"  font-family="Times" font-style="normal" font-weight="normal" font-size="252" text-anchor="start">3</text>
<!-- Text -->
<text xml:space="preserve" x="3968" y="2787" stroke="#000000" fill="#000000"  font-family="Times" font-style="normal" font-weight="normal" font-size="252" text-anchor="start">4</text>
<!-- Text -->
<text xml:space="preserve" x="2598" y="2976" stroke="#000000" fill="#000000"  font-family="Times" font-style="normal" font-weight="normal" font-size="252" text-anchor="start">5</text>
<!-- Text -->
<text xml:space="preserve" x="1889" y="2929" stroke="#000000" fill="#000000"  font-family="Times" font-style="normal" font-weight="normal" font-size="252" text-anchor="start">6</text>
<!-- Text -->
<text xml:space="preserve" x="944" y="2645" stroke="#000000" fill="#000000"  font-family="Times" font-style="normal" font-weight="normal" font-size="252" text-anchor="start">7</text>
<!-- Text -->
<text xml:space="preserve" x="472" y="2220" stroke="#000000" fill="#000000"  font-family="Times" font-style="normal" font-weight="normal" font-size="252" text-anchor="start">8</text>
<!-- Text -->
<text xml:space="preserve" x="1795" y="519" stroke="#000000" fill="#000000"  font-family="Times" font-style="normal" font-weight="normal" font-size="252" text-anchor="start">9</text>
<!-- Text -->
<text xml:space="preserve" x="2929" y="472" stroke="#000000" fill="#000000"  font-family="Times" font-style="normal" font-weight="normal" font-size="252" text-anchor="start">10</text>
<!-- Text -->
<text xml:space="preserve" x="4062" y="566" stroke="#000000" fill="#000000"  font-family="Times" font-style="normal" font-weight="normal" font-size="252" text-anchor="start">11</text>
</g>
</svg>
