<?xml version="1.0" standalone="no"?>
<!DOCTYPE svg PUBLIC "-//W3C//DTD SVG 20010904//EN"
 "http://www.w3.org/TR/2001/REC-SVG-20010904/DTD/svg10.dtd">
<svg version="1.0" xmlns="http://www.w3.org/2000/svg"
 width="320.000000pt" height="320.000000pt" viewBox="0 0 320.000000 320.000000"
 preserveAspectRatio="xMidYMid meet">
<metadata>
Created by potrace 1.15, written by Peter Selinger 2001-2017
</metadata>
<style type="text/css">

	.st0{fill:#ffffff; stroke:#ffffff;stroke-width:1;}
	.st1{stroke:#ffffff;stroke-width:10;stroke-miterlimit:10;}
</style>
<g transform="translate(0.000000,320.000000) scale(0.100000,-0.100000)"
fill="#000000" stroke="none">
<path d="M0 1600 l0 -1600 1600 0 1600 0 0 1600 0 1600 -1600 0 -1600 0 0
-1600z m3100 0 l0 -1500 -1500 0 -1500 0 0 1500 0 1500 1500 0 1500 0 0 -1500z"/>
<path d="M1524 2996 c-71 -31 -102 -125 -65 -196 19 -37 19 -40 3 -40 -29 0
-60 -28 -64 -57 -3 -24 -10 -28 -86 -48 -191 -50 -398 -186 -524 -343 -135
-170 -203 -346 -215 -559 -5 -103 -8 -113 -25 -113 -71 0 -101 -103 -41 -141
14 -8 18 -20 15 -43 -2 -21 3 -40 16 -56 l20 -25 260 -3 260 -3 6 -52 c23
-189 24 -183 -58 -412 -14 -38 -26 -91 -26 -117 0 -44 -2 -47 -25 -45 -24 2
-31 -10 -100 -167 -41 -93 -74 -170 -73 -172 13 -12 563 -213 569 -207 17 17
139 317 135 329 -10 27 175 244 361 425 90 86 159 141 288 228 94 63 176 121
182 129 7 9 13 26 13 38 0 22 3 23 146 26 139 3 147 4 165 27 10 13 19 38 19
57 0 18 6 37 14 41 60 36 31 143 -40 143 -20 0 -21 6 -27 113 -7 141 -34 244
-97 372 -123 252 -363 451 -640 529 -77 21 -85 26 -88 50 -4 30 -36 56 -69 56
-27 0 -28 3 -6 36 22 34 21 104 -3 144 -36 62 -127 87 -200 56z m134 -61 c35
-29 44 -62 26 -103 -26 -64 -99 -81 -152 -37 -52 44 -51 105 2 147 32 26 89
23 124 -7z m52 -295 c479 -59 844 -434 867 -892 l6 -108 -983 0 -983 0 6 108
c18 339 225 644 542 797 176 86 359 117 545 95z m951 -1059 c20 -16 21 -21 10
-35 -12 -15 -110 -16 -1071 -16 -961 0 -1059 1 -1071 16 -11 14 -10 19 10 35
22 18 59 19 1061 19 1002 0 1039 -1 1061 -19z m-41 -116 c10 -12 10 -18 0 -30
-11 -13 -119 -15 -859 -15 -486 0 -840 4 -832 9 15 10 7 31 -13 31 -7 0 -21
-9 -31 -20 -10 -11 -25 -20 -34 -20 -13 0 -13 2 -2 9 15 10 7 31 -13 31 -7 0
-21 -9 -31 -20 -10 -11 -25 -20 -34 -20 -13 0 -13 2 -2 9 15 10 7 31 -13 31
-7 0 -21 -9 -31 -20 -10 -11 -25 -20 -34 -20 -13 0 -13 2 -2 9 15 10 7 31 -13
31 -7 0 -21 -9 -31 -20 -34 -38 -97 -14 -65 25 11 13 140 15 1020 15 883 0
1009 -2 1020 -15z m-1381 -119 c18 -19 25 -44 33 -108 15 -129 27 -165 64
-198 19 -16 50 -32 70 -36 89 -16 245 49 382 161 180 147 273 196 382 203 75
4 136 -9 125 -28 -3 -5 -76 -56 -163 -114 -86 -58 -189 -132 -229 -166 -91
-77 -317 -321 -391 -422 -32 -42 -61 -77 -67 -77 -17 -2 -369 141 -384 155
-26 23 -16 101 24 209 67 176 77 248 51 360 -17 71 -10 85 43 85 27 0 44 -7
60 -24z m365 -48 c-41 -83 -108 -180 -151 -221 -25 -24 -34 -26 -56 -18 -42
16 -59 54 -69 154 -6 50 -16 107 -24 125 l-13 32 175 0 174 0 -36 -72z m206
62 c0 -6 -19 -49 -42 -96 -32 -67 -50 -91 -84 -115 -48 -33 -162 -89 -181 -89
-7 0 10 29 37 65 27 35 70 105 95 155 l47 90 64 0 c37 0 64 -4 64 -10z m-599
-764 c103 -41 198 -80 212 -85 l26 -10 -54 -123 c-34 -79 -58 -122 -67 -120
-24 5 -443 165 -451 172 -4 3 13 53 39 111 25 57 50 114 55 126 7 19 12 21 31
14 13 -5 107 -43 209 -85z"/>
<path d="M1559 2939 c-27 -10 -49 -46 -49 -79 0 -10 11 -31 24 -46 18 -21 32
-28 61 -28 29 0 43 7 61 28 30 34 30 68 2 100 -27 30 -63 39 -99 25z"/>
<path d="M901 2215 c-69 -109 -105 -213 -121 -354 -13 -105 -6 -151 24 -151
20 0 21 5 22 78 2 142 49 294 124 407 37 55 39 61 23 73 -9 6 -20 12 -24 12
-4 0 -26 -29 -48 -65z"/>
<path d="M1830 1735 l0 -35 150 0 150 0 0 35 0 35 -150 0 -150 0 0 -35z"/>
</g>
</svg>
