<?xml version="1.0" standalone="no"?>
<!DOCTYPE svg PUBLIC "-//W3C//DTD SVG 20010904//EN"
 "http://www.w3.org/TR/2001/REC-SVG-20010904/DTD/svg10.dtd">
<svg version="1.0" xmlns="http://www.w3.org/2000/svg"
 width="256.000000pt" height="228.000000pt" viewBox="0 0 256.000000 228.000000"
 preserveAspectRatio="xMidYMid meet">
<metadata>
Created by potrace 1.15, written by Peter Selinger 2001-2017
</metadata>
<g transform="translate(0.000000,228.000000) scale(0.100000,-0.100000)">
<path d="M160 1150 l0 -1120 1120 0 1120 0 0 787 0 788 -80 -80 -80 -80 0
-627 0 -628 -960 0 -960 0 0 960 0 960 843 0 842 0 80 80 80 80 -1003 0 -1002
0 0 -1120z"/>
<path d="M1800 1675 l-535 -535 -215 224 -214 225 -26 -20 c-14 -10 -70 -62
-125 -114 l-100 -94 340 -341 340 -340 647 647 c357 357 648 653 648 658 0 10
-210 225 -220 225 -3 0 -246 -241 -540 -535z"/>
</g>
</svg>
