<?xml version="1.0" encoding="iso-8859-1"?>
<!-- Generator: Adobe Illustrator 16.0.0, SVG Export Plug-In . SVG Version: 6.00 Build 0)  -->
<!DOCTYPE svg PUBLIC "-//W3C//DTD SVG 1.1//EN" "http://www.w3.org/Graphics/SVG/1.1/DTD/svg11.dtd">
<svg version="1.1" id="Capa_1" xmlns="http://www.w3.org/2000/svg" xmlns:xlink="http://www.w3.org/1999/xlink" x="0px" y="0px"
	 width="710.059px" height="710.059px" viewBox="0 0 710.059 710.059" style="enable-background:new 0 0 710.059 710.059;"
	 xml:space="preserve">
<g>
	<g>
		<path d="M167.473,355.079L364.591,84.068c17.152-23.611,11.912-56.771-11.699-73.939C343.736,3.501,332.958,0,321.724,0
			c-16.928,0-32.921,8.171-42.751,21.822L59.219,323.941c-13.586,18.625-13.586,43.65-0.005,62.256l219.749,302.034
			c9.9,13.666,25.914,21.827,42.821,21.827c11.223,0,21.982-3.501,31.118-10.135c23.596-17.157,28.831-50.318,11.678-73.919
			L167.473,355.079z M341.164,683.761c-5.699,4.136-12.397,6.318-19.38,6.318c-10.524,0-20.489-5.074-26.658-13.586L75.358,374.435
			c-8.441-11.578-8.441-27.137,0.01-38.73L295.156,33.535c6.114-8.486,16.043-13.556,26.568-13.556
			c7.003,0,13.731,2.188,19.44,6.319c14.68,10.679,17.942,31.323,7.268,46.022L147.039,349.205c-2.553,3.501-2.553,8.247,0,11.753
			l201.382,276.8C359.101,652.448,355.844,673.087,341.164,683.761z"/>
		<path d="M650.866,626.006L453.749,355.079L650.855,84.088c8.327-11.403,11.713-25.364,9.525-39.31
			c-2.192-13.991-9.72-26.293-21.198-34.64C630.062,3.506,619.303,0,608.064,0c-16.902,0-32.906,8.161-42.806,21.822
			L345.475,323.971c-13.466,18.611-13.466,43.605,0.015,62.226l219.754,302.034c9.899,13.666,25.938,21.827,42.9,21.827
			c11.269,0,22.013-3.512,31.043-10.135c11.474-8.346,19.006-20.648,21.193-34.645C662.568,651.339,659.183,637.384,650.866,626.006
			z M640.642,662.188c-1.359,8.711-6.054,16.373-13.236,21.603c-5.609,4.115-12.268,6.288-19.256,6.288
			c-10.733,0-20.479-4.944-26.737-13.586L361.663,374.464c-8.396-11.593-8.396-27.177-0.015-38.76L581.422,33.56
			c6.164-8.501,16.124-13.581,26.643-13.581c6.988,0,13.687,2.188,19.37,6.319c7.153,5.205,11.843,12.867,13.212,21.578
			c1.358,8.666-0.739,17.342-5.935,24.45L433.319,349.21c-2.552,3.501-2.552,8.247,0,11.752l201.408,276.82
			C639.897,644.855,642,653.527,640.642,662.188z"/>
	</g>
</g>
<g>
</g>
<g>
</g>
<g>
</g>
<g>
</g>
<g>
</g>
<g>
</g>
<g>
</g>
<g>
</g>
<g>
</g>
<g>
</g>
<g>
</g>
<g>
</g>
<g>
</g>
<g>
</g>
<g>
</g>
</svg>
