<?xml version="1.0" encoding="utf-8"?>
<svg height="480pt" viewBox="0 -4 480 479" width="480pt" xmlns="http://www.w3.org/2000/svg" xmlns:xlink="http://www.w3.org/1999/xlink">
  <linearGradient id="a">
    <stop offset=".009" stop-color="#f12711" />
    <stop offset="1" stop-color="#f5af19" />
  </linearGradient>
  <linearGradient id="b" gradientUnits="userSpaceOnUse" x1="-34.896" x2="491.08" xlink:href="#a" y1="241.791331" y2="231.271331" />
  <linearGradient id="c" gradientUnits="userSpaceOnUse" x1="-31.528" x2="494.44" xlink:href="#a" y1="409.975331" y2="399.455331" />
  <linearGradient id="d" gradientUnits="userSpaceOnUse" x1="-33.864" x2="492.112" xlink:href="#a" y1="293.383331" y2="282.863331" />
  <linearGradient id="e" gradientUnits="userSpaceOnUse" x1="-33.848" x2="492.128" xlink:href="#a" y1="294.183331" y2="283.663331" />
  <linearGradient id="f" gradientUnits="userSpaceOnUse" x1="-33.832" x2="492.144" xlink:href="#a" y1="294.983331" y2="284.463331" />
  <linearGradient id="g" gradientUnits="userSpaceOnUse" x1="-34.792" x2="491.176" xlink:href="#a" y1="246.919331" y2="236.399331" />
  <path d="m440.457031 8.0625h-8.457031c-4.417969 0-8 3.582031-8 8v40h-296.558594c-4.433594-33.328125-33.898437-57.542969-67.453125-55.4375-33.554687 2.105469-59.757812 29.816406-59.988281 63.4375v344c.0390625 35.332031 28.671875 63.960938 64 64h375.296875c22.152344-.039062 40.207031-17.785156 40.625-39.933594 0-.136718.078125-.25.078125-.386718v-384.144532c-.027344-21.824218-17.714844-39.511718-39.542969-39.535156zm-.457031 16h.457031c12.992188.015625 23.523438 10.542969 23.542969 23.535156v352.320313c-6.835938-5.109375-15.144531-7.863281-23.679688-7.855469h-.320312zm-424 40c0-26.507812 21.492188-48 48-48s48 21.492188 48 48v301.808594c-12.101562-13.855469-29.601562-21.808594-48-21.808594s-35.898438 7.953125-48 21.808594zm0 344c0-26.507812 21.492188-48 48-48s48 21.492188 48 48c0 26.511719-21.492188 48-48 48-26.5-.027344-47.972656-21.5-48-48zm423.296875 48h-333.105469c13.847656-12.109375 21.796875-29.605469 21.808594-48v-336h296v328c0 4.417969 3.582031 8 8 8h8.320312c13 .003906 23.570313 10.488281 23.679688 23.488281-.113281 13.566407-11.136719 24.503907-24.703125 24.511719zm0 0" fill="url(#b)" />
  <path d="m64 376.0625c-17.671875 0-32 14.328125-32 32 0 17.675781 14.328125 32 32 32s32-14.324219 32-32c0-17.671875-14.328125-32-32-32zm0 48c-8.835938 0-16-7.164062-16-16s7.164062-16 16-16 16 7.164062 16 16-7.164062 16-16 16zm0 0" fill="url(#c)" />
  <path d="m224 264.0625h16v48h-16zm0 0" fill="url(#d)" />
  <path d="m264 264.0625h16v48h-16zm0 0" fill="url(#e)" />
  <path d="m304 264.0625h16v48h-16zm0 0" fill="url(#f)" />
  <path d="m330.34375 162.40625-34.34375 34.34375v-36.6875c0-13.253906-10.746094-24-24-24s-24 10.746094-24 24v32.710938c-2.640625-.457032-5.316406-.695313-8-.710938-5.558594.015625-11.074219 1-16.296875 2.914062-2.6875-24.398437-23.285156-42.878906-47.832031-42.914062h-7.871094c-4.417969 0-8 3.582031-8 8v7.871094c.054688 23.042968 16.410156 42.824218 39.03125 47.203125-3.164062 5.1875-5.304688 10.933593-6.3125 16.925781h-8.71875c-2.351562 0-4.585938 1.039062-6.105469 2.832031-1.519531 1.796875-2.171875 4.167969-1.78125 6.488281l16 96c.644531 3.855469 3.980469 6.679688 7.886719 6.679688h144c3.90625 0 7.242188-2.824219 7.886719-6.679688l16-96c.390625-2.320312-.261719-4.691406-1.78125-6.488281-1.519531-1.792969-3.753907-2.832031-6.105469-2.832031h-12.6875l26.34375-26.34375c11.960938-11.960938 11.960938-31.351562 0-43.3125s-31.351562-11.960938-43.3125 0zm-58.34375-10.34375c4.417969 0 8 3.582031 8 8v72h-16v-72c0-4.417969 3.582031-8 8-8zm-96 16c17.636719.09375 31.90625 14.367188 32 32-17.636719-.089844-31.90625-14.363281-32-32zm64 40c2.703125.039062 5.390625.421875 8 1.136719v22.863281h-38.863281c3.636719-14.085938 16.316406-23.945312 30.863281-24zm97.222656 120h-130.445312l-13.328125-80h157.101562zm25.121094-133.65625-37.65625 37.65625h-28.6875v-12.6875l8-8 10.34375 10.34375 11.3125-11.3125-10.34375-10.34375 12.6875-12.6875 10.34375 10.34375 11.3125-11.3125-10.34375-10.34375 2.34375-2.34375c5.746094-5.503906 14.839844-5.40625 20.46875.21875 5.625 5.628906 5.722656 14.722656.21875 20.46875zm0 0" fill="url(#g)" />
</svg>