<?xml version="1.0" encoding="utf-8"?>
<!-- Generator: Adobe Illustrator 21.0.2, SVG Export Plug-In . SVG Version: 6.00 Build 0)  -->
<svg version="1.1" id="Layer_1" xmlns="http://www.w3.org/2000/svg" xmlns:xlink="http://www.w3.org/1999/xlink" x="0px" y="0px"
	 viewBox="0 0 512 512" style="enable-background:new 0 0 512 512;" xml:space="preserve">
<style type="text/css">
	.st0{fill:#1D1D1B;}
	.st1{fill:#1D1D1B;stroke:#000000;stroke-width:0.25;stroke-miterlimit:10;}
	.st2{fill:none;stroke:#000000;stroke-width:30;stroke-miterlimit:10;}
</style>
<g>
	<path class="st0" d="M28.9,400.6v50.9h456.3v-50.9H28.9z M471.3,431.5H42.8v-10.9h428.5L471.3,431.5L471.3,431.5z"/>
	<rect x="172.5" y="369.7" class="st0" width="114" height="20"/>
	<rect x="139.9" y="369.7" class="st0" width="16.3" height="20"/>
	<path class="st0" d="M180.7,247c75.7,0,137.3,66.4,137.3,142.9h14.8c0-84.7-64.2-154.1-144.7-158.1v-16.5h7.8v-15.4h-30.5v15.4h7.8
		v16.5c-80.4,4-144.7,73.4-144.7,158.1h14.8C43.5,311.1,105,247,180.7,247z"/>
	<path class="st0" d="M404.7,390.1h15.8l-2-72.4h49.3l2,72.4h15.8V236h-34.6v-36.1l20.9-17.6l-8.8-16.6l-28,23.6V236h-32.6
		L404.7,390.1L404.7,390.1z M418.5,256h16.8v31.2h15.8V256h16.8v41.8h-49.3L418.5,256L418.5,256z"/>
	<path class="st1" d="M296.7,250.6h96.1V117.3H263.6l33.1,45L296.7,250.6L296.7,250.6z M378.1,137.3v93.3h-66.7V154l-12.3-16.7
		L378.1,137.3L378.1,137.3z"/>
	<polygon class="st0" points="424.7,113.5 400.5,113.5 400.5,133.5 408.9,133.5 408.9,195.9 400.5,195.9 400.5,215.9 424.7,215.9 	
		"/>
	<polygon class="st0" points="381.6,90.4 348.8,90.4 348.8,69.5 335,69.5 335,90.4 302.2,90.4 302.2,110.4 381.6,110.4 	"/>
	<rect x="310.4" y="256.4" class="st0" width="71.3" height="20"/>
	<polygon class="st0" points="399.7,390 397.7,287.3 326.6,287.3 326.6,307.3 381.8,307.3 383.9,390 	"/>
</g>
<rect x="5" y="4" class="st2" width="504" height="504"/>
</svg>
