<?xml version="1.0" encoding="iso-8859-1"?>
<!-- Generator: Adobe Illustrator 19.0.0, SVG Export Plug-In . SVG Version: 6.00 Build 0)  -->
<svg version="1.1" id="Layer_1" xmlns="http://www.w3.org/2000/svg" xmlns:xlink="http://www.w3.org/1999/xlink" x="0px" y="0px"
	 viewBox="0 0 512 512" style="enable-background:new 0 0 512 512;" xml:space="preserve">
    <!-- <style type="text/css">
	.st0{fill:black;}
	.st1{fill:none;stroke:black;stroke-width:10;stroke-miterlimit:10;}
</style> -->
<g >
	<g>
		<path d="M372.093,178.605V41.674C372.093,18.695,353.398,0,330.419,0H92.279C69.3,0,50.605,18.695,50.605,41.674v428.651
			C50.605,493.305,69.3,512,92.279,512h238.14c22.979,0,41.674-18.695,41.674-41.674V285.767h-35.721v71.442H86.326V107.163h250.047
			v71.442H372.093z M336.372,392.93v77.395c0,3.283-2.671,5.953-5.953,5.953H92.279c-3.283,0-5.953-2.671-5.953-5.953V392.93
			H336.372z M86.326,71.442V41.674c0-3.283,2.671-5.953,5.953-5.953h238.14c3.283,0,5.953,2.671,5.953,5.953v29.767H86.326z"/>
	</g>
</g>
<g >
	<g>
		<polygon points="461.395,232.191 407.169,177.937 407.169,214.326 211.349,214.326 211.349,250.047 407.169,250.047 
			407.169,286.431 		"/>
	</g>
</g>
<g >
	<g>
		<circle cx="211.349" cy="434.605" r="23.814"/>
	</g>
</g>
</svg>
