<svg id="Capa_1" enable-background="new 0 0 512 512" height="512" viewBox="0 0 512 512" width="512" xmlns="http://www.w3.org/2000/svg">
<path id="XMLID_774_" d="m512 328.462h-43.678c-7.377-105.439-91.882-189.944-197.322-197.321v-35.616h-30v35.616c-105.44 7.377-189.945 91.882-197.322 197.322h-43.678v30h30.87l30 58.013h392.26l30-58.013h28.87zm-256-167.857c95.775 0 174.59 74.022 182.248 167.857h-364.496c7.658-93.835 86.473-167.857 182.248-167.857zm178.87 225.87h-355.74l-14.486-28.013h384.713z"/>
<g xmlns="http://www.w3.org/2000/svg">
<path xmlns="http://www.w3.org/2000/svg" d="m214.281 267.338 24.971 22.336c1.379 1.234 3.161 1.91 5 1.91.174 0 .348-.006.522-.018 2.02-.141 3.898-1.094 5.206-2.641l47.447-56.15c2.674-3.164 2.276-7.895-.888-10.569-3.163-2.673-7.896-2.276-10.569.888l-42.469 50.258-19.221-17.193c-3.087-2.762-7.829-2.496-10.589.59-2.761 3.087-2.498 7.828.59 10.589z"/>
</g>
</svg>