<?xml version="1.0" encoding="UTF-8"?>
<svg xmlns="http://www.w3.org/2000/svg" width="800.000" height="600.000" viewBox="0.0 0.0 800.000 600.000" version="1.1">
  <title>Produce by Acme CAD Converter</title>
  <desc>Produce by Acme CAD Converter</desc>
<path d="M502.01 449.46L548.39 403.09"
fill="none" stroke="black" stroke-width="2.5"/>
<path d="M548.39 403.09L549.13 402.12M549.13 402.12L549.6 400.99M549.6 400.99L549.76 399.77M549.76 399.77L549.6 398.56M549.6 398.56L549.13 397.43M549.13 397.43L548.39 396.46"
fill="none" stroke="black" stroke-width="2.5"/>
<path d="M548.39 396.46L502.01 350.08"
fill="none" stroke="black" stroke-width="2.5"/>
<path d="M502.01 350.08L501.04 349.34M501.04 349.34L499.91 348.87M499.91 348.87L498.7 348.71M498.7 348.71L497.48 348.87M497.48 348.87L496.35 349.34M496.35 349.34L495.38 350.08"
fill="none" stroke="black" stroke-width="2.5"/>
<path d="M495.38 350.08L449.01 396.46"
fill="none" stroke="black" stroke-width="2.5"/>
<path d="M449.01 396.46L448.26 397.43M448.26 397.43L447.79 398.56M447.79 398.56L447.63 399.77M447.63 399.77L447.79 400.99M447.79 400.99L448.26 402.12M448.26 402.12L449.01 403.09"
fill="none" stroke="black" stroke-width="2.5"/>
<path d="M449.01 403.09L495.38 449.46"
fill="none" stroke="black" stroke-width="2.5"/>
<path d="M495.38 449.46L496.35 450.21M496.35 450.21L497.48 450.68M497.48 450.68L498.7 450.84M498.7 450.84L499.91 450.68M499.91 450.68L501.04 450.21M501.04 450.21L502.01 449.46"
fill="none" stroke="black" stroke-width="2.5"/>
<path d="M451.93 399.39L451.79 399.63M451.79 399.63L451.79 399.91M451.79 399.91L451.93 400.16"
fill="none" stroke="black" stroke-width="2.5"/>
<path d="M498.31 446.54L498.7 446.7M498.7 446.7L499.08 446.54"
fill="none" stroke="black" stroke-width="2.5"/>
<path d="M509.42 458.71L558.48 409.65"
fill="none" stroke="black" stroke-width="2.5"/>
<path d="M558.48 409.65L559 408.94M559 408.94L559.27 408.1M559.27 408.1L559.27 407.22M559.27 407.22L559 406.38M559 406.38L558.48 405.67"
fill="none" stroke="black" stroke-width="2.5"/>
<path d="M558.48 405.67L556.01 403.2"
fill="none" stroke="black" stroke-width="2.5"/>
<path d="M556.01 403.2L555.3 402.68M555.3 402.68L554.46 402.41M554.46 402.41L553.58 402.41M553.58 402.41L552.74 402.68M552.74 402.68L552.03 403.2"
fill="none" stroke="black" stroke-width="2.5"/>
<path d="M552.03 403.2L502.97 452.26"
fill="none" stroke="black" stroke-width="2.5"/>
<path d="M502.97 452.26L502.45 452.97M502.45 452.97L502.18 453.81M502.18 453.81L502.18 454.69M502.18 454.69L502.45 455.53M502.45 455.53L502.97 456.24"
fill="none" stroke="black" stroke-width="2.5"/>
<path d="M502.97 456.24L505.44 458.71"
fill="none" stroke="black" stroke-width="2.5"/>
<path d="M505.44 458.71L506.15 459.23M506.15 459.23L506.99 459.5M506.99 459.5L507.87 459.5M507.87 459.5L508.71 459.23M508.71 459.23L509.42 458.71"
fill="none" stroke="black" stroke-width="2.5"/>
<path d="M545.46 399.39L499.08 353.01"
fill="none" stroke="black" stroke-width="2.5"/>
<path d="M498.31 353.01L451.93 399.39"
fill="none" stroke="black" stroke-width="2.5"/>
<path d="M499.08 353.01L498.7 352.85M498.7 352.85L498.31 353.01"
fill="none" stroke="black" stroke-width="2.5"/>
<path d="M499.08 446.54L545.46 400.16"
fill="none" stroke="black" stroke-width="2.5"/>
<path d="M503.61 447.87L505.49 449.75"
fill="none" stroke="black" stroke-width="2.5"/>
<path d="M508.95 446.29L507.07 444.41"
fill="none" stroke="black" stroke-width="2.5"/>
<path d="M451.93 400.16L498.31 446.54"
fill="none" stroke="black" stroke-width="2.5"/>
<path d="M400.11 434.13L532.62 301.62"
fill="none" stroke="black" stroke-width="2.5"/>
<path d="M298.82 150.33L252.44 196.7"
fill="none" stroke="black" stroke-width="2.5"/>
<path d="M252.44 196.7L251.69 197.67M251.69 197.67L251.22 198.8M251.22 198.8L251.06 200.02M251.06 200.02L251.22 201.23M251.22 201.23L251.69 202.36M251.69 202.36L252.44 203.33"
fill="none" stroke="black" stroke-width="2.5"/>
<path d="M252.44 203.33L298.82 249.71"
fill="none" stroke="black" stroke-width="2.5"/>
<path d="M298.82 249.71L299.79 250.45M299.79 250.45L300.92 250.92M300.92 250.92L302.13 251.08M302.13 251.08L303.34 250.92M303.34 250.92L304.47 250.45M304.47 250.45L305.44 249.71"
fill="none" stroke="black" stroke-width="2.5"/>
<path d="M305.44 249.71L351.82 203.33"
fill="none" stroke="black" stroke-width="2.5"/>
<path d="M351.82 203.33L352.56 202.36M352.56 202.36L353.03 201.23M353.03 201.23L353.19 200.02M353.19 200.02L353.03 198.8M353.03 198.8L352.56 197.67M352.56 197.67L351.82 196.7"
fill="none" stroke="black" stroke-width="2.5"/>
<path d="M351.82 196.7L305.44 150.33"
fill="none" stroke="black" stroke-width="2.5"/>
<path d="M305.44 150.33L304.47 149.58M304.47 149.58L303.34 149.11M303.34 149.11L302.13 148.95M302.13 148.95L300.92 149.11M300.92 149.11L299.79 149.58M299.79 149.58L298.82 150.33"
fill="none" stroke="black" stroke-width="2.5"/>
<path d="M348.89 200.4L349.03 200.16M349.03 200.16L349.03 199.88M349.03 199.88L348.89 199.63"
fill="none" stroke="black" stroke-width="2.5"/>
<path d="M302.51 153.25L302.13 153.09M302.13 153.09L301.74 153.25"
fill="none" stroke="black" stroke-width="2.5"/>
<path d="M291.41 141.08L242.34 190.14"
fill="none" stroke="black" stroke-width="2.5"/>
<path d="M242.34 190.14L241.83 190.85M241.83 190.85L241.55 191.69M241.55 191.69L241.55 192.57M241.55 192.57L241.83 193.41M241.83 193.41L242.34 194.12"
fill="none" stroke="black" stroke-width="2.5"/>
<path d="M242.34 194.12L244.82 196.59"
fill="none" stroke="black" stroke-width="2.5"/>
<path d="M244.82 196.59L245.53 197.11M245.53 197.11L246.36 197.38M246.36 197.38L247.24 197.38M247.24 197.38L248.08 197.11M248.08 197.11L248.79 196.59"
fill="none" stroke="black" stroke-width="2.5"/>
<path d="M248.79 196.59L297.85 147.53"
fill="none" stroke="black" stroke-width="2.5"/>
<path d="M297.85 147.53L298.37 146.82M298.37 146.82L298.64 145.98M298.64 145.98L298.64 145.1M298.64 145.1L298.37 144.26M298.37 144.26L297.85 143.55"
fill="none" stroke="black" stroke-width="2.5"/>
<path d="M297.85 143.55L295.38 141.08"
fill="none" stroke="black" stroke-width="2.5"/>
<path d="M295.38 141.08L294.67 140.56M294.67 140.56L293.83 140.29M293.83 140.29L292.95 140.29M292.95 140.29L292.12 140.56M292.12 140.56L291.41 141.08"
fill="none" stroke="black" stroke-width="2.5"/>
<path d="M255.36 200.4L301.74 246.78"
fill="none" stroke="black" stroke-width="2.5"/>
<path d="M302.51 246.78L348.89 200.4"
fill="none" stroke="black" stroke-width="2.5"/>
<path d="M301.74 246.78L302.13 246.94M302.13 246.94L302.51 246.78"
fill="none" stroke="black" stroke-width="2.5"/>
<path d="M301.74 153.25L255.36 199.63"
fill="none" stroke="black" stroke-width="2.5"/>
<path d="M257.03 192.11L255.15 190.23"
fill="none" stroke="black" stroke-width="2.5"/>
<path d="M251.69 193.69L253.57 195.57"
fill="none" stroke="black" stroke-width="2.5"/>
<path d="M255.36 199.63L255.22 199.88M255.22 199.88L255.22 200.16M255.22 200.16L255.36 200.4"
fill="none" stroke="black" stroke-width="2.5"/>
<path d="M297.22 151.92L295.34 150.04"
fill="none" stroke="black" stroke-width="2.5"/>
<path d="M291.88 153.5L293.76 155.38"
fill="none" stroke="black" stroke-width="2.5"/>
<path d="M348.89 199.63L302.51 153.25"
fill="none" stroke="black" stroke-width="2.5"/>
<path d="M267.6 301.62L400.11 169.11"
fill="none" stroke="black" stroke-width="2.5"/>
<path d="M400.11 434.13L267.6 301.62"
fill="none" stroke="black" stroke-width="2.5"/>
<path d="M298.21 449.46L251.83 403.09"
fill="none" stroke="black" stroke-width="2.5"/>
<path d="M251.83 396.46L251.09 397.43M251.09 397.43L250.62 398.56M250.62 398.56L250.46 399.77M250.46 399.77L250.62 400.99M250.62 400.99L251.09 402.12M251.09 402.12L251.83 403.09"
fill="none" stroke="black" stroke-width="2.5"/>
<path d="M251.83 396.46L298.21 350.08"
fill="none" stroke="black" stroke-width="2.5"/>
<path d="M304.84 350.08L303.87 349.34M303.87 349.34L302.74 348.87M302.74 348.87L301.52 348.71M301.52 348.71L300.31 348.87M300.31 348.87L299.18 349.34M299.18 349.34L298.21 350.08"
fill="none" stroke="black" stroke-width="2.5"/>
<path d="M304.84 350.08L351.21 396.46"
fill="none" stroke="black" stroke-width="2.5"/>
<path d="M351.21 403.09L351.96 402.12M351.96 402.12L352.43 400.99M352.43 400.99L352.59 399.77M352.59 399.77L352.43 398.56M352.43 398.56L351.96 397.43M351.96 397.43L351.21 396.46"
fill="none" stroke="black" stroke-width="2.5"/>
<path d="M351.21 403.09L304.84 449.46"
fill="none" stroke="black" stroke-width="2.5"/>
<path d="M298.21 449.46L299.18 450.21M299.18 450.21L300.31 450.68M300.31 450.68L301.52 450.84M301.52 450.84L302.74 450.68M302.74 450.68L303.87 450.21M303.87 450.21L304.84 449.46"
fill="none" stroke="black" stroke-width="2.5"/>
<path d="M348.29 400.16L348.43 399.91M348.43 399.91L348.43 399.63M348.43 399.63L348.29 399.39"
fill="none" stroke="black" stroke-width="2.5"/>
<path d="M301.14 446.54L301.52 446.7M301.52 446.7L301.91 446.54"
fill="none" stroke="black" stroke-width="2.5"/>
<path d="M290.8 458.71L241.74 409.65"
fill="none" stroke="black" stroke-width="2.5"/>
<path d="M241.74 405.67L241.22 406.38M241.22 406.38L240.95 407.22M240.95 407.22L240.95 408.1M240.95 408.1L241.22 408.94M241.22 408.94L241.74 409.65"
fill="none" stroke="black" stroke-width="2.5"/>
<path d="M241.74 405.67L244.21 403.2"
fill="none" stroke="black" stroke-width="2.5"/>
<path d="M248.19 403.2L247.48 402.68M247.48 402.68L246.64 402.41M246.64 402.41L245.76 402.41M245.76 402.41L244.92 402.68M244.92 402.68L244.21 403.2"
fill="none" stroke="black" stroke-width="2.5"/>
<path d="M248.19 403.2L297.25 452.26"
fill="none" stroke="black" stroke-width="2.5"/>
<path d="M297.25 456.24L297.77 455.53M297.77 455.53L298.04 454.69M298.04 454.69L298.04 453.81M298.04 453.81L297.77 452.97M297.77 452.97L297.25 452.26"
fill="none" stroke="black" stroke-width="2.5"/>
<path d="M297.25 456.24L294.78 458.71"
fill="none" stroke="black" stroke-width="2.5"/>
<path d="M290.8 458.71L291.51 459.23M291.51 459.23L292.35 459.5M292.35 459.5L293.23 459.5M293.23 459.5L294.07 459.23M294.07 459.23L294.78 458.71"
fill="none" stroke="black" stroke-width="2.5"/>
<path d="M254.76 399.39L301.14 353.01"
fill="none" stroke="black" stroke-width="2.5"/>
<path d="M301.91 353.01L348.29 399.39"
fill="none" stroke="black" stroke-width="2.5"/>
<path d="M301.91 353.01L301.52 352.85M301.52 352.85L301.14 353.01"
fill="none" stroke="black" stroke-width="2.5"/>
<path d="M301.14 446.54L254.76 400.16"
fill="none" stroke="black" stroke-width="2.5"/>
<path d="M296.61 447.87L294.73 449.75"
fill="none" stroke="black" stroke-width="2.5"/>
<path d="M291.27 446.29L293.15 444.41"
fill="none" stroke="black" stroke-width="2.5"/>
<path d="M348.29 400.16L301.91 446.54"
fill="none" stroke="black" stroke-width="2.5"/>
<path d="M501.4 150.33L547.78 196.7"
fill="none" stroke="black" stroke-width="2.5"/>
<path d="M547.78 203.33L548.53 202.36M548.53 202.36L549 201.23M549 201.23L549.16 200.02M549.16 200.02L549 198.8M549 198.8L548.53 197.67M548.53 197.67L547.78 196.7"
fill="none" stroke="black" stroke-width="2.5"/>
<path d="M547.78 203.33L501.4 249.71"
fill="none" stroke="black" stroke-width="2.5"/>
<path d="M494.78 249.71L495.75 250.45M495.75 250.45L496.88 250.92M496.88 250.92L498.09 251.08M498.09 251.08L499.3 250.92M499.3 250.92L500.43 250.45M500.43 250.45L501.4 249.71"
fill="none" stroke="black" stroke-width="2.5"/>
<path d="M494.78 249.71L448.4 203.33"
fill="none" stroke="black" stroke-width="2.5"/>
<path d="M448.4 196.7L447.66 197.67M447.66 197.67L447.19 198.8M447.19 198.8L447.03 200.02M447.03 200.02L447.19 201.23M447.19 201.23L447.66 202.36M447.66 202.36L448.4 203.33"
fill="none" stroke="black" stroke-width="2.5"/>
<path d="M448.4 196.7L494.78 150.33"
fill="none" stroke="black" stroke-width="2.5"/>
<path d="M501.4 150.33L500.43 149.58M500.43 149.58L499.3 149.11M499.3 149.11L498.09 148.95M498.09 148.95L496.88 149.11M496.88 149.11L495.75 149.58M495.75 149.58L494.78 150.33"
fill="none" stroke="black" stroke-width="2.5"/>
<path d="M451.33 199.63L451.17 200.02M451.17 200.02L451.33 200.4"
fill="none" stroke="black" stroke-width="2.5"/>
<path d="M498.48 153.25L498.23 153.11M498.23 153.11L497.95 153.11M497.95 153.11L497.71 153.25"
fill="none" stroke="black" stroke-width="2.5"/>
<path d="M508.81 141.08L557.88 190.14"
fill="none" stroke="black" stroke-width="2.5"/>
<path d="M557.88 194.12L558.39 193.41M558.39 193.41L558.67 192.57M558.67 192.57L558.67 191.69M558.67 191.69L558.39 190.85M558.39 190.85L557.88 190.14"
fill="none" stroke="black" stroke-width="2.5"/>
<path d="M557.88 194.12L555.4 196.59"
fill="none" stroke="black" stroke-width="2.5"/>
<path d="M551.43 196.59L552.14 197.11M552.14 197.11L552.98 197.38M552.98 197.38L553.86 197.38M553.86 197.38L554.69 197.11M554.69 197.11L555.4 196.59"
fill="none" stroke="black" stroke-width="2.5"/>
<path d="M551.43 196.59L502.37 147.53"
fill="none" stroke="black" stroke-width="2.5"/>
<path d="M502.37 143.55L501.85 144.26M501.85 144.26L501.58 145.1M501.58 145.1L501.58 145.98M501.58 145.98L501.85 146.82M501.85 146.82L502.37 147.53"
fill="none" stroke="black" stroke-width="2.5"/>
<path d="M502.37 143.55L504.84 141.08"
fill="none" stroke="black" stroke-width="2.5"/>
<path d="M508.81 141.08L508.1 140.56M508.1 140.56L507.27 140.29M507.27 140.29L506.39 140.29M506.39 140.29L505.55 140.56M505.55 140.56L504.84 141.08"
fill="none" stroke="black" stroke-width="2.5"/>
<path d="M544.86 200.4L498.48 246.78"
fill="none" stroke="black" stroke-width="2.5"/>
<path d="M497.71 246.78L451.33 200.4"
fill="none" stroke="black" stroke-width="2.5"/>
<path d="M497.71 246.78L497.95 246.92M497.95 246.92L498.23 246.92M498.23 246.92L498.48 246.78"
fill="none" stroke="black" stroke-width="2.5"/>
<path d="M498.48 153.25L544.86 199.63"
fill="none" stroke="black" stroke-width="2.5"/>
<path d="M543.19 192.11L545.07 190.23"
fill="none" stroke="black" stroke-width="2.5"/>
<path d="M548.53 193.69L546.65 195.57"
fill="none" stroke="black" stroke-width="2.5"/>
<path d="M544.86 200.4L545.01 200.02M545.01 200.02L544.86 199.63"
fill="none" stroke="black" stroke-width="2.5"/>
<path d="M503 151.92L504.88 150.04"
fill="none" stroke="black" stroke-width="2.5"/>
<path d="M508.34 153.5L506.46 155.38"
fill="none" stroke="black" stroke-width="2.5"/>
<path d="M451.33 199.63L497.71 153.25"
fill="none" stroke="black" stroke-width="2.5"/>
<path d="M532.62 301.62L400.11 169.11"
fill="none" stroke="black" stroke-width="2.5"/>
</svg>
