<?xml version="1.0" encoding="UTF-8"?>
<svg xmlns="http://www.w3.org/2000/svg" width="800.000" height="600.000" viewBox="0.0 0.0 800.000 600.000" version="1.1">
  <title>Produce by Acme CAD Converter</title>
  <desc>Produce by Acme CAD Converter</desc>
<path d="M279.56 377.81L217.95 377.81"
fill="none" stroke="black" stroke-width="0.5"/>
<path d="M279.56 444.59L279.56 244.24"
fill="none" stroke="black" stroke-width="0.5"/>
<path d="M206.08 454.15L199.2 454.15"
fill="none" stroke="black" stroke-width="0.5"/>
<path d="M199.2 454.15L199.2 234.68"
fill="none" stroke="black" stroke-width="0.5"/>
<path d="M199.2 234.68L206.08 234.68"
fill="none" stroke="black" stroke-width="0.5"/>
<path d="M279.56 311.02L217.95 311.02"
fill="none" stroke="black" stroke-width="0.5"/>
<path d="M206.08 229.32L284.27 229.32"
fill="none" stroke="black" stroke-width="0.5"/>
<path d="M284.27 229.32L284.27 244.24"
fill="none" stroke="black" stroke-width="0.5"/>
<path d="M284.27 244.24L217.95 244.24"
fill="none" stroke="black" stroke-width="0.5"/>
<path d="M217.95 244.24L217.95 444.59"
fill="none" stroke="black" stroke-width="0.5"/>
<path d="M217.95 444.59L284.27 444.59"
fill="none" stroke="black" stroke-width="0.5"/>
<path d="M284.27 444.59L284.27 459.5"
fill="none" stroke="black" stroke-width="0.5"/>
<path d="M284.27 459.5L206.08 459.5"
fill="none" stroke="black" stroke-width="0.5"/>
<path d="M206.08 459.5L206.08 229.32"
fill="none" stroke="black" stroke-width="0.5"/>
<path d="M520.44 377.81L582.05 377.81"
fill="none" stroke="black" stroke-width="0.5"/>
<path d="M520.44 444.59L520.44 244.24"
fill="none" stroke="black" stroke-width="0.5"/>
<path d="M593.92 454.15L600.8 454.15"
fill="none" stroke="black" stroke-width="0.5"/>
<path d="M600.8 454.15L600.8 234.68"
fill="none" stroke="black" stroke-width="0.5"/>
<path d="M600.8 234.68L593.92 234.68"
fill="none" stroke="black" stroke-width="0.5"/>
<path d="M520.44 311.02L582.05 311.02"
fill="none" stroke="black" stroke-width="0.5"/>
<path d="M593.92 229.32L515.73 229.32"
fill="none" stroke="black" stroke-width="0.5"/>
<path d="M515.73 229.32L515.73 244.24"
fill="none" stroke="black" stroke-width="0.5"/>
<path d="M515.73 244.24L582.05 244.24"
fill="none" stroke="black" stroke-width="0.5"/>
<path d="M582.05 244.24L582.05 444.59"
fill="none" stroke="black" stroke-width="0.5"/>
<path d="M582.05 444.59L515.73 444.59"
fill="none" stroke="black" stroke-width="0.5"/>
<path d="M515.73 444.59L515.73 459.5"
fill="none" stroke="black" stroke-width="0.5"/>
<path d="M515.73 459.5L593.92 459.5"
fill="none" stroke="black" stroke-width="0.5"/>
<path d="M593.92 459.5L593.92 229.32"
fill="none" stroke="black" stroke-width="0.5"/>
<path d="M434.16 220.76L434.16 159.14"
fill="none" stroke="black" stroke-width="0.5"/>
<path d="M500.93 220.76L300.59 220.76"
fill="none" stroke="black" stroke-width="0.5"/>
<path d="M510.5 147.28L510.5 140.39"
fill="none" stroke="black" stroke-width="0.5"/>
<path d="M510.5 140.39L291.02 140.39"
fill="none" stroke="black" stroke-width="0.5"/>
<path d="M291.02 140.39L291.02 147.28"
fill="none" stroke="black" stroke-width="0.5"/>
<path d="M367.36 220.76L367.36 159.14"
fill="none" stroke="black" stroke-width="0.5"/>
<path d="M285.67 147.28L285.67 225.46"
fill="none" stroke="black" stroke-width="0.5"/>
<path d="M285.67 225.46L300.59 225.46"
fill="none" stroke="black" stroke-width="0.5"/>
<path d="M300.59 225.46L300.59 159.14"
fill="none" stroke="black" stroke-width="0.5"/>
<path d="M300.59 159.14L500.93 159.14"
fill="none" stroke="black" stroke-width="0.5"/>
<path d="M500.93 159.14L500.93 225.46"
fill="none" stroke="black" stroke-width="0.5"/>
<path d="M500.93 225.46L515.85 225.46"
fill="none" stroke="black" stroke-width="0.5"/>
<path d="M515.85 225.46L515.85 147.28"
fill="none" stroke="black" stroke-width="0.5"/>
<path d="M515.85 147.28L285.67 147.28"
fill="none" stroke="black" stroke-width="0.5"/>
<path d="M471.59 270.47L471.59 418.36"
fill="none" stroke="black" stroke-width="0.5"/>
<path d="M471.59 418.36L323.71 418.36"
fill="none" stroke="black" stroke-width="0.5"/>
<path d="M323.71 418.36L323.71 270.47"
fill="none" stroke="black" stroke-width="0.5"/>
<path d="M323.71 270.47L471.59 270.47"
fill="none" stroke="black" stroke-width="0.5"/>
</svg>
