<?xml version="1.0" encoding="UTF-8" standalone="no"?>
<svg
   xmlns:dc="http://purl.org/dc/elements/1.1/"
   xmlns:cc="http://creativecommons.org/ns#"
   xmlns:rdf="http://www.w3.org/1999/02/22-rdf-syntax-ns#"
   xmlns:svg="http://www.w3.org/2000/svg"
   xmlns="http://www.w3.org/2000/svg"
   height="65"
   width="65"
   xml:space="preserve"
   viewBox="0 0 65 65"
   y="0px"
   x="0px"
   id="Capa_1"
   version="1.1"><metadata
   id="metadata47"><rdf:RDF><cc:Work
       rdf:about=""><dc:format>image/svg+xml</dc:format><dc:type
         rdf:resource="http://purl.org/dc/dcmitype/StillImage" /></cc:Work></rdf:RDF></metadata><defs
   id="defs45" />
<g
   id="g10">
	<g
   id="g8">
		<path
   id="path2"
   d="M 32.5,0 C 14.58,0 0,14.579 0,32.5 0,50.421 14.58,65 32.5,65 50.42,65 65,50.421 65,32.5 65,14.579 50.42,0 32.5,0 Z m 0,61 C 16.785,61 4,48.215 4,32.5 4,16.785 16.785,4 32.5,4 48.215,4 61,16.785 61,32.5 61,48.215 48.215,61 32.5,61 Z" />
		<circle
   id="circle4"
   r="3.345"
   cy="19.541"
   cx="33.018002" />
		<path
   id="path6"
   d="m 32.137,28.342 c -1.104,0 -2,0.896 -2,2 v 17 c 0,1.104 0.896,2 2,2 1.104,0 2,-0.896 2,-2 v -17 c 0,-1.105 -0.896,-2 -2,-2 z" />
	</g>
</g>
<g
   id="g12">
</g>
<g
   id="g14">
</g>
<g
   id="g16">
</g>
<g
   id="g18">
</g>
<g
   id="g20">
</g>
<g
   id="g22">
</g>
<g
   id="g24">
</g>
<g
   id="g26">
</g>
<g
   id="g28">
</g>
<g
   id="g30">
</g>
<g
   id="g32">
</g>
<g
   id="g34">
</g>
<g
   id="g36">
</g>
<g
   id="g38">
</g>
<g
   id="g40">
</g>
</svg>