<?xml version="1.0" standalone="no"?>
<!DOCTYPE svg PUBLIC "-//W3C//DTD SVG 20010904//EN"
 "http://www.w3.org/TR/2001/REC-SVG-20010904/DTD/svg10.dtd">
<svg version="1.0" xmlns="http://www.w3.org/2000/svg"
 width="512.000000pt" height="512.000000pt" viewBox="0 0 512.000000 512.000000"
 preserveAspectRatio="xMidYMid meet">
<metadata>
Created by potrace 1.15, written by Peter Selinger 2001-2017
</metadata>
<g transform="translate(0.000000,512.000000) scale(0.100000,-0.100000)"
fill="#000000" stroke="none">
<path d="M793 5105 c-136 -42 -251 -170 -282 -313 -8 -38 -11 -658 -11 -2235
0 -2359 -3 -2234 51 -2339 34 -67 115 -145 188 -181 l66 -32 1306 0 1305 0 76
38 c128 63 207 172 228 314 6 41 10 438 10 991 l0 922 -185 0 -185 0 0 -360 0
-360 -1245 0 -1245 0 0 1245 0 1245 1245 0 1245 0 0 -355 0 -355 185 0 185 0
0 683 c0 395 -5 711 -10 750 -23 159 -121 279 -273 336 l-58 21 -1277 -1
c-1027 0 -1285 -3 -1319 -14z m2547 -365 c18 -18 20 -33 20 -175 l0 -155
-1245 0 -1245 0 0 159 c0 154 1 160 22 175 20 14 153 16 1225 16 1190 0 1203
0 1223 -20z m20 -3945 c0 -382 -1 -396 -20 -415 -20 -20 -33 -20 -1223 -20
-1072 0 -1205 2 -1225 16 l-22 15 0 400 0 399 1245 0 1245 0 0 -395z"/>
<path d="M2055 1011 c-134 -35 -212 -173 -174 -308 20 -73 98 -147 171 -163
102 -23 194 8 254 87 116 152 19 371 -171 388 -28 2 -63 1 -80 -4z"/>
<path d="M4070 3160 l0 -180 -980 0 -980 0 0 -180 0 -180 980 0 980 0 0 -187
0 -188 277 277 278 278 -270 270 c-148 148 -273 270 -277 270 -5 0 -8 -81 -8
-180z"/>
</g>
</svg>
