<svg id="Layer_3" enable-background="new 0 0 64 64" height="512" viewBox="0 0 64 64" width="512" xmlns="http://www.w3.org/2000/svg"><g><path d="m32 20.051v-3.051h-2v13h-13v2h3.051c.507 5.598 5.221 10 10.949 10 6.065 0 11-4.935 11-11 0-5.728-4.402-10.442-10-10.949zm-1 19.949c-4.624 0-8.441-3.507-8.941-8h8.941c.552 0 1-.448 1-1v-8.941c4.493.5 8 4.317 8 8.941 0 4.962-4.038 9-9 9z"/><path d="m59.306 40.941c1.12-3.188 1.694-6.527 1.694-9.941 0-16.542-13.458-30-30-30s-30 13.458-30 30 13.458 30 30 30c3.413 0 6.753-.575 9.941-1.695 2.343 2.282 5.537 3.695 9.059 3.695 7.168 0 13-5.832 13-13 0-3.522-1.413-6.716-3.694-9.059zm-56.306-9.941c0-15.439 12.561-28 28-28s28 12.561 28 28c0 2.917-.47 5.77-1.347 8.515-1.089-.797-2.3-1.432-3.608-1.862.622-2.156.955-4.386.955-6.653 0-13.233-10.767-24-24-24s-24 10.767-24 24 10.767 24 24 24c2.267 0 4.497-.333 6.653-.955.43 1.308 1.065 2.519 1.862 3.608-2.745.876-5.598 1.347-8.515 1.347-15.439 0-28-12.561-28-28zm34 19c0 .716.073 1.415.185 2.1-1.684.493-3.42.781-5.185.86v-3.96h-2v3.975c-5.313-.239-10.142-2.37-13.825-5.735l2.532-2.532-1.414-1.414-2.532 2.532c-3.366-3.684-5.497-8.513-5.736-13.826h3.975v-2h-3.975c.239-5.313 2.37-10.142 5.735-13.825l2.532 2.532 1.414-1.414-2.532-2.532c3.684-3.366 8.513-5.497 13.826-5.736v3.975h2v-3.975c5.313.239 10.142 2.37 13.825 5.735l-2.532 2.532 1.414 1.414 2.532-2.532c3.366 3.684 5.496 8.512 5.735 13.825h-3.974v2h3.96c-.079 1.765-.367 3.501-.86 5.186-.685-.112-1.383-.185-2.1-.185-7.168 0-13 5.832-13 13zm13 11c-6.065 0-11-4.935-11-11s4.935-11 11-11 11 4.935 11 11-4.935 11-11 11z"/><path d="m54 47c0-2.206-1.794-4-4-4s-4 1.794-4 4c0 1.2.542 2.266 1.382 3-.84.734-1.382 1.8-1.382 3 0 2.206 1.794 4 4 4s4-1.794 4-4c0-1.2-.542-2.266-1.382-3 .84-.734 1.382-1.8 1.382-3zm-2 6c0 1.103-.897 2-2 2s-2-.897-2-2 .897-2 2-2 2 .897 2 2zm-4-6c0-1.103.897-2 2-2s2 .897 2 2-.897 2-2 2-2-.897-2-2z"/></g></svg>