<svg height="502pt" viewBox="-1 0 501 502" width="502pt" xmlns="http://www.w3.org/2000/svg"><path d="m493.589844 208.261719-48-4.625c-5.113282-20.523438-13.386719-40.125-24.53125-58.101563l30.621094-36.976562c2.304687-2.78125 2.113281-6.859375-.441407-9.414063l-50.457031-50.460937c-2.554688-2.554688-6.632812-2.746094-9.417969-.441406l-36.921875 30.574218c-17.960937-11.203125-37.59375-19.472656-58.160156-24.492187l-4.625-48c-.347656-3.585938-3.363281-6.324219-6.96875-6.324219h-68.957031c-3.605469 0-6.621094 2.738281-6.964844 6.328125l-4.628906 48c-20.5625 5.019531-40.195313 13.289063-58.15625 24.492187l-36.925781-30.582031c-2.78125-2.300781-6.859376-2.109375-9.414063.445313l-50.460937 50.457031c-2.554688 2.554687-2.746094 6.632813-.441407 9.414063l30.621094 36.976562c-11.140625 17.976562-19.417969 37.578125-24.53125 58.101562l-48 4.625c-3.589844.347657-6.328125 3.363282-6.328125 6.96875v71.542969c0 3.605469 2.738281 6.621094 6.328125 6.96875l48 4.625c5.019531 20.566407 13.289063 40.195313 24.492187 58.15625l-30.582031 36.925781c-2.304687 2.785157-2.113281 6.863282.441407 9.417969l50.460937 50.460938c2.554687 2.554687 6.632813 2.746093 9.414063.441406l36.976562-30.621094c17.980469 11.140625 37.582031 19.417969 58.105469 24.53125l4.628906 48c.34375 3.585938 3.359375 6.324219 6.964844 6.324219h68.957031c3.609375 0 6.625-2.738281 6.96875-6.328125l4.625-48c20.527344-5.113281 40.128906-13.390625 58.109375-24.53125l36.976563 30.621094c2.78125 2.304687 6.859374 2.113281 9.414062-.441407l50.460938-50.460937c2.554687-2.554687 2.746093-6.632813.441406-9.414063l-30.582032-36.925781c11.203126-17.960937 19.472657-37.59375 24.492188-58.160156l48-4.625c3.589844-.34375 6.328125-3.359375 6.328125-6.96875v-71.535156c0-3.605469-2.742187-6.625-6.332031-6.96875zm-7.671875 72.148437-46.6875 4.5c-3.03125.292969-5.523438 2.511719-6.167969 5.488282-4.847656 22.378906-13.816406 43.65625-26.453125 62.75-1.714844 2.574218-1.539063 5.96875.433594 8.347656l29.789062 35.972656-41.449219 41.449219-35.972656-29.789063c-2.351562-1.949218-5.691406-2.148437-8.257812-.492187-19.175782 12.554687-40.464844 21.535156-62.835938 26.507812-2.976562.640625-5.195312 3.136719-5.488281 6.167969l-4.5 46.6875h-56.238281l-4.5-46.6875c-.292969-3.03125-2.511719-5.527344-5.488282-6.171875-22.375-4.972656-43.664062-13.953125-62.835937-26.503906-2.566406-1.65625-5.910156-1.457031-8.261719.492187l-35.972656 29.785156-41.445312-41.445312 29.785156-35.96875c1.972656-2.382812 2.148437-5.773438.433594-8.347656-12.632813-19.09375-21.601563-40.375-26.449219-62.753906-.640625-2.976563-3.136719-5.195313-6.167969-5.488282l-46.6875-4.5v-58.820312l46.6875-4.5c3.03125-.292969 5.527344-2.511719 6.167969-5.488282 4.972656-22.375 13.953125-43.660156 26.507812-62.835937 1.65625-2.566406 1.457031-5.910156-.492187-8.261719l-29.789063-35.972656 41.449219-41.445312 35.972656 29.789062c2.378906 1.972656 5.773438 2.148438 8.347656.433594 19.09375-12.636719 40.371094-21.605469 62.75-26.449219 2.976563-.644531 5.195313-3.140625 5.488282-6.171875l4.5-46.6875h56.238281l4.5 46.6875c.292969 3.03125 2.511719 5.527344 5.488281 6.171875 22.378906 4.84375 43.65625 13.8125 62.75 26.445313 2.574219 1.714843 5.964844 1.539062 8.347656-.433594l35.972657-29.785156 41.449219 41.445312-29.789063 35.972656c-1.949219 2.351563-2.148437 5.695313-.492187 8.261719 12.550781 19.171875 21.53125 40.460937 26.503906 62.835937.644531 2.976563 3.140625 5.195313 6.171875 5.488282l46.6875 4.5zm0 0"/><path d="m251.183594 99.992188c-83.269532 0-151.007813 67.742187-151.007813 151.007812s67.738281 151.007812 151.007813 151.007812c83.265625 0 151.003906-67.742187 151.003906-151.007812s-67.742188-151.007812-151.003906-151.007812zm31.269531 58.371093v15.347657c-.019531 17.316406-14.050781 31.347656-31.363281 31.363281-17.316406-.015625-31.347656-14.046875-31.367188-31.363281v-15.347657c0-17.320312 14.042969-31.363281 31.367188-31.363281 17.320312 0 31.363281 14.042969 31.363281 31.363281zm-114.367187 201.488281v-87.832031c.019531-18.34375 14.890624-33.214843 33.234374-33.234375h8.082032l25.179687 91.863282-1.644531 34.988281c-.117188 2.476562 1.085938 4.828125 3.160156 6.183593l12.714844 8.316407c2.351562 1.539062 5.394531 1.519531 7.730469-.042969l12.398437-8.316406c2.050782-1.375 3.222656-3.722656 3.09375-6.1875l-1.765625-33.023438-.054687-1.417968 22.449218-91.738282h7.925782c18.347656.023438 33.214844 14.890625 33.234375 33.238282v87.550781c-49.023438 37.207031-116.867188 37.066406-165.738281-.34375zm79.875-118.25 9.324218.03125-1.320312 2.636719-6.691406-.046875zm5.59375 24.964844 2.734374 66.65625 1.554688 29.136719-5.25 3.519531-5.484375-3.578125 4.5-95.742187zm94.273437 81.445313v-75.363281c-.03125-26.074219-21.160156-47.207032-47.234375-47.234376h-13.417969c-3.226562 0-6.035156 2.203126-6.800781 5.335938l-12.230469 49.960938-.875-21.375c-.054687-1.402344-.535156-2.753907-1.371093-3.878907.242187-.320312.453124-.660156.636718-1.019531l8.316406-16.628906c1.082032-2.167969.96875-4.738282-.300781-6.800782s-3.515625-3.320312-5.9375-3.332031l-31.972656-.113281h-.027344c-2.425781 0-4.675781 1.257812-5.953125 3.320312-1.273437 2.0625-1.390625 4.640626-.304687 6.808594l8.3125 16.628906c.183593.359376.394531.699219.636719 1.019532-.824219 1.117187-1.304688 2.453125-1.367188 3.839844l-1.226562 26.257812-15.214844-55.5c-.832032-3.042969-3.597656-5.152344-6.75-5.152344h-13.421875c-26.078125.03125-47.207031 21.160156-47.234375 47.238282v75.542968c-25.582032-25.625-39.9375-60.359375-39.914063-96.566406 0-71.628906 55.25-130.582031 125.371094-136.507812-19.914063 5.265624-33.796875 23.273437-33.824219 43.871093v15.347657c0 25.054687 20.308594 45.363281 45.363282 45.363281 25.054687 0 45.367187-20.308594 45.367187-45.363281v-15.347657c-.027344-20.632812-13.953125-38.660156-33.914063-43.898437 70.253907 5.800781 125.648438 64.8125 125.648438 136.53125.023438 36.429687-14.507812 71.355468-40.359375 97.019531zm0 0"/></svg>