<?xml version='1.0' encoding='iso-8859-1'?>
<svg version="1.1" xmlns="http://www.w3.org/2000/svg" viewBox="0 0 18.631 18.631" xmlns:xlink="http://www.w3.org/1999/xlink" enable-background="new 0 0 18.631 18.631">
  <g>
    <g>
      <path fill="#FFFFFF" d="m17.783,.002h-16.935c-0.469,0-0.848,0.379-0.848,0.844v16.939c0,0.465 0.379,0.844 0.848,0.844h16.935c0.469,0 0.848-0.379 0.848-0.844v-16.939c3.55271e-15-0.465-0.379-0.844-0.848-0.844zm-2.539,13.548h-5.083c-0.465,0-0.844-0.379-0.844-0.848s0.379-0.847 0.844-0.847h5.083c0.469,0 0.847,0.379 0.847,0.847s-0.379,0.848-0.847,0.848zm-13.549,3.387v-15.243h15.243l-15.243,15.243zm1.692-10.161h1.695v1.692c0,0.469 0.379,0.848 0.847,0.848 0.465,0 0.844-0.379 0.844-0.848v-1.692h1.695c0.469,0 0.848-0.379 0.848-0.848s-0.378-0.847-0.847-0.847h-1.695v-1.692c0-0.469-0.379-0.848-0.844-0.848-0.469,0-0.847,0.379-0.847,0.848v1.692h-1.696c-0.465,0-0.844,0.379-0.844,0.847s0.379,0.848 0.844,0.848z"/>
    </g>
  </g>
</svg>
