<svg id="Capa_1" enable-background="new 0 0 512 512" height="512" viewBox="0 0 512 512" width="512" xmlns="http://www.w3.org/2000/svg"><g><g><path d="m147.002 438.913h-11.845c-4.152 0-7.517 3.366-7.517 7.517 0 4.152 3.366 7.517 7.517 7.517h4.327v47.901c0 4.152 3.366 7.517 7.517 7.517s7.517-3.366 7.517-7.517v-55.418c.001-4.151-3.364-7.517-7.516-7.517z"/><path d="m211.256 438.913h-30.487c-4.152 0-7.517 3.366-7.517 7.517 0 4.152 3.366 7.517 7.517 7.517h18.97l-19.726 44.876c-1.671 3.801.056 8.236 3.857 9.907.984.433 2.011.638 3.021.638 2.891 0 5.648-1.678 6.886-4.494l24.361-55.418c1.022-2.325.801-5.008-.587-7.134s-3.756-3.409-6.295-3.409z"/><ellipse cx="244.958" cy="450.795" rx="7.594" ry="7.594" transform="matrix(.998 -.071 .071 .998 -31.34 18.499)"/><path d="m244.958 489.891c-4.194 0-7.594 3.4-7.594 7.594s3.4 7.594 7.594 7.594 7.594-3.4 7.594-7.594-3.4-7.594-7.594-7.594z"/><path d="m294.169 436.28c-13.442 0-24.378 10.936-24.378 24.378v26.964c0 13.442 10.936 24.378 24.378 24.378s24.378-10.936 24.378-24.378v-26.964c-.001-13.442-10.936-24.378-24.378-24.378zm9.343 51.342c0 5.152-4.191 9.343-9.343 9.343s-9.343-4.191-9.343-9.343v-26.964c0-5.152 4.191-9.343 9.343-9.343s9.343 4.191 9.343 9.343z"/><path d="m359.983 436.28c-13.442 0-24.378 10.936-24.378 24.378v26.964c0 13.442 10.936 24.378 24.378 24.378s24.378-10.936 24.378-24.378v-26.964c-.001-13.442-10.936-24.378-24.378-24.378zm9.343 51.342c0 5.152-4.191 9.343-9.343 9.343s-9.343-4.191-9.343-9.343v-26.964c0-5.152 4.191-9.343 9.343-9.343s9.343 4.191 9.343 9.343z"/><ellipse cx="255.896" cy="14.515" rx="7.594" ry="7.594" transform="matrix(.099 -.995 .995 .099 216.236 267.735)"/><path d="m255.896 68.799c4.194 0 7.594-3.4 7.594-7.594s-3.4-7.594-7.594-7.594-7.594 3.4-7.594 7.594 3.4 7.594 7.594 7.594z"/><path d="m206.95 50.258c.238 0 .474-.011.711-.018-4.531 6.733-9.139 10.333-9.29 10.449-3.308 2.483-3.989 7.175-1.518 10.498 1.475 1.984 3.742 3.031 6.037 3.031 1.56 0 3.133-.484 4.481-1.486.831-.618 20.255-15.368 23.654-43.027.197-1.246.302-2.523.302-3.824 0-13.442-10.936-24.378-24.378-24.378s-24.378 10.936-24.378 24.378 10.937 24.377 24.379 24.377zm0-33.721c5.152 0 9.343 4.191 9.343 9.343s-4.191 9.343-9.343 9.343-9.343-4.191-9.343-9.343 4.192-9.343 9.343-9.343z"/><path d="m305.107 75.786c13.442 0 24.378-10.936 24.378-24.378v-26.964c0-13.442-10.936-24.378-24.378-24.378s-24.378 10.936-24.378 24.378v26.964c0 13.442 10.936 24.378 24.378 24.378zm-9.343-51.342c0-5.152 4.191-9.343 9.343-9.343s9.343 4.191 9.343 9.343v26.964c0 5.152-4.191 9.343-9.343 9.343s-9.343-4.191-9.343-9.343z"/><path d="m370.92 75.786c13.442 0 24.378-10.936 24.378-24.378v-26.964c0-13.442-10.936-24.378-24.378-24.378s-24.378 10.936-24.378 24.378v26.964c0 13.442 10.936 24.378 24.378 24.378zm-9.343-51.342c0-5.152 4.191-9.343 9.343-9.343s9.343 4.191 9.343 9.343v26.964c0 5.152-4.191 9.343-9.343 9.343s-9.343-4.191-9.343-9.343z"/><path d="m141.079 75.72c13.442 0 24.378-10.936 24.378-24.378v-26.964c0-13.442-10.936-24.378-24.378-24.378s-24.378 10.936-24.378 24.378v26.965c.001 13.441 10.937 24.377 24.378 24.377zm-9.343-51.342c0-5.152 4.191-9.343 9.343-9.343s9.343 4.191 9.343 9.343v26.965c0 5.152-4.191 9.343-9.343 9.343s-9.343-4.191-9.343-9.343z"/><path d="m419.445 256c0-90.123-73.321-163.445-163.445-163.445-34.283 0-67.101 10.499-94.906 30.362-3.378 2.413-4.161 7.109-1.748 10.487 2.414 3.379 7.109 4.16 10.487 1.747 25.24-18.03 55.037-27.561 86.167-27.561 81.834 0 148.41 66.577 148.41 148.41s-66.577 148.41-148.41 148.41-148.41-66.577-148.41-148.41c0-36.339 13.268-71.304 37.359-98.457 2.756-3.105 2.472-7.857-.634-10.612-3.105-2.756-7.856-2.472-10.612.634-26.535 29.905-41.148 68.415-41.148 108.435 0 90.123 73.321 163.445 163.445 163.445s163.445-73.322 163.445-163.445z"/><path d="m349.857 336.575c3.306 2.513 8.022 1.867 10.533-1.437 17.437-22.948 26.654-50.314 26.654-79.137 0-72.258-58.786-131.044-131.045-131.044-72.258 0-131.044 58.786-131.044 131.044s58.787 131.043 131.045 131.043c28.234 0 55.147-8.877 77.828-25.671 3.337-2.47 4.039-7.178 1.568-10.515s-7.18-4.039-10.515-1.568c-1.482 1.098-2.991 2.144-4.513 3.165l-3.689-6.389c-2.076-3.596-6.676-4.828-10.269-2.751-3.595 2.076-4.828 6.673-2.752 10.269l3.704 6.416c-13.651 6.786-28.47 10.77-43.846 11.749v-7.41c0-4.152-3.365-7.517-7.517-7.517s-7.517 3.366-7.517 7.517v7.42c-15.657-1.006-30.476-5.131-43.846-11.761l3.704-6.415c2.076-3.595.844-8.193-2.752-10.269-3.597-2.077-8.193-.845-10.269 2.751l-3.693 6.397c-12.68-8.49-23.6-19.41-32.09-32.09l6.397-3.693c3.596-2.076 4.828-6.674 2.752-10.269-2.076-3.596-6.675-4.826-10.269-2.752l-6.415 3.704c-6.63-13.369-10.754-28.189-11.761-43.846h7.42c4.152 0 7.517-3.366 7.517-7.517s-3.366-7.517-7.517-7.517h-7.42c1.006-15.657 5.131-30.476 11.761-43.846l6.415 3.704c1.184.684 2.476 1.009 3.752 1.009 2.598 0 5.125-1.348 6.517-3.76 2.076-3.595.844-8.193-2.752-10.269l-6.397-3.693c8.49-12.68 19.41-23.6 32.09-32.09l3.693 6.397c1.392 2.412 3.919 3.76 6.517 3.76 1.275 0 2.568-.325 3.752-1.009 3.596-2.076 4.828-6.674 2.752-10.269l-3.704-6.415c13.369-6.63 28.189-10.754 43.846-11.761v7.42c0 4.152 3.366 7.517 7.517 7.517 4.152 0 7.517-3.366 7.517-7.517v-7.42c15.657 1.006 30.477 5.131 43.846 11.761l-3.704 6.415c-2.076 3.596-.844 8.193 2.752 10.269 1.184.684 2.476 1.009 3.752 1.009 2.598 0 5.125-1.349 6.517-3.76l3.693-6.397c12.68 8.49 23.6 19.409 32.089 32.089l-6.397 3.694c-3.595 2.076-4.828 6.674-2.751 10.269 1.393 2.412 3.919 3.76 6.517 3.76 1.275 0 2.568-.325 3.752-1.009l6.415-3.704c6.63 13.369 10.754 28.189 11.761 43.846h-7.421c-4.152 0-7.517 3.366-7.517 7.517s3.365 7.517 7.517 7.517h7.41c-.978 15.393-4.957 30.205-11.743 43.85l-6.422-3.708c-3.595-2.076-8.193-.845-10.269 2.752-2.076 3.595-.844 8.193 2.751 10.269l6.382 3.685c-1.289 1.92-2.617 3.82-4.028 5.677-2.51 3.306-1.867 8.022 1.439 10.534z"/><path d="m256 171.531c-4.152 0-7.517 3.366-7.517 7.517v54.462c-7.039 2.359-12.612 7.933-14.972 14.972h-42.312c-4.152 0-7.517 3.366-7.517 7.517s3.366 7.517 7.517 7.517h42.312c3.152 9.403 12.039 16.2 22.489 16.2 13.078 0 23.718-10.64 23.718-23.718 0-10.451-6.797-19.338-16.201-22.49v-54.462c0-4.149-3.365-7.515-7.517-7.515zm0 93.152c-4.787 0-8.683-3.895-8.683-8.683 0-4.787 3.895-8.683 8.683-8.683 4.787 0 8.683 3.895 8.683 8.683 0 4.787-3.896 8.683-8.683 8.683z"/></g></g></svg>