<?xml version="1.0" encoding="UTF-8"?>
<svg xmlns="http://www.w3.org/2000/svg" width="800.000" height="600.000" viewBox="0.0 0.0 800.000 600.000" version="1.1">
  <title>Produce by Acme CAD Converter</title>
  <desc>Produce by Acme CAD Converter</desc>
<path d="M299.75 295.56L299.95 289.27M299.95 289.27L300.54 283.01M300.54 283.01L301.54 276.81M301.54 276.81L302.92 270.67M302.92 270.67L304.69 264.64M304.69 264.64L306.84 258.73M306.84 258.73L309.37 252.97M309.37 252.97L312.25 247.39M312.25 247.39L315.48 241.99M315.48 241.99L319.04 236.81M319.04 236.81L322.93 231.87M322.93 231.87L327.12 227.19M327.12 227.19L331.6 222.77M331.6 222.77L336.35 218.66M336.35 218.66L341.35 214.85M341.35 214.85L346.59 211.37M346.59 211.37L352.03 208.22M352.03 208.22L357.67 205.43M357.67 205.43L363.46 203M363.46 203L369.41 200.95M369.41 200.95L375.47 199.27M375.47 199.27L381.62 197.98M381.62 197.98L387.84 197.09M387.84 197.09L394.11 196.59M394.11 196.59L400.4 196.49M400.4 196.49L406.68 196.79M406.68 196.79L412.92 197.49M412.92 197.49L419.12 198.58M419.12 198.58L425.23 200.06M425.23 200.06L431.23 201.93M431.23 201.93L437.1 204.17M437.1 204.17L442.82 206.78M442.82 206.78L448.36 209.75M448.36 209.75L453.7 213.07M453.7 213.07L458.83 216.71M458.83 216.71L463.71 220.68M463.71 220.68L468.32 224.94M468.32 224.94L472.66 229.49M472.66 229.49L476.7 234.31M476.7 234.31L480.43 239.37M480.43 239.37L483.83 244.66M483.83 244.66L486.89 250.16M486.89 250.16L489.59 255.83M489.59 255.83L491.93 261.67M491.93 261.67L493.89 267.64M493.89 267.64L495.47 273.73M495.47 273.73L496.66 279.9M496.66 279.9L497.45 286.14M497.45 286.14L497.85 292.41M497.85 292.41L497.85 298.7M497.85 298.7L497.45 304.97M497.45 304.97L496.66 311.21M496.66 311.21L495.47 317.38M495.47 317.38L493.89 323.47M493.89 323.47L491.93 329.44M491.93 329.44L489.59 335.28M489.59 335.28L486.89 340.96M486.89 340.96L483.83 346.45M483.83 346.45L480.43 351.74M480.43 351.74L476.7 356.8M476.7 356.8L472.66 361.62M472.66 361.62L468.32 366.17M468.32 366.17L463.71 370.43M463.71 370.43L458.83 374.4M458.83 374.4L453.7 378.04M453.7 378.04L448.36 381.36M448.36 381.36L442.82 384.33M442.82 384.33L437.1 386.94M437.1 386.94L431.23 389.18M431.23 389.18L425.23 391.05M425.23 391.05L419.12 392.53M419.12 392.53L412.92 393.62M412.92 393.62L406.68 394.32M406.68 394.32L400.4 394.62M400.4 394.62L394.11 394.52M394.11 394.52L387.84 394.02M387.84 394.02L381.62 393.13M381.62 393.13L375.47 391.84M375.47 391.84L369.41 390.16M369.41 390.16L363.46 388.11M363.46 388.11L357.67 385.68M357.67 385.68L352.03 382.89M352.03 382.89L346.59 379.74M346.59 379.74L341.35 376.26M341.35 376.26L336.35 372.45M336.35 372.45L331.6 368.34M331.6 368.34L327.12 363.93M327.12 363.93L322.93 359.24M322.93 359.24L319.04 354.3M319.04 354.3L315.48 349.12M315.48 349.12L312.25 343.73M312.25 343.73L309.37 338.14M309.37 338.14L306.84 332.38M306.84 332.38L304.69 326.47M304.69 326.47L302.92 320.44M302.92 320.44L301.54 314.31M301.54 314.31L300.54 308.1M300.54 308.1L299.95 301.84M299.95 301.84L299.75 295.56"
fill="none" stroke="black" stroke-width="2.5"/>
<path d="M118.88 209.2L113.07 211.24M113.07 211.24L107.41 213.65M107.41 213.65L101.91 216.42M101.91 216.42L96.6 219.54M96.6 219.54L91.51 222.99M91.51 222.99L86.65 226.77M86.65 226.77L82.04 230.85M82.04 230.85L77.7 235.22M77.7 235.22L73.66 239.86M73.66 239.86L69.92 244.75M69.92 244.75L66.51 249.88M66.51 249.88L63.43 255.21M63.43 255.21L60.7 260.73M60.7 260.73L58.34 266.41M58.34 266.41L56.34 272.23M56.34 272.23L54.73 278.17M54.73 278.17L53.5 284.2M53.5 284.2L52.66 290.3M52.66 290.3L52.22 296.44M52.22 296.44L52.17 302.6M52.17 302.6L52.52 308.74M52.52 308.74L53.27 314.85M53.27 314.85L54.41 320.9M54.41 320.9L55.93 326.87M55.93 326.87L57.84 332.72M57.84 332.72L60.12 338.44M60.12 338.44L62.77 344M62.77 344L65.76 349.37M65.76 349.37L69.1 354.54M69.1 354.54L72.76 359.49M72.76 359.49L76.74 364.19M76.74 364.19L81.01 368.63M81.01 368.63L85.55 372.78M85.55 372.78L90.36 376.63M90.36 376.63L95.4 380.16M95.4 380.16L100.66 383.36M100.66 383.36L106.11 386.21M106.11 386.21L111.74 388.7M111.74 388.7L117.52 390.83"
fill="none" stroke="black" stroke-width="2.5"/>
<path d="M199.89 416.22L117.33 415.6M117.33 415.6L117.33 415.6M117.33 415.6L110.61 415.35M110.61 415.35L103.92 414.72M103.92 414.72L97.27 413.69M97.27 413.69L90.7 412.28M90.7 412.28L84.22 410.5M84.22 410.5L77.85 408.33M77.85 408.33L71.62 405.8M71.62 405.8L65.55 402.92M65.55 402.92L59.65 399.68M59.65 399.68L53.96 396.11M53.96 396.11L48.48 392.21M48.48 392.21L43.24 388M43.24 388L38.25 383.49M38.25 383.49L33.53 378.7M33.53 378.7L29.1 373.65M29.1 373.65L24.96 368.34M24.96 368.34L21.15 362.81M21.15 362.81L17.66 357.06M17.66 357.06L14.52 351.11M14.52 351.11L11.72 345M11.72 345L9.28 338.73M9.28 338.73L7.22 332.33M7.22 332.33L5.53 325.83M5.53 325.83L4.22 319.23M4.22 319.23L3.29 312.57M3.29 312.57L2.76 305.87M2.76 305.87L2.61 299.15M2.61 299.15L2.86 292.43M2.86 292.43L3.49 285.73M3.49 285.73L4.52 279.09M4.52 279.09L5.93 272.51M5.93 272.51L7.72 266.03M7.72 266.03L9.88 259.67M9.88 259.67L12.41 253.44M12.41 253.44L15.29 247.36M15.29 247.36L18.53 241.47M18.53 241.47L22.1 235.77M22.1 235.77L26 230.3M26 230.3L30.21 225.05M30.21 225.05L34.72 220.06M34.72 220.06L39.51 215.34M39.51 215.34L44.56 210.91M44.56 210.91L49.87 206.78M49.87 206.78L55.41 202.97M55.41 202.97L61.15 199.48M61.15 199.48L67.1 196.33M67.1 196.33L73.21 193.54M73.21 193.54L79.48 191.1M79.48 191.1L85.88 189.04M85.88 189.04L92.38 187.34M92.38 187.34L98.98 186.03M98.98 186.03L105.64 185.11M105.64 185.11L112.34 184.57M112.34 184.57L119.06 184.43M119.06 184.43L201.62 185.05"
fill="none" stroke="black" stroke-width="2.5"/>
<path d="M118.88 209.2L112.94 209.35M112.94 209.35L107.02 209.88M107.02 209.88L101.15 210.81M101.15 210.81L95.35 212.11M95.35 212.11L89.65 213.8M89.65 213.8L84.07 215.85M84.07 215.85L78.64 218.26M78.64 218.26L73.38 221.02M73.38 221.02L68.31 224.12M68.31 224.12L63.45 227.55M63.45 227.55L58.83 231.28M58.83 231.28L54.46 235.31M54.46 235.31L50.37 239.62M50.37 239.62L46.56 244.19M46.56 244.19L43.06 248.99M43.06 248.99L39.89 254.02M39.89 254.02L37.05 259.24M37.05 259.24L34.55 264.63M34.55 264.63L32.42 270.18M32.42 270.18L30.65 275.85M30.65 275.85L29.26 281.63M29.26 281.63L28.24 287.48M28.24 287.48L27.62 293.39M27.62 293.39L27.38 299.33M27.38 299.33L27.53 305.27M27.53 305.27L28.07 311.19M28.07 311.19L28.99 317.06M28.99 317.06L30.3 322.86M30.3 322.86L31.98 328.56M31.98 328.56L34.03 334.14M34.03 334.14L36.44 339.57M36.44 339.57L39.21 344.83M39.21 344.83L42.31 349.9M42.31 349.9L45.73 354.76M45.73 354.76L49.47 359.38M49.47 359.38L53.5 363.75M53.5 363.75L57.8 367.85M57.8 367.85L62.37 371.65M62.37 371.65L67.17 375.15M67.17 375.15L72.2 378.32M72.2 378.32L77.42 381.16M77.42 381.16L82.81 383.66M82.81 383.66L88.36 385.79M88.36 385.79L94.03 387.56M94.03 387.56L99.81 388.95M99.81 388.95L105.67 389.97M105.67 389.97L111.58 390.59M111.58 390.59L117.52 390.83"
fill="none" stroke="black" stroke-width="2.5"/>
<path d="M42.62 212.56L44.27 217.1M44.27 217.1L46.28 221.51M46.28 221.51L48.64 225.73M48.64 225.73L51.33 229.75M51.33 229.75L54.33 233.54M54.33 233.54L57.63 237.08M57.63 237.08L61.21 240.34M61.21 240.34L65.03 243.31M65.03 243.31L69.08 245.95"
fill="none" stroke="black" stroke-width="2.5"/>
<path d="M68.27 353.33L64.19 355.92M64.19 355.92L60.32 358.82M60.32 358.82L56.69 362.03M56.69 362.03L53.34 365.52M53.34 365.52L50.28 369.27M50.28 369.27L47.53 373.25M47.53 373.25L45.11 377.44M45.11 377.44L43.03 381.8M43.03 381.8L41.31 386.33"
fill="none" stroke="black" stroke-width="2.5"/>
<path d="M53.92 318.56L48.44 319.26M48.44 319.26L43.02 320.33M43.02 320.33L37.69 321.78M37.69 321.78L32.48 323.6M32.48 323.6L27.4 325.78M27.4 325.78L22.49 328.31M22.49 328.31L17.77 331.17M17.77 331.17L13.25 334.35M13.25 334.35L8.97 337.84"
fill="none" stroke="black" stroke-width="2.5"/>
<path d="M9.55 260.55L13.78 264.1M13.78 264.1L18.25 267.36M18.25 267.36L22.93 270.29M22.93 270.29L27.8 272.89M27.8 272.89L32.84 275.14M32.84 275.14L38.03 277.04M38.03 277.04L43.34 278.57M43.34 278.57L48.74 279.73M48.74 279.73L54.21 280.51"
fill="none" stroke="black" stroke-width="2.5"/>
<path d="M216.59 391.57L218.94 391.42M218.94 391.42L221.25 390.94M221.25 390.94L223.46 390.13M223.46 390.13L225.54 389.02M225.54 389.02L227.43 387.62M227.43 387.62L229.11 385.97M229.11 385.97L230.54 384.09M230.54 384.09L231.68 382.03M231.68 382.03L232.52 379.83M232.52 379.83L233.04 377.54M233.04 377.54L233.23 375.19"
fill="none" stroke="black" stroke-width="2.5"/>
<path d="M100.91 383.5L98.7 388.1M98.7 388.1L96.83 392.85M96.83 392.85L95.32 397.72M95.32 397.72L94.19 402.7M94.19 402.7L93.42 407.74M93.42 407.74L93.04 412.83"
fill="none" stroke="black" stroke-width="2.5"/>
<path d="M218.01 201.68L217.86 199.33M217.86 199.33L217.38 197.03M217.38 197.03L216.57 194.81M216.57 194.81L215.46 192.74M215.46 192.74L214.06 190.84M214.06 190.84L212.41 189.16M212.41 189.16L210.53 187.74M210.53 187.74L208.47 186.59M208.47 186.59L206.27 185.75M206.27 185.75L203.97 185.23M203.97 185.23L201.62 185.05"
fill="none" stroke="black" stroke-width="2.5"/>
<path d="M118.88 209.2L217.95 209.94"
fill="none" stroke="black" stroke-width="2.5"/>
<path d="M94.73 186.83L95.04 191.93M95.04 191.93L95.73 196.98M95.73 196.98L96.79 201.97M96.79 201.97L98.22 206.87M98.22 206.87L100.02 211.65M100.02 211.65L102.17 216.28"
fill="none" stroke="black" stroke-width="2.5"/>
<path d="M158.97 184.73L158.78 209.5"
fill="none" stroke="black" stroke-width="2.5"/>
<path d="M217.95 209.94L218.01 201.68"
fill="none" stroke="black" stroke-width="2.5"/>
<path d="M234.34 226.58L234.19 224.22M234.19 224.22L233.71 221.92M233.71 221.92L232.9 219.71M232.9 219.71L231.79 217.63M231.79 217.63L230.39 215.73M230.39 215.73L228.73 214.05M228.73 214.05L226.86 212.63M226.86 212.63L224.8 211.48M224.8 211.48L222.6 210.64M222.6 210.64L220.3 210.13M220.3 210.13L217.95 209.94"
fill="none" stroke="black" stroke-width="2.5"/>
<path d="M234.34 226.58L233.23 375.19"
fill="none" stroke="black" stroke-width="2.5"/>
<path d="M199.89 416.22L202.24 416.07M202.24 416.07L204.55 415.59M204.55 415.59L206.76 414.78M206.76 414.78L208.84 413.67M208.84 413.67L210.73 412.27M210.73 412.27L212.41 410.61M212.41 410.61L213.84 408.74M213.84 408.74L214.98 406.68M214.98 406.68L215.82 404.48M215.82 404.48L216.34 402.18M216.34 402.18L216.53 399.83"
fill="none" stroke="black" stroke-width="2.5"/>
<path d="M117.52 390.83L216.59 391.57"
fill="none" stroke="black" stroke-width="2.5"/>
<path d="M157.42 391.13L157.23 415.9"
fill="none" stroke="black" stroke-width="2.5"/>
<path d="M216.59 391.57L216.53 399.83"
fill="none" stroke="black" stroke-width="2.5"/>
<path d="M283.23 295.56L283.43 288.77M283.43 288.77L284.03 282.01M284.03 282.01L285.02 275.3M285.02 275.3L286.41 268.65M286.41 268.65L288.18 262.1M288.18 262.1L290.34 255.67M290.34 255.67L292.86 249.37M292.86 249.37L295.76 243.23M295.76 243.23L299 237.27M299 237.27L302.6 231.51M302.6 231.51L306.52 225.98M306.52 225.98L310.76 220.68M310.76 220.68L315.31 215.64M315.31 215.64L320.14 210.88M320.14 210.88L325.25 206.41M325.25 206.41L330.61 202.24M330.61 202.24L336.2 198.4M336.2 198.4L342.01 194.89M342.01 194.89L348.02 191.73M348.02 191.73L354.2 188.93M354.2 188.93L360.53 186.49M360.53 186.49L367 184.43M367 184.43L373.58 182.76M373.58 182.76L380.24 181.47M380.24 181.47L386.97 180.58M386.97 180.58L393.73 180.08M393.73 180.08L400.52 179.98M400.52 179.98L407.3 180.28M407.3 180.28L414.05 180.97M414.05 180.97L420.75 182.07M420.75 182.07L427.37 183.55M427.37 183.55L433.9 185.42M433.9 185.42L440.3 187.66M440.3 187.66L446.56 190.28M446.56 190.28L452.66 193.27M452.66 193.27L458.57 196.6M458.57 196.6L464.27 200.28M464.27 200.28L469.75 204.28M469.75 204.28L474.98 208.6M474.98 208.6L479.96 213.22M479.96 213.22L484.65 218.13M484.65 218.13L489.04 223.3M489.04 223.3L493.13 228.72M493.13 228.72L496.89 234.37M496.89 234.37L500.31 240.23M500.31 240.23L503.38 246.28M503.38 246.28L506.1 252.5M506.1 252.5L508.44 258.87M508.44 258.87L510.4 265.37M510.4 265.37L511.98 271.97M511.98 271.97L513.17 278.65M513.17 278.65L513.97 285.39M513.97 285.39L514.36 292.16M514.36 292.16L514.36 298.95M514.36 298.95L513.97 305.72M513.97 305.72L513.17 312.46M513.17 312.46L511.98 319.15M511.98 319.15L510.4 325.75M510.4 325.75L508.44 332.24M508.44 332.24L506.1 338.61M506.1 338.61L503.38 344.83M503.38 344.83L500.31 350.88M500.31 350.88L496.89 356.74M496.89 356.74L493.13 362.39M493.13 362.39L489.04 367.81M489.04 367.81L484.65 372.98M484.65 372.98L479.96 377.89M479.96 377.89L474.98 382.51M474.98 382.51L469.75 386.83M469.75 386.83L464.27 390.83M464.27 390.83L458.57 394.51M458.57 394.51L452.66 397.84M452.66 397.84L446.56 400.83M446.56 400.83L440.3 403.45M440.3 403.45L433.9 405.7M433.9 405.7L427.37 407.56M427.37 407.56L420.75 409.05M420.75 409.05L414.05 410.14M414.05 410.14L407.3 410.83M407.3 410.83L400.52 411.13M400.52 411.13L393.73 411.03M393.73 411.03L386.97 410.54M386.97 410.54L380.24 409.64M380.24 409.64L373.58 408.35M373.58 408.35L367 406.68M367 406.68L360.53 404.62M360.53 404.62L354.2 402.18M354.2 402.18L348.02 399.38M348.02 399.38L342.01 396.22M342.01 396.22L336.2 392.71M336.2 392.71L330.61 388.87M330.61 388.87L325.25 384.71M325.25 384.71L320.14 380.23M320.14 380.23L315.31 375.47M315.31 375.47L310.76 370.43M310.76 370.43L306.52 365.13M306.52 365.13L302.6 359.6M302.6 359.6L299 353.84M299 353.84L295.76 347.88M295.76 347.88L292.86 341.74M292.86 341.74L290.34 335.44M290.34 335.44L288.18 329.01M288.18 329.01L286.41 322.46M286.41 322.46L285.02 315.81M285.02 315.81L284.03 309.1M284.03 309.1L283.43 302.34M283.43 302.34L283.23 295.56"
fill="none" stroke="black" stroke-width="2.5"/>
<path d="M678.67 395.04L684.48 393M684.48 393L690.14 390.59M690.14 390.59L695.64 387.82M695.64 387.82L700.95 384.7M700.95 384.7L706.04 381.24M706.04 381.24L710.9 377.47M710.9 377.47L715.51 373.39M715.51 373.39L719.85 369.02M719.85 369.02L723.89 364.38M723.89 364.38L727.63 359.48M727.63 359.48L731.04 354.36M731.04 354.36L734.12 349.03M734.12 349.03L736.85 343.51M736.85 343.51L739.21 337.83M739.21 337.83L741.21 332.01M741.21 332.01L742.82 326.07M742.82 326.07L744.05 320.03M744.05 320.03L744.89 313.94M744.89 313.94L745.33 307.8M745.33 307.8L745.38 301.64M745.38 301.64L745.02 295.5M745.02 295.5L744.28 289.39M744.28 289.39L743.14 283.34M743.14 283.34L741.62 277.37M741.62 277.37L739.71 271.52M739.71 271.52L737.43 265.8M737.43 265.8L734.78 260.24M734.78 260.24L731.79 254.87M731.79 254.87L728.45 249.69M728.45 249.69L724.79 244.75M724.79 244.75L720.81 240.05M720.81 240.05L716.54 235.61M716.54 235.61L712 231.46M712 231.46L707.19 227.61M707.19 227.61L702.15 224.08M702.15 224.08L696.89 220.88M696.89 220.88L691.44 218.03M691.44 218.03L685.81 215.53M685.81 215.53L680.03 213.41"
fill="none" stroke="black" stroke-width="2.5"/>
<path d="M595.92 419.19L678.49 419.81M678.49 419.81L678.49 419.81M678.49 419.81L685.21 419.66M685.21 419.66L691.91 419.13M691.91 419.13L698.57 418.2M698.57 418.2L705.17 416.89M705.17 416.89L711.67 415.2M711.67 415.2L718.07 413.14M718.07 413.14L724.34 410.7M724.34 410.7L730.45 407.9M730.45 407.9L736.4 404.76M736.4 404.76L742.14 401.27M742.14 401.27L747.68 397.46M747.68 397.46L752.99 393.32M752.99 393.32L758.04 388.89M758.04 388.89L762.83 384.17M762.83 384.17L767.34 379.18M767.34 379.18L771.55 373.94M771.55 373.94L775.45 368.46M775.45 368.46L779.02 362.77M779.02 362.77L782.26 356.87M782.26 356.87L785.14 350.8M785.14 350.8L787.67 344.57M787.67 344.57L789.83 338.2M789.83 338.2L791.62 331.72M791.62 331.72L793.03 325.15M793.03 325.15L794.06 318.5M794.06 318.5L794.69 311.81M794.69 311.81L794.94 305.09M794.94 305.09L794.79 298.37M794.79 298.37L794.26 291.67M794.26 291.67L793.33 285.01M793.33 285.01L792.02 278.41M792.02 278.41L790.33 271.9M790.33 271.9L788.26 265.51M788.26 265.51L785.83 259.24M785.83 259.24L783.03 253.12M783.03 253.12L779.89 247.18M779.89 247.18L776.4 241.43M776.4 241.43L772.58 235.9M772.58 235.9L768.45 230.59M768.45 230.59L764.02 225.53M764.02 225.53L759.3 220.74M759.3 220.74L754.31 216.24M754.31 216.24L749.07 212.03M749.07 212.03L743.59 208.13M743.59 208.13L737.9 204.56M737.9 204.56L732 201.32M732 201.32L725.93 198.43M725.93 198.43L719.7 195.9M719.7 195.9L713.33 193.74M713.33 193.74L706.85 191.95M706.85 191.95L700.28 190.54M700.28 190.54L693.63 189.52M693.63 189.52L686.94 188.88M686.94 188.88L680.22 188.64M680.22 188.64L597.66 188.02"
fill="none" stroke="black" stroke-width="2.5"/>
<path d="M678.67 395.04L684.61 394.89M684.61 394.89L690.53 394.35M690.53 394.35L696.4 393.43M696.4 393.43L702.2 392.12M702.2 392.12L707.9 390.44M707.9 390.44L713.48 388.39M713.48 388.39L718.91 385.98M718.91 385.98L724.17 383.21M724.17 383.21L729.24 380.11M729.24 380.11L734.1 376.69M734.1 376.69L738.72 372.95M738.72 372.95L743.09 368.92M743.09 368.92L747.18 364.62M747.18 364.62L750.99 360.05M750.99 360.05L754.49 355.25M754.49 355.25L757.66 350.22M757.66 350.22L760.5 345M760.5 345L763 339.61M763 339.61L765.13 334.06M765.13 334.06L766.9 328.39M766.9 328.39L768.29 322.61M768.29 322.61L769.3 316.75M769.3 316.75L769.93 310.84M769.93 310.84L770.17 304.9M770.17 304.9L770.02 298.96M770.02 298.96L769.48 293.04M769.48 293.04L768.56 287.17M768.56 287.17L767.25 281.38M767.25 281.38L765.57 275.68M765.57 275.68L763.52 270.1M763.52 270.1L761.11 264.67M761.11 264.67L758.34 259.4M758.34 259.4L755.24 254.33M755.24 254.33L751.82 249.48M751.82 249.48L748.08 244.86M748.08 244.86L744.05 240.49M744.05 240.49L739.75 236.39M739.75 236.39L735.18 232.59M735.18 232.59L730.38 229.09M730.38 229.09L725.35 225.91M725.35 225.91L720.13 223.07M720.13 223.07L714.74 220.58M714.74 220.58L709.19 218.44M709.19 218.44L703.52 216.68M703.52 216.68L697.74 215.28M697.74 215.28L691.88 214.27M691.88 214.27L685.97 213.64M685.97 213.64L680.03 213.41"
fill="none" stroke="black" stroke-width="2.5"/>
<path d="M729.28 250.9L733.36 248.32M733.36 248.32L737.23 245.41M737.23 245.41L740.85 242.21M740.85 242.21L744.21 238.72M744.21 238.72L747.27 234.97M747.27 234.97L750.02 230.99M750.02 230.99L752.44 226.8M752.44 226.8L754.52 222.43M754.52 222.43L756.24 217.91"
fill="none" stroke="black" stroke-width="2.5"/>
<path d="M754.93 391.68L753.28 387.13M753.28 387.13L751.27 382.73M751.27 382.73L748.91 378.51M748.91 378.51L746.22 374.49M746.22 374.49L743.22 370.7M743.22 370.7L739.92 367.16M739.92 367.16L736.34 363.9M736.34 363.9L732.52 360.93M732.52 360.93L728.47 358.29"
fill="none" stroke="black" stroke-width="2.5"/>
<path d="M788 343.69L783.77 340.13M783.77 340.13L779.3 336.88M779.3 336.88L774.62 333.95M774.62 333.95L769.75 331.35M769.75 331.35L764.71 329.1M764.71 329.1L759.52 327.2M759.52 327.2L754.21 325.67M754.21 325.67L748.81 324.51M748.81 324.51L743.34 323.73"
fill="none" stroke="black" stroke-width="2.5"/>
<path d="M743.63 285.68L749.11 284.98M749.11 284.98L754.53 283.91M754.53 283.91L759.86 282.45M759.86 282.45L765.07 280.63M765.07 280.63L770.15 278.46M770.15 278.46L775.06 275.93M775.06 275.93L779.78 273.07M779.78 273.07L784.3 269.88M784.3 269.88L788.58 266.39"
fill="none" stroke="black" stroke-width="2.5"/>
<path d="M563.21 377.66L563.36 380.01M563.36 380.01L563.84 382.32M563.84 382.32L564.65 384.53M564.65 384.53L565.76 386.61M565.76 386.61L567.16 388.51M567.16 388.51L568.82 390.18M568.82 390.18L570.69 391.61M570.69 391.61L572.75 392.75M572.75 392.75L574.95 393.59M574.95 393.59L577.25 394.11M577.25 394.11L579.6 394.3"
fill="none" stroke="black" stroke-width="2.5"/>
<path d="M702.82 417.41L702.51 412.31M702.51 412.31L701.82 407.26M701.82 407.26L700.76 402.26M700.76 402.26L699.33 397.37M699.33 397.37L697.53 392.59M697.53 392.59L695.38 387.96"
fill="none" stroke="black" stroke-width="2.5"/>
<path d="M597.66 188.02L595.31 188.17M595.31 188.17L593 188.65M593 188.65L590.79 189.46M590.79 189.46L588.71 190.57M588.71 190.57L586.82 191.97M586.82 191.97L585.14 193.62M585.14 193.62L583.71 195.5M583.71 195.5L582.57 197.56M582.57 197.56L581.73 199.76M581.73 199.76L581.21 202.06M581.21 202.06L581.02 204.41"
fill="none" stroke="black" stroke-width="2.5"/>
<path d="M680.03 213.41L580.96 212.66"
fill="none" stroke="black" stroke-width="2.5"/>
<path d="M696.64 220.74L698.85 216.14M698.85 216.14L700.72 211.39M700.72 211.39L702.23 206.52M702.23 206.52L703.36 201.54M703.36 201.54L704.13 196.49M704.13 196.49L704.51 191.41"
fill="none" stroke="black" stroke-width="2.5"/>
<path d="M640.32 188.34L640.13 213.11"
fill="none" stroke="black" stroke-width="2.5"/>
<path d="M580.96 212.66L581.02 204.41"
fill="none" stroke="black" stroke-width="2.5"/>
<path d="M580.96 212.66L578.61 212.81M578.61 212.81L576.3 213.3M576.3 213.3L574.09 214.1M574.09 214.1L572.01 215.22M572.01 215.22L570.12 216.61M570.12 216.61L568.44 218.27M568.44 218.27L567.01 220.14M567.01 220.14L565.87 222.2M565.87 222.2L565.03 224.4M565.03 224.4L564.51 226.7M564.51 226.7L564.32 229.05"
fill="none" stroke="black" stroke-width="2.5"/>
<path d="M564.32 229.05L563.21 377.66"
fill="none" stroke="black" stroke-width="2.5"/>
<path d="M579.54 402.55L579.69 404.91M579.69 404.91L580.17 407.21M580.17 407.21L580.98 409.42M580.98 409.42L582.09 411.5M582.09 411.5L583.49 413.4M583.49 413.4L585.14 415.08M585.14 415.08L587.02 416.5M587.02 416.5L589.08 417.65M589.08 417.65L591.28 418.49M591.28 418.49L593.58 419M593.58 419L595.92 419.19"
fill="none" stroke="black" stroke-width="2.5"/>
<path d="M678.67 395.04L579.6 394.3"
fill="none" stroke="black" stroke-width="2.5"/>
<path d="M638.77 394.74L638.58 419.51"
fill="none" stroke="black" stroke-width="2.5"/>
<path d="M579.6 394.3L579.54 402.55"
fill="none" stroke="black" stroke-width="2.5"/>
</svg>
