<?xml version="1.0" encoding="UTF-8"?>
<svg xmlns="http://www.w3.org/2000/svg" width="800.000" height="600.000" viewBox="0.0 0.0 800.000 600.000" version="1.1">
  <title>Produce by Acme CAD Converter</title>
  <desc>Produce by Acme CAD Converter</desc>
<path d="M221.5 171.18L220.19 183.37M220.19 183.37L219.25 195.59M219.25 195.59L218.69 207.84M218.69 207.84L218.5 220.1M218.5 220.1L218.69 232.36M218.69 232.36L219.25 244.61M219.25 244.61L220.19 256.84M220.19 256.84L221.5 269.03"
fill="none" stroke="black" stroke-width="2.5"/>
<path d="M201.53 171.18L200.22 183.37M200.22 183.37L199.28 195.59M199.28 195.59L198.72 207.84M198.72 207.84L198.53 220.1M198.53 220.1L198.72 232.36M198.72 232.36L199.28 244.61M199.28 244.61L200.22 256.84M200.22 256.84L201.53 269.03"
fill="none" stroke="black" stroke-width="2.5"/>
<path d="M191.54 171.18L190.23 183.37M190.23 183.37L189.3 195.59M189.3 195.59L188.73 207.84M188.73 207.84L188.55 220.1M188.55 220.1L188.73 232.36M188.73 232.36L189.3 244.61M189.3 244.61L190.23 256.84M190.23 256.84L191.54 269.03"
fill="none" stroke="black" stroke-width="2.5"/>
<path d="M306.52 269.03L307.71 268.73M307.71 268.73L308.77 268.11M308.77 268.11L309.61 267.21M309.61 267.21L310.16 266.11M310.16 266.11L310.37 264.89"
fill="none" stroke="black" stroke-width="2.5"/>
<path d="M310.37 269.03L306.52 269.03"
fill="none" stroke="black" stroke-width="2.5"/>
<path d="M310.37 264.89L310.37 175.31"
fill="none" stroke="black" stroke-width="2.5"/>
<path d="M306.52 171.18L310.37 171.18"
fill="none" stroke="black" stroke-width="2.5"/>
<path d="M310.37 175.31L310.16 174.1M310.16 174.1L309.61 173M309.61 173L308.77 172.1M308.77 172.1L307.71 171.47M307.71 171.47L306.52 171.18"
fill="none" stroke="black" stroke-width="2.5"/>
<path d="M188.55 171.18L188.55 161.19"
fill="none" stroke="black" stroke-width="2.5"/>
<path d="M188.55 269.03L310.37 269.03"
fill="none" stroke="black" stroke-width="2.5"/>
<path d="M310.37 171.18L188.55 171.18"
fill="none" stroke="black" stroke-width="2.5"/>
<path d="M188.55 279.02L310.37 279.02"
fill="none" stroke="black" stroke-width="2.5"/>
<path d="M310.37 161.19L188.55 161.19"
fill="none" stroke="black" stroke-width="2.5"/>
<path d="M310.37 279.02L310.37 269.03"
fill="none" stroke="black" stroke-width="2.5"/>
<path d="M310.37 171.18L310.37 161.19"
fill="none" stroke="black" stroke-width="2.5"/>
<path d="M188.55 269.03L188.55 279.02"
fill="none" stroke="black" stroke-width="2.5"/>
<path d="M578.48 269.03L579.79 256.84M579.79 256.84L580.73 244.61M580.73 244.61L581.29 232.36M581.29 232.36L581.48 220.1M581.48 220.1L581.29 207.84M581.29 207.84L580.73 195.59M580.73 195.59L579.79 183.37M579.79 183.37L578.48 171.18"
fill="none" stroke="black" stroke-width="2.5"/>
<path d="M598.45 269.03L599.76 256.84M599.76 256.84L600.7 244.61M600.7 244.61L601.26 232.36M601.26 232.36L601.45 220.1M601.45 220.1L601.26 207.84M601.26 207.84L600.7 195.59M600.7 195.59L599.76 183.37M599.76 183.37L598.45 171.18"
fill="none" stroke="black" stroke-width="2.5"/>
<path d="M608.44 269.03L609.75 256.84M609.75 256.84L610.68 244.61M610.68 244.61L611.25 232.36M611.25 232.36L611.43 220.1M611.43 220.1L611.25 207.84M611.25 207.84L610.68 195.59M610.68 195.59L609.75 183.37M609.75 183.37L608.44 171.18"
fill="none" stroke="black" stroke-width="2.5"/>
<path d="M489.61 264.89L489.82 266.11M489.82 266.11L490.37 267.21M490.37 267.21L491.21 268.11M491.21 268.11L492.27 268.73M492.27 268.73L493.46 269.03"
fill="none" stroke="black" stroke-width="2.5"/>
<path d="M489.61 269.03L493.46 269.03"
fill="none" stroke="black" stroke-width="2.5"/>
<path d="M489.61 264.89L489.61 175.31"
fill="none" stroke="black" stroke-width="2.5"/>
<path d="M493.46 171.18L489.61 171.18"
fill="none" stroke="black" stroke-width="2.5"/>
<path d="M493.46 171.18L492.27 171.47M492.27 171.47L491.21 172.1M491.21 172.1L490.37 173M490.37 173L489.82 174.1M489.82 174.1L489.61 175.31"
fill="none" stroke="black" stroke-width="2.5"/>
<path d="M611.43 171.18L611.43 161.19"
fill="none" stroke="black" stroke-width="2.5"/>
<path d="M611.43 269.03L489.61 269.03"
fill="none" stroke="black" stroke-width="2.5"/>
<path d="M489.61 171.18L611.43 171.18"
fill="none" stroke="black" stroke-width="2.5"/>
<path d="M611.43 279.02L489.61 279.02"
fill="none" stroke="black" stroke-width="2.5"/>
<path d="M489.61 161.19L611.43 161.19"
fill="none" stroke="black" stroke-width="2.5"/>
<path d="M489.61 279.02L489.61 269.03"
fill="none" stroke="black" stroke-width="2.5"/>
<path d="M489.61 171.18L489.61 161.19"
fill="none" stroke="black" stroke-width="2.5"/>
<path d="M611.43 269.03L611.43 279.02"
fill="none" stroke="black" stroke-width="2.5"/>
<path d="M221.5 330.94L220.19 343.13M220.19 343.13L219.25 355.36M219.25 355.36L218.69 367.61M218.69 367.61L218.5 379.87M218.5 379.87L218.69 392.13M218.69 392.13L219.25 404.38M219.25 404.38L220.19 416.6M220.19 416.6L221.5 428.8"
fill="none" stroke="black" stroke-width="2.5"/>
<path d="M201.53 330.94L200.22 343.13M200.22 343.13L199.28 355.36M199.28 355.36L198.72 367.61M198.72 367.61L198.53 379.87M198.53 379.87L198.72 392.13M198.72 392.13L199.28 404.38M199.28 404.38L200.22 416.6M200.22 416.6L201.53 428.8"
fill="none" stroke="black" stroke-width="2.5"/>
<path d="M191.54 330.94L190.23 343.13M190.23 343.13L189.3 355.36M189.3 355.36L188.73 367.61M188.73 367.61L188.55 379.87M188.55 379.87L188.73 392.13M188.73 392.13L189.3 404.38M189.3 404.38L190.23 416.6M190.23 416.6L191.54 428.8"
fill="none" stroke="black" stroke-width="2.5"/>
<path d="M306.52 428.8L307.71 428.5M307.71 428.5L308.77 427.87M308.77 427.87L309.61 426.97M309.61 426.97L310.16 425.87M310.16 425.87L310.37 424.66"
fill="none" stroke="black" stroke-width="2.5"/>
<path d="M310.37 428.8L306.52 428.8"
fill="none" stroke="black" stroke-width="2.5"/>
<path d="M310.37 424.66L310.37 335.08"
fill="none" stroke="black" stroke-width="2.5"/>
<path d="M306.52 330.94L310.37 330.94"
fill="none" stroke="black" stroke-width="2.5"/>
<path d="M310.37 335.08L310.16 333.86M310.16 333.86L309.61 332.76M309.61 332.76L308.77 331.86M308.77 331.86L307.71 331.24M307.71 331.24L306.52 330.94"
fill="none" stroke="black" stroke-width="2.5"/>
<path d="M188.55 330.94L188.55 320.95"
fill="none" stroke="black" stroke-width="2.5"/>
<path d="M188.55 428.8L310.37 428.8"
fill="none" stroke="black" stroke-width="2.5"/>
<path d="M310.37 330.94L188.55 330.94"
fill="none" stroke="black" stroke-width="2.5"/>
<path d="M188.55 438.78L310.37 438.78"
fill="none" stroke="black" stroke-width="2.5"/>
<path d="M310.37 320.95L188.55 320.95"
fill="none" stroke="black" stroke-width="2.5"/>
<path d="M310.37 438.78L310.37 428.8"
fill="none" stroke="black" stroke-width="2.5"/>
<path d="M310.37 330.94L310.37 320.95"
fill="none" stroke="black" stroke-width="2.5"/>
<path d="M188.55 428.8L188.55 438.78"
fill="none" stroke="black" stroke-width="2.5"/>
<path d="M578.48 428.8L579.79 416.6M579.79 416.6L580.73 404.38M580.73 404.38L581.29 392.13M581.29 392.13L581.48 379.87M581.48 379.87L581.29 367.61M581.29 367.61L580.73 355.36M580.73 355.36L579.79 343.13M579.79 343.13L578.48 330.94"
fill="none" stroke="black" stroke-width="2.5"/>
<path d="M598.45 428.8L599.76 416.6M599.76 416.6L600.7 404.38M600.7 404.38L601.26 392.13M601.26 392.13L601.45 379.87M601.45 379.87L601.26 367.61M601.26 367.61L600.7 355.36M600.7 355.36L599.76 343.13M599.76 343.13L598.45 330.94"
fill="none" stroke="black" stroke-width="2.5"/>
<path d="M608.44 428.8L609.75 416.6M609.75 416.6L610.68 404.38M610.68 404.38L611.25 392.13M611.25 392.13L611.43 379.87M611.43 379.87L611.25 367.61M611.25 367.61L610.68 355.36M610.68 355.36L609.75 343.13M609.75 343.13L608.44 330.94"
fill="none" stroke="black" stroke-width="2.5"/>
<path d="M489.61 424.66L489.82 425.87M489.82 425.87L490.37 426.97M490.37 426.97L491.21 427.87M491.21 427.87L492.27 428.5M492.27 428.5L493.46 428.8"
fill="none" stroke="black" stroke-width="2.5"/>
<path d="M489.61 428.8L493.46 428.8"
fill="none" stroke="black" stroke-width="2.5"/>
<path d="M489.61 424.66L489.61 335.08"
fill="none" stroke="black" stroke-width="2.5"/>
<path d="M493.46 330.94L489.61 330.94"
fill="none" stroke="black" stroke-width="2.5"/>
<path d="M493.46 330.94L492.27 331.24M492.27 331.24L491.21 331.86M491.21 331.86L490.37 332.76M490.37 332.76L489.82 333.86M489.82 333.86L489.61 335.08"
fill="none" stroke="black" stroke-width="2.5"/>
<path d="M611.43 330.94L611.43 320.95"
fill="none" stroke="black" stroke-width="2.5"/>
<path d="M611.43 428.8L489.61 428.8"
fill="none" stroke="black" stroke-width="2.5"/>
<path d="M489.61 330.94L611.43 330.94"
fill="none" stroke="black" stroke-width="2.5"/>
<path d="M611.43 438.78L489.61 438.78"
fill="none" stroke="black" stroke-width="2.5"/>
<path d="M489.61 320.95L611.43 320.95"
fill="none" stroke="black" stroke-width="2.5"/>
<path d="M489.61 438.78L489.61 428.8"
fill="none" stroke="black" stroke-width="2.5"/>
<path d="M489.61 330.94L489.61 320.95"
fill="none" stroke="black" stroke-width="2.5"/>
<path d="M611.43 428.8L611.43 438.78"
fill="none" stroke="black" stroke-width="2.5"/>
<path d="M479.87 459.75L320.11 459.75"
fill="none" stroke="black" stroke-width="2.5"/>
<path d="M479.87 299.99L479.87 459.75"
fill="none" stroke="black" stroke-width="2.5"/>
<path d="M320.11 299.99L479.87 299.99"
fill="none" stroke="black" stroke-width="2.5"/>
<path d="M320.11 459.75L320.11 299.99"
fill="none" stroke="black" stroke-width="2.5"/>
<path d="M479.87 299.99L320.11 299.99"
fill="none" stroke="black" stroke-width="2.5"/>
<path d="M479.87 140.22L479.87 299.99"
fill="none" stroke="black" stroke-width="2.5"/>
<path d="M320.11 140.22L479.87 140.22"
fill="none" stroke="black" stroke-width="2.5"/>
<path d="M320.11 299.99L320.11 140.22"
fill="none" stroke="black" stroke-width="2.5"/>
</svg>
