<?xml version="1.0" encoding="UTF-8"?>
<svg  xmlns="http://www.w3.org/2000/svg" width="800.000" height="600.000" viewBox="0.0 0.0 800.000 600.000" version="1.1" fill="black">
  <title>Produce by Acme CAD Converter</title>
  <desc>Produce by Acme CAD Converter</desc>
<path d="M63.5 207.77L61.63 224.48M61.63 224.48L60.14 241.23M60.14 241.23L59.02 258M59.02 258L58.27 274.8M58.27 274.8L57.9 291.61M57.9 291.61L57.9 308.42M57.9 308.42L58.27 325.23M58.27 325.23L59.02 342.03M59.02 342.03L60.14 358.8M60.14 358.8L61.63 375.55M61.63 375.55L63.5 392.26"
fill="black" stroke="black" stroke-width="2.5"/>
<path d="M25.85 207.77L23.98 224.48M23.98 224.48L22.49 241.23M22.49 241.23L21.37 258M21.37 258L20.62 274.8M20.62 274.8L20.25 291.61M20.25 291.61L20.25 308.42M20.25 308.42L20.62 325.23M20.62 325.23L21.37 342.03M21.37 342.03L22.49 358.8M22.49 358.8L23.98 375.55M23.98 375.55L25.85 392.26"
fill="none" stroke="black" stroke-width="2.5"/>
<path d="M7.02 207.77L5.16 224.48M5.16 224.48L3.66 241.23M3.66 241.23L2.54 258M2.54 258L1.79 274.8M1.79 274.8L1.42 291.61M1.42 291.61L1.42 308.42M1.42 308.42L1.79 325.23M1.79 325.23L2.54 342.03M2.54 342.03L3.66 358.8M3.66 358.8L5.16 375.55M5.16 375.55L7.02 392.26"
fill="none" stroke="black" stroke-width="2.5"/>
<path d="M223.79 392.26L225.41 391.92M225.41 391.92L226.94 391.27M226.94 391.27L228.29 390.31M228.29 390.31L229.42 389.09M229.42 389.09L230.28 387.67M230.28 387.67L230.83 386.1M230.83 386.1L231.04 384.46"
fill="none" stroke="black" stroke-width="2.5"/>
<path d="M231.04 392.26L223.79 392.26"
fill="none" stroke="black" stroke-width="2.5"/>
<path d="M231.04 384.46L231.04 215.57"
fill="none" stroke="black" stroke-width="2.5"/>
<path d="M223.79 207.77L231.04 207.77"
fill="none" stroke="black" stroke-width="2.5"/>
<path d="M231.04 215.57L230.83 213.92M230.83 213.92L230.28 212.36M230.28 212.36L229.42 210.94M229.42 210.94L228.29 209.72M228.29 209.72L226.94 208.76M226.94 208.76L225.41 208.1M225.41 208.1L223.79 207.77"
fill="none" stroke="black" stroke-width="2.5"/>
<path d="M1.37 207.77L1.37 188.95"
fill="none" stroke="black" stroke-width="2.5"/>
<path d="M1.37 392.26L231.04 392.26"
fill="none" stroke="black" stroke-width="2.5"/>
<path d="M231.04 207.77L1.37 207.77"
fill="none" stroke="black" stroke-width="2.5"/>
<path d="M1.37 411.08L231.04 411.08"
fill="none" stroke="black" stroke-width="2.5"/>
<path d="M231.04 188.95L1.37 188.95"
fill="none" stroke="black" stroke-width="2.5"/>
<path d="M231.04 411.08L231.04 392.26"
fill="none" stroke="black" stroke-width="2.5"/>
<path d="M231.04 207.77L231.04 188.95"
fill="none" stroke="black" stroke-width="2.5"/>
<path d="M1.37 392.26L1.37 411.08"
fill="none" stroke="black" stroke-width="2.5"/>
<path d="M736.51 392.26L738.38 375.55M738.38 375.55L739.87 358.8M739.87 358.8L740.99 342.03M740.99 342.03L741.74 325.23M741.74 325.23L742.11 308.42M742.11 308.42L742.11 291.61M742.11 291.61L741.74 274.8M741.74 274.8L740.99 258M740.99 258L739.87 241.23M739.87 241.23L738.38 224.48M738.38 224.48L736.51 207.77"
fill="none" stroke="black" stroke-width="2.5"/>
<path d="M774.16 392.26L776.03 375.55M776.03 375.55L777.52 358.8M777.52 358.8L778.64 342.03M778.64 342.03L779.39 325.23M779.39 325.23L779.76 308.42M779.76 308.42L779.76 291.61M779.76 291.61L779.39 274.8M779.39 274.8L778.64 258M778.64 258L777.52 241.23M777.52 241.23L776.03 224.48M776.03 224.48L774.16 207.77"
fill="none" stroke="black" stroke-width="2.5"/>
<path d="M792.99 392.26L794.85 375.55M794.85 375.55L796.35 358.8M796.35 358.8L797.47 342.03M797.47 342.03L798.21 325.23M798.21 325.23L798.59 308.42M798.59 308.42L798.59 291.61M798.59 291.61L798.21 274.8M798.21 274.8L797.47 258M797.47 258L796.35 241.23M796.35 241.23L794.85 224.48M794.85 224.48L792.99 207.77"
fill="none" stroke="black" stroke-width="2.5"/>
<path d="M568.97 384.46L569.18 386.1M569.18 386.1L569.73 387.67M569.73 387.67L570.59 389.09M570.59 389.09L571.72 390.31M571.72 390.31L573.07 391.27M573.07 391.27L574.6 391.92M574.6 391.92L576.22 392.26"
fill="none" stroke="black" stroke-width="2.5"/>
<path d="M568.97 392.26L576.22 392.26"
fill="none" stroke="black" stroke-width="2.5"/>
<path d="M568.97 384.46L568.97 215.57"
fill="none" stroke="black" stroke-width="2.5"/>
<path d="M576.22 207.77L568.97 207.77"
fill="none" stroke="black" stroke-width="2.5"/>
<path d="M576.22 207.77L574.6 208.1M574.6 208.1L573.07 208.76M573.07 208.76L571.72 209.72M571.72 209.72L570.59 210.94M570.59 210.94L569.73 212.36M569.73 212.36L569.18 213.92M569.18 213.92L568.97 215.57"
fill="none" stroke="black" stroke-width="2.5"/>
<path d="M798.64 207.77L798.64 188.95"
fill="none" stroke="black" stroke-width="2.5"/>
<path d="M798.64 392.26L568.97 392.26"
fill="none" stroke="black" stroke-width="2.5"/>
<path d="M568.97 207.77L798.64 207.77"
fill="none" stroke="black" stroke-width="2.5"/>
<path d="M798.64 411.08L568.97 411.08"
fill="none" stroke="black" stroke-width="2.5"/>
<path d="M568.97 188.95L798.64 188.95"
fill="none" stroke="black" stroke-width="2.5"/>
<path d="M568.97 411.08L568.97 392.26"
fill="none" stroke="black" stroke-width="2.5"/>
<path d="M568.97 207.77L568.97 188.95"
fill="none" stroke="black" stroke-width="2.5"/>
<path d="M798.64 392.26L798.64 411.08"
fill="none" stroke="black" stroke-width="2.5"/>
<path d="M249.4 450.62L550.61 450.62"
fill="none" stroke="black" stroke-width="2.5"/>
<path d="M550.61 149.41L550.61 450.62"
fill="none" stroke="black" stroke-width="2.5"/>
<path d="M249.4 149.41L550.61 149.41"
fill="none" stroke="black" stroke-width="2.5"/>
<path d="M249.4 450.62L249.4 149.41"
fill="none" stroke="black" stroke-width="2.5"/>
</svg>
