<?xml version="1.0" encoding="UTF-8"?>
<svg xmlns="http://www.w3.org/2000/svg" width="800.000" height="600.000" viewBox="0.0 0.0 800.000 600.000" version="1.1">
  <title>Produce by Acme CAD Converter</title>
  <desc>Produce by Acme CAD Converter</desc>
<path d="M378.94 209.38L373.19 157.61"
fill="none" stroke="black"  stroke-width="2.5"/>
<path d="M373.19 157.61L379.66 144.66"
fill="none" stroke="black"  stroke-width="2.5"/>
<path d="M379.66 144.66L379.66 140.35"
fill="none" stroke="black"  stroke-width="2.5"/>
<path d="M379.66 140.35L296.73 140.35"
fill="none" stroke="black"  stroke-width="2.5"/>
<path d="M296.73 140.35L296.73 144.66"
fill="none" stroke="black"  stroke-width="2.5"/>
<path d="M296.73 144.66L303.2 157.61"
fill="none" stroke="black"  stroke-width="2.5"/>
<path d="M303.2 157.61L297.44 209.38"
fill="none" stroke="black"  stroke-width="2.5"/>
<path d="M296.73 144.66L379.66 144.66"
fill="none" stroke="black"  stroke-width="2.5"/>
<path d="M373.19 157.61L303.2 157.61"
fill="none" stroke="black"  stroke-width="2.5"/>
<path d="M378.94 390.59L373.19 442.36"
fill="none" stroke="black"  stroke-width="2.5"/>
<path d="M373.19 442.36L379.66 455.31"
fill="none" stroke="black"  stroke-width="2.5"/>
<path d="M379.66 455.31L379.66 459.62"
fill="none" stroke="black"  stroke-width="2.5"/>
<path d="M379.66 459.62L296.73 459.62"
fill="none" stroke="black"  stroke-width="2.5"/>
<path d="M296.73 459.62L296.73 455.31"
fill="none" stroke="black"  stroke-width="2.5"/>
<path d="M296.73 455.31L303.2 442.36"
fill="none" stroke="black"  stroke-width="2.5"/>
<path d="M303.2 442.36L297.45 390.59"
fill="none" stroke="black"  stroke-width="2.5"/>
<path d="M373.19 442.36L303.2 442.36"
fill="none" stroke="black"  stroke-width="2.5"/>
<path d="M296.73 455.31L379.66 455.31"
fill="none" stroke="black"  stroke-width="2.5"/>
<path d="M149.47 209.38L650.84 209.38"
fill="none" stroke="black"  stroke-width="2.5"/>
<path d="M650.84 209.38L650.84 390.59"
fill="none" stroke="black"  stroke-width="2.5"/>
<path d="M650.84 390.59L149.47 390.59"
fill="none" stroke="black"  stroke-width="2.5"/>
<path d="M149.47 390.59L149.47 209.38"
fill="none" stroke="black"  stroke-width="2.5"/>
<path d="M650.84 259.24L702.61 264.99"
fill="none" stroke="black"  stroke-width="2.5"/>
<path d="M702.61 264.99L715.56 258.52"
fill="none" stroke="black"  stroke-width="2.5"/>
<path d="M715.56 258.52L719.87 258.52"
fill="none" stroke="black"  stroke-width="2.5"/>
<path d="M719.87 258.52L719.87 341.45"
fill="none" stroke="black"  stroke-width="2.5"/>
<path d="M719.87 341.45L715.56 341.45"
fill="none" stroke="black"  stroke-width="2.5"/>
<path d="M715.56 341.45L702.61 334.98"
fill="none" stroke="black"  stroke-width="2.5"/>
<path d="M702.61 334.98L650.84 340.73"
fill="none" stroke="black"  stroke-width="2.5"/>
<path d="M715.56 341.45L715.56 258.52"
fill="none" stroke="black"  stroke-width="2.5"/>
<path d="M702.61 264.99L702.61 334.98"
fill="none" stroke="black"  stroke-width="2.5"/>
<path d="M492.87 390.59L487.12 442.36"
fill="none" stroke="black"  stroke-width="2.5"/>
<path d="M487.12 442.36L493.59 455.31"
fill="none" stroke="black"  stroke-width="2.5"/>
<path d="M493.59 455.31L493.59 459.62"
fill="none" stroke="black"  stroke-width="2.5"/>
<path d="M493.59 459.62L410.66 459.62"
fill="none" stroke="black"  stroke-width="2.5"/>
<path d="M410.66 459.62L410.66 455.31"
fill="none" stroke="black"  stroke-width="2.5"/>
<path d="M410.66 455.31L417.13 442.36"
fill="none" stroke="black"  stroke-width="2.5"/>
<path d="M417.13 442.36L411.38 390.59"
fill="none" stroke="black"  stroke-width="2.5"/>
<path d="M410.66 455.31L493.59 455.31"
fill="none" stroke="black"  stroke-width="2.5"/>
<path d="M487.12 442.36L417.13 442.36"
fill="none" stroke="black"  stroke-width="2.5"/>
<path d="M536.75 390.59L542.5 442.36"
fill="none" stroke="black"  stroke-width="2.5"/>
<path d="M542.5 442.36L536.03 455.3"
fill="none" stroke="black"  stroke-width="2.5"/>
<path d="M536.03 455.3L536.03 459.62"
fill="none" stroke="black"  stroke-width="2.5"/>
<path d="M536.03 459.62L618.96 459.62"
fill="none" stroke="black"  stroke-width="2.5"/>
<path d="M618.96 459.62L618.96 455.3"
fill="none" stroke="black"  stroke-width="2.5"/>
<path d="M618.96 455.3L612.49 442.36"
fill="none" stroke="black"  stroke-width="2.5"/>
<path d="M612.49 442.36L618.24 390.59"
fill="none" stroke="black"  stroke-width="2.5"/>
<path d="M618.96 455.3L536.03 455.3"
fill="none" stroke="black"  stroke-width="2.5"/>
<path d="M542.5 442.36L612.49 442.36"
fill="none" stroke="black"  stroke-width="2.5"/>
<path d="M492.87 209.38L487.12 157.61"
fill="none" stroke="black"  stroke-width="2.5"/>
<path d="M487.12 157.61L493.59 144.66"
fill="none" stroke="black"  stroke-width="2.5"/>
<path d="M493.59 144.66L493.59 140.35"
fill="none" stroke="black"  stroke-width="2.5"/>
<path d="M493.59 140.35L410.66 140.35"
fill="none" stroke="black"  stroke-width="2.5"/>
<path d="M410.66 140.35L410.66 144.66"
fill="none" stroke="black"  stroke-width="2.5"/>
<path d="M410.66 144.66L417.13 157.61"
fill="none" stroke="black"  stroke-width="2.5"/>
<path d="M417.13 157.61L411.38 209.38"
fill="none" stroke="black"  stroke-width="2.5"/>
<path d="M487.12 157.61L417.13 157.61"
fill="none" stroke="black"  stroke-width="2.5"/>
<path d="M410.66 144.66L493.59 144.66"
fill="none" stroke="black"  stroke-width="2.5"/>
<path d="M536.75 209.38L542.5 157.61"
fill="none" stroke="black"  stroke-width="2.5"/>
<path d="M542.5 157.61L536.03 144.66"
fill="none" stroke="black"  stroke-width="2.5"/>
<path d="M536.03 144.66L536.03 140.35"
fill="none" stroke="black"  stroke-width="2.5"/>
<path d="M536.03 140.35L618.96 140.35"
fill="none" stroke="black"  stroke-width="2.5"/>
<path d="M618.96 140.35L618.96 144.66"
fill="none" stroke="black"  stroke-width="2.5"/>
<path d="M618.96 144.66L612.49 157.61"
fill="none" stroke="black"  stroke-width="2.5"/>
<path d="M612.49 157.61L618.24 209.38"
fill="none" stroke="black"  stroke-width="2.5"/>
<path d="M618.96 144.66L536.03 144.66"
fill="none" stroke="black"  stroke-width="2.5"/>
<path d="M542.5 157.61L612.49 157.61"
fill="none" stroke="black"  stroke-width="2.5"/>
<path d="M149.47 259.24L97.69 264.99"
fill="none" stroke="black"  stroke-width="2.5"/>
<path d="M97.69 264.99L84.75 258.52"
fill="none" stroke="black"  stroke-width="2.5"/>
<path d="M84.75 258.52L80.43 258.52"
fill="none" stroke="black"  stroke-width="2.5"/>
<path d="M80.43 258.52L80.43 341.45"
fill="none" stroke="black"  stroke-width="2.5"/>
<path d="M80.43 341.45L84.75 341.45"
fill="none" stroke="black"  stroke-width="2.5"/>
<path d="M84.75 341.45L97.69 334.98"
fill="none" stroke="black"  stroke-width="2.5"/>
<path d="M97.69 334.98L149.47 340.73"
fill="none" stroke="black"  stroke-width="2.5"/>
<path d="M84.75 341.45L84.75 258.52"
fill="none" stroke="black"  stroke-width="2.5"/>
<path d="M97.69 264.99L97.69 334.98"
fill="none" stroke="black"  stroke-width="2.5"/>
<path d="M263.56 390.59L257.81 442.36"
fill="none" stroke="black"  stroke-width="2.5"/>
<path d="M257.81 442.36L264.28 455.31"
fill="none" stroke="black"  stroke-width="2.5"/>
<path d="M264.28 455.31L264.28 459.62"
fill="none" stroke="black"  stroke-width="2.5"/>
<path d="M264.28 459.62L181.35 459.62"
fill="none" stroke="black"  stroke-width="2.5"/>
<path d="M181.35 459.62L181.35 455.31"
fill="none" stroke="black"  stroke-width="2.5"/>
<path d="M181.35 455.31L187.82 442.36"
fill="none" stroke="black"  stroke-width="2.5"/>
<path d="M187.82 442.36L182.06 390.59"
fill="none" stroke="black"  stroke-width="2.5"/>
<path d="M181.35 455.31L264.28 455.31"
fill="none" stroke="black"  stroke-width="2.5"/>
<path d="M257.81 442.36L187.82 442.36"
fill="none" stroke="black"  stroke-width="2.5"/>
<path d="M263.56 209.38L257.81 157.61"
fill="none" stroke="black"  stroke-width="2.5"/>
<path d="M257.81 157.61L264.28 144.66"
fill="none" stroke="black"  stroke-width="2.5"/>
<path d="M264.28 144.66L264.28 140.35"
fill="none" stroke="black"  stroke-width="2.5"/>
<path d="M264.28 140.35L181.34 140.35"
fill="none" stroke="black"  stroke-width="2.5"/>
<path d="M181.34 140.35L181.34 144.66"
fill="none" stroke="black"  stroke-width="2.5"/>
<path d="M181.34 144.66L187.82 157.61"
fill="none" stroke="black"  stroke-width="2.5"/>
<path d="M187.82 157.61L182.06 209.38"
fill="none" stroke="black"  stroke-width="2.5"/>
<path d="M257.81 157.61L187.82 157.61"
fill="none" stroke="black"  stroke-width="2.5"/>
<path d="M181.34 144.66L264.28 144.66"
fill="none" stroke="black"  stroke-width="2.5"/>
</svg>
