<?xml version="1.0" encoding="UTF-8"?>
<svg xmlns="http://www.w3.org/2000/svg" xmlns:xlink="http://www.w3.org/1999/xlink" width="400pt" height="300pt" viewBox="0 0 400 300" version="1.1">
<g id="surface1">
<path style="fill:none;stroke-width:1.5;stroke-linecap:butt;stroke-linejoin:miter;stroke:rgb(0%,0%,0%);stroke-opacity:1;stroke-miterlimit:4;" d="M 221.5 171.179688 L 220.1875 183.367188 M 220.1875 183.367188 L 219.25 195.59375 M 219.25 195.59375 L 218.6875 207.84375 M 218.6875 207.84375 L 218.5 220.101562 M 218.5 220.101562 L 218.6875 232.359375 M 218.6875 232.359375 L 219.25 244.609375 M 219.25 244.609375 L 220.1875 256.84375 M 220.1875 256.84375 L 221.5 269.03125 " transform="matrix(0.5,0,0,0.5,0,0)"/>
<path style="fill:none;stroke-width:1.5;stroke-linecap:butt;stroke-linejoin:miter;stroke:rgb(0%,0%,0%);stroke-opacity:1;stroke-miterlimit:4;" d="M 201.53125 171.179688 L 200.21875 183.367188 M 200.21875 183.367188 L 199.28125 195.59375 M 199.28125 195.59375 L 198.71875 207.84375 M 198.71875 207.84375 L 198.53125 220.101562 M 198.53125 220.101562 L 198.71875 232.359375 M 198.71875 232.359375 L 199.28125 244.609375 M 199.28125 244.609375 L 200.21875 256.84375 M 200.21875 256.84375 L 201.53125 269.03125 " transform="matrix(0.5,0,0,0.5,0,0)"/>
<path style="fill:none;stroke-width:1.5;stroke-linecap:butt;stroke-linejoin:miter;stroke:rgb(0%,0%,0%);stroke-opacity:1;stroke-miterlimit:4;" d="M 191.539062 171.179688 L 190.226562 183.367188 M 190.226562 183.367188 L 189.296875 195.59375 M 189.296875 195.59375 L 188.726562 207.84375 M 188.726562 207.84375 L 188.546875 220.101562 M 188.546875 220.101562 L 188.726562 232.359375 M 188.726562 232.359375 L 189.296875 244.609375 M 189.296875 244.609375 L 190.226562 256.84375 M 190.226562 256.84375 L 191.539062 269.03125 " transform="matrix(0.5,0,0,0.5,0,0)"/>
<path style="fill:none;stroke-width:1.5;stroke-linecap:butt;stroke-linejoin:miter;stroke:rgb(0%,0%,0%);stroke-opacity:1;stroke-miterlimit:4;" d="M 306.523438 269.03125 L 307.710938 268.726562 M 307.710938 268.726562 L 308.773438 268.109375 M 308.773438 268.109375 L 309.609375 267.210938 M 309.609375 267.210938 L 310.15625 266.109375 M 310.15625 266.109375 L 310.367188 264.890625 " transform="matrix(0.5,0,0,0.5,0,0)"/>
<path style="fill:none;stroke-width:1.5;stroke-linecap:butt;stroke-linejoin:miter;stroke:rgb(0%,0%,0%);stroke-opacity:1;stroke-miterlimit:4;" d="M 310.367188 269.03125 L 306.523438 269.03125 " transform="matrix(0.5,0,0,0.5,0,0)"/>
<path style="fill:none;stroke-width:1.5;stroke-linecap:butt;stroke-linejoin:miter;stroke:rgb(0%,0%,0%);stroke-opacity:1;stroke-miterlimit:4;" d="M 310.367188 264.890625 L 310.367188 175.3125 " transform="matrix(0.5,0,0,0.5,0,0)"/>
<path style="fill:none;stroke-width:1.5;stroke-linecap:butt;stroke-linejoin:miter;stroke:rgb(0%,0%,0%);stroke-opacity:1;stroke-miterlimit:4;" d="M 306.523438 171.179688 L 310.367188 171.179688 " transform="matrix(0.5,0,0,0.5,0,0)"/>
<path style="fill:none;stroke-width:1.5;stroke-linecap:butt;stroke-linejoin:miter;stroke:rgb(0%,0%,0%);stroke-opacity:1;stroke-miterlimit:4;" d="M 310.367188 175.3125 L 310.15625 174.101562 M 310.15625 174.101562 L 309.609375 173 M 309.609375 173 L 308.773438 172.101562 M 308.773438 172.101562 L 307.710938 171.46875 M 307.710938 171.46875 L 306.523438 171.179688 " transform="matrix(0.5,0,0,0.5,0,0)"/>
<path style="fill:none;stroke-width:1.5;stroke-linecap:butt;stroke-linejoin:miter;stroke:rgb(0%,0%,0%);stroke-opacity:1;stroke-miterlimit:4;" d="M 188.546875 171.179688 L 188.546875 161.1875 " transform="matrix(0.5,0,0,0.5,0,0)"/>
<path style="fill:none;stroke-width:1.5;stroke-linecap:butt;stroke-linejoin:miter;stroke:rgb(0%,0%,0%);stroke-opacity:1;stroke-miterlimit:4;" d="M 188.546875 269.03125 L 310.367188 269.03125 " transform="matrix(0.5,0,0,0.5,0,0)"/>
<path style="fill:none;stroke-width:1.5;stroke-linecap:butt;stroke-linejoin:miter;stroke:rgb(0%,0%,0%);stroke-opacity:1;stroke-miterlimit:4;" d="M 310.367188 171.179688 L 188.546875 171.179688 " transform="matrix(0.5,0,0,0.5,0,0)"/>
<path style="fill:none;stroke-width:1.5;stroke-linecap:butt;stroke-linejoin:miter;stroke:rgb(0%,0%,0%);stroke-opacity:1;stroke-miterlimit:4;" d="M 188.546875 279.023438 L 310.367188 279.023438 " transform="matrix(0.5,0,0,0.5,0,0)"/>
<path style="fill:none;stroke-width:1.5;stroke-linecap:butt;stroke-linejoin:miter;stroke:rgb(0%,0%,0%);stroke-opacity:1;stroke-miterlimit:4;" d="M 310.367188 161.1875 L 188.546875 161.1875 " transform="matrix(0.5,0,0,0.5,0,0)"/>
<path style="fill:none;stroke-width:1.5;stroke-linecap:butt;stroke-linejoin:miter;stroke:rgb(0%,0%,0%);stroke-opacity:1;stroke-miterlimit:4;" d="M 310.367188 279.023438 L 310.367188 269.03125 " transform="matrix(0.5,0,0,0.5,0,0)"/>
<path style="fill:none;stroke-width:1.5;stroke-linecap:butt;stroke-linejoin:miter;stroke:rgb(0%,0%,0%);stroke-opacity:1;stroke-miterlimit:4;" d="M 310.367188 171.179688 L 310.367188 161.1875 " transform="matrix(0.5,0,0,0.5,0,0)"/>
<path style="fill:none;stroke-width:1.5;stroke-linecap:butt;stroke-linejoin:miter;stroke:rgb(0%,0%,0%);stroke-opacity:1;stroke-miterlimit:4;" d="M 188.546875 269.03125 L 188.546875 279.023438 " transform="matrix(0.5,0,0,0.5,0,0)"/>
<path style="fill:none;stroke-width:1.5;stroke-linecap:butt;stroke-linejoin:miter;stroke:rgb(0%,0%,0%);stroke-opacity:1;stroke-miterlimit:4;" d="M 578.476562 269.03125 L 579.789062 256.84375 M 579.789062 256.84375 L 580.726562 244.609375 M 580.726562 244.609375 L 581.289062 232.359375 M 581.289062 232.359375 L 581.476562 220.101562 M 581.476562 220.101562 L 581.289062 207.84375 M 581.289062 207.84375 L 580.726562 195.59375 M 580.726562 195.59375 L 579.789062 183.367188 M 579.789062 183.367188 L 578.476562 171.179688 " transform="matrix(0.5,0,0,0.5,0,0)"/>
<path style="fill:none;stroke-width:1.5;stroke-linecap:butt;stroke-linejoin:miter;stroke:rgb(0%,0%,0%);stroke-opacity:1;stroke-miterlimit:4;" d="M 598.453125 269.03125 L 599.757812 256.84375 M 599.757812 256.84375 L 600.703125 244.609375 M 600.703125 244.609375 L 601.257812 232.359375 M 601.257812 232.359375 L 601.453125 220.101562 M 601.453125 220.101562 L 601.257812 207.84375 M 601.257812 207.84375 L 600.703125 195.59375 M 600.703125 195.59375 L 599.757812 183.367188 M 599.757812 183.367188 L 598.453125 171.179688 " transform="matrix(0.5,0,0,0.5,0,0)"/>
<path style="fill:none;stroke-width:1.5;stroke-linecap:butt;stroke-linejoin:miter;stroke:rgb(0%,0%,0%);stroke-opacity:1;stroke-miterlimit:4;" d="M 608.4375 269.03125 L 609.75 256.84375 M 609.75 256.84375 L 610.679688 244.609375 M 610.679688 244.609375 L 611.25 232.359375 M 611.25 232.359375 L 611.429688 220.101562 M 611.429688 220.101562 L 611.25 207.84375 M 611.25 207.84375 L 610.679688 195.59375 M 610.679688 195.59375 L 609.75 183.367188 M 609.75 183.367188 L 608.4375 171.179688 " transform="matrix(0.5,0,0,0.5,0,0)"/>
<path style="fill:none;stroke-width:1.5;stroke-linecap:butt;stroke-linejoin:miter;stroke:rgb(0%,0%,0%);stroke-opacity:1;stroke-miterlimit:4;" d="M 489.609375 264.890625 L 489.820312 266.109375 M 489.820312 266.109375 L 490.367188 267.210938 M 490.367188 267.210938 L 491.210938 268.109375 M 491.210938 268.109375 L 492.273438 268.726562 M 492.273438 268.726562 L 493.460938 269.03125 " transform="matrix(0.5,0,0,0.5,0,0)"/>
<path style="fill:none;stroke-width:1.5;stroke-linecap:butt;stroke-linejoin:miter;stroke:rgb(0%,0%,0%);stroke-opacity:1;stroke-miterlimit:4;" d="M 489.609375 269.03125 L 493.460938 269.03125 " transform="matrix(0.5,0,0,0.5,0,0)"/>
<path style="fill:none;stroke-width:1.5;stroke-linecap:butt;stroke-linejoin:miter;stroke:rgb(0%,0%,0%);stroke-opacity:1;stroke-miterlimit:4;" d="M 489.609375 264.890625 L 489.609375 175.3125 " transform="matrix(0.5,0,0,0.5,0,0)"/>
<path style="fill:none;stroke-width:1.5;stroke-linecap:butt;stroke-linejoin:miter;stroke:rgb(0%,0%,0%);stroke-opacity:1;stroke-miterlimit:4;" d="M 493.460938 171.179688 L 489.609375 171.179688 " transform="matrix(0.5,0,0,0.5,0,0)"/>
<path style="fill:none;stroke-width:1.5;stroke-linecap:butt;stroke-linejoin:miter;stroke:rgb(0%,0%,0%);stroke-opacity:1;stroke-miterlimit:4;" d="M 493.460938 171.179688 L 492.273438 171.46875 M 492.273438 171.46875 L 491.210938 172.101562 M 491.210938 172.101562 L 490.367188 173 M 490.367188 173 L 489.820312 174.101562 M 489.820312 174.101562 L 489.609375 175.3125 " transform="matrix(0.5,0,0,0.5,0,0)"/>
<path style="fill:none;stroke-width:1.5;stroke-linecap:butt;stroke-linejoin:miter;stroke:rgb(0%,0%,0%);stroke-opacity:1;stroke-miterlimit:4;" d="M 611.429688 171.179688 L 611.429688 161.1875 " transform="matrix(0.5,0,0,0.5,0,0)"/>
<path style="fill:none;stroke-width:1.5;stroke-linecap:butt;stroke-linejoin:miter;stroke:rgb(0%,0%,0%);stroke-opacity:1;stroke-miterlimit:4;" d="M 611.429688 269.03125 L 489.609375 269.03125 " transform="matrix(0.5,0,0,0.5,0,0)"/>
<path style="fill:none;stroke-width:1.5;stroke-linecap:butt;stroke-linejoin:miter;stroke:rgb(0%,0%,0%);stroke-opacity:1;stroke-miterlimit:4;" d="M 489.609375 171.179688 L 611.429688 171.179688 " transform="matrix(0.5,0,0,0.5,0,0)"/>
<path style="fill:none;stroke-width:1.5;stroke-linecap:butt;stroke-linejoin:miter;stroke:rgb(0%,0%,0%);stroke-opacity:1;stroke-miterlimit:4;" d="M 611.429688 279.023438 L 489.609375 279.023438 " transform="matrix(0.5,0,0,0.5,0,0)"/>
<path style="fill:none;stroke-width:1.5;stroke-linecap:butt;stroke-linejoin:miter;stroke:rgb(0%,0%,0%);stroke-opacity:1;stroke-miterlimit:4;" d="M 489.609375 161.1875 L 611.429688 161.1875 " transform="matrix(0.5,0,0,0.5,0,0)"/>
<path style="fill:none;stroke-width:1.5;stroke-linecap:butt;stroke-linejoin:miter;stroke:rgb(0%,0%,0%);stroke-opacity:1;stroke-miterlimit:4;" d="M 489.609375 279.023438 L 489.609375 269.03125 " transform="matrix(0.5,0,0,0.5,0,0)"/>
<path style="fill:none;stroke-width:1.5;stroke-linecap:butt;stroke-linejoin:miter;stroke:rgb(0%,0%,0%);stroke-opacity:1;stroke-miterlimit:4;" d="M 489.609375 171.179688 L 489.609375 161.1875 " transform="matrix(0.5,0,0,0.5,0,0)"/>
<path style="fill:none;stroke-width:1.5;stroke-linecap:butt;stroke-linejoin:miter;stroke:rgb(0%,0%,0%);stroke-opacity:1;stroke-miterlimit:4;" d="M 611.429688 269.03125 L 611.429688 279.023438 " transform="matrix(0.5,0,0,0.5,0,0)"/>
<path style="fill:none;stroke-width:1.5;stroke-linecap:butt;stroke-linejoin:miter;stroke:rgb(0%,0%,0%);stroke-opacity:1;stroke-miterlimit:4;" d="M 221.5 330.9375 L 220.1875 343.132812 M 220.1875 343.132812 L 219.25 355.359375 M 219.25 355.359375 L 218.6875 367.609375 M 218.6875 367.609375 L 218.5 379.867188 M 218.5 379.867188 L 218.6875 392.132812 M 218.6875 392.132812 L 219.25 404.382812 M 219.25 404.382812 L 220.1875 416.601562 M 220.1875 416.601562 L 221.5 428.796875 " transform="matrix(0.5,0,0,0.5,0,0)"/>
<path style="fill:none;stroke-width:1.5;stroke-linecap:butt;stroke-linejoin:miter;stroke:rgb(0%,0%,0%);stroke-opacity:1;stroke-miterlimit:4;" d="M 201.53125 330.9375 L 200.21875 343.132812 M 200.21875 343.132812 L 199.28125 355.359375 M 199.28125 355.359375 L 198.71875 367.609375 M 198.71875 367.609375 L 198.53125 379.867188 M 198.53125 379.867188 L 198.71875 392.132812 M 198.71875 392.132812 L 199.28125 404.382812 M 199.28125 404.382812 L 200.21875 416.601562 M 200.21875 416.601562 L 201.53125 428.796875 " transform="matrix(0.5,0,0,0.5,0,0)"/>
<path style="fill:none;stroke-width:1.5;stroke-linecap:butt;stroke-linejoin:miter;stroke:rgb(0%,0%,0%);stroke-opacity:1;stroke-miterlimit:4;" d="M 191.539062 330.9375 L 190.226562 343.132812 M 190.226562 343.132812 L 189.296875 355.359375 M 189.296875 355.359375 L 188.726562 367.609375 M 188.726562 367.609375 L 188.546875 379.867188 M 188.546875 379.867188 L 188.726562 392.132812 M 188.726562 392.132812 L 189.296875 404.382812 M 189.296875 404.382812 L 190.226562 416.601562 M 190.226562 416.601562 L 191.539062 428.796875 " transform="matrix(0.5,0,0,0.5,0,0)"/>
<path style="fill:none;stroke-width:1.5;stroke-linecap:butt;stroke-linejoin:miter;stroke:rgb(0%,0%,0%);stroke-opacity:1;stroke-miterlimit:4;" d="M 306.523438 428.796875 L 307.710938 428.5 M 307.710938 428.5 L 308.773438 427.867188 M 308.773438 427.867188 L 309.609375 426.96875 M 309.609375 426.96875 L 310.15625 425.867188 M 310.15625 425.867188 L 310.367188 424.65625 " transform="matrix(0.5,0,0,0.5,0,0)"/>
<path style="fill:none;stroke-width:1.5;stroke-linecap:butt;stroke-linejoin:miter;stroke:rgb(0%,0%,0%);stroke-opacity:1;stroke-miterlimit:4;" d="M 310.367188 428.796875 L 306.523438 428.796875 " transform="matrix(0.5,0,0,0.5,0,0)"/>
<path style="fill:none;stroke-width:1.5;stroke-linecap:butt;stroke-linejoin:miter;stroke:rgb(0%,0%,0%);stroke-opacity:1;stroke-miterlimit:4;" d="M 310.367188 424.65625 L 310.367188 335.078125 " transform="matrix(0.5,0,0,0.5,0,0)"/>
<path style="fill:none;stroke-width:1.5;stroke-linecap:butt;stroke-linejoin:miter;stroke:rgb(0%,0%,0%);stroke-opacity:1;stroke-miterlimit:4;" d="M 306.523438 330.9375 L 310.367188 330.9375 " transform="matrix(0.5,0,0,0.5,0,0)"/>
<path style="fill:none;stroke-width:1.5;stroke-linecap:butt;stroke-linejoin:miter;stroke:rgb(0%,0%,0%);stroke-opacity:1;stroke-miterlimit:4;" d="M 310.367188 335.078125 L 310.15625 333.859375 M 310.15625 333.859375 L 309.609375 332.757812 M 309.609375 332.757812 L 308.773438 331.859375 M 308.773438 331.859375 L 307.710938 331.242188 M 307.710938 331.242188 L 306.523438 330.9375 " transform="matrix(0.5,0,0,0.5,0,0)"/>
<path style="fill:none;stroke-width:1.5;stroke-linecap:butt;stroke-linejoin:miter;stroke:rgb(0%,0%,0%);stroke-opacity:1;stroke-miterlimit:4;" d="M 188.546875 330.9375 L 188.546875 320.953125 " transform="matrix(0.5,0,0,0.5,0,0)"/>
<path style="fill:none;stroke-width:1.5;stroke-linecap:butt;stroke-linejoin:miter;stroke:rgb(0%,0%,0%);stroke-opacity:1;stroke-miterlimit:4;" d="M 188.546875 428.796875 L 310.367188 428.796875 " transform="matrix(0.5,0,0,0.5,0,0)"/>
<path style="fill:none;stroke-width:1.5;stroke-linecap:butt;stroke-linejoin:miter;stroke:rgb(0%,0%,0%);stroke-opacity:1;stroke-miterlimit:4;" d="M 310.367188 330.9375 L 188.546875 330.9375 " transform="matrix(0.5,0,0,0.5,0,0)"/>
<path style="fill:none;stroke-width:1.5;stroke-linecap:butt;stroke-linejoin:miter;stroke:rgb(0%,0%,0%);stroke-opacity:1;stroke-miterlimit:4;" d="M 188.546875 438.78125 L 310.367188 438.78125 " transform="matrix(0.5,0,0,0.5,0,0)"/>
<path style="fill:none;stroke-width:1.5;stroke-linecap:butt;stroke-linejoin:miter;stroke:rgb(0%,0%,0%);stroke-opacity:1;stroke-miterlimit:4;" d="M 310.367188 320.953125 L 188.546875 320.953125 " transform="matrix(0.5,0,0,0.5,0,0)"/>
<path style="fill:none;stroke-width:1.5;stroke-linecap:butt;stroke-linejoin:miter;stroke:rgb(0%,0%,0%);stroke-opacity:1;stroke-miterlimit:4;" d="M 310.367188 438.78125 L 310.367188 428.796875 " transform="matrix(0.5,0,0,0.5,0,0)"/>
<path style="fill:none;stroke-width:1.5;stroke-linecap:butt;stroke-linejoin:miter;stroke:rgb(0%,0%,0%);stroke-opacity:1;stroke-miterlimit:4;" d="M 310.367188 330.9375 L 310.367188 320.953125 " transform="matrix(0.5,0,0,0.5,0,0)"/>
<path style="fill:none;stroke-width:1.5;stroke-linecap:butt;stroke-linejoin:miter;stroke:rgb(0%,0%,0%);stroke-opacity:1;stroke-miterlimit:4;" d="M 188.546875 428.796875 L 188.546875 438.78125 " transform="matrix(0.5,0,0,0.5,0,0)"/>
<path style="fill:none;stroke-width:1.5;stroke-linecap:butt;stroke-linejoin:miter;stroke:rgb(0%,0%,0%);stroke-opacity:1;stroke-miterlimit:4;" d="M 578.476562 428.796875 L 579.789062 416.601562 M 579.789062 416.601562 L 580.726562 404.382812 M 580.726562 404.382812 L 581.289062 392.132812 M 581.289062 392.132812 L 581.476562 379.867188 M 581.476562 379.867188 L 581.289062 367.609375 M 581.289062 367.609375 L 580.726562 355.359375 M 580.726562 355.359375 L 579.789062 343.132812 M 579.789062 343.132812 L 578.476562 330.9375 " transform="matrix(0.5,0,0,0.5,0,0)"/>
<path style="fill:none;stroke-width:1.5;stroke-linecap:butt;stroke-linejoin:miter;stroke:rgb(0%,0%,0%);stroke-opacity:1;stroke-miterlimit:4;" d="M 598.453125 428.796875 L 599.757812 416.601562 M 599.757812 416.601562 L 600.703125 404.382812 M 600.703125 404.382812 L 601.257812 392.132812 M 601.257812 392.132812 L 601.453125 379.867188 M 601.453125 379.867188 L 601.257812 367.609375 M 601.257812 367.609375 L 600.703125 355.359375 M 600.703125 355.359375 L 599.757812 343.132812 M 599.757812 343.132812 L 598.453125 330.9375 " transform="matrix(0.5,0,0,0.5,0,0)"/>
<path style="fill:none;stroke-width:1.5;stroke-linecap:butt;stroke-linejoin:miter;stroke:rgb(0%,0%,0%);stroke-opacity:1;stroke-miterlimit:4;" d="M 608.4375 428.796875 L 609.75 416.601562 M 609.75 416.601562 L 610.679688 404.382812 M 610.679688 404.382812 L 611.25 392.132812 M 611.25 392.132812 L 611.429688 379.867188 M 611.429688 379.867188 L 611.25 367.609375 M 611.25 367.609375 L 610.679688 355.359375 M 610.679688 355.359375 L 609.75 343.132812 M 609.75 343.132812 L 608.4375 330.9375 " transform="matrix(0.5,0,0,0.5,0,0)"/>
<path style="fill:none;stroke-width:1.5;stroke-linecap:butt;stroke-linejoin:miter;stroke:rgb(0%,0%,0%);stroke-opacity:1;stroke-miterlimit:4;" d="M 489.609375 424.65625 L 489.820312 425.867188 M 489.820312 425.867188 L 490.367188 426.96875 M 490.367188 426.96875 L 491.210938 427.867188 M 491.210938 427.867188 L 492.273438 428.5 M 492.273438 428.5 L 493.460938 428.796875 " transform="matrix(0.5,0,0,0.5,0,0)"/>
<path style="fill:none;stroke-width:1.5;stroke-linecap:butt;stroke-linejoin:miter;stroke:rgb(0%,0%,0%);stroke-opacity:1;stroke-miterlimit:4;" d="M 489.609375 428.796875 L 493.460938 428.796875 " transform="matrix(0.5,0,0,0.5,0,0)"/>
<path style="fill:none;stroke-width:1.5;stroke-linecap:butt;stroke-linejoin:miter;stroke:rgb(0%,0%,0%);stroke-opacity:1;stroke-miterlimit:4;" d="M 489.609375 424.65625 L 489.609375 335.078125 " transform="matrix(0.5,0,0,0.5,0,0)"/>
<path style="fill:none;stroke-width:1.5;stroke-linecap:butt;stroke-linejoin:miter;stroke:rgb(0%,0%,0%);stroke-opacity:1;stroke-miterlimit:4;" d="M 493.460938 330.9375 L 489.609375 330.9375 " transform="matrix(0.5,0,0,0.5,0,0)"/>
<path style="fill:none;stroke-width:1.5;stroke-linecap:butt;stroke-linejoin:miter;stroke:rgb(0%,0%,0%);stroke-opacity:1;stroke-miterlimit:4;" d="M 493.460938 330.9375 L 492.273438 331.242188 M 492.273438 331.242188 L 491.210938 331.859375 M 491.210938 331.859375 L 490.367188 332.757812 M 490.367188 332.757812 L 489.820312 333.859375 M 489.820312 333.859375 L 489.609375 335.078125 " transform="matrix(0.5,0,0,0.5,0,0)"/>
<path style="fill:none;stroke-width:1.5;stroke-linecap:butt;stroke-linejoin:miter;stroke:rgb(0%,0%,0%);stroke-opacity:1;stroke-miterlimit:4;" d="M 611.429688 330.9375 L 611.429688 320.953125 " transform="matrix(0.5,0,0,0.5,0,0)"/>
<path style="fill:none;stroke-width:1.5;stroke-linecap:butt;stroke-linejoin:miter;stroke:rgb(0%,0%,0%);stroke-opacity:1;stroke-miterlimit:4;" d="M 611.429688 428.796875 L 489.609375 428.796875 " transform="matrix(0.5,0,0,0.5,0,0)"/>
<path style="fill:none;stroke-width:1.5;stroke-linecap:butt;stroke-linejoin:miter;stroke:rgb(0%,0%,0%);stroke-opacity:1;stroke-miterlimit:4;" d="M 489.609375 330.9375 L 611.429688 330.9375 " transform="matrix(0.5,0,0,0.5,0,0)"/>
<path style="fill:none;stroke-width:1.5;stroke-linecap:butt;stroke-linejoin:miter;stroke:rgb(0%,0%,0%);stroke-opacity:1;stroke-miterlimit:4;" d="M 611.429688 438.78125 L 489.609375 438.78125 " transform="matrix(0.5,0,0,0.5,0,0)"/>
<path style="fill:none;stroke-width:1.5;stroke-linecap:butt;stroke-linejoin:miter;stroke:rgb(0%,0%,0%);stroke-opacity:1;stroke-miterlimit:4;" d="M 489.609375 320.953125 L 611.429688 320.953125 " transform="matrix(0.5,0,0,0.5,0,0)"/>
<path style="fill:none;stroke-width:1.5;stroke-linecap:butt;stroke-linejoin:miter;stroke:rgb(0%,0%,0%);stroke-opacity:1;stroke-miterlimit:4;" d="M 489.609375 438.78125 L 489.609375 428.796875 " transform="matrix(0.5,0,0,0.5,0,0)"/>
<path style="fill:none;stroke-width:1.5;stroke-linecap:butt;stroke-linejoin:miter;stroke:rgb(0%,0%,0%);stroke-opacity:1;stroke-miterlimit:4;" d="M 489.609375 330.9375 L 489.609375 320.953125 " transform="matrix(0.5,0,0,0.5,0,0)"/>
<path style="fill:none;stroke-width:1.5;stroke-linecap:butt;stroke-linejoin:miter;stroke:rgb(0%,0%,0%);stroke-opacity:1;stroke-miterlimit:4;" d="M 611.429688 428.796875 L 611.429688 438.78125 " transform="matrix(0.5,0,0,0.5,0,0)"/>
<path style="fill:none;stroke-width:1.5;stroke-linecap:butt;stroke-linejoin:miter;stroke:rgb(0%,0%,0%);stroke-opacity:1;stroke-miterlimit:4;" d="M 479.867188 459.75 L 320.109375 459.75 " transform="matrix(0.5,0,0,0.5,0,0)"/>
<path style="fill:none;stroke-width:1.5;stroke-linecap:butt;stroke-linejoin:miter;stroke:rgb(0%,0%,0%);stroke-opacity:1;stroke-miterlimit:4;" d="M 479.867188 299.992188 L 479.867188 459.75 " transform="matrix(0.5,0,0,0.5,0,0)"/>
<path style="fill:none;stroke-width:1.5;stroke-linecap:butt;stroke-linejoin:miter;stroke:rgb(0%,0%,0%);stroke-opacity:1;stroke-miterlimit:4;" d="M 320.109375 299.992188 L 479.867188 299.992188 " transform="matrix(0.5,0,0,0.5,0,0)"/>
<path style="fill:none;stroke-width:1.5;stroke-linecap:butt;stroke-linejoin:miter;stroke:rgb(0%,0%,0%);stroke-opacity:1;stroke-miterlimit:4;" d="M 320.109375 459.75 L 320.109375 299.992188 " transform="matrix(0.5,0,0,0.5,0,0)"/>
<path style="fill:none;stroke-width:1.5;stroke-linecap:butt;stroke-linejoin:miter;stroke:rgb(0%,0%,0%);stroke-opacity:1;stroke-miterlimit:4;" d="M 479.867188 299.992188 L 320.109375 299.992188 " transform="matrix(0.5,0,0,0.5,0,0)"/>
<path style="fill:none;stroke-width:1.5;stroke-linecap:butt;stroke-linejoin:miter;stroke:rgb(0%,0%,0%);stroke-opacity:1;stroke-miterlimit:4;" d="M 479.867188 140.21875 L 479.867188 299.992188 " transform="matrix(0.5,0,0,0.5,0,0)"/>
<path style="fill:none;stroke-width:1.5;stroke-linecap:butt;stroke-linejoin:miter;stroke:rgb(0%,0%,0%);stroke-opacity:1;stroke-miterlimit:4;" d="M 320.109375 140.21875 L 479.867188 140.21875 " transform="matrix(0.5,0,0,0.5,0,0)"/>
<path style="fill:none;stroke-width:1.5;stroke-linecap:butt;stroke-linejoin:miter;stroke:rgb(0%,0%,0%);stroke-opacity:1;stroke-miterlimit:4;" d="M 320.109375 299.992188 L 320.109375 140.21875 " transform="matrix(0.5,0,0,0.5,0,0)"/>
</g>
</svg>
