<?xml version="1.0" encoding="UTF-8"?>
<svg xmlns="http://www.w3.org/2000/svg" width="800.000" height="600.000" viewBox="0.0 0.0 800.000 600.000" version="1.1">
  <title>Produce by Acme CAD Converter</title>
  <desc>Produce by Acme CAD Converter</desc>
<path d="M231.33 259.06L230.06 259.03"
fill="none" stroke="black" stroke-width="2.5"/>
<path d="M230.06 259.03L184.27 261.48"
fill="none" stroke="black" stroke-width="2.5"/>
<path d="M180 264.41L177.33 268.95"
fill="none" stroke="black" stroke-width="2.5"/>
<path d="M177.33 268.95L173.6 283.37"
fill="none" stroke="black" stroke-width="2.5"/>
<path d="M173.6 283.37L172.53 290.85"
fill="none" stroke="black" stroke-width="2.5"/>
<path d="M172.53 290.85L172.53 297.53"
fill="none" stroke="black" stroke-width="2.5"/>
<path d="M172.53 297.53L172.53 307.53"
fill="none" stroke="black" stroke-width="2.5"/>
<path d="M172.53 307.53L172.53 314.2"
fill="none" stroke="black" stroke-width="2.5"/>
<path d="M172.53 314.2L173.6 321.68"
fill="none" stroke="black" stroke-width="2.5"/>
<path d="M173.6 321.68L177.33 336.1"
fill="none" stroke="black" stroke-width="2.5"/>
<path d="M177.33 336.1L180 340.64"
fill="none" stroke="black" stroke-width="2.5"/>
<path d="M180 340.64L184.27 343.58"
fill="none" stroke="black" stroke-width="2.5"/>
<path d="M184.27 343.58L230.06 346.02"
fill="none" stroke="black" stroke-width="2.5"/>
<path d="M230.06 346.02L231.84 345.94M231.84 345.94L233.56 345.49"
fill="none" stroke="black" stroke-width="2.5"/>
<path d="M160.52 307.51L160.52 292.17"
fill="none" stroke="black" stroke-width="2.5"/>
<path d="M160.52 292.17L161.32 284.69"
fill="none" stroke="black" stroke-width="2.5"/>
<path d="M161.32 284.69L163.72 273.74"
fill="none" stroke="black" stroke-width="2.5"/>
<path d="M163.72 273.74L167.46 265.46"
fill="none" stroke="black" stroke-width="2.5"/>
<path d="M167.46 265.46L172 260.66"
fill="none" stroke="black" stroke-width="2.5"/>
<path d="M172 260.66L177.33 258.25"
fill="none" stroke="black" stroke-width="2.5"/>
<path d="M177.33 258.25L182.14 257.45"
fill="none" stroke="black" stroke-width="2.5"/>
<path d="M182.14 257.45L190.94 257.72"
fill="none" stroke="black" stroke-width="2.5"/>
<path d="M190.94 257.72L230.52 259"
fill="none" stroke="black" stroke-width="2.5"/>
<path d="M230.52 259L231.3 258.24"
fill="none" stroke="black" stroke-width="2.5"/>
<path d="M231.3 258.24L231.9 257.53"
fill="none" stroke="black" stroke-width="2.5"/>
<path d="M231.9 257.53L232.35 256.86"
fill="none" stroke="black" stroke-width="2.5"/>
<path d="M232.35 256.86L232.67 256.23"
fill="none" stroke="black" stroke-width="2.5"/>
<path d="M232.67 256.23L232.88 255.65"
fill="none" stroke="black" stroke-width="2.5"/>
<path d="M232.88 255.65L232.99 255.11"
fill="none" stroke="black" stroke-width="2.5"/>
<path d="M232.99 255.11L233.03 254.61"
fill="none" stroke="black" stroke-width="2.5"/>
<path d="M233.03 254.61L233.02 254.16"
fill="none" stroke="black" stroke-width="2.5"/>
<path d="M233.02 254.16L232.97 253.74"
fill="none" stroke="black" stroke-width="2.5"/>
<path d="M232.97 253.74L232.88 253.37"
fill="none" stroke="black" stroke-width="2.5"/>
<path d="M232.88 253.37L232.77 253.03"
fill="none" stroke="black" stroke-width="2.5"/>
<path d="M232.77 253.03L232.63 252.72"
fill="none" stroke="black" stroke-width="2.5"/>
<path d="M232.63 252.72L232.45 252.44"
fill="none" stroke="black" stroke-width="2.5"/>
<path d="M232.45 252.44L232.25 252.19"
fill="none" stroke="black" stroke-width="2.5"/>
<path d="M232.25 252.19L232.03 251.96"
fill="none" stroke="black" stroke-width="2.5"/>
<path d="M232.03 251.96L231.77 251.75"
fill="none" stroke="black" stroke-width="2.5"/>
<path d="M231.77 251.75L231.48 251.56"
fill="none" stroke="black" stroke-width="2.5"/>
<path d="M231.48 251.56L231.13 251.38"
fill="none" stroke="black" stroke-width="2.5"/>
<path d="M231.13 251.38L230.65 251.22"
fill="none" stroke="black" stroke-width="2.5"/>
<path d="M230.65 251.22L230.01 251.06"
fill="none" stroke="black" stroke-width="2.5"/>
<path d="M230.01 251.06L229.16 250.92"
fill="none" stroke="black" stroke-width="2.5"/>
<path d="M229.16 250.92L228.99 250.9"
fill="none" stroke="black" stroke-width="2.5"/>
<path d="M160.68 249.37L159.97 250.07"
fill="none" stroke="black" stroke-width="2.5"/>
<path d="M159.17 250.99L158.4 252.02"
fill="none" stroke="black" stroke-width="2.5"/>
<path d="M159.97 250.07L159.17 250.99"
fill="none" stroke="black" stroke-width="2.5"/>
<path d="M158.4 252.02L157.68 253.16"
fill="none" stroke="black" stroke-width="2.5"/>
<path d="M157.68 253.16L156.99 254.45"
fill="none" stroke="black" stroke-width="2.5"/>
<path d="M156.99 254.45L156.33 255.91"
fill="none" stroke="black" stroke-width="2.5"/>
<path d="M156.33 255.91L155.69 257.55"
fill="none" stroke="black" stroke-width="2.5"/>
<path d="M155.69 257.55L155.07 259.41"
fill="none" stroke="black" stroke-width="2.5"/>
<path d="M155.07 259.41L154.47 261.52"
fill="none" stroke="black" stroke-width="2.5"/>
<path d="M154.47 261.52L153.88 264.05"
fill="none" stroke="black" stroke-width="2.5"/>
<path d="M153.88 264.05L153.31 267.15"
fill="none" stroke="black" stroke-width="2.5"/>
<path d="M153.31 267.15L152.75 271.02"
fill="none" stroke="black" stroke-width="2.5"/>
<path d="M152.75 271.02L152.21 275.81"
fill="none" stroke="black" stroke-width="2.5"/>
<path d="M152.21 275.81L151.68 281.71"
fill="none" stroke="black" stroke-width="2.5"/>
<path d="M151.68 281.71L151.16 288.89"
fill="none" stroke="black" stroke-width="2.5"/>
<path d="M151.16 288.89L150.66 297.53"
fill="none" stroke="black" stroke-width="2.5"/>
<path d="M150.66 297.53L151.16 315.8"
fill="none" stroke="black" stroke-width="2.5"/>
<path d="M151.16 315.8L151.68 323.1"
fill="none" stroke="black" stroke-width="2.5"/>
<path d="M151.68 323.1L152.21 329.1"
fill="none" stroke="black" stroke-width="2.5"/>
<path d="M152.21 329.1L152.75 333.95"
fill="none" stroke="black" stroke-width="2.5"/>
<path d="M152.75 333.95L153.31 337.85"
fill="none" stroke="black" stroke-width="2.5"/>
<path d="M153.31 337.85L153.88 340.98"
fill="none" stroke="black" stroke-width="2.5"/>
<path d="M153.88 340.98L154.47 343.51"
fill="none" stroke="black" stroke-width="2.5"/>
<path d="M154.47 343.51L155.07 345.62"
fill="none" stroke="black" stroke-width="2.5"/>
<path d="M155.07 345.62L155.69 347.48"
fill="none" stroke="black" stroke-width="2.5"/>
<path d="M155.69 347.48L156.33 349.12"
fill="none" stroke="black" stroke-width="2.5"/>
<path d="M156.33 349.12L156.99 350.58"
fill="none" stroke="black" stroke-width="2.5"/>
<path d="M156.99 350.58L157.68 351.87"
fill="none" stroke="black" stroke-width="2.5"/>
<path d="M157.68 351.87L158.4 353.02"
fill="none" stroke="black" stroke-width="2.5"/>
<path d="M158.4 353.02L159.17 354.04"
fill="none" stroke="black" stroke-width="2.5"/>
<path d="M159.17 354.04L159.97 354.97"
fill="none" stroke="black" stroke-width="2.5"/>
<path d="M159.97 354.97L160.7 355.68"
fill="none" stroke="black" stroke-width="2.5"/>
<path d="M228.6 354.18L229.16 354.11"
fill="none" stroke="black" stroke-width="2.5"/>
<path d="M229.16 354.11L230.01 353.97"
fill="none" stroke="black" stroke-width="2.5"/>
<path d="M230.01 353.97L230.65 353.81"
fill="none" stroke="black" stroke-width="2.5"/>
<path d="M230.65 353.81L231.13 353.65"
fill="none" stroke="black" stroke-width="2.5"/>
<path d="M231.13 353.65L231.48 353.47"
fill="none" stroke="black" stroke-width="2.5"/>
<path d="M231.48 353.47L231.77 353.28"
fill="none" stroke="black" stroke-width="2.5"/>
<path d="M231.77 353.28L232.03 353.07"
fill="none" stroke="black" stroke-width="2.5"/>
<path d="M232.03 353.07L232.25 352.84"
fill="none" stroke="black" stroke-width="2.5"/>
<path d="M232.25 352.84L232.45 352.59"
fill="none" stroke="black" stroke-width="2.5"/>
<path d="M232.45 352.59L232.63 352.31"
fill="none" stroke="black" stroke-width="2.5"/>
<path d="M232.63 352.31L232.77 352"
fill="none" stroke="black" stroke-width="2.5"/>
<path d="M232.77 352L232.88 351.66"
fill="none" stroke="black" stroke-width="2.5"/>
<path d="M232.88 351.66L232.97 351.29"
fill="none" stroke="black" stroke-width="2.5"/>
<path d="M232.97 351.29L233.02 350.87"
fill="none" stroke="black" stroke-width="2.5"/>
<path d="M233.02 350.87L233.03 350.42"
fill="none" stroke="black" stroke-width="2.5"/>
<path d="M233.03 350.42L232.99 349.92"
fill="none" stroke="black" stroke-width="2.5"/>
<path d="M232.99 349.92L232.88 349.38"
fill="none" stroke="black" stroke-width="2.5"/>
<path d="M232.88 349.38L232.67 348.8"
fill="none" stroke="black" stroke-width="2.5"/>
<path d="M232.67 348.8L232.35 348.18"
fill="none" stroke="black" stroke-width="2.5"/>
<path d="M232.35 348.18L231.9 347.51"
fill="none" stroke="black" stroke-width="2.5"/>
<path d="M231.9 347.51L231.3 346.79"
fill="none" stroke="black" stroke-width="2.5"/>
<path d="M231.3 346.79L230.52 346.03"
fill="none" stroke="black" stroke-width="2.5"/>
<path d="M230.52 346.03L190.94 347.31"
fill="none" stroke="black" stroke-width="2.5"/>
<path d="M190.94 347.31L182.14 347.58"
fill="none" stroke="black" stroke-width="2.5"/>
<path d="M182.14 347.58L177.33 346.78"
fill="none" stroke="black" stroke-width="2.5"/>
<path d="M177.33 346.78L172 344.38"
fill="none" stroke="black" stroke-width="2.5"/>
<path d="M172 344.38L167.46 339.57"
fill="none" stroke="black" stroke-width="2.5"/>
<path d="M167.46 339.57L163.72 331.29"
fill="none" stroke="black" stroke-width="2.5"/>
<path d="M163.72 331.29L161.32 320.34"
fill="none" stroke="black" stroke-width="2.5"/>
<path d="M161.32 320.34L160.52 312.87"
fill="none" stroke="black" stroke-width="2.5"/>
<path d="M160.52 312.87L160.52 297.53"
fill="none" stroke="black" stroke-width="2.5"/>
<path d="M160.7 355.68L174.29 355.94M174.29 355.94L187.88 355.91M187.88 355.91L201.46 355.61M201.46 355.61L215.04 355.04M215.04 355.04L228.6 354.18"
fill="none" stroke="black" stroke-width="2.5"/>
<path d="M228.99 250.9L215.35 250.03M215.35 250.03L201.69 249.45M201.69 249.45L188.02 249.14M188.02 249.14L174.35 249.12M174.35 249.12L160.68 249.37"
fill="none" stroke="black" stroke-width="2.5"/>
<path d="M615.68 261.48L619.95 264.41"
fill="none" stroke="black" stroke-width="2.5"/>
<path d="M569.9 259.03L568.63 259.06"
fill="none" stroke="black" stroke-width="2.5"/>
<path d="M569.9 259.03L615.68 261.48"
fill="none" stroke="black" stroke-width="2.5"/>
<path d="M619.95 264.41L622.62 268.95"
fill="none" stroke="black" stroke-width="2.5"/>
<path d="M622.62 268.95L626.36 283.37"
fill="none" stroke="black" stroke-width="2.5"/>
<path d="M626.36 283.37L627.43 290.85"
fill="none" stroke="black" stroke-width="2.5"/>
<path d="M627.43 290.85L627.43 297.53"
fill="none" stroke="black" stroke-width="2.5"/>
<path d="M627.43 297.53L627.43 307.53"
fill="none" stroke="black" stroke-width="2.5"/>
<path d="M627.43 307.53L627.43 314.2"
fill="none" stroke="black" stroke-width="2.5"/>
<path d="M627.43 314.2L626.36 321.68"
fill="none" stroke="black" stroke-width="2.5"/>
<path d="M626.36 321.68L622.62 336.1"
fill="none" stroke="black" stroke-width="2.5"/>
<path d="M622.62 336.1L619.95 340.64"
fill="none" stroke="black" stroke-width="2.5"/>
<path d="M619.95 340.64L615.68 343.58"
fill="none" stroke="black" stroke-width="2.5"/>
<path d="M615.68 343.58L569.9 346.02"
fill="none" stroke="black" stroke-width="2.5"/>
<path d="M566.4 345.49L568.12 345.94M568.12 345.94L569.9 346.02"
fill="none" stroke="black" stroke-width="2.5"/>
<path d="M639.43 307.51L639.43 292.17"
fill="none" stroke="black" stroke-width="2.5"/>
<path d="M639.43 292.17L638.63 284.69"
fill="none" stroke="black" stroke-width="2.5"/>
<path d="M638.63 284.69L636.23 273.74"
fill="none" stroke="black" stroke-width="2.5"/>
<path d="M636.23 273.74L632.5 265.46"
fill="none" stroke="black" stroke-width="2.5"/>
<path d="M632.5 265.46L627.96 260.66"
fill="none" stroke="black" stroke-width="2.5"/>
<path d="M627.96 260.66L622.62 258.25"
fill="none" stroke="black" stroke-width="2.5"/>
<path d="M622.62 258.25L617.82 257.45"
fill="none" stroke="black" stroke-width="2.5"/>
<path d="M617.82 257.45L609.01 257.72"
fill="none" stroke="black" stroke-width="2.5"/>
<path d="M609.01 257.72L569.43 259"
fill="none" stroke="black" stroke-width="2.5"/>
<path d="M569.43 259L568.66 258.24"
fill="none" stroke="black" stroke-width="2.5"/>
<path d="M568.66 258.24L568.05 257.53"
fill="none" stroke="black" stroke-width="2.5"/>
<path d="M568.05 257.53L567.6 256.86"
fill="none" stroke="black" stroke-width="2.5"/>
<path d="M567.6 256.86L567.28 256.23"
fill="none" stroke="black" stroke-width="2.5"/>
<path d="M567.28 256.23L567.08 255.65"
fill="none" stroke="black" stroke-width="2.5"/>
<path d="M567.08 255.65L566.97 255.11"
fill="none" stroke="black" stroke-width="2.5"/>
<path d="M566.97 255.11L566.93 254.61"
fill="none" stroke="black" stroke-width="2.5"/>
<path d="M566.93 254.61L566.94 254.16"
fill="none" stroke="black" stroke-width="2.5"/>
<path d="M566.94 254.16L566.99 253.74"
fill="none" stroke="black" stroke-width="2.5"/>
<path d="M566.99 253.74L567.07 253.37"
fill="none" stroke="black" stroke-width="2.5"/>
<path d="M567.07 253.37L567.18 253.03"
fill="none" stroke="black" stroke-width="2.5"/>
<path d="M567.18 253.03L567.33 252.72"
fill="none" stroke="black" stroke-width="2.5"/>
<path d="M567.33 252.72L567.5 252.44"
fill="none" stroke="black" stroke-width="2.5"/>
<path d="M567.5 252.44L567.7 252.19"
fill="none" stroke="black" stroke-width="2.5"/>
<path d="M567.7 252.19L567.93 251.96"
fill="none" stroke="black" stroke-width="2.5"/>
<path d="M567.93 251.96L568.18 251.75"
fill="none" stroke="black" stroke-width="2.5"/>
<path d="M568.18 251.75L568.47 251.56"
fill="none" stroke="black" stroke-width="2.5"/>
<path d="M568.47 251.56L568.83 251.38"
fill="none" stroke="black" stroke-width="2.5"/>
<path d="M568.83 251.38L569.31 251.22"
fill="none" stroke="black" stroke-width="2.5"/>
<path d="M569.31 251.22L569.95 251.06"
fill="none" stroke="black" stroke-width="2.5"/>
<path d="M569.95 251.06L570.8 250.92"
fill="none" stroke="black" stroke-width="2.5"/>
<path d="M570.8 250.92L570.97 250.9"
fill="none" stroke="black" stroke-width="2.5"/>
<path d="M639.28 249.37L639.98 250.07"
fill="none" stroke="black" stroke-width="2.5"/>
<path d="M639.98 250.07L640.79 250.99"
fill="none" stroke="black" stroke-width="2.5"/>
<path d="M640.79 250.99L641.55 252.02"
fill="none" stroke="black" stroke-width="2.5"/>
<path d="M641.55 252.02L642.28 253.16"
fill="none" stroke="black" stroke-width="2.5"/>
<path d="M642.28 253.16L642.97 254.45"
fill="none" stroke="black" stroke-width="2.5"/>
<path d="M642.97 254.45L643.63 255.91"
fill="none" stroke="black" stroke-width="2.5"/>
<path d="M643.63 255.91L644.27 257.55"
fill="none" stroke="black" stroke-width="2.5"/>
<path d="M644.27 257.55L644.88 259.41"
fill="none" stroke="black" stroke-width="2.5"/>
<path d="M644.88 259.41L645.48 261.52"
fill="none" stroke="black" stroke-width="2.5"/>
<path d="M645.48 261.52L646.07 264.05"
fill="none" stroke="black" stroke-width="2.5"/>
<path d="M646.07 264.05L646.64 267.15"
fill="none" stroke="black" stroke-width="2.5"/>
<path d="M646.64 267.15L647.2 271.02"
fill="none" stroke="black" stroke-width="2.5"/>
<path d="M647.2 271.02L647.75 275.81"
fill="none" stroke="black" stroke-width="2.5"/>
<path d="M647.75 275.81L648.28 281.71"
fill="none" stroke="black" stroke-width="2.5"/>
<path d="M648.28 281.71L648.79 288.89"
fill="none" stroke="black" stroke-width="2.5"/>
<path d="M648.79 288.89L649.3 297.53"
fill="none" stroke="black" stroke-width="2.5"/>
<path d="M649.3 297.53L648.79 315.8"
fill="none" stroke="black" stroke-width="2.5"/>
<path d="M648.79 315.8L648.28 323.1"
fill="none" stroke="black" stroke-width="2.5"/>
<path d="M648.28 323.1L647.75 329.1"
fill="none" stroke="black" stroke-width="2.5"/>
<path d="M647.75 329.1L647.2 333.95"
fill="none" stroke="black" stroke-width="2.5"/>
<path d="M647.2 333.95L646.64 337.85"
fill="none" stroke="black" stroke-width="2.5"/>
<path d="M646.64 337.85L646.07 340.98"
fill="none" stroke="black" stroke-width="2.5"/>
<path d="M646.07 340.98L645.48 343.51"
fill="none" stroke="black" stroke-width="2.5"/>
<path d="M645.48 343.51L644.88 345.62"
fill="none" stroke="black" stroke-width="2.5"/>
<path d="M644.88 345.62L644.27 347.48"
fill="none" stroke="black" stroke-width="2.5"/>
<path d="M644.27 347.48L643.63 349.12"
fill="none" stroke="black" stroke-width="2.5"/>
<path d="M643.63 349.12L642.97 350.58"
fill="none" stroke="black" stroke-width="2.5"/>
<path d="M642.97 350.58L642.28 351.87"
fill="none" stroke="black" stroke-width="2.5"/>
<path d="M642.28 351.87L641.55 353.02"
fill="none" stroke="black" stroke-width="2.5"/>
<path d="M641.55 353.02L640.79 354.04"
fill="none" stroke="black" stroke-width="2.5"/>
<path d="M640.79 354.04L639.98 354.97"
fill="none" stroke="black" stroke-width="2.5"/>
<path d="M639.98 354.97L639.26 355.68"
fill="none" stroke="black" stroke-width="2.5"/>
<path d="M571.35 354.18L570.8 354.11"
fill="none" stroke="black" stroke-width="2.5"/>
<path d="M570.8 354.11L569.95 353.97"
fill="none" stroke="black" stroke-width="2.5"/>
<path d="M569.95 353.97L569.31 353.81"
fill="none" stroke="black" stroke-width="2.5"/>
<path d="M569.31 353.81L568.83 353.65"
fill="none" stroke="black" stroke-width="2.5"/>
<path d="M568.83 353.65L568.47 353.47"
fill="none" stroke="black" stroke-width="2.5"/>
<path d="M568.47 353.47L568.18 353.28"
fill="none" stroke="black" stroke-width="2.5"/>
<path d="M568.18 353.28L567.93 353.07"
fill="none" stroke="black" stroke-width="2.5"/>
<path d="M567.93 353.07L567.7 352.84"
fill="none" stroke="black" stroke-width="2.5"/>
<path d="M567.7 352.84L567.5 352.59"
fill="none" stroke="black" stroke-width="2.5"/>
<path d="M567.5 352.59L567.33 352.31"
fill="none" stroke="black" stroke-width="2.5"/>
<path d="M567.33 352.31L567.18 352"
fill="none" stroke="black" stroke-width="2.5"/>
<path d="M567.18 352L567.07 351.66"
fill="none" stroke="black" stroke-width="2.5"/>
<path d="M567.07 351.66L566.99 351.29"
fill="none" stroke="black" stroke-width="2.5"/>
<path d="M566.99 351.29L566.94 350.87"
fill="none" stroke="black" stroke-width="2.5"/>
<path d="M566.94 350.87L566.93 350.42"
fill="none" stroke="black" stroke-width="2.5"/>
<path d="M566.93 350.42L566.97 349.92"
fill="none" stroke="black" stroke-width="2.5"/>
<path d="M566.97 349.92L567.08 349.38"
fill="none" stroke="black" stroke-width="2.5"/>
<path d="M567.08 349.38L567.28 348.8"
fill="none" stroke="black" stroke-width="2.5"/>
<path d="M567.28 348.8L567.6 348.18"
fill="none" stroke="black" stroke-width="2.5"/>
<path d="M567.6 348.18L568.05 347.51"
fill="none" stroke="black" stroke-width="2.5"/>
<path d="M568.05 347.51L568.66 346.79"
fill="none" stroke="black" stroke-width="2.5"/>
<path d="M568.66 346.79L569.43 346.03"
fill="none" stroke="black" stroke-width="2.5"/>
<path d="M569.43 346.03L609.01 347.31"
fill="none" stroke="black" stroke-width="2.5"/>
<path d="M609.01 347.31L617.82 347.58"
fill="none" stroke="black" stroke-width="2.5"/>
<path d="M617.82 347.58L622.62 346.78"
fill="none" stroke="black" stroke-width="2.5"/>
<path d="M622.62 346.78L627.96 344.38"
fill="none" stroke="black" stroke-width="2.5"/>
<path d="M627.96 344.38L632.5 339.57"
fill="none" stroke="black" stroke-width="2.5"/>
<path d="M632.5 339.57L636.23 331.29"
fill="none" stroke="black" stroke-width="2.5"/>
<path d="M636.23 331.29L638.63 320.34"
fill="none" stroke="black" stroke-width="2.5"/>
<path d="M638.63 320.34L639.43 312.87"
fill="none" stroke="black" stroke-width="2.5"/>
<path d="M639.43 312.87L639.43 297.53"
fill="none" stroke="black" stroke-width="2.5"/>
<path d="M571.35 354.18L584.91 355.04M584.91 355.04L598.49 355.61M598.49 355.61L612.08 355.91M612.08 355.91L625.67 355.94M625.67 355.94L639.26 355.68"
fill="none" stroke="black" stroke-width="2.5"/>
<path d="M639.28 249.37L625.61 249.12M625.61 249.12L611.94 249.14M611.94 249.14L598.27 249.45M598.27 249.45L584.61 250.03M584.61 250.03L570.97 250.9"
fill="none" stroke="black" stroke-width="2.5"/>
<path d="M281.83 210.08L283.75 174.25"
fill="none" stroke="black" stroke-width="2.5"/>
<path d="M283.75 174.25L286.68 169.98"
fill="none" stroke="black" stroke-width="2.5"/>
<path d="M286.68 169.98L291.22 167.31"
fill="none" stroke="black" stroke-width="2.5"/>
<path d="M291.22 167.31L305.64 163.57"
fill="none" stroke="black" stroke-width="2.5"/>
<path d="M305.64 163.57L313.12 162.5"
fill="none" stroke="black" stroke-width="2.5"/>
<path d="M313.12 162.5L319.8 162.5"
fill="none" stroke="black" stroke-width="2.5"/>
<path d="M319.8 162.5L329.79 162.5"
fill="none" stroke="black" stroke-width="2.5"/>
<path d="M329.79 162.5L336.47 162.5"
fill="none" stroke="black" stroke-width="2.5"/>
<path d="M336.47 162.5L343.95 163.57"
fill="none" stroke="black" stroke-width="2.5"/>
<path d="M343.95 163.57L358.37 167.31"
fill="none" stroke="black" stroke-width="2.5"/>
<path d="M358.37 167.31L362.91 169.98"
fill="none" stroke="black" stroke-width="2.5"/>
<path d="M362.91 169.98L365.85 174.25"
fill="none" stroke="black" stroke-width="2.5"/>
<path d="M365.85 174.25L367.34 202.3"
fill="none" stroke="black" stroke-width="2.5"/>
<path d="M329.77 150.5L314.44 150.5"
fill="none" stroke="black" stroke-width="2.5"/>
<path d="M314.44 150.5L306.96 151.3"
fill="none" stroke="black" stroke-width="2.5"/>
<path d="M306.96 151.3L296.01 153.7"
fill="none" stroke="black" stroke-width="2.5"/>
<path d="M296.01 153.7L287.73 157.43"
fill="none" stroke="black" stroke-width="2.5"/>
<path d="M287.73 157.43L282.92 161.97"
fill="none" stroke="black" stroke-width="2.5"/>
<path d="M282.92 161.97L280.52 167.31"
fill="none" stroke="black" stroke-width="2.5"/>
<path d="M280.52 167.31L279.72 172.11"
fill="none" stroke="black" stroke-width="2.5"/>
<path d="M279.72 172.11L279.99 180.92"
fill="none" stroke="black" stroke-width="2.5"/>
<path d="M279.99 180.92L280.94 210.46"
fill="none" stroke="black" stroke-width="2.5"/>
<path d="M271.64 150.65L272.34 149.95"
fill="none" stroke="black" stroke-width="2.5"/>
<path d="M272.34 149.95L273.26 149.14"
fill="none" stroke="black" stroke-width="2.5"/>
<path d="M273.26 149.14L274.29 148.38"
fill="none" stroke="black" stroke-width="2.5"/>
<path d="M274.29 148.38L275.43 147.65"
fill="none" stroke="black" stroke-width="2.5"/>
<path d="M275.43 147.65L276.72 146.96"
fill="none" stroke="black" stroke-width="2.5"/>
<path d="M276.72 146.96L278.18 146.3"
fill="none" stroke="black" stroke-width="2.5"/>
<path d="M278.18 146.3L279.82 145.66"
fill="none" stroke="black" stroke-width="2.5"/>
<path d="M279.82 145.66L281.68 145.05"
fill="none" stroke="black" stroke-width="2.5"/>
<path d="M281.68 145.05L283.79 144.45"
fill="none" stroke="black" stroke-width="2.5"/>
<path d="M283.79 144.45L286.32 143.86"
fill="none" stroke="black" stroke-width="2.5"/>
<path d="M286.32 143.86L289.42 143.29"
fill="none" stroke="black" stroke-width="2.5"/>
<path d="M289.42 143.29L293.29 142.73"
fill="none" stroke="black" stroke-width="2.5"/>
<path d="M293.29 142.73L298.08 142.18"
fill="none" stroke="black" stroke-width="2.5"/>
<path d="M298.08 142.18L303.98 141.65"
fill="none" stroke="black" stroke-width="2.5"/>
<path d="M303.98 141.65L311.16 141.14"
fill="none" stroke="black" stroke-width="2.5"/>
<path d="M311.16 141.14L319.8 140.63"
fill="none" stroke="black" stroke-width="2.5"/>
<path d="M319.8 140.63L338.07 141.14"
fill="none" stroke="black" stroke-width="2.5"/>
<path d="M338.07 141.14L345.37 141.65"
fill="none" stroke="black" stroke-width="2.5"/>
<path d="M345.37 141.65L351.37 142.18"
fill="none" stroke="black" stroke-width="2.5"/>
<path d="M351.37 142.18L356.22 142.73"
fill="none" stroke="black" stroke-width="2.5"/>
<path d="M356.22 142.73L360.12 143.29"
fill="none" stroke="black" stroke-width="2.5"/>
<path d="M360.12 143.29L363.25 143.86"
fill="none" stroke="black" stroke-width="2.5"/>
<path d="M363.25 143.86L365.78 144.45"
fill="none" stroke="black" stroke-width="2.5"/>
<path d="M365.78 144.45L367.89 145.05"
fill="none" stroke="black" stroke-width="2.5"/>
<path d="M367.89 145.05L369.75 145.66"
fill="none" stroke="black" stroke-width="2.5"/>
<path d="M369.75 145.66L371.39 146.3"
fill="none" stroke="black" stroke-width="2.5"/>
<path d="M371.39 146.3L372.85 146.96"
fill="none" stroke="black" stroke-width="2.5"/>
<path d="M372.85 146.96L374.14 147.65"
fill="none" stroke="black" stroke-width="2.5"/>
<path d="M374.14 147.65L375.29 148.38"
fill="none" stroke="black" stroke-width="2.5"/>
<path d="M375.29 148.38L376.31 149.14"
fill="none" stroke="black" stroke-width="2.5"/>
<path d="M376.31 149.14L377.24 149.95"
fill="none" stroke="black" stroke-width="2.5"/>
<path d="M377.24 149.95L377.95 150.67"
fill="none" stroke="black" stroke-width="2.5"/>
<path d="M368.89 202.3L369.58 180.92"
fill="none" stroke="black" stroke-width="2.5"/>
<path d="M369.58 180.92L369.85 172.11"
fill="none" stroke="black" stroke-width="2.5"/>
<path d="M369.85 172.11L369.05 167.31"
fill="none" stroke="black" stroke-width="2.5"/>
<path d="M369.05 167.31L366.65 161.97"
fill="none" stroke="black" stroke-width="2.5"/>
<path d="M366.65 161.97L361.84 157.43"
fill="none" stroke="black" stroke-width="2.5"/>
<path d="M361.84 157.43L353.56 153.7"
fill="none" stroke="black" stroke-width="2.5"/>
<path d="M353.56 153.7L342.61 151.3"
fill="none" stroke="black" stroke-width="2.5"/>
<path d="M342.61 151.3L335.14 150.5"
fill="none" stroke="black" stroke-width="2.5"/>
<path d="M335.14 150.5L319.8 150.5"
fill="none" stroke="black" stroke-width="2.5"/>
<path d="M377.44 202.3L377.94 189.4M377.94 189.4L378.19 176.49M378.19 176.49L378.2 163.58M378.2 163.58L377.95 150.67"
fill="none" stroke="black" stroke-width="2.5"/>
<path d="M422.06 202.3L423.57 173.99"
fill="none" stroke="black" stroke-width="2.5"/>
<path d="M271.64 150.65L271.37 166.61M271.37 166.61L271.48 182.57M271.48 182.57L271.98 198.52M271.98 198.52L272.85 214.45"
fill="none" stroke="black" stroke-width="2.5"/>
<path d="M426.51 169.72L431.05 167.06"
fill="none" stroke="black" stroke-width="2.5"/>
<path d="M423.57 173.99L426.51 169.72"
fill="none" stroke="black" stroke-width="2.5"/>
<path d="M431.05 167.06L445.47 163.32"
fill="none" stroke="black" stroke-width="2.5"/>
<path d="M445.47 163.32L452.95 162.25"
fill="none" stroke="black" stroke-width="2.5"/>
<path d="M452.95 162.25L459.62 162.25"
fill="none" stroke="black" stroke-width="2.5"/>
<path d="M459.62 162.25L469.62 162.25"
fill="none" stroke="black" stroke-width="2.5"/>
<path d="M469.62 162.25L476.3 162.25"
fill="none" stroke="black" stroke-width="2.5"/>
<path d="M476.3 162.25L483.78 163.32"
fill="none" stroke="black" stroke-width="2.5"/>
<path d="M483.78 163.32L498.2 167.06"
fill="none" stroke="black" stroke-width="2.5"/>
<path d="M498.2 167.06L502.74 169.72"
fill="none" stroke="black" stroke-width="2.5"/>
<path d="M502.74 169.72L505.67 173.99"
fill="none" stroke="black" stroke-width="2.5"/>
<path d="M505.67 173.99L507.4 206.25"
fill="none" stroke="black" stroke-width="2.5"/>
<path d="M469.6 150.24L454.26 150.24"
fill="none" stroke="black" stroke-width="2.5"/>
<path d="M446.79 151.04L435.84 153.45"
fill="none" stroke="black" stroke-width="2.5"/>
<path d="M454.26 150.24L446.79 151.04"
fill="none" stroke="black" stroke-width="2.5"/>
<path d="M435.84 153.45L427.56 157.18"
fill="none" stroke="black" stroke-width="2.5"/>
<path d="M427.56 157.18L422.75 161.72"
fill="none" stroke="black" stroke-width="2.5"/>
<path d="M422.75 161.72L420.35 167.06"
fill="none" stroke="black" stroke-width="2.5"/>
<path d="M420.35 167.06L419.55 171.86"
fill="none" stroke="black" stroke-width="2.5"/>
<path d="M419.55 171.86L419.82 180.67"
fill="none" stroke="black" stroke-width="2.5"/>
<path d="M419.82 180.67L420.52 202.3"
fill="none" stroke="black" stroke-width="2.5"/>
<path d="M411.47 150.4L412.16 149.7"
fill="none" stroke="black" stroke-width="2.5"/>
<path d="M413.09 148.89L414.11 148.12"
fill="none" stroke="black" stroke-width="2.5"/>
<path d="M412.16 149.7L413.09 148.89"
fill="none" stroke="black" stroke-width="2.5"/>
<path d="M414.11 148.12L415.26 147.4"
fill="none" stroke="black" stroke-width="2.5"/>
<path d="M415.26 147.4L416.55 146.71"
fill="none" stroke="black" stroke-width="2.5"/>
<path d="M416.55 146.71L418.01 146.05"
fill="none" stroke="black" stroke-width="2.5"/>
<path d="M418.01 146.05L419.65 145.41"
fill="none" stroke="black" stroke-width="2.5"/>
<path d="M419.65 145.41L421.51 144.8"
fill="none" stroke="black" stroke-width="2.5"/>
<path d="M421.51 144.8L423.62 144.19"
fill="none" stroke="black" stroke-width="2.5"/>
<path d="M423.62 144.19L426.15 143.61"
fill="none" stroke="black" stroke-width="2.5"/>
<path d="M426.15 143.61L429.25 143.03"
fill="none" stroke="black" stroke-width="2.5"/>
<path d="M429.25 143.03L433.11 142.48"
fill="none" stroke="black" stroke-width="2.5"/>
<path d="M433.11 142.48L437.91 141.93"
fill="none" stroke="black" stroke-width="2.5"/>
<path d="M437.91 141.93L443.81 141.4"
fill="none" stroke="black" stroke-width="2.5"/>
<path d="M443.81 141.4L450.99 140.88"
fill="none" stroke="black" stroke-width="2.5"/>
<path d="M450.99 140.88L459.62 140.38"
fill="none" stroke="black" stroke-width="2.5"/>
<path d="M459.62 140.38L477.89 140.88"
fill="none" stroke="black" stroke-width="2.5"/>
<path d="M477.89 140.88L485.2 141.4"
fill="none" stroke="black" stroke-width="2.5"/>
<path d="M485.2 141.4L491.19 141.93"
fill="none" stroke="black" stroke-width="2.5"/>
<path d="M491.19 141.93L496.05 142.48"
fill="none" stroke="black" stroke-width="2.5"/>
<path d="M496.05 142.48L499.95 143.03"
fill="none" stroke="black" stroke-width="2.5"/>
<path d="M499.95 143.03L503.07 143.61"
fill="none" stroke="black" stroke-width="2.5"/>
<path d="M503.07 143.61L505.6 144.19"
fill="none" stroke="black" stroke-width="2.5"/>
<path d="M505.6 144.19L507.72 144.8"
fill="none" stroke="black" stroke-width="2.5"/>
<path d="M507.72 144.8L509.58 145.41"
fill="none" stroke="black" stroke-width="2.5"/>
<path d="M509.58 145.41L511.22 146.05"
fill="none" stroke="black" stroke-width="2.5"/>
<path d="M511.22 146.05L512.68 146.71"
fill="none" stroke="black" stroke-width="2.5"/>
<path d="M512.68 146.71L513.97 147.4"
fill="none" stroke="black" stroke-width="2.5"/>
<path d="M513.97 147.4L515.11 148.12"
fill="none" stroke="black" stroke-width="2.5"/>
<path d="M515.11 148.12L516.14 148.89"
fill="none" stroke="black" stroke-width="2.5"/>
<path d="M516.14 148.89L517.06 149.7"
fill="none" stroke="black" stroke-width="2.5"/>
<path d="M517.06 149.7L517.78 150.42"
fill="none" stroke="black" stroke-width="2.5"/>
<path d="M320.04 397.72L479.92 397.72"
fill="none" stroke="black" stroke-width="2.5"/>
<path d="M508.57 206.6L509.41 180.67"
fill="none" stroke="black" stroke-width="2.5"/>
<path d="M479.92 397.72L486.05 397.52M486.05 397.52L492.17 396.94M492.17 396.94L498.23 395.98M498.23 395.98L504.22 394.65M504.22 394.65L510.11 392.93M510.11 392.93L515.89 390.85M515.89 390.85L521.52 388.42M521.52 388.42L526.99 385.63M526.99 385.63L532.27 382.5M532.27 382.5L537.35 379.05M537.35 379.05L542.2 375.29M542.2 375.29L546.8 371.23M546.8 371.23L551.14 366.89M551.14 366.89L555.2 362.29M555.2 362.29L558.97 357.44M558.97 357.44L562.42 352.36M562.42 352.36L565.54 347.08M565.54 347.08L568.33 341.61M568.33 341.61L570.76 335.98M570.76 335.98L572.84 330.2M572.84 330.2L574.56 324.31M574.56 324.31L575.9 318.32M575.9 318.32L576.86 312.25M576.86 312.25L577.43 306.14M577.43 306.14L577.63 300.01M577.63 300.01L577.43 293.87M577.43 293.87L576.86 287.76M576.86 287.76L575.9 281.7M575.9 281.7L574.56 275.71M574.56 275.71L572.84 269.82M572.84 269.82L570.76 264.04M570.76 264.04L568.33 258.41M568.33 258.41L565.54 252.94M565.54 252.94L562.42 247.65M562.42 247.65L558.97 242.58M558.97 242.58L555.2 237.73M555.2 237.73L551.14 233.12M551.14 233.12L546.8 228.78M546.8 228.78L542.2 224.72M542.2 224.72L537.35 220.96M537.35 220.96L532.27 217.51M532.27 217.51L526.99 214.39M526.99 214.39L521.52 211.6M521.52 211.6L515.89 209.16M515.89 209.16L510.11 207.08M510.11 207.08L504.22 205.37M504.22 205.37L498.23 204.03M498.23 204.03L492.17 203.07M492.17 203.07L486.05 202.49M486.05 202.49L479.92 202.3"
fill="none" stroke="black" stroke-width="2.5"/>
<path d="M509.41 180.67L509.68 171.86"
fill="none" stroke="black" stroke-width="2.5"/>
<path d="M509.68 171.86L508.88 167.06"
fill="none" stroke="black" stroke-width="2.5"/>
<path d="M508.88 167.06L506.47 161.72"
fill="none" stroke="black" stroke-width="2.5"/>
<path d="M506.47 161.72L501.67 157.18"
fill="none" stroke="black" stroke-width="2.5"/>
<path d="M501.67 157.18L493.39 153.45"
fill="none" stroke="black" stroke-width="2.5"/>
<path d="M493.39 153.45L482.44 151.04"
fill="none" stroke="black" stroke-width="2.5"/>
<path d="M482.44 151.04L474.96 150.24"
fill="none" stroke="black" stroke-width="2.5"/>
<path d="M474.96 150.24L459.62 150.24"
fill="none" stroke="black" stroke-width="2.5"/>
<path d="M516.86 209.56L517.58 194.78M517.58 194.78L517.98 180M517.98 180L518.04 165.21M518.04 165.21L517.78 150.42"
fill="none" stroke="black" stroke-width="2.5"/>
<path d="M479.92 202.3L320.04 202.3"
fill="none" stroke="black" stroke-width="2.5"/>
<path d="M411.47 150.4L411.22 163.38M411.22 163.38L411.23 176.36M411.23 176.36L411.48 189.33M411.48 189.33L411.99 202.3"
fill="none" stroke="black" stroke-width="2.5"/>
<path d="M320.04 202.3L313.9 202.49M313.9 202.49L307.79 203.07M307.79 203.07L301.73 204.03M301.73 204.03L295.74 205.37M295.74 205.37L289.84 207.08M289.84 207.08L284.07 209.16M284.07 209.16L278.43 211.6M278.43 211.6L272.97 214.39M272.97 214.39L267.68 217.51M267.68 217.51L262.61 220.96M262.61 220.96L257.76 224.72M257.76 224.72L253.15 228.78M253.15 228.78L248.81 233.12M248.81 233.12L244.75 237.73M244.75 237.73L240.99 242.58M240.99 242.58L237.54 247.65M237.54 247.65L234.42 252.94M234.42 252.94L231.63 258.41M231.63 258.41L229.19 264.04M229.19 264.04L227.11 269.82M227.11 269.82L225.4 275.71M225.4 275.71L224.06 281.7M224.06 281.7L223.1 287.76M223.1 287.76L222.52 293.87M222.52 293.87L222.33 300.01M222.33 300.01L222.52 306.14M222.52 306.14L223.1 312.25M223.1 312.25L224.06 318.32M224.06 318.32L225.4 324.31M225.4 324.31L227.11 330.2M227.11 330.2L229.19 335.98M229.19 335.98L231.63 341.61M231.63 341.61L234.42 347.08M234.42 347.08L237.54 352.36M237.54 352.36L240.99 357.44M240.99 357.44L244.75 362.29M244.75 362.29L248.81 366.89M248.81 366.89L253.15 371.23M253.15 371.23L257.76 375.29M257.76 375.29L262.61 379.05M262.61 379.05L267.68 382.5M267.68 382.5L272.97 385.63M272.97 385.63L278.43 388.42M278.43 388.42L284.07 390.85M284.07 390.85L289.84 392.93M289.84 392.93L295.74 394.65M295.74 394.65L301.73 395.98M301.73 395.98L307.79 396.94M307.79 396.94L313.9 397.52M313.9 397.52L320.04 397.72"
fill="none" stroke="black" stroke-width="2.5"/>
<path d="M281.83 389.94L283.75 425.77"
fill="none" stroke="black" stroke-width="2.5"/>
<path d="M283.75 425.77L286.68 430.04"
fill="none" stroke="black" stroke-width="2.5"/>
<path d="M286.68 430.04L291.22 432.71"
fill="none" stroke="black" stroke-width="2.5"/>
<path d="M291.22 432.71L305.64 436.45"
fill="none" stroke="black" stroke-width="2.5"/>
<path d="M305.64 436.45L313.12 437.51"
fill="none" stroke="black" stroke-width="2.5"/>
<path d="M313.12 437.51L319.8 437.51"
fill="none" stroke="black" stroke-width="2.5"/>
<path d="M319.8 437.51L329.79 437.51"
fill="none" stroke="black" stroke-width="2.5"/>
<path d="M329.79 437.51L336.47 437.51"
fill="none" stroke="black" stroke-width="2.5"/>
<path d="M336.47 437.51L343.95 436.45"
fill="none" stroke="black" stroke-width="2.5"/>
<path d="M343.95 436.45L358.37 432.71"
fill="none" stroke="black" stroke-width="2.5"/>
<path d="M358.37 432.71L362.91 430.04"
fill="none" stroke="black" stroke-width="2.5"/>
<path d="M362.91 430.04L365.85 425.77"
fill="none" stroke="black" stroke-width="2.5"/>
<path d="M365.85 425.77L367.34 397.72"
fill="none" stroke="black" stroke-width="2.5"/>
<path d="M329.77 449.52L314.44 449.52"
fill="none" stroke="black" stroke-width="2.5"/>
<path d="M314.44 449.52L306.96 448.72"
fill="none" stroke="black" stroke-width="2.5"/>
<path d="M306.96 448.72L296.01 446.32"
fill="none" stroke="black" stroke-width="2.5"/>
<path d="M296.01 446.32L287.73 442.58"
fill="none" stroke="black" stroke-width="2.5"/>
<path d="M287.73 442.58L282.92 438.05"
fill="none" stroke="black" stroke-width="2.5"/>
<path d="M282.92 438.05L280.52 432.71"
fill="none" stroke="black" stroke-width="2.5"/>
<path d="M280.52 432.71L279.72 427.91"
fill="none" stroke="black" stroke-width="2.5"/>
<path d="M279.72 427.91L279.99 419.1"
fill="none" stroke="black" stroke-width="2.5"/>
<path d="M279.99 419.1L280.94 389.55"
fill="none" stroke="black" stroke-width="2.5"/>
<path d="M271.64 449.36L272.34 450.07"
fill="none" stroke="black" stroke-width="2.5"/>
<path d="M272.34 450.07L273.26 450.88"
fill="none" stroke="black" stroke-width="2.5"/>
<path d="M273.26 450.88L274.29 451.64"
fill="none" stroke="black" stroke-width="2.5"/>
<path d="M274.29 451.64L275.43 452.37"
fill="none" stroke="black" stroke-width="2.5"/>
<path d="M275.43 452.37L276.72 453.06"
fill="none" stroke="black" stroke-width="2.5"/>
<path d="M276.72 453.06L278.18 453.72"
fill="none" stroke="black" stroke-width="2.5"/>
<path d="M278.18 453.72L279.82 454.35"
fill="none" stroke="black" stroke-width="2.5"/>
<path d="M279.82 454.35L281.68 454.97"
fill="none" stroke="black" stroke-width="2.5"/>
<path d="M281.68 454.97L283.79 455.57"
fill="none" stroke="black" stroke-width="2.5"/>
<path d="M283.79 455.57L286.32 456.16"
fill="none" stroke="black" stroke-width="2.5"/>
<path d="M286.32 456.16L289.42 456.73"
fill="none" stroke="black" stroke-width="2.5"/>
<path d="M289.42 456.73L293.29 457.29"
fill="none" stroke="black" stroke-width="2.5"/>
<path d="M293.29 457.29L298.08 457.83"
fill="none" stroke="black" stroke-width="2.5"/>
<path d="M298.08 457.83L303.98 458.36"
fill="none" stroke="black" stroke-width="2.5"/>
<path d="M303.98 458.36L311.16 458.88"
fill="none" stroke="black" stroke-width="2.5"/>
<path d="M311.16 458.88L319.8 459.38"
fill="none" stroke="black" stroke-width="2.5"/>
<path d="M319.8 459.38L338.07 458.88"
fill="none" stroke="black" stroke-width="2.5"/>
<path d="M338.07 458.88L345.37 458.36"
fill="none" stroke="black" stroke-width="2.5"/>
<path d="M345.37 458.36L351.37 457.83"
fill="none" stroke="black" stroke-width="2.5"/>
<path d="M351.37 457.83L356.22 457.29"
fill="none" stroke="black" stroke-width="2.5"/>
<path d="M356.22 457.29L360.12 456.73"
fill="none" stroke="black" stroke-width="2.5"/>
<path d="M360.12 456.73L363.25 456.16"
fill="none" stroke="black" stroke-width="2.5"/>
<path d="M363.25 456.16L365.78 455.57"
fill="none" stroke="black" stroke-width="2.5"/>
<path d="M365.78 455.57L367.89 454.97"
fill="none" stroke="black" stroke-width="2.5"/>
<path d="M367.89 454.97L369.75 454.35"
fill="none" stroke="black" stroke-width="2.5"/>
<path d="M369.75 454.35L371.39 453.72"
fill="none" stroke="black" stroke-width="2.5"/>
<path d="M371.39 453.72L372.85 453.06"
fill="none" stroke="black" stroke-width="2.5"/>
<path d="M372.85 453.06L374.14 452.37"
fill="none" stroke="black" stroke-width="2.5"/>
<path d="M374.14 452.37L375.29 451.64"
fill="none" stroke="black" stroke-width="2.5"/>
<path d="M375.29 451.64L376.31 450.88"
fill="none" stroke="black" stroke-width="2.5"/>
<path d="M376.31 450.88L377.24 450.07"
fill="none" stroke="black" stroke-width="2.5"/>
<path d="M377.24 450.07L377.95 449.34"
fill="none" stroke="black" stroke-width="2.5"/>
<path d="M368.89 397.72L369.58 419.1"
fill="none" stroke="black" stroke-width="2.5"/>
<path d="M369.58 419.1L369.85 427.91"
fill="none" stroke="black" stroke-width="2.5"/>
<path d="M369.85 427.91L369.05 432.71"
fill="none" stroke="black" stroke-width="2.5"/>
<path d="M369.05 432.71L366.65 438.05"
fill="none" stroke="black" stroke-width="2.5"/>
<path d="M366.65 438.05L361.84 442.58"
fill="none" stroke="black" stroke-width="2.5"/>
<path d="M361.84 442.58L353.56 446.32"
fill="none" stroke="black" stroke-width="2.5"/>
<path d="M353.56 446.32L342.61 448.72"
fill="none" stroke="black" stroke-width="2.5"/>
<path d="M342.61 448.72L335.14 449.52"
fill="none" stroke="black" stroke-width="2.5"/>
<path d="M335.14 449.52L319.8 449.52"
fill="none" stroke="black" stroke-width="2.5"/>
<path d="M377.95 449.34L378.2 436.43M378.2 436.43L378.19 423.52M378.19 423.52L377.94 410.62M377.94 410.62L377.44 397.72"
fill="none" stroke="black" stroke-width="2.5"/>
<path d="M272.85 385.57L271.98 401.5M271.98 401.5L271.48 417.45M271.48 417.45L271.37 433.41M271.37 433.41L271.64 449.36"
fill="none" stroke="black" stroke-width="2.5"/>
<path d="M422.06 397.72L423.57 426.02"
fill="none" stroke="black" stroke-width="2.5"/>
<path d="M423.57 426.02L426.51 430.29"
fill="none" stroke="black" stroke-width="2.5"/>
<path d="M426.51 430.29L431.05 432.96"
fill="none" stroke="black" stroke-width="2.5"/>
<path d="M431.05 432.96L445.47 436.7"
fill="none" stroke="black" stroke-width="2.5"/>
<path d="M445.47 436.7L452.95 437.76"
fill="none" stroke="black" stroke-width="2.5"/>
<path d="M452.95 437.76L459.62 437.76"
fill="none" stroke="black" stroke-width="2.5"/>
<path d="M459.62 437.76L469.62 437.76"
fill="none" stroke="black" stroke-width="2.5"/>
<path d="M469.62 437.76L476.3 437.76"
fill="none" stroke="black" stroke-width="2.5"/>
<path d="M476.3 437.76L483.78 436.7"
fill="none" stroke="black" stroke-width="2.5"/>
<path d="M483.78 436.7L498.2 432.96"
fill="none" stroke="black" stroke-width="2.5"/>
<path d="M498.2 432.96L502.74 430.29"
fill="none" stroke="black" stroke-width="2.5"/>
<path d="M502.74 430.29L505.67 426.02"
fill="none" stroke="black" stroke-width="2.5"/>
<path d="M505.67 426.02L507.4 393.77"
fill="none" stroke="black" stroke-width="2.5"/>
<path d="M469.6 449.77L454.26 449.77"
fill="none" stroke="black" stroke-width="2.5"/>
<path d="M454.26 449.77L446.79 448.97"
fill="none" stroke="black" stroke-width="2.5"/>
<path d="M446.79 448.97L435.84 446.57"
fill="none" stroke="black" stroke-width="2.5"/>
<path d="M435.84 446.57L427.56 442.84"
fill="none" stroke="black" stroke-width="2.5"/>
<path d="M427.56 442.84L422.75 438.3"
fill="none" stroke="black" stroke-width="2.5"/>
<path d="M422.75 438.3L420.35 432.96"
fill="none" stroke="black" stroke-width="2.5"/>
<path d="M420.35 432.96L419.55 428.16"
fill="none" stroke="black" stroke-width="2.5"/>
<path d="M419.55 428.16L419.82 419.35"
fill="none" stroke="black" stroke-width="2.5"/>
<path d="M419.82 419.35L420.52 397.72"
fill="none" stroke="black" stroke-width="2.5"/>
<path d="M411.47 449.62L412.16 450.32"
fill="none" stroke="black" stroke-width="2.5"/>
<path d="M412.16 450.32L413.09 451.13"
fill="none" stroke="black" stroke-width="2.5"/>
<path d="M413.09 451.13L414.11 451.89"
fill="none" stroke="black" stroke-width="2.5"/>
<path d="M414.11 451.89L415.26 452.62"
fill="none" stroke="black" stroke-width="2.5"/>
<path d="M415.26 452.62L416.55 453.31"
fill="none" stroke="black" stroke-width="2.5"/>
<path d="M416.55 453.31L418.01 453.97"
fill="none" stroke="black" stroke-width="2.5"/>
<path d="M418.01 453.97L419.65 454.6"
fill="none" stroke="black" stroke-width="2.5"/>
<path d="M419.65 454.6L421.51 455.22"
fill="none" stroke="black" stroke-width="2.5"/>
<path d="M421.51 455.22L423.62 455.82"
fill="none" stroke="black" stroke-width="2.5"/>
<path d="M423.62 455.82L426.15 456.41"
fill="none" stroke="black" stroke-width="2.5"/>
<path d="M426.15 456.41L429.25 456.98"
fill="none" stroke="black" stroke-width="2.5"/>
<path d="M429.25 456.98L433.11 457.54"
fill="none" stroke="black" stroke-width="2.5"/>
<path d="M433.11 457.54L437.91 458.09"
fill="none" stroke="black" stroke-width="2.5"/>
<path d="M437.91 458.09L443.81 458.62"
fill="none" stroke="black" stroke-width="2.5"/>
<path d="M443.81 458.62L450.99 459.13"
fill="none" stroke="black" stroke-width="2.5"/>
<path d="M450.99 459.13L459.62 459.64"
fill="none" stroke="black" stroke-width="2.5"/>
<path d="M459.62 459.64L477.89 459.13"
fill="none" stroke="black" stroke-width="2.5"/>
<path d="M477.89 459.13L485.2 458.62"
fill="none" stroke="black" stroke-width="2.5"/>
<path d="M485.2 458.62L491.19 458.09"
fill="none" stroke="black" stroke-width="2.5"/>
<path d="M491.19 458.09L496.05 457.54"
fill="none" stroke="black" stroke-width="2.5"/>
<path d="M496.05 457.54L499.95 456.98"
fill="none" stroke="black" stroke-width="2.5"/>
<path d="M499.95 456.98L503.07 456.41"
fill="none" stroke="black" stroke-width="2.5"/>
<path d="M503.07 456.41L505.6 455.82"
fill="none" stroke="black" stroke-width="2.5"/>
<path d="M505.6 455.82L507.72 455.22"
fill="none" stroke="black" stroke-width="2.5"/>
<path d="M507.72 455.22L509.58 454.6"
fill="none" stroke="black" stroke-width="2.5"/>
<path d="M509.58 454.6L511.22 453.97"
fill="none" stroke="black" stroke-width="2.5"/>
<path d="M511.22 453.97L512.68 453.31"
fill="none" stroke="black" stroke-width="2.5"/>
<path d="M512.68 453.31L513.97 452.62"
fill="none" stroke="black" stroke-width="2.5"/>
<path d="M513.97 452.62L515.11 451.89"
fill="none" stroke="black" stroke-width="2.5"/>
<path d="M515.11 451.89L516.14 451.13"
fill="none" stroke="black" stroke-width="2.5"/>
<path d="M184.27 261.48L180 264.41"
fill="none" stroke="black" stroke-width="2.5"/>
<path d="M516.14 451.13L517.06 450.32"
fill="none" stroke="black" stroke-width="2.5"/>
<path d="M517.06 450.32L517.78 449.59"
fill="none" stroke="black" stroke-width="2.5"/>
<path d="M508.57 393.42L509.41 419.35"
fill="none" stroke="black" stroke-width="2.5"/>
<path d="M509.41 419.35L509.68 428.16"
fill="none" stroke="black" stroke-width="2.5"/>
<path d="M509.68 428.16L508.88 432.96"
fill="none" stroke="black" stroke-width="2.5"/>
<path d="M508.88 432.96L506.47 438.3"
fill="none" stroke="black" stroke-width="2.5"/>
<path d="M506.47 438.3L501.67 442.84"
fill="none" stroke="black" stroke-width="2.5"/>
<path d="M501.67 442.84L493.39 446.57"
fill="none" stroke="black" stroke-width="2.5"/>
<path d="M493.39 446.57L482.44 448.97"
fill="none" stroke="black" stroke-width="2.5"/>
<path d="M482.44 448.97L474.96 449.77"
fill="none" stroke="black" stroke-width="2.5"/>
<path d="M474.96 449.77L459.62 449.77"
fill="none" stroke="black" stroke-width="2.5"/>
<path d="M517.78 449.59L518.04 434.81M518.04 434.81L517.98 420.02M517.98 420.02L517.58 405.23M517.58 405.23L516.86 390.46"
fill="none" stroke="black" stroke-width="2.5"/>
<path d="M411.99 397.72L411.48 410.68M411.48 410.68L411.23 423.66M411.23 423.66L411.22 436.64M411.22 436.64L411.47 449.62"
fill="none" stroke="black" stroke-width="2.5"/>
</svg>
