<?xml version="1.0" encoding="UTF-8"?>
<svg xmlns="http://www.w3.org/2000/svg" width="800.000" height="600.000" viewBox="0.0 0.0 800.000 600.000" version="1.1">
  <title>Produce by Acme CAD Converter</title>
  <desc>Produce by Acme CAD Converter</desc>
<path d="M275.55 196.07L278.38 191.16"
fill="none" stroke="black" stroke-width="2.5"/>
<path d="M307.65 278.71L304.81 283.61"
fill="none" stroke="black" stroke-width="2.5"/>
<path d="M338.24 225.72L335.4 230.63"
fill="none" stroke="black" stroke-width="2.5"/>
<path d="M304.81 283.61L244.96 249.06"
fill="none" stroke="black" stroke-width="2.5"/>
<path d="M278.38 191.16L338.24 225.72"
fill="none" stroke="black" stroke-width="2.5"/>
<path d="M307.65 278.71L247.79 244.15"
fill="none" stroke="black" stroke-width="2.5"/>
<path d="M275.55 196.07L335.4 230.63"
fill="none" stroke="black" stroke-width="2.5"/>
<path d="M247.79 244.15L244.96 249.06"
fill="none" stroke="black" stroke-width="2.5"/>
<path d="M305.76 277.62L306.6 277.83M306.6 277.83L307.47 277.72M307.47 277.72L308.24 277.32M308.24 277.32L308.82 276.67"
fill="none" stroke="black" stroke-width="2.5"/>
<path d="M305.76 277.62L307.65 278.71"
fill="none" stroke="black" stroke-width="2.5"/>
<path d="M334.23 232.66L308.82 276.67"
fill="none" stroke="black" stroke-width="2.5"/>
<path d="M335.4 230.63L333.51 229.54"
fill="none" stroke="black" stroke-width="2.5"/>
<path d="M334.23 232.66L334.5 231.83M334.5 231.83L334.46 230.96M334.46 230.96L334.12 230.16M334.12 230.16L333.51 229.54"
fill="none" stroke="black" stroke-width="2.5"/>
<path d="M277.02 196.92L271.59 204.44M271.59 204.44L266.47 212.17M266.47 212.17L261.67 220.11M261.67 220.11L257.2 228.23M257.2 228.23L253.06 236.54M253.06 236.54L249.26 245"
fill="none" stroke="black" stroke-width="2.5"/>
<path d="M281.93 199.75L276.5 207.27M276.5 207.27L271.38 215.01M271.38 215.01L266.58 222.94M266.58 222.94L262.1 231.07M262.1 231.07L257.97 239.37M257.97 239.37L254.17 247.83"
fill="none" stroke="black" stroke-width="2.5"/>
<path d="M291.74 205.42L286.31 212.94M286.31 212.94L281.19 220.67M281.19 220.67L276.39 228.61M276.39 228.61L271.92 236.73M271.92 236.73L267.78 245.03M267.78 245.03L263.98 253.5"
fill="none" stroke="black" stroke-width="2.5"/>
<path d="M427.78 140.23L433.45 140.23"
fill="none" stroke="black" stroke-width="2.5"/>
<path d="M372.26 209.35L366.6 209.35"
fill="none" stroke="black" stroke-width="2.5"/>
<path d="M433.45 209.35L427.78 209.35"
fill="none" stroke="black" stroke-width="2.5"/>
<path d="M366.6 209.35L366.6 140.23"
fill="none" stroke="black" stroke-width="2.5"/>
<path d="M433.45 140.23L433.45 209.35"
fill="none" stroke="black" stroke-width="2.5"/>
<path d="M372.26 209.35L372.26 140.23"
fill="none" stroke="black" stroke-width="2.5"/>
<path d="M427.78 140.23L427.78 209.35"
fill="none" stroke="black" stroke-width="2.5"/>
<path d="M372.26 140.23L366.6 140.23"
fill="none" stroke="black" stroke-width="2.5"/>
<path d="M372.26 207.16L372.5 208M372.5 208L373.03 208.7M373.03 208.7L373.76 209.17M373.76 209.17L374.61 209.35"
fill="none" stroke="black" stroke-width="2.5"/>
<path d="M372.26 207.16L372.26 209.35"
fill="none" stroke="black" stroke-width="2.5"/>
<path d="M425.44 209.35L374.61 209.35"
fill="none" stroke="black" stroke-width="2.5"/>
<path d="M427.78 209.35L427.78 207.16"
fill="none" stroke="black" stroke-width="2.5"/>
<path d="M425.44 209.35L426.29 209.17M426.29 209.17L427.02 208.7M427.02 208.7L427.54 208M427.54 208L427.78 207.16"
fill="none" stroke="black" stroke-width="2.5"/>
<path d="M427.78 141.93L418.55 140.99M418.55 140.99L409.3 140.42M409.3 140.42L400.02 140.23M400.02 140.23L390.75 140.42M390.75 140.42L381.49 140.99M381.49 140.99L372.26 141.93"
fill="none" stroke="black" stroke-width="2.5"/>
<path d="M427.78 147.6L418.55 146.65M418.55 146.65L409.3 146.09M409.3 146.09L400.02 145.9M400.02 145.9L390.75 146.09M390.75 146.09L381.49 146.65M381.49 146.65L372.26 147.6"
fill="none" stroke="black" stroke-width="2.5"/>
<path d="M427.78 158.93L418.55 157.98M418.55 157.98L409.3 157.42M409.3 157.42L400.02 157.23M400.02 157.23L390.75 157.42M390.75 157.42L381.49 157.98M381.49 157.98L372.26 158.93"
fill="none" stroke="black" stroke-width="2.5"/>
<path d="M552.26 244.15L555.09 249.06"
fill="none" stroke="black" stroke-width="2.5"/>
<path d="M464.64 230.63L461.81 225.72"
fill="none" stroke="black" stroke-width="2.5"/>
<path d="M495.23 283.61L492.4 278.71"
fill="none" stroke="black" stroke-width="2.5"/>
<path d="M461.81 225.72L521.66 191.16"
fill="none" stroke="black" stroke-width="2.5"/>
<path d="M555.09 249.06L495.23 283.61"
fill="none" stroke="black" stroke-width="2.5"/>
<path d="M464.64 230.63L524.5 196.07"
fill="none" stroke="black" stroke-width="2.5"/>
<path d="M552.26 244.15L492.4 278.71"
fill="none" stroke="black" stroke-width="2.5"/>
<path d="M524.5 196.07L521.66 191.16"
fill="none" stroke="black" stroke-width="2.5"/>
<path d="M466.53 229.54L465.93 230.16M465.93 230.16L465.58 230.96M465.58 230.96L465.54 231.83M465.54 231.83L465.82 232.66"
fill="none" stroke="black" stroke-width="2.5"/>
<path d="M466.53 229.54L464.64 230.63"
fill="none" stroke="black" stroke-width="2.5"/>
<path d="M491.23 276.67L465.82 232.66"
fill="none" stroke="black" stroke-width="2.5"/>
<path d="M492.4 278.71L494.29 277.62"
fill="none" stroke="black" stroke-width="2.5"/>
<path d="M491.23 276.67L491.81 277.32M491.81 277.32L492.58 277.72M492.58 277.72L493.45 277.83M493.45 277.83L494.29 277.62"
fill="none" stroke="black" stroke-width="2.5"/>
<path d="M550.78 245L546.99 236.54M546.99 236.54L542.85 228.23M542.85 228.23L538.38 220.11M538.38 220.11L533.58 212.17M533.58 212.17L528.46 204.44M528.46 204.44L523.02 196.92"
fill="none" stroke="black" stroke-width="2.5"/>
<path d="M545.88 247.83L542.08 239.37M542.08 239.37L537.94 231.07M537.94 231.07L533.47 222.94M533.47 222.94L528.67 215.01M528.67 215.01L523.55 207.27M523.55 207.27L518.12 199.75"
fill="none" stroke="black" stroke-width="2.5"/>
<path d="M536.07 253.5L532.27 245.03M532.27 245.03L528.13 236.73M528.13 236.73L523.66 228.61M523.66 228.61L518.86 220.67M518.86 220.67L513.74 212.94M513.74 212.94L508.31 205.42"
fill="none" stroke="black" stroke-width="2.5"/>
<path d="M524.5 403.91L521.66 408.81"
fill="none" stroke="black" stroke-width="2.5"/>
<path d="M492.4 321.27L495.23 316.36"
fill="none" stroke="black" stroke-width="2.5"/>
<path d="M461.81 374.25L464.64 369.35"
fill="none" stroke="black" stroke-width="2.5"/>
<path d="M495.23 316.36L555.09 350.92"
fill="none" stroke="black" stroke-width="2.5"/>
<path d="M521.66 408.81L461.81 374.25"
fill="none" stroke="black" stroke-width="2.5"/>
<path d="M492.4 321.27L552.26 355.83"
fill="none" stroke="black" stroke-width="2.5"/>
<path d="M524.5 403.91L464.64 369.35"
fill="none" stroke="black" stroke-width="2.5"/>
<path d="M552.26 355.83L555.09 350.92"
fill="none" stroke="black" stroke-width="2.5"/>
<path d="M494.29 322.36L493.45 322.15M493.45 322.15L492.58 322.25M492.58 322.25L491.81 322.65M491.81 322.65L491.23 323.3"
fill="none" stroke="black" stroke-width="2.5"/>
<path d="M494.29 322.36L492.4 321.27"
fill="none" stroke="black" stroke-width="2.5"/>
<path d="M465.82 367.32L491.23 323.3"
fill="none" stroke="black" stroke-width="2.5"/>
<path d="M464.64 369.35L466.53 370.44"
fill="none" stroke="black" stroke-width="2.5"/>
<path d="M465.82 367.32L465.54 368.14M465.54 368.14L465.58 369.01M465.58 369.01L465.93 369.81M465.93 369.81L466.53 370.44"
fill="none" stroke="black" stroke-width="2.5"/>
<path d="M523.02 403.06L528.46 395.54M528.46 395.54L533.58 387.8M533.58 387.8L538.38 379.87M538.38 379.87L542.85 371.74M542.85 371.74L546.99 363.44M546.99 363.44L550.78 354.98"
fill="none" stroke="black" stroke-width="2.5"/>
<path d="M518.12 400.22L523.55 392.7M523.55 392.7L528.67 384.97M528.67 384.97L533.47 377.03M533.47 377.03L537.94 368.91M537.94 368.91L542.08 360.61M542.08 360.61L545.88 352.14"
fill="none" stroke="black" stroke-width="2.5"/>
<path d="M508.31 394.56L513.74 387.04M513.74 387.04L518.86 379.3M518.86 379.3L523.66 371.37M523.66 371.37L528.13 363.24M528.13 363.24L532.27 354.94M532.27 354.94L536.07 346.48"
fill="none" stroke="black" stroke-width="2.5"/>
<path d="M372.26 459.74L366.6 459.74"
fill="none" stroke="black" stroke-width="2.5"/>
<path d="M427.78 390.63L433.45 390.63"
fill="none" stroke="black" stroke-width="2.5"/>
<path d="M366.6 390.63L372.26 390.63"
fill="none" stroke="black" stroke-width="2.5"/>
<path d="M433.45 390.63L433.45 459.74"
fill="none" stroke="black" stroke-width="2.5"/>
<path d="M366.6 459.74L366.6 390.63"
fill="none" stroke="black" stroke-width="2.5"/>
<path d="M427.78 390.63L427.78 459.74"
fill="none" stroke="black" stroke-width="2.5"/>
<path d="M372.26 459.74L372.26 390.63"
fill="none" stroke="black" stroke-width="2.5"/>
<path d="M427.78 459.74L433.45 459.74"
fill="none" stroke="black" stroke-width="2.5"/>
<path d="M427.78 392.81L427.54 391.97M427.54 391.97L427.02 391.28M427.02 391.28L426.29 390.81M426.29 390.81L425.44 390.63"
fill="none" stroke="black" stroke-width="2.5"/>
<path d="M427.78 392.81L427.78 390.63"
fill="none" stroke="black" stroke-width="2.5"/>
<path d="M374.61 390.63L425.44 390.63"
fill="none" stroke="black" stroke-width="2.5"/>
<path d="M372.26 390.63L372.26 392.81"
fill="none" stroke="black" stroke-width="2.5"/>
<path d="M374.61 390.63L373.76 390.81M373.76 390.81L373.03 391.28M373.03 391.28L372.5 391.97M372.5 391.97L372.26 392.81"
fill="none" stroke="black" stroke-width="2.5"/>
<path d="M372.26 458.04L381.49 458.99M381.49 458.99L390.75 459.55M390.75 459.55L400.02 459.74M400.02 459.74L409.3 459.55M409.3 459.55L418.55 458.99M418.55 458.99L427.78 458.04"
fill="none" stroke="black" stroke-width="2.5"/>
<path d="M372.26 452.38L381.49 453.32M381.49 453.32L390.75 453.89M390.75 453.89L400.02 454.08M400.02 454.08L409.3 453.89M409.3 453.89L418.55 453.32M418.55 453.32L427.78 452.38"
fill="none" stroke="black" stroke-width="2.5"/>
<path d="M372.26 441.05L381.49 441.99M381.49 441.99L390.75 442.56M390.75 442.56L400.02 442.75M400.02 442.75L409.3 442.56M409.3 442.56L418.55 441.99M418.55 441.99L427.78 441.05"
fill="none" stroke="black" stroke-width="2.5"/>
<path d="M247.79 355.83L244.96 350.92"
fill="none" stroke="black" stroke-width="2.5"/>
<path d="M335.4 369.35L338.24 374.25"
fill="none" stroke="black" stroke-width="2.5"/>
<path d="M304.81 316.36L307.65 321.27"
fill="none" stroke="black" stroke-width="2.5"/>
<path d="M338.24 374.25L278.38 408.81"
fill="none" stroke="black" stroke-width="2.5"/>
<path d="M244.96 350.92L304.81 316.36"
fill="none" stroke="black" stroke-width="2.5"/>
<path d="M335.4 369.35L275.55 403.91"
fill="none" stroke="black" stroke-width="2.5"/>
<path d="M247.79 355.83L307.65 321.27"
fill="none" stroke="black" stroke-width="2.5"/>
<path d="M275.55 403.91L278.38 408.81"
fill="none" stroke="black" stroke-width="2.5"/>
<path d="M333.51 370.44L334.12 369.81M334.12 369.81L334.46 369.01M334.46 369.01L334.5 368.14M334.5 368.14L334.23 367.32"
fill="none" stroke="black" stroke-width="2.5"/>
<path d="M333.51 370.44L335.4 369.35"
fill="none" stroke="black" stroke-width="2.5"/>
<path d="M308.82 323.3L334.23 367.32"
fill="none" stroke="black" stroke-width="2.5"/>
<path d="M307.65 321.27L305.76 322.36"
fill="none" stroke="black" stroke-width="2.5"/>
<path d="M308.82 323.3L308.24 322.65M308.24 322.65L307.47 322.25M307.47 322.25L306.6 322.15M306.6 322.15L305.76 322.36"
fill="none" stroke="black" stroke-width="2.5"/>
<path d="M249.26 354.98L253.06 363.44M253.06 363.44L257.2 371.74M257.2 371.74L261.67 379.87M261.67 379.87L266.47 387.8M266.47 387.8L271.59 395.54M271.59 395.54L277.02 403.06"
fill="none" stroke="black" stroke-width="2.5"/>
<path d="M254.17 352.14L257.97 360.61M257.97 360.61L262.1 368.91M262.1 368.91L266.58 377.03M266.58 377.03L271.38 384.97M271.38 384.97L276.5 392.7M276.5 392.7L281.93 400.22"
fill="none" stroke="black" stroke-width="2.5"/>
<path d="M263.98 346.48L267.78 354.94M267.78 354.94L271.92 363.24M271.92 363.24L276.39 371.37M276.39 371.37L281.19 379.3M281.19 379.3L286.31 387.04M286.31 387.04L291.74 394.56"
fill="none" stroke="black" stroke-width="2.5"/>
<path d="M358.57 225.81L357.54 226.4"
fill="none" stroke="black" stroke-width="2.5"/>
<path d="M369.01 220.87L358.57 225.81"
fill="none" stroke="black" stroke-width="2.5"/>
<path d="M380.02 217.4L369.01 220.87"
fill="none" stroke="black" stroke-width="2.5"/>
<path d="M391.4 215.45L380.02 217.4"
fill="none" stroke="black" stroke-width="2.5"/>
<path d="M402.94 215.06L391.4 215.45"
fill="none" stroke="black" stroke-width="2.5"/>
<path d="M414.42 216.24L402.94 215.06"
fill="none" stroke="black" stroke-width="2.5"/>
<path d="M425.64 218.96L414.42 216.24"
fill="none" stroke="black" stroke-width="2.5"/>
<path d="M436.39 223.19L425.64 218.96"
fill="none" stroke="black" stroke-width="2.5"/>
<path d="M446.47 228.83L436.39 223.19"
fill="none" stroke="black" stroke-width="2.5"/>
<path d="M455.69 235.78L446.47 228.83"
fill="none" stroke="black" stroke-width="2.5"/>
<path d="M463.88 243.92L455.69 235.78"
fill="none" stroke="black" stroke-width="2.5"/>
<path d="M470.89 253.09L463.88 243.92"
fill="none" stroke="black" stroke-width="2.5"/>
<path d="M476.59 263.13L470.89 253.09"
fill="none" stroke="black" stroke-width="2.5"/>
<path d="M480.88 273.85L476.59 263.13"
fill="none" stroke="black" stroke-width="2.5"/>
<path d="M483.68 285.05L480.88 273.85"
fill="none" stroke="black" stroke-width="2.5"/>
<path d="M484.93 296.53L483.68 285.05"
fill="none" stroke="black" stroke-width="2.5"/>
<path d="M484.61 308.07L484.93 296.53"
fill="none" stroke="black" stroke-width="2.5"/>
<path d="M482.74 319.47L484.61 308.07"
fill="none" stroke="black" stroke-width="2.5"/>
<path d="M479.33 330.5L482.74 319.47"
fill="none" stroke="black" stroke-width="2.5"/>
<path d="M474.46 340.97L479.33 330.5"
fill="none" stroke="black" stroke-width="2.5"/>
<path d="M468.22 350.68L474.46 340.97"
fill="none" stroke="black" stroke-width="2.5"/>
<path d="M460.72 359.46L468.22 350.68"
fill="none" stroke="black" stroke-width="2.5"/>
<path d="M452.1 367.14L460.72 359.46"
fill="none" stroke="black" stroke-width="2.5"/>
<path d="M442.51 373.58L452.1 367.14"
fill="none" stroke="black" stroke-width="2.5"/>
<path d="M441.48 374.17L442.51 373.58"
fill="none" stroke="black" stroke-width="2.5"/>
<path d="M431.04 379.1L441.48 374.17"
fill="none" stroke="black" stroke-width="2.5"/>
<path d="M420.03 382.58L431.04 379.1"
fill="none" stroke="black" stroke-width="2.5"/>
<path d="M408.65 384.52L420.03 382.58"
fill="none" stroke="black" stroke-width="2.5"/>
<path d="M397.11 384.91L408.65 384.52"
fill="none" stroke="black" stroke-width="2.5"/>
<path d="M385.62 383.73L397.11 384.91"
fill="none" stroke="black" stroke-width="2.5"/>
<path d="M374.4 381.01L385.62 383.73"
fill="none" stroke="black" stroke-width="2.5"/>
<path d="M363.66 376.79L374.4 381.01"
fill="none" stroke="black" stroke-width="2.5"/>
<path d="M353.58 371.15L363.66 376.79"
fill="none" stroke="black" stroke-width="2.5"/>
<path d="M344.36 364.2L353.58 371.15"
fill="none" stroke="black" stroke-width="2.5"/>
<path d="M336.17 356.06L344.36 364.2"
fill="none" stroke="black" stroke-width="2.5"/>
<path d="M329.16 346.88L336.17 356.06"
fill="none" stroke="black" stroke-width="2.5"/>
<path d="M323.46 336.84L329.16 346.88"
fill="none" stroke="black" stroke-width="2.5"/>
<path d="M319.17 326.12L323.46 336.84"
fill="none" stroke="black" stroke-width="2.5"/>
<path d="M316.37 314.92L319.17 326.12"
fill="none" stroke="black" stroke-width="2.5"/>
<path d="M315.12 303.44L316.37 314.92"
fill="none" stroke="black" stroke-width="2.5"/>
<path d="M315.43 291.9L315.12 303.44"
fill="none" stroke="black" stroke-width="2.5"/>
<path d="M317.31 280.51L315.43 291.9"
fill="none" stroke="black" stroke-width="2.5"/>
<path d="M320.71 269.47L317.31 280.51"
fill="none" stroke="black" stroke-width="2.5"/>
<path d="M325.58 259L320.71 269.47"
fill="none" stroke="black" stroke-width="2.5"/>
<path d="M331.83 249.29L325.58 259"
fill="none" stroke="black" stroke-width="2.5"/>
<path d="M339.33 240.51L331.83 249.29"
fill="none" stroke="black" stroke-width="2.5"/>
<path d="M347.95 232.83L339.33 240.51"
fill="none" stroke="black" stroke-width="2.5"/>
<path d="M357.54 226.4L347.95 232.83"
fill="none" stroke="black" stroke-width="2.5"/>
</svg>
