<?xml version="1.0" encoding="UTF-8"?>
<svg xmlns="http://www.w3.org/2000/svg" width="800.000" height="600.000" viewBox="0.0 0.0 800.000 600.000" version="1.1">
  <title>Produce by Acme CAD Converter</title>
  <desc>Produce by Acme CAD Converter</desc>
<path d="M298.42 298.9L298.62 292.58M298.62 292.58L299.21 286.29M299.21 286.29L300.19 280.04M300.19 280.04L301.55 273.86M301.55 273.86L303.3 267.79M303.3 267.79L305.42 261.83M305.42 261.83L307.91 256.02M307.91 256.02L310.75 250.37M310.75 250.37L313.94 244.91M313.94 244.91L317.47 239.66M317.47 239.66L321.31 234.64M321.31 234.64L325.46 229.86M325.46 229.86L329.9 225.36M329.9 225.36L334.6 221.13M334.6 221.13L339.56 217.21M339.56 217.21L344.76 213.61M344.76 213.61L350.17 210.33M350.17 210.33L355.77 207.4M355.77 207.4L361.55 204.82M361.55 204.82L367.47 202.61M367.47 202.61L373.52 200.77M373.52 200.77L379.67 199.31M379.67 199.31L385.9 198.23M385.9 198.23L392.19 197.54M392.19 197.54L398.51 197.25M398.51 197.25L404.83 197.35M404.83 197.35L411.13 197.84M411.13 197.84L417.4 198.72M417.4 198.72L423.59 199.99M423.59 199.99L429.7 201.64M429.7 201.64L435.68 203.67M435.68 203.67L441.54 206.07M441.54 206.07L447.23 208.82M447.23 208.82L452.74 211.93M452.74 211.93L458.04 215.37M458.04 215.37L463.12 219.14M463.12 219.14L467.96 223.21M467.96 223.21L472.53 227.57M472.53 227.57L476.83 232.22M476.83 232.22L480.83 237.12M480.83 237.12L484.51 242.26M484.51 242.26L487.87 247.61M487.87 247.61L490.89 253.17M490.89 253.17L493.56 258.9M493.56 258.9L495.86 264.79M495.86 264.79L497.8 270.81M497.8 270.81L499.36 276.94M499.36 276.94L500.53 283.16M500.53 283.16L501.31 289.43M501.31 289.43L501.71 295.74M501.71 295.74L501.71 302.07M501.71 302.07L501.31 308.38M501.31 308.38L500.53 314.65M500.53 314.65L499.36 320.87M499.36 320.87L497.8 326.99M497.8 326.99L495.86 333.01M495.86 333.01L493.56 338.9M493.56 338.9L490.89 344.64M490.89 344.64L487.87 350.19M487.87 350.19L484.51 355.55M484.51 355.55L480.83 360.69M480.83 360.69L476.83 365.59M476.83 365.59L472.53 370.23M472.53 370.23L467.96 374.6M467.96 374.6L463.12 378.67M463.12 378.67L458.04 382.44M458.04 382.44L452.74 385.88M452.74 385.88L447.23 388.98M447.23 388.98L441.54 391.74M441.54 391.74L435.68 394.14M435.68 394.14L429.7 396.16M429.7 396.16L423.59 397.82M423.59 397.82L417.4 399.09M417.4 399.09L411.13 399.97M411.13 399.97L404.83 400.46M404.83 400.46L398.51 400.56M398.51 400.56L392.19 400.26M392.19 400.26L385.9 399.58M385.9 399.58L379.67 398.5M379.67 398.5L373.52 397.04M373.52 397.04L367.47 395.2M367.47 395.2L361.55 392.98M361.55 392.98L355.77 390.4M355.77 390.4L350.17 387.47M350.17 387.47L344.76 384.2M344.76 384.2L339.56 380.59M339.56 380.59L334.6 376.67M334.6 376.67L329.9 372.45M329.9 372.45L325.46 367.94M325.46 367.94L321.31 363.17M321.31 363.17L317.47 358.15M317.47 358.15L313.94 352.9M313.94 352.9L310.75 347.44M310.75 347.44L307.91 341.79M307.91 341.79L305.42 335.98M305.42 335.98L303.3 330.02M303.3 330.02L301.55 323.94M301.55 323.94L300.19 317.77M300.19 317.77L299.21 311.52M299.21 311.52L298.62 305.22M298.62 305.22L298.42 298.9"
fill="none" stroke="black" stroke-width="2.5"/>
<path d="M287.12 298.9L287.32 292.21M287.32 292.21L287.92 285.54M287.92 285.54L288.91 278.92M288.91 278.92L290.28 272.37M290.28 272.37L292.05 265.91M292.05 265.91L294.19 259.57M294.19 259.57L296.71 253.36M296.71 253.36L299.59 247.32M299.59 247.32L302.82 241.46M302.82 241.46L306.4 235.8M306.4 235.8L310.3 230.36M310.3 230.36L314.52 225.16M314.52 225.16L319.04 220.22M319.04 220.22L323.84 215.55M323.84 215.55L328.91 211.18M328.91 211.18L334.23 207.12M334.23 207.12L339.79 203.38M339.79 203.38L345.55 199.98M345.55 199.98L351.51 196.92M351.51 196.92L357.63 194.22M357.63 194.22L363.91 191.89M363.91 191.89L370.31 189.93M370.31 189.93L376.82 188.36M376.82 188.36L383.41 187.18M383.41 187.18L390.06 186.39M390.06 186.39L396.74 185.99M396.74 185.99L403.44 185.99M403.44 185.99L410.12 186.39M410.12 186.39L416.77 187.18M416.77 187.18L423.36 188.36M423.36 188.36L429.86 189.93M429.86 189.93L436.27 191.89M436.27 191.89L442.54 194.22M442.54 194.22L448.67 196.92M448.67 196.92L454.63 199.98M454.63 199.98L460.39 203.38M460.39 203.38L465.94 207.12M465.94 207.12L471.27 211.18M471.27 211.18L476.34 215.55M476.34 215.55L481.14 220.22M481.14 220.22L485.66 225.16M485.66 225.16L489.88 230.36M489.88 230.36L493.78 235.8M493.78 235.8L497.36 241.46M497.36 241.46L500.59 247.32M500.59 247.32L503.47 253.36M503.47 253.36L505.98 259.57M505.98 259.57L508.13 265.91M508.13 265.91L509.89 272.37M509.89 272.37L511.27 278.92M511.27 278.92L512.26 285.54M512.26 285.54L512.85 292.21M512.85 292.21L513.05 298.9M513.05 298.9L512.85 305.6M512.85 305.6L512.26 312.26M512.26 312.26L511.27 318.89M511.27 318.89L509.89 325.44M509.89 325.44L508.13 331.9M508.13 331.9L505.98 338.24M505.98 338.24L503.47 344.44M503.47 344.44L500.59 350.49M500.59 350.49L497.36 356.35M497.36 356.35L493.78 362.01M493.78 362.01L489.88 367.45M489.88 367.45L485.66 372.65M485.66 372.65L481.14 377.59M481.14 377.59L476.34 382.25M476.34 382.25L471.27 386.62M471.27 386.62L465.94 390.68M465.94 390.68L460.39 394.43M460.39 394.43L454.63 397.83M454.63 397.83L448.67 400.89M448.67 400.89L442.54 403.59M442.54 403.59L436.27 405.92M436.27 405.92L429.86 407.87M429.86 407.87L423.36 409.44M423.36 409.44L416.77 410.63M416.77 410.63L410.12 411.42M410.12 411.42L403.44 411.82M403.44 411.82L396.74 411.82M396.74 411.82L390.06 411.42M390.06 411.42L383.41 410.63M383.41 410.63L376.82 409.44M376.82 409.44L370.31 407.87M370.31 407.87L363.91 405.92M363.91 405.92L357.63 403.59M357.63 403.59L351.51 400.89M351.51 400.89L345.55 397.83M345.55 397.83L339.79 394.43M339.79 394.43L334.23 390.68M334.23 390.68L328.91 386.62M328.91 386.62L323.84 382.25M323.84 382.25L319.04 377.59M319.04 377.59L314.52 372.65M314.52 372.65L310.3 367.45M310.3 367.45L306.4 362.01M306.4 362.01L302.82 356.35M302.82 356.35L299.59 350.49M299.59 350.49L296.71 344.44M296.71 344.44L294.19 338.24M294.19 338.24L292.05 331.9M292.05 331.9L290.28 325.44M290.28 325.44L288.91 318.89M288.91 318.89L287.92 312.26M287.92 312.26L287.32 305.6M287.32 305.6L287.12 298.9"
fill="none" stroke="black" stroke-width="2.5"/>
<path d="M369.2 395.77L368.11 391.35M368.11 391.35L366.65 387.04M366.65 387.04L364.86 382.86M364.86 382.86L362.72 378.85M362.72 378.85L360.27 375.02"
fill="none" stroke="black" stroke-width="2.5"/>
<path d="M320.8 335.55L317.44 333.77M317.44 333.77L313.96 332.22M313.96 332.22L310.38 330.91M310.38 330.91L306.72 329.86M306.72 329.86L302.99 329.05"
fill="none" stroke="black" stroke-width="2.5"/>
<path d="M279.15 418.92L282.75 422.53M282.75 422.53L286.6 425.88M286.6 425.88L290.68 428.95M290.68 428.95L294.95 431.73"
fill="none" stroke="black" stroke-width="2.5"/>
<path d="M294.95 431.73L296.58 432.67"
fill="none" stroke="black" stroke-width="2.5"/>
<path d="M275.22 363.2L263.98 394.65"
fill="none" stroke="black" stroke-width="2.5"/>
<path d="M264.84 397.52L263.98 394.65"
fill="none" stroke="black" stroke-width="2.5"/>
<path d="M266.18 400.1L264.84 397.52"
fill="none" stroke="black" stroke-width="2.5"/>
<path d="M275.22 363.2L293.23 335.54"
fill="none" stroke="black" stroke-width="2.5"/>
<path d="M267.01 401.79L269.49 406.25M269.49 406.25L272.28 410.52M272.28 410.52L275.35 414.6M275.35 414.6L278.7 418.44"
fill="none" stroke="black" stroke-width="2.5"/>
<path d="M266.18 400.1L267.01 401.79"
fill="none" stroke="black" stroke-width="2.5"/>
<path d="M334.02 426.2L366.96 407.85"
fill="none" stroke="black" stroke-width="2.5"/>
<path d="M299.06 434.19L301.86 435.24"
fill="none" stroke="black" stroke-width="2.5"/>
<path d="M334.02 426.2L301.86 435.24"
fill="none" stroke="black" stroke-width="2.5"/>
<path d="M296.58 432.67L299.06 434.19"
fill="none" stroke="black" stroke-width="2.5"/>
<path d="M366.96 407.85L367.67 407.12"
fill="none" stroke="black" stroke-width="2.5"/>
<path d="M296.58 432.67L293.93 448.81"
fill="none" stroke="black" stroke-width="2.5"/>
<path d="M259.42 436.89L263.83 440.72M263.83 440.72L268.48 444.26M268.48 444.26L273.36 447.49M273.36 447.49L278.43 450.4M278.43 450.4L283.68 452.97"
fill="none" stroke="black" stroke-width="2.5"/>
<path d="M265.85 430.88L269.65 434.4M269.65 434.4L273.66 437.66M273.66 437.66L277.87 440.66M277.87 440.66L282.27 443.38M282.27 443.38L286.83 445.82"
fill="none" stroke="black" stroke-width="2.5"/>
<path d="M297.51 456.79L301.18 456.8M301.18 456.8L304.85 456.68"
fill="none" stroke="black" stroke-width="2.5"/>
<path d="M297.65 448.98L300.75 448.95M300.75 448.95L303.85 448.73"
fill="none" stroke="black" stroke-width="2.5"/>
<path d="M301.86 435.24L300.15 448.97"
fill="none" stroke="black" stroke-width="2.5"/>
<path d="M283.68 452.97L286.2 454.43M286.2 454.43L288.89 455.56M288.89 455.56L291.71 456.34M291.71 456.34L294.59 456.75M294.59 456.75L297.51 456.79"
fill="none" stroke="black" stroke-width="2.5"/>
<path d="M286.83 445.82L288.77 447.06M288.77 447.06L290.86 448M290.86 448L293.07 448.65M293.07 448.65L295.35 448.98M295.35 448.98L297.65 448.98"
fill="none" stroke="black" stroke-width="2.5"/>
<path d="M304.85 456.68L305.77 455.86M305.77 455.86L306.42 454.81M306.42 454.81L306.77 453.63M306.77 453.63L306.79 452.39M306.79 452.39L306.47 451.2M306.47 451.2L305.83 450.15M305.83 450.15L304.94 449.3M304.94 449.3L303.85 448.73"
fill="none" stroke="black" stroke-width="2.5"/>
<path d="M252.39 408.93L254.51 413.64M254.51 413.64L256.93 418.22M256.93 418.22L259.63 422.63M259.63 422.63L262.61 426.85M262.61 426.85L265.85 430.88"
fill="none" stroke="black" stroke-width="2.5"/>
<path d="M263.98 394.65L250.17 395.42"
fill="none" stroke="black" stroke-width="2.5"/>
<path d="M250.67 391.75L250.23 394.82M250.23 394.82L249.98 397.92"
fill="none" stroke="black" stroke-width="2.5"/>
<path d="M266.18 400.1L249.9 401.63"
fill="none" stroke="black" stroke-width="2.5"/>
<path d="M250.67 391.75L250.17 390.62M250.17 390.62L249.39 389.67M249.39 389.67L248.38 388.96M248.38 388.96L247.21 388.56M247.21 388.56L245.98 388.49M245.98 388.49L244.77 388.76M244.77 388.76L243.69 389.34M243.69 389.34L242.8 390.2"
fill="none" stroke="black" stroke-width="2.5"/>
<path d="M242.19 397.51L242.02 400.43M242.02 400.43L242.24 403.34M242.24 403.34L242.82 406.19M242.82 406.19L243.76 408.96M243.76 408.96L245.05 411.57"
fill="none" stroke="black" stroke-width="2.5"/>
<path d="M249.98 397.92L249.83 400.21M249.83 400.21L250 402.5M250 402.5L250.49 404.75M250.49 404.75L251.29 406.91M251.29 406.91L252.39 408.93"
fill="none" stroke="black" stroke-width="2.5"/>
<path d="M242.8 390.2L242.43 393.85M242.43 393.85L242.19 397.51"
fill="none" stroke="black" stroke-width="2.5"/>
<path d="M245.05 411.57L247.25 416.99M247.25 416.99L249.8 422.25M249.8 422.25L252.68 427.34M252.68 427.34L255.89 432.22M255.89 432.22L259.42 436.89"
fill="none" stroke="black" stroke-width="2.5"/>
<path d="M270.84 426.23L273.66 429.02M273.66 429.02L276.69 431.57M276.69 431.57L279.92 433.86M279.92 433.86L283.33 435.89M283.33 435.89L286.89 437.64"
fill="none" stroke="black" stroke-width="2.5"/>
<path d="M274.67 422.65L277.49 425.44M277.49 425.44L280.52 427.99M280.52 427.99L283.75 430.29M283.75 430.29L287.16 432.32M287.16 432.32L290.72 434.06"
fill="none" stroke="black" stroke-width="2.5"/>
<path d="M260.56 409.43L262.06 413.1M262.06 413.1L263.85 416.64M263.85 416.64L265.91 420.02M265.91 420.02L268.25 423.22M268.25 423.22L270.84 426.23"
fill="none" stroke="black" stroke-width="2.5"/>
<path d="M268.81 427.41L269.17 427.79"
fill="none" stroke="black" stroke-width="2.5"/>
<path d="M269.17 427.79L269.52 428.17"
fill="none" stroke="black" stroke-width="2.5"/>
<path d="M264.39 405.85L265.89 409.52M265.89 409.52L267.68 413.06M267.68 413.06L269.74 416.44M269.74 416.44L272.08 419.65M272.08 419.65L274.67 422.65"
fill="none" stroke="black" stroke-width="2.5"/>
<path d="M272.64 423.83L273 424.21"
fill="none" stroke="black" stroke-width="2.5"/>
<path d="M273 424.21L273.35 424.6"
fill="none" stroke="black" stroke-width="2.5"/>
<path d="M255.57 405.69L257.67 410.35M257.67 410.35L260.05 414.87M260.05 414.87L262.7 419.23M262.7 419.23L265.63 423.41M265.63 423.41L268.81 427.41"
fill="none" stroke="black" stroke-width="2.5"/>
<path d="M259.4 402.12L261.5 406.77M261.5 406.77L263.88 411.29M263.88 411.29L266.53 415.65M266.53 415.65L269.46 419.84M269.46 419.84L272.64 423.83"
fill="none" stroke="black" stroke-width="2.5"/>
<path d="M269.52 428.17L273.29 431.62M273.29 431.62L277.26 434.83M277.26 434.83L281.43 437.78M281.43 437.78L285.77 440.46M285.77 440.46L290.28 442.87"
fill="none" stroke="black" stroke-width="2.5"/>
<path d="M273.35 424.6L277.12 428.04M277.12 428.04L281.09 431.25M281.09 431.25L285.26 434.2M285.26 434.2L289.6 436.89M289.6 436.89L294.11 439.3"
fill="none" stroke="black" stroke-width="2.5"/>
<path d="M258.95 400.78L259.4 402.12"
fill="none" stroke="black" stroke-width="2.5"/>
<path d="M254.19 401.23L254.83 403.48M254.83 403.48L255.57 405.69"
fill="none" stroke="black" stroke-width="2.5"/>
<path d="M256.79 400.99L258.63 405.23M258.63 405.23L260.56 409.43"
fill="none" stroke="black" stroke-width="2.5"/>
<path d="M261.83 400.51L264.39 405.85"
fill="none" stroke="black" stroke-width="2.5"/>
<path d="M294.11 439.3L295.4 439.85"
fill="none" stroke="black" stroke-width="2.5"/>
<path d="M290.28 442.87L292.43 443.76M292.43 443.76L294.63 444.55"
fill="none" stroke="black" stroke-width="2.5"/>
<path d="M290.72 434.06L295.87 436.99"
fill="none" stroke="black" stroke-width="2.5"/>
<path d="M286.89 437.64L290.95 439.86M290.95 439.86L295.05 441.98"
fill="none" stroke="black" stroke-width="2.5"/>
<path d="M520.11 419.85L523.71 416.24M523.71 416.24L527.06 412.39M527.06 412.39L530.13 408.32M530.13 408.32L532.92 404.04"
fill="none" stroke="black" stroke-width="2.5"/>
<path d="M532.92 404.04L533.86 402.41"
fill="none" stroke="black" stroke-width="2.5"/>
<path d="M464.38 423.77L495.84 435.01"
fill="none" stroke="black" stroke-width="2.5"/>
<path d="M498.71 434.15L495.84 435.01"
fill="none" stroke="black" stroke-width="2.5"/>
<path d="M501.29 432.81L498.71 434.15"
fill="none" stroke="black" stroke-width="2.5"/>
<path d="M464.38 423.77L436.72 405.76"
fill="none" stroke="black" stroke-width="2.5"/>
<path d="M502.98 431.98L507.44 429.5M507.44 429.5L511.71 426.72M511.71 426.72L515.78 423.64M515.78 423.64L519.63 420.29"
fill="none" stroke="black" stroke-width="2.5"/>
<path d="M501.29 432.81L502.98 431.98"
fill="none" stroke="black" stroke-width="2.5"/>
<path d="M527.38 364.97L509.03 332.03"
fill="none" stroke="black" stroke-width="2.5"/>
<path d="M535.38 399.93L536.43 397.13"
fill="none" stroke="black" stroke-width="2.5"/>
<path d="M527.38 364.97L536.43 397.13"
fill="none" stroke="black" stroke-width="2.5"/>
<path d="M533.86 402.41L535.38 399.93"
fill="none" stroke="black" stroke-width="2.5"/>
<path d="M476.2 338.72L436.74 378.19"
fill="none" stroke="black" stroke-width="2.5"/>
<path d="M496.95 329.79L492.54 330.89M492.54 330.89L488.23 332.34M488.23 332.34L484.05 334.13M484.05 334.13L480.03 336.27M480.03 336.27L476.2 338.72"
fill="none" stroke="black" stroke-width="2.5"/>
<path d="M509.03 332.03L508.3 331.32"
fill="none" stroke="black" stroke-width="2.5"/>
<path d="M533.86 402.41L550 405.06"
fill="none" stroke="black" stroke-width="2.5"/>
<path d="M538.07 439.57L541.91 435.16M541.91 435.16L545.45 430.51M545.45 430.51L548.68 425.64M548.68 425.64L551.59 420.56M551.59 420.56L554.15 415.31"
fill="none" stroke="black" stroke-width="2.5"/>
<path d="M532.07 433.14L535.58 429.35M535.58 429.35L538.84 425.33M538.84 425.33L541.84 421.12M541.84 421.12L544.57 416.72M544.57 416.72L547.01 412.16"
fill="none" stroke="black" stroke-width="2.5"/>
<path d="M557.98 401.48L557.99 397.81M557.99 397.81L557.87 394.14"
fill="none" stroke="black" stroke-width="2.5"/>
<path d="M550.17 401.35L550.13 398.24M550.13 398.24L549.91 395.15"
fill="none" stroke="black" stroke-width="2.5"/>
<path d="M536.43 397.13L550.15 398.84"
fill="none" stroke="black" stroke-width="2.5"/>
<path d="M554.15 415.31L555.62 412.79M555.62 412.79L556.75 410.1M556.75 410.1L557.52 407.29M557.52 407.29L557.94 404.4M557.94 404.4L557.98 401.48"
fill="none" stroke="black" stroke-width="2.5"/>
<path d="M547.01 412.16L548.24 410.22M548.24 410.22L549.19 408.13M549.19 408.13L549.83 405.92M549.83 405.92L550.16 403.65M550.16 403.65L550.17 401.35"
fill="none" stroke="black" stroke-width="2.5"/>
<path d="M557.87 394.14L557.04 393.22M557.04 393.22L556 392.57M556 392.57L554.81 392.22M554.81 392.22L553.58 392.2M553.58 392.2L552.39 392.53M552.39 392.53L551.33 393.16M551.33 393.16L550.48 394.05M550.48 394.05L549.91 395.15"
fill="none" stroke="black" stroke-width="2.5"/>
<path d="M510.11 446.6L514.83 444.48M514.83 444.48L519.4 442.07M519.4 442.07L523.81 439.36M523.81 439.36L528.04 436.38M528.04 436.38L532.07 433.14"
fill="none" stroke="black" stroke-width="2.5"/>
<path d="M495.84 435.01L496.6 448.82"
fill="none" stroke="black" stroke-width="2.5"/>
<path d="M492.93 448.32L496.01 448.76M496.01 448.76L499.1 449.01"
fill="none" stroke="black" stroke-width="2.5"/>
<path d="M501.29 432.81L502.82 449.09"
fill="none" stroke="black" stroke-width="2.5"/>
<path d="M492.93 448.32L491.81 448.82M491.81 448.82L490.85 449.6M490.85 449.6L490.15 450.62M490.15 450.62L489.75 451.78M489.75 451.78L489.68 453.01M489.68 453.01L489.94 454.22M489.94 454.22L490.52 455.3M490.52 455.3L491.38 456.19"
fill="none" stroke="black" stroke-width="2.5"/>
<path d="M498.7 456.81L501.61 456.97M501.61 456.97L504.52 456.75M504.52 456.75L507.38 456.17M507.38 456.17L510.14 455.23M510.14 455.23L512.76 453.95"
fill="none" stroke="black" stroke-width="2.5"/>
<path d="M499.1 449.01L501.4 449.16M501.4 449.16L503.69 448.99M503.69 448.99L505.94 448.5M505.94 448.5L508.09 447.7M508.09 447.7L510.11 446.6"
fill="none" stroke="black" stroke-width="2.5"/>
<path d="M491.38 456.19L495.03 456.57M495.03 456.57L498.7 456.81"
fill="none" stroke="black" stroke-width="2.5"/>
<path d="M512.76 453.95L518.18 451.75M518.18 451.75L523.44 449.2M523.44 449.2L528.52 446.31M528.52 446.31L533.41 443.1M533.41 443.1L538.07 439.57"
fill="none" stroke="black" stroke-width="2.5"/>
<path d="M527.41 428.15L530.2 425.33M530.2 425.33L532.75 422.3M532.75 422.3L535.05 419.07M535.05 419.07L537.08 415.66M537.08 415.66L538.82 412.1"
fill="none" stroke="black" stroke-width="2.5"/>
<path d="M523.84 424.32L526.63 421.5M526.63 421.5L529.18 418.47M529.18 418.47L531.47 415.24M531.47 415.24L533.5 411.83M533.5 411.83L535.25 408.27"
fill="none" stroke="black" stroke-width="2.5"/>
<path d="M510.61 438.43L514.28 436.93M514.28 436.93L517.82 435.15M517.82 435.15L521.2 433.08M521.2 433.08L524.41 430.74M524.41 430.74L527.41 428.15"
fill="none" stroke="black" stroke-width="2.5"/>
<path d="M528.59 430.18L528.97 429.82"
fill="none" stroke="black" stroke-width="2.5"/>
<path d="M528.97 429.82L529.35 429.47"
fill="none" stroke="black" stroke-width="2.5"/>
<path d="M507.04 434.6L510.71 433.1M510.71 433.1L514.25 431.32M514.25 431.32L517.63 429.25M517.63 429.25L520.83 426.91M520.83 426.91L523.84 424.32"
fill="none" stroke="black" stroke-width="2.5"/>
<path d="M525.02 426.35L525.4 425.99"
fill="none" stroke="black" stroke-width="2.5"/>
<path d="M525.4 425.99L525.78 425.64"
fill="none" stroke="black" stroke-width="2.5"/>
<path d="M506.88 443.42L511.53 441.32M511.53 441.32L516.05 438.95M516.05 438.95L520.41 436.29M520.41 436.29L524.6 433.36M524.6 433.36L528.59 430.18"
fill="none" stroke="black" stroke-width="2.5"/>
<path d="M503.3 439.59L507.96 437.49M507.96 437.49L512.48 435.12M512.48 435.12L516.84 432.46M516.84 432.46L521.02 429.53M521.02 429.53L525.02 426.35"
fill="none" stroke="black" stroke-width="2.5"/>
<path d="M529.35 429.47L532.8 425.7M532.8 425.7L536.01 421.73M536.01 421.73L538.96 417.56M538.96 417.56L541.65 413.22M541.65 413.22L544.05 408.72"
fill="none" stroke="black" stroke-width="2.5"/>
<path d="M525.78 425.64L529.23 421.87M529.23 421.87L532.44 417.9M532.44 417.9L535.39 413.73M535.39 413.73L538.07 409.39M538.07 409.39L540.48 404.89"
fill="none" stroke="black" stroke-width="2.5"/>
<path d="M501.97 440.05L503.3 439.59"
fill="none" stroke="black" stroke-width="2.5"/>
<path d="M502.41 444.8L504.66 444.16M504.66 444.16L506.88 443.42"
fill="none" stroke="black" stroke-width="2.5"/>
<path d="M502.17 442.2L506.41 440.37M506.41 440.37L510.61 438.43"
fill="none" stroke="black" stroke-width="2.5"/>
<path d="M501.7 437.16L507.04 434.6"
fill="none" stroke="black" stroke-width="2.5"/>
<path d="M540.48 404.89L541.03 403.59"
fill="none" stroke="black" stroke-width="2.5"/>
<path d="M544.05 408.72L544.95 406.56M544.95 406.56L545.74 404.36"
fill="none" stroke="black" stroke-width="2.5"/>
<path d="M535.25 408.27L538.17 403.12"
fill="none" stroke="black" stroke-width="2.5"/>
<path d="M538.82 412.1L541.04 408.04M541.04 408.04L543.17 403.94"
fill="none" stroke="black" stroke-width="2.5"/>
<path d="M436.74 378.19L434.95 381.55M434.95 381.55L433.41 385.04M433.41 385.04L432.1 388.61M432.1 388.61L431.04 392.27M431.04 392.27L430.23 396"
fill="none" stroke="black" stroke-width="2.5"/>
<path d="M360.27 375.02L320.8 335.55"
fill="none" stroke="black" stroke-width="2.5"/>
<path d="M521.03 178.88L517.42 175.28M517.42 175.28L513.57 171.93M513.57 171.93L509.5 168.86M509.5 168.86L505.23 166.08"
fill="none" stroke="black" stroke-width="2.5"/>
<path d="M505.23 166.08L503.6 165.13"
fill="none" stroke="black" stroke-width="2.5"/>
<path d="M524.96 234.61L536.19 203.15"
fill="none" stroke="black" stroke-width="2.5"/>
<path d="M535.34 200.28L536.19 203.15"
fill="none" stroke="black" stroke-width="2.5"/>
<path d="M534 197.7L535.34 200.28"
fill="none" stroke="black" stroke-width="2.5"/>
<path d="M524.96 234.61L506.95 262.27"
fill="none" stroke="black" stroke-width="2.5"/>
<path d="M533.17 196.01L530.69 191.56M530.69 191.56L527.9 187.28M527.9 187.28L524.83 183.21M524.83 183.21L521.48 179.36"
fill="none" stroke="black" stroke-width="2.5"/>
<path d="M534 197.7L533.17 196.01"
fill="none" stroke="black" stroke-width="2.5"/>
<path d="M466.15 171.61L433.21 189.96"
fill="none" stroke="black" stroke-width="2.5"/>
<path d="M501.11 163.62L498.31 162.56"
fill="none" stroke="black" stroke-width="2.5"/>
<path d="M466.15 171.61L498.31 162.56"
fill="none" stroke="black" stroke-width="2.5"/>
<path d="M503.6 165.13L501.11 163.62"
fill="none" stroke="black" stroke-width="2.5"/>
<path d="M439.91 222.79L479.37 262.26"
fill="none" stroke="black" stroke-width="2.5"/>
<path d="M430.98 202.04L432.07 206.46M432.07 206.46L433.52 210.77M433.52 210.77L435.32 214.94M435.32 214.94L437.45 218.96M437.45 218.96L439.91 222.79"
fill="none" stroke="black" stroke-width="2.5"/>
<path d="M433.21 189.96L432.51 190.69"
fill="none" stroke="black" stroke-width="2.5"/>
<path d="M503.6 165.13L506.24 148.99"
fill="none" stroke="black" stroke-width="2.5"/>
<path d="M540.76 160.92L536.35 157.08M536.35 157.08L531.69 153.54M531.69 153.54L526.82 150.31M526.82 150.31L521.75 147.41M521.75 147.41L516.5 144.84"
fill="none" stroke="black" stroke-width="2.5"/>
<path d="M534.33 166.92L530.53 163.41M530.53 163.41L526.52 160.15M526.52 160.15L522.3 157.15M522.3 157.15L517.91 154.42M517.91 154.42L513.35 151.98"
fill="none" stroke="black" stroke-width="2.5"/>
<path d="M502.67 141.02L498.99 141M498.99 141L495.32 141.12"
fill="none" stroke="black" stroke-width="2.5"/>
<path d="M502.53 148.82L499.43 148.86M499.43 148.86L496.33 149.08"
fill="none" stroke="black" stroke-width="2.5"/>
<path d="M498.31 162.56L500.03 148.84"
fill="none" stroke="black" stroke-width="2.5"/>
<path d="M516.5 144.84L513.97 143.37M513.97 143.37L511.28 142.25M511.28 142.25L508.47 141.47M508.47 141.47L505.58 141.06M505.58 141.06L502.67 141.02"
fill="none" stroke="black" stroke-width="2.5"/>
<path d="M513.35 151.98L511.41 150.75M511.41 150.75L509.31 149.8M509.31 149.8L507.11 149.16M507.11 149.16L504.83 148.83M504.83 148.83L502.53 148.82"
fill="none" stroke="black" stroke-width="2.5"/>
<path d="M495.32 141.12L494.41 141.95M494.41 141.95L493.75 143M493.75 143L493.4 144.18M493.4 144.18L493.39 145.41M493.39 145.41L493.71 146.6M493.71 146.6L494.34 147.66M494.34 147.66L495.24 148.51M495.24 148.51L496.33 149.08"
fill="none" stroke="black" stroke-width="2.5"/>
<path d="M547.79 188.88L545.67 184.16M545.67 184.16L543.25 179.59M543.25 179.59L540.55 175.18M540.55 175.18L537.57 170.95M537.57 170.95L534.33 166.92"
fill="none" stroke="black" stroke-width="2.5"/>
<path d="M536.19 203.15L550 202.39"
fill="none" stroke="black" stroke-width="2.5"/>
<path d="M549.51 206.06L549.94 202.98M549.94 202.98L550.19 199.89"
fill="none" stroke="black" stroke-width="2.5"/>
<path d="M534 197.7L550.28 196.17"
fill="none" stroke="black" stroke-width="2.5"/>
<path d="M549.51 206.06L550 207.19M550 207.19L550.79 208.14M550.79 208.14L551.8 208.84M551.8 208.84L552.97 209.24M552.97 209.24L554.2 209.32M554.2 209.32L555.4 209.05M555.4 209.05L556.49 208.47M556.49 208.47L557.38 207.61"
fill="none" stroke="black" stroke-width="2.5"/>
<path d="M557.99 200.29L558.15 197.38M558.15 197.38L557.94 194.47M557.94 194.47L557.36 191.61M557.36 191.61L556.42 188.85M556.42 188.85L555.13 186.23"
fill="none" stroke="black" stroke-width="2.5"/>
<path d="M550.19 199.89L550.35 197.6M550.35 197.6L550.18 195.3M550.18 195.3L549.68 193.06M549.68 193.06L548.88 190.9M548.88 190.9L547.79 188.88"
fill="none" stroke="black" stroke-width="2.5"/>
<path d="M557.38 207.61L557.75 203.96M557.75 203.96L557.99 200.29"
fill="none" stroke="black" stroke-width="2.5"/>
<path d="M555.13 186.23L552.93 180.82M552.93 180.82L550.38 175.55M550.38 175.55L547.49 170.47M547.49 170.47L544.28 165.59M544.28 165.59L540.76 160.92"
fill="none" stroke="black" stroke-width="2.5"/>
<path d="M529.34 171.58L526.52 168.79M526.52 168.79L523.48 166.24M523.48 166.24L520.25 163.94M520.25 163.94L516.84 161.91M516.84 161.91L513.28 160.17"
fill="none" stroke="black" stroke-width="2.5"/>
<path d="M525.51 175.16L522.69 172.37M522.69 172.37L519.65 169.81M519.65 169.81L516.42 167.52M516.42 167.52L513.01 165.49M513.01 165.49L509.45 163.75"
fill="none" stroke="black" stroke-width="2.5"/>
<path d="M539.61 188.38L538.12 184.71M538.12 184.71L536.33 181.17M536.33 181.17L534.26 177.79M534.26 177.79L531.92 174.58M531.92 174.58L529.34 171.58"
fill="none" stroke="black" stroke-width="2.5"/>
<path d="M531.37 170.4L531.01 170.02"
fill="none" stroke="black" stroke-width="2.5"/>
<path d="M531.01 170.02L530.66 169.64"
fill="none" stroke="black" stroke-width="2.5"/>
<path d="M535.78 191.96L534.29 188.28M534.29 188.28L532.5 184.74M532.5 184.74L530.43 181.36M530.43 181.36L528.09 178.16M528.09 178.16L525.51 175.16"
fill="none" stroke="black" stroke-width="2.5"/>
<path d="M527.54 173.97L527.18 173.59"
fill="none" stroke="black" stroke-width="2.5"/>
<path d="M527.18 173.59L526.83 173.21"
fill="none" stroke="black" stroke-width="2.5"/>
<path d="M544.6 192.12L542.51 187.46M542.51 187.46L540.13 182.94M540.13 182.94L537.47 178.58M537.47 178.58L534.55 174.39M534.55 174.39L531.37 170.4"
fill="none" stroke="black" stroke-width="2.5"/>
<path d="M540.77 195.69L538.68 191.03M538.68 191.03L536.3 186.51M536.3 186.51L533.64 182.15M533.64 182.15L530.72 177.97M530.72 177.97L527.54 173.97"
fill="none" stroke="black" stroke-width="2.5"/>
<path d="M530.66 169.64L526.89 166.19M526.89 166.19L522.92 162.98M522.92 162.98L518.75 160.03M518.75 160.03L514.4 157.34M514.4 157.34L509.9 154.94"
fill="none" stroke="black" stroke-width="2.5"/>
<path d="M526.83 173.21L523.06 169.76M523.06 169.76L519.09 166.56M519.09 166.56L514.92 163.6M514.92 163.6L510.57 160.92M510.57 160.92L506.07 158.51"
fill="none" stroke="black" stroke-width="2.5"/>
<path d="M541.23 197.02L540.77 195.69"
fill="none" stroke="black" stroke-width="2.5"/>
<path d="M545.98 196.58L545.34 194.33M545.34 194.33L544.6 192.12"
fill="none" stroke="black" stroke-width="2.5"/>
<path d="M543.39 196.82L541.55 192.58M541.55 192.58L539.61 188.38"
fill="none" stroke="black" stroke-width="2.5"/>
<path d="M538.35 197.29L535.78 191.96"
fill="none" stroke="black" stroke-width="2.5"/>
<path d="M506.07 158.51L504.77 157.96"
fill="none" stroke="black" stroke-width="2.5"/>
<path d="M509.9 154.94L507.74 154.04M507.74 154.04L505.55 153.25"
fill="none" stroke="black" stroke-width="2.5"/>
<path d="M509.45 163.75L504.3 160.82"
fill="none" stroke="black" stroke-width="2.5"/>
<path d="M513.28 160.17L509.23 157.95M509.23 157.95L505.12 155.82"
fill="none" stroke="black" stroke-width="2.5"/>
<path d="M479.37 262.26L482.74 264.04M482.74 264.04L486.22 265.59M486.22 265.59L489.8 266.89M489.8 266.89L493.46 267.95M493.46 267.95L497.18 268.76"
fill="none" stroke="black" stroke-width="2.5"/>
<path d="M363.44 219.62L365.22 216.25M365.22 216.25L366.77 212.77M366.77 212.77L368.08 209.19M368.08 209.19L369.14 205.53M369.14 205.53L369.94 201.81"
fill="none" stroke="black" stroke-width="2.5"/>
<path d="M261.36 185.71L259.13 189.76M259.13 189.76L257.01 193.87"
fill="none" stroke="black" stroke-width="2.5"/>
<path d="M264.93 189.54L262.01 194.69"
fill="none" stroke="black" stroke-width="2.5"/>
<path d="M256.12 189.09L255.23 191.25M255.23 191.25L254.44 193.45"
fill="none" stroke="black" stroke-width="2.5"/>
<path d="M259.7 192.92L259.15 194.22"
fill="none" stroke="black" stroke-width="2.5"/>
<path d="M298.48 160.64L293.14 163.21"
fill="none" stroke="black" stroke-width="2.5"/>
<path d="M298.01 155.6L293.76 157.44M293.76 157.44L289.57 159.38"
fill="none" stroke="black" stroke-width="2.5"/>
<path d="M297.76 153.01L295.52 153.65M295.52 153.65L293.3 154.39"
fill="none" stroke="black" stroke-width="2.5"/>
<path d="M298.21 157.76L296.88 158.22"
fill="none" stroke="black" stroke-width="2.5"/>
<path d="M274.4 172.17L270.95 175.93M270.95 175.93L267.74 179.91M267.74 179.91L264.79 184.07M264.79 184.07L262.1 188.42M262.1 188.42L259.7 192.92"
fill="none" stroke="black" stroke-width="2.5"/>
<path d="M270.82 168.34L267.37 172.1M267.37 172.1L264.17 176.08M264.17 176.08L261.21 180.24M261.21 180.24L258.53 184.59M258.53 184.59L256.12 189.09"
fill="none" stroke="black" stroke-width="2.5"/>
<path d="M296.88 158.22L292.22 160.31M292.22 160.31L287.7 162.69M287.7 162.69L283.34 165.35M283.34 165.35L279.15 168.27M279.15 168.27L275.16 171.46"
fill="none" stroke="black" stroke-width="2.5"/>
<path d="M293.3 154.39L288.64 156.48M288.64 156.48L284.12 158.86M284.12 158.86L279.76 161.52M279.76 161.52L275.58 164.44M275.58 164.44L271.58 167.63"
fill="none" stroke="black" stroke-width="2.5"/>
<path d="M274.78 171.81L274.4 172.17"
fill="none" stroke="black" stroke-width="2.5"/>
<path d="M275.16 171.46L274.78 171.81"
fill="none" stroke="black" stroke-width="2.5"/>
<path d="M293.14 163.21L289.47 164.7M289.47 164.7L285.93 166.49M285.93 166.49L282.55 168.56M282.55 168.56L279.34 170.9M279.34 170.9L276.34 173.49"
fill="none" stroke="black" stroke-width="2.5"/>
<path d="M271.2 167.98L270.82 168.34"
fill="none" stroke="black" stroke-width="2.5"/>
<path d="M271.58 167.63L271.2 167.98"
fill="none" stroke="black" stroke-width="2.5"/>
<path d="M289.57 159.38L285.89 160.87M285.89 160.87L282.35 162.66M282.35 162.66L278.97 164.73M278.97 164.73L275.77 167.07M275.77 167.07L272.77 169.66"
fill="none" stroke="black" stroke-width="2.5"/>
<path d="M276.34 173.49L273.55 176.3M273.55 176.3L271 179.34M271 179.34L268.7 182.57M268.7 182.57L266.67 185.98M266.67 185.98L264.93 189.54"
fill="none" stroke="black" stroke-width="2.5"/>
<path d="M272.77 169.66L269.98 172.47M269.98 172.47L267.42 175.51M267.42 175.51L265.13 178.74M265.13 178.74L263.1 182.15M263.1 182.15L261.36 185.71"
fill="none" stroke="black" stroke-width="2.5"/>
<path d="M287.42 143.86L282 146.06M282 146.06L276.74 148.61M276.74 148.61L271.66 151.5M271.66 151.5L266.77 154.71M266.77 154.71L262.11 158.23"
fill="none" stroke="black" stroke-width="2.5"/>
<path d="M308.8 141.61L305.14 141.24M305.14 141.24L301.48 141"
fill="none" stroke="black" stroke-width="2.5"/>
<path d="M301.07 148.8L298.78 148.65M298.78 148.65L296.49 148.82M296.49 148.82L294.24 149.31M294.24 149.31L292.09 150.11M292.09 150.11L290.07 151.21"
fill="none" stroke="black" stroke-width="2.5"/>
<path d="M301.48 141L298.57 140.84M298.57 140.84L295.66 141.05M295.66 141.05L292.8 141.63M292.8 141.63L290.04 142.57M290.04 142.57L287.42 143.86"
fill="none" stroke="black" stroke-width="2.5"/>
<path d="M307.24 149.48L308.37 148.99M308.37 148.99L309.32 148.2M309.32 148.2L310.03 147.19M310.03 147.19L310.43 146.02M310.43 146.02L310.5 144.79M310.5 144.79L310.23 143.59M310.23 143.59L309.65 142.5M309.65 142.5L308.8 141.61"
fill="none" stroke="black" stroke-width="2.5"/>
<path d="M298.89 165L297.36 148.71"
fill="none" stroke="black" stroke-width="2.5"/>
<path d="M307.24 149.48L304.17 149.05M304.17 149.05L301.07 148.8"
fill="none" stroke="black" stroke-width="2.5"/>
<path d="M304.34 162.8L303.57 148.99"
fill="none" stroke="black" stroke-width="2.5"/>
<path d="M290.07 151.21L285.35 153.32M285.35 153.32L280.77 155.74M280.77 155.74L276.37 158.44M276.37 158.44L272.14 161.42M272.14 161.42L268.11 164.67"
fill="none" stroke="black" stroke-width="2.5"/>
<path d="M242.31 203.67L243.14 204.58M243.14 204.58L244.18 205.24M244.18 205.24L245.36 205.59M245.36 205.59L246.6 205.6M246.6 205.6L247.79 205.28M247.79 205.28L248.85 204.65M248.85 204.65L249.69 203.75M249.69 203.75L250.27 202.66"
fill="none" stroke="black" stroke-width="2.5"/>
<path d="M253.17 185.64L251.94 187.58M251.94 187.58L250.99 189.68M250.99 189.68L250.34 191.89M250.34 191.89L250.01 194.16M250.01 194.16L250.01 196.46"
fill="none" stroke="black" stroke-width="2.5"/>
<path d="M246.02 182.5L244.56 185.02M244.56 185.02L243.43 187.71M243.43 187.71L242.65 190.52M242.65 190.52L242.24 193.41M242.24 193.41L242.2 196.33"
fill="none" stroke="black" stroke-width="2.5"/>
<path d="M263.75 200.68L250.02 198.96"
fill="none" stroke="black" stroke-width="2.5"/>
<path d="M250.01 196.46L250.05 199.56M250.05 199.56L250.27 202.66"
fill="none" stroke="black" stroke-width="2.5"/>
<path d="M242.2 196.33L242.19 200M242.19 200L242.31 203.67"
fill="none" stroke="black" stroke-width="2.5"/>
<path d="M268.11 164.67L264.6 168.46M264.6 168.46L261.33 172.47M261.33 172.47L258.33 176.69M258.33 176.69L255.61 181.08M255.61 181.08L253.17 185.64"
fill="none" stroke="black" stroke-width="2.5"/>
<path d="M262.11 158.23L258.27 162.64M258.27 162.64L254.73 167.3M254.73 167.3L251.5 172.17M251.5 172.17L248.59 177.24M248.59 177.24L246.02 182.5"
fill="none" stroke="black" stroke-width="2.5"/>
<path d="M266.32 195.39L250.18 192.75"
fill="none" stroke="black" stroke-width="2.5"/>
<path d="M291.14 265.78L291.88 266.49"
fill="none" stroke="black" stroke-width="2.5"/>
<path d="M303.23 268.02L307.64 266.92M307.64 266.92L311.95 265.47M311.95 265.47L316.13 263.67M316.13 263.67L320.14 261.54M320.14 261.54L323.97 259.09"
fill="none" stroke="black" stroke-width="2.5"/>
<path d="M323.97 259.09L363.44 219.62"
fill="none" stroke="black" stroke-width="2.5"/>
<path d="M266.32 195.39L264.8 197.88"
fill="none" stroke="black" stroke-width="2.5"/>
<path d="M272.79 232.84L263.75 200.68"
fill="none" stroke="black" stroke-width="2.5"/>
<path d="M264.8 197.88L263.75 200.68"
fill="none" stroke="black" stroke-width="2.5"/>
<path d="M272.79 232.84L291.14 265.78"
fill="none" stroke="black" stroke-width="2.5"/>
<path d="M298.89 165L297.2 165.82"
fill="none" stroke="black" stroke-width="2.5"/>
<path d="M297.2 165.82L292.74 168.31M292.74 168.31L288.47 171.09M288.47 171.09L284.4 174.16M284.4 174.16L280.55 177.51"
fill="none" stroke="black" stroke-width="2.5"/>
<path d="M335.8 174.04L363.45 192.04"
fill="none" stroke="black" stroke-width="2.5"/>
<path d="M298.89 165L301.47 163.65"
fill="none" stroke="black" stroke-width="2.5"/>
<path d="M301.47 163.65L304.34 162.8"
fill="none" stroke="black" stroke-width="2.5"/>
<path d="M335.8 174.04L304.34 162.8"
fill="none" stroke="black" stroke-width="2.5"/>
<path d="M267.26 193.77L266.32 195.39"
fill="none" stroke="black" stroke-width="2.5"/>
<path d="M280.07 177.96L276.46 181.57M276.46 181.57L273.12 185.42M273.12 185.42L270.04 189.49M270.04 189.49L267.26 193.77"
fill="none" stroke="black" stroke-width="2.5"/>
</svg>
